<?xml version="1.0" encoding="utf-8" standalone="no"?>
<!DOCTYPE svg PUBLIC "-//W3C//DTD SVG 1.1//EN"
  "http://www.w3.org/Graphics/SVG/1.1/DTD/svg11.dtd">
<!-- Created with matplotlib (https://matplotlib.org/) -->
<svg height="179.763514pt" version="1.1" viewBox="0 0 312.393975 179.763514" width="312.393975pt" xmlns="http://www.w3.org/2000/svg" xmlns:xlink="http://www.w3.org/1999/xlink">
 <metadata>
  <rdf:RDF xmlns:cc="http://creativecommons.org/ns#" xmlns:dc="http://purl.org/dc/elements/1.1/" xmlns:rdf="http://www.w3.org/1999/02/22-rdf-syntax-ns#">
   <cc:Work>
    <dc:type rdf:resource="http://purl.org/dc/dcmitype/StillImage"/>
    <dc:date>2020-12-10T14:38:17.078071</dc:date>
    <dc:format>image/svg+xml</dc:format>
    <dc:creator>
     <cc:Agent>
      <dc:title>Matplotlib v3.3.3, https://matplotlib.org/</dc:title>
     </cc:Agent>
    </dc:creator>
   </cc:Work>
  </rdf:RDF>
 </metadata>
 <defs>
  <style type="text/css">*{stroke-linecap:butt;stroke-linejoin:round;}</style>
 </defs>
 <g id="figure_1">
  <g id="patch_1">
   <path d="M -0 179.763514 
L 312.393975 179.763514 
L 312.393975 0 
L -0 0 
z
" style="fill:#ffffff;"/>
  </g>
  <g id="axes_1">
   <g id="patch_2">
    <path d="M 48.208125 122.966437 
L 196.816125 122.966437 
L 196.816125 20.798437 
L 48.208125 20.798437 
z
" style="fill:#ffffff;"/>
   </g>
   <g id="patch_3">
    <path clip-path="url(#p030959e560)" d="M 51.923325 122.966437 
L 59.353725 122.966437 
L 59.353725 86.58363 
L 51.923325 86.58363 
z
" style="fill:#bcbd22;"/>
   </g>
   <g id="patch_4">
    <path clip-path="url(#p030959e560)" d="M 66.784125 122.966437 
L 74.214525 122.966437 
L 74.214525 108.796118 
L 66.784125 108.796118 
z
" style="fill:#bcbd22;"/>
   </g>
   <g id="patch_5">
    <path clip-path="url(#p030959e560)" d="M 81.644925 122.966437 
L 89.075325 122.966437 
L 89.075325 90.856495 
L 81.644925 90.856495 
z
" style="fill:#bcbd22;"/>
   </g>
   <g id="patch_6">
    <path clip-path="url(#p030959e560)" d="M 96.505725 122.966437 
L 103.936125 122.966437 
L 103.936125 96.052881 
L 96.505725 96.052881 
z
" style="fill:#bcbd22;"/>
   </g>
   <g id="patch_7">
    <path clip-path="url(#p030959e560)" d="M 111.366525 122.966437 
L 118.796925 122.966437 
L 118.796925 105.858243 
L 111.366525 105.858243 
z
" style="fill:#bcbd22;"/>
   </g>
   <g id="patch_8">
    <path clip-path="url(#p030959e560)" d="M 126.227325 122.966437 
L 133.657725 122.966437 
L 133.657725 106.553907 
L 126.227325 106.553907 
z
" style="fill:#bcbd22;"/>
   </g>
   <g id="patch_9">
    <path clip-path="url(#p030959e560)" d="M 141.088125 122.966437 
L 148.518525 122.966437 
L 148.518525 114.120723 
L 141.088125 114.120723 
z
" style="fill:#bcbd22;"/>
   </g>
   <g id="patch_10">
    <path clip-path="url(#p030959e560)" d="M 155.948925 122.966437 
L 163.379325 122.966437 
L 163.379325 93.901948 
L 155.948925 93.901948 
z
" style="fill:#bcbd22;"/>
   </g>
   <g id="patch_11">
    <path clip-path="url(#p030959e560)" d="M 170.809725 122.966437 
L 178.240125 122.966437 
L 178.240125 103.761926 
L 170.809725 103.761926 
z
" style="fill:#bcbd22;"/>
   </g>
   <g id="patch_12">
    <path clip-path="url(#p030959e560)" d="M 185.670525 122.966437 
L 193.100925 122.966437 
L 193.100925 94.186719 
L 185.670525 94.186719 
z
" style="fill:#bcbd22;"/>
   </g>
   <g id="patch_13">
    <path clip-path="url(#p030959e560)" d="M 51.923325 86.58363 
L 59.353725 86.58363 
L 59.353725 73.891953 
L 51.923325 73.891953 
z
" style="fill:#d62728;"/>
   </g>
   <g id="patch_14">
    <path clip-path="url(#p030959e560)" d="M 66.784125 108.796118 
L 74.214525 108.796118 
L 74.214525 98.404551 
L 66.784125 98.404551 
z
" style="fill:#d62728;"/>
   </g>
   <g id="patch_15">
    <path clip-path="url(#p030959e560)" d="M 81.644925 90.856495 
L 89.075325 90.856495 
L 89.075325 80.15318 
L 81.644925 80.15318 
z
" style="fill:#d62728;"/>
   </g>
   <g id="patch_16">
    <path clip-path="url(#p030959e560)" d="M 96.505725 96.052881 
L 103.936125 96.052881 
L 103.936125 87.771787 
L 96.505725 87.771787 
z
" style="fill:#d62728;"/>
   </g>
   <g id="patch_17">
    <path clip-path="url(#p030959e560)" d="M 111.366525 105.858243 
L 118.796925 105.858243 
L 118.796925 86.611524 
L 111.366525 86.611524 
z
" style="fill:#d62728;"/>
   </g>
   <g id="patch_18">
    <path clip-path="url(#p030959e560)" d="M 126.227325 106.553907 
L 133.657725 106.553907 
L 133.657725 96.002995 
L 126.227325 96.002995 
z
" style="fill:#d62728;"/>
   </g>
   <g id="patch_19">
    <path clip-path="url(#p030959e560)" d="M 141.088125 114.120723 
L 148.518525 114.120723 
L 148.518525 104.011335 
L 141.088125 104.011335 
z
" style="fill:#d62728;"/>
   </g>
   <g id="patch_20">
    <path clip-path="url(#p030959e560)" d="M 155.948925 93.901948 
L 163.379325 93.901948 
L 163.379325 87.58358 
L 155.948925 87.58358 
z
" style="fill:#d62728;"/>
   </g>
   <g id="patch_21">
    <path clip-path="url(#p030959e560)" d="M 170.809725 103.761926 
L 178.240125 103.761926 
L 178.240125 92.239219 
L 170.809725 92.239219 
z
" style="fill:#d62728;"/>
   </g>
   <g id="patch_22">
    <path clip-path="url(#p030959e560)" d="M 185.670525 94.186719 
L 193.100925 94.186719 
L 193.100925 79.111629 
L 185.670525 79.111629 
z
" style="fill:#d62728;"/>
   </g>
   <g id="patch_23">
    <path clip-path="url(#p030959e560)" d="M 51.923325 73.891953 
L 59.353725 73.891953 
L 59.353725 65.430835 
L 51.923325 65.430835 
z
" style="fill:#7f7f7f;"/>
   </g>
   <g id="patch_24">
    <path clip-path="url(#p030959e560)" d="M 66.784125 98.404551 
L 74.214525 98.404551 
L 74.214525 90.847048 
L 66.784125 90.847048 
z
" style="fill:#7f7f7f;"/>
   </g>
   <g id="patch_25">
    <path clip-path="url(#p030959e560)" d="M 81.644925 80.15318 
L 89.075325 80.15318 
L 89.075325 72.368952 
L 81.644925 72.368952 
z
" style="fill:#7f7f7f;"/>
   </g>
   <g id="patch_26">
    <path clip-path="url(#p030959e560)" d="M 96.505725 87.771787 
L 103.936125 87.771787 
L 103.936125 73.279872 
L 96.505725 73.279872 
z
" style="fill:#7f7f7f;"/>
   </g>
   <g id="patch_27">
    <path clip-path="url(#p030959e560)" d="M 111.366525 86.611524 
L 118.796925 86.611524 
L 118.796925 72.711116 
L 111.366525 72.711116 
z
" style="fill:#7f7f7f;"/>
   </g>
   <g id="patch_28">
    <path clip-path="url(#p030959e560)" d="M 126.227325 96.002995 
L 133.657725 96.002995 
L 133.657725 81.935112 
L 126.227325 81.935112 
z
" style="fill:#7f7f7f;"/>
   </g>
   <g id="patch_29">
    <path clip-path="url(#p030959e560)" d="M 141.088125 104.011335 
L 148.518525 104.011335 
L 148.518525 97.692968 
L 141.088125 97.692968 
z
" style="fill:#7f7f7f;"/>
   </g>
   <g id="patch_30">
    <path clip-path="url(#p030959e560)" d="M 155.948925 87.58358 
L 163.379325 87.58358 
L 163.379325 61.046437 
L 155.948925 61.046437 
z
" style="fill:#7f7f7f;"/>
   </g>
   <g id="patch_31">
    <path clip-path="url(#p030959e560)" d="M 170.809725 92.239219 
L 178.240125 92.239219 
L 178.240125 88.398317 
L 170.809725 88.398317 
z
" style="fill:#7f7f7f;"/>
   </g>
   <g id="patch_32">
    <path clip-path="url(#p030959e560)" d="M 185.670525 79.111629 
L 193.100925 79.111629 
L 193.100925 76.370703 
L 185.670525 76.370703 
z
" style="fill:#7f7f7f;"/>
   </g>
   <g id="patch_33">
    <path clip-path="url(#p030959e560)" d="M 51.923325 65.430835 
L 59.353725 65.430835 
L 59.353725 57.815829 
L 51.923325 57.815829 
z
" style="fill:#1f77b4;"/>
   </g>
   <g id="patch_34">
    <path clip-path="url(#p030959e560)" d="M 66.784125 90.847048 
L 74.214525 90.847048 
L 74.214525 76.676729 
L 66.784125 76.676729 
z
" style="fill:#1f77b4;"/>
   </g>
   <g id="patch_35">
    <path clip-path="url(#p030959e560)" d="M 81.644925 72.368952 
L 89.075325 72.368952 
L 89.075325 61.665637 
L 81.644925 61.665637 
z
" style="fill:#1f77b4;"/>
   </g>
   <g id="patch_36">
    <path clip-path="url(#p030959e560)" d="M 96.505725 73.279872 
L 103.936125 73.279872 
L 103.936125 61.893368 
L 96.505725 61.893368 
z
" style="fill:#1f77b4;"/>
   </g>
   <g id="patch_37">
    <path clip-path="url(#p030959e560)" d="M 111.366525 72.711116 
L 118.796925 72.711116 
L 118.796925 65.226281 
L 111.366525 65.226281 
z
" style="fill:#1f77b4;"/>
   </g>
   <g id="patch_38">
    <path clip-path="url(#p030959e560)" d="M 126.227325 81.935112 
L 133.657725 81.935112 
L 133.657725 72.556524 
L 126.227325 72.556524 
z
" style="fill:#1f77b4;"/>
   </g>
   <g id="patch_39">
    <path clip-path="url(#p030959e560)" d="M 141.088125 97.692968 
L 148.518525 97.692968 
L 148.518525 85.056233 
L 141.088125 85.056233 
z
" style="fill:#1f77b4;"/>
   </g>
   <g id="patch_40">
    <path clip-path="url(#p030959e560)" d="M 155.948925 61.046437 
L 163.379325 61.046437 
L 163.379325 58.519091 
L 155.948925 58.519091 
z
" style="fill:#1f77b4;"/>
   </g>
   <g id="patch_41">
    <path clip-path="url(#p030959e560)" d="M 170.809725 88.398317 
L 178.240125 88.398317 
L 178.240125 76.87561 
L 170.809725 76.87561 
z
" style="fill:#1f77b4;"/>
   </g>
   <g id="patch_42">
    <path clip-path="url(#p030959e560)" d="M 185.670525 76.370703 
L 193.100925 76.370703 
L 193.100925 65.407001 
L 185.670525 65.407001 
z
" style="fill:#1f77b4;"/>
   </g>
   <g id="patch_43">
    <path clip-path="url(#p030959e560)" d="M 51.923325 57.815829 
L 59.353725 57.815829 
L 59.353725 49.354711 
L 51.923325 49.354711 
z
" style="fill:#8c564b;"/>
   </g>
   <g id="patch_44">
    <path clip-path="url(#p030959e560)" d="M 66.784125 76.676729 
L 74.214525 76.676729 
L 74.214525 68.174537 
L 66.784125 68.174537 
z
" style="fill:#8c564b;"/>
   </g>
   <g id="patch_45">
    <path clip-path="url(#p030959e560)" d="M 81.644925 61.665637 
L 89.075325 61.665637 
L 89.075325 52.90838 
L 81.644925 52.90838 
z
" style="fill:#8c564b;"/>
   </g>
   <g id="patch_46">
    <path clip-path="url(#p030959e560)" d="M 96.505725 61.893368 
L 103.936125 61.893368 
L 103.936125 55.682547 
L 96.505725 55.682547 
z
" style="fill:#8c564b;"/>
   </g>
   <g id="patch_47">
    <path clip-path="url(#p030959e560)" d="M 111.366525 65.226281 
L 118.796925 65.226281 
L 118.796925 55.602921 
L 111.366525 55.602921 
z
" style="fill:#8c564b;"/>
   </g>
   <g id="patch_48">
    <path clip-path="url(#p030959e560)" d="M 126.227325 72.556524 
L 133.657725 72.556524 
L 133.657725 63.177935 
L 126.227325 63.177935 
z
" style="fill:#8c564b;"/>
   </g>
   <g id="patch_49">
    <path clip-path="url(#p030959e560)" d="M 141.088125 85.056233 
L 148.518525 85.056233 
L 148.518525 72.419499 
L 141.088125 72.419499 
z
" style="fill:#8c564b;"/>
   </g>
   <g id="patch_50">
    <path clip-path="url(#p030959e560)" d="M 155.948925 58.519091 
L 163.379325 58.519091 
L 163.379325 54.72807 
L 155.948925 54.72807 
z
" style="fill:#8c564b;"/>
   </g>
   <g id="patch_51">
    <path clip-path="url(#p030959e560)" d="M 170.809725 76.87561 
L 178.240125 76.87561 
L 178.240125 58.9514 
L 170.809725 58.9514 
z
" style="fill:#8c564b;"/>
   </g>
   <g id="patch_52">
    <path clip-path="url(#p030959e560)" d="M 185.670525 65.407001 
L 193.100925 65.407001 
L 193.100925 55.813761 
L 185.670525 55.813761 
z
" style="fill:#8c564b;"/>
   </g>
   <g id="patch_53">
    <path clip-path="url(#p030959e560)" d="M 51.923325 49.354711 
L 59.353725 49.354711 
L 59.353725 40.893593 
L 51.923325 40.893593 
z
" style="fill:#17becf;"/>
   </g>
   <g id="patch_54">
    <path clip-path="url(#p030959e560)" d="M 66.784125 68.174537 
L 74.214525 68.174537 
L 74.214525 55.893594 
L 66.784125 55.893594 
z
" style="fill:#17becf;"/>
   </g>
   <g id="patch_55">
    <path clip-path="url(#p030959e560)" d="M 81.644925 52.90838 
L 89.075325 52.90838 
L 89.075325 46.09718 
L 81.644925 46.09718 
z
" style="fill:#17becf;"/>
   </g>
   <g id="patch_56">
    <path clip-path="url(#p030959e560)" d="M 96.505725 55.682547 
L 103.936125 55.682547 
L 103.936125 50.506863 
L 96.505725 50.506863 
z
" style="fill:#17becf;"/>
   </g>
   <g id="patch_57">
    <path clip-path="url(#p030959e560)" d="M 111.366525 55.602921 
L 118.796925 55.602921 
L 118.796925 42.771775 
L 111.366525 42.771775 
z
" style="fill:#17becf;"/>
   </g>
   <g id="patch_58">
    <path clip-path="url(#p030959e560)" d="M 126.227325 63.177935 
L 133.657725 63.177935 
L 133.657725 56.143993 
L 126.227325 56.143993 
z
" style="fill:#17becf;"/>
   </g>
   <g id="patch_59">
    <path clip-path="url(#p030959e560)" d="M 141.088125 72.419499 
L 148.518525 72.419499 
L 148.518525 67.364805 
L 141.088125 67.364805 
z
" style="fill:#17becf;"/>
   </g>
   <g id="patch_60">
    <path clip-path="url(#p030959e560)" d="M 155.948925 54.72807 
L 163.379325 54.72807 
L 163.379325 44.618682 
L 155.948925 44.618682 
z
" style="fill:#17becf;"/>
   </g>
   <g id="patch_61">
    <path clip-path="url(#p030959e560)" d="M 170.809725 58.9514 
L 178.240125 58.9514 
L 178.240125 39.746889 
L 170.809725 39.746889 
z
" style="fill:#17becf;"/>
   </g>
   <g id="patch_62">
    <path clip-path="url(#p030959e560)" d="M 185.670525 55.813761 
L 193.100925 55.813761 
L 193.100925 44.850059 
L 185.670525 44.850059 
z
" style="fill:#17becf;"/>
   </g>
   <g id="patch_63">
    <path clip-path="url(#p030959e560)" d="M 51.923325 40.893593 
L 59.353725 40.893593 
L 59.353725 33.278587 
L 51.923325 33.278587 
z
" style="fill:#e377c2;"/>
   </g>
   <g id="patch_64">
    <path clip-path="url(#p030959e560)" d="M 66.784125 55.893594 
L 74.214525 55.893594 
L 74.214525 51.170155 
L 66.784125 51.170155 
z
" style="fill:#e377c2;"/>
   </g>
   <g id="patch_65">
    <path clip-path="url(#p030959e560)" d="M 81.644925 46.09718 
L 89.075325 46.09718 
L 89.075325 39.28598 
L 81.644925 39.28598 
z
" style="fill:#e377c2;"/>
   </g>
   <g id="patch_66">
    <path clip-path="url(#p030959e560)" d="M 96.505725 50.506863 
L 103.936125 50.506863 
L 103.936125 42.225769 
L 96.505725 42.225769 
z
" style="fill:#e377c2;"/>
   </g>
   <g id="patch_67">
    <path clip-path="url(#p030959e560)" d="M 111.366525 42.771775 
L 118.796925 42.771775 
L 118.796925 36.356202 
L 111.366525 36.356202 
z
" style="fill:#e377c2;"/>
   </g>
   <g id="patch_68">
    <path clip-path="url(#p030959e560)" d="M 126.227325 56.143993 
L 133.657725 56.143993 
L 133.657725 37.386816 
L 126.227325 37.386816 
z
" style="fill:#e377c2;"/>
   </g>
   <g id="patch_69">
    <path clip-path="url(#p030959e560)" d="M 141.088125 67.364805 
L 148.518525 67.364805 
L 148.518525 58.519091 
L 141.088125 58.519091 
z
" style="fill:#e377c2;"/>
   </g>
   <g id="patch_70">
    <path clip-path="url(#p030959e560)" d="M 155.948925 44.618682 
L 163.379325 44.618682 
L 163.379325 30.718274 
L 155.948925 30.718274 
z
" style="fill:#e377c2;"/>
   </g>
   <g id="patch_71">
    <path clip-path="url(#p030959e560)" d="M 170.809725 39.746889 
L 178.240125 39.746889 
L 178.240125 37.186287 
L 170.809725 37.186287 
z
" style="fill:#e377c2;"/>
   </g>
   <g id="patch_72">
    <path clip-path="url(#p030959e560)" d="M 185.670525 44.850059 
L 193.100925 44.850059 
L 193.100925 36.627283 
L 185.670525 36.627283 
z
" style="fill:#e377c2;"/>
   </g>
   <g id="patch_73">
    <path clip-path="url(#p030959e560)" d="M 51.923325 33.278587 
L 59.353725 33.278587 
L 59.353725 30.740251 
L 51.923325 30.740251 
z
" style="fill:#9467bd;"/>
   </g>
   <g id="patch_74">
    <path clip-path="url(#p030959e560)" d="M 66.784125 51.170155 
L 74.214525 51.170155 
L 74.214525 45.502027 
L 66.784125 45.502027 
z
" style="fill:#9467bd;"/>
   </g>
   <g id="patch_75">
    <path clip-path="url(#p030959e560)" d="M 81.644925 39.28598 
L 89.075325 39.28598 
L 89.075325 32.47478 
L 81.644925 32.47478 
z
" style="fill:#9467bd;"/>
   </g>
   <g id="patch_76">
    <path clip-path="url(#p030959e560)" d="M 96.505725 42.225769 
L 103.936125 42.225769 
L 103.936125 34.979811 
L 96.505725 34.979811 
z
" style="fill:#9467bd;"/>
   </g>
   <g id="patch_77">
    <path clip-path="url(#p030959e560)" d="M 111.366525 36.356202 
L 118.796925 36.356202 
L 118.796925 28.871367 
L 111.366525 28.871367 
z
" style="fill:#9467bd;"/>
   </g>
   <g id="patch_78">
    <path clip-path="url(#p030959e560)" d="M 126.227325 37.386816 
L 133.657725 37.386816 
L 133.657725 29.180551 
L 126.227325 29.180551 
z
" style="fill:#9467bd;"/>
   </g>
   <g id="patch_79">
    <path clip-path="url(#p030959e560)" d="M 141.088125 58.519091 
L 148.518525 58.519091 
L 148.518525 40.827662 
L 141.088125 40.827662 
z
" style="fill:#9467bd;"/>
   </g>
   <g id="patch_80">
    <path clip-path="url(#p030959e560)" d="M 155.948925 30.718274 
L 163.379325 30.718274 
L 163.379325 25.66358 
L 155.948925 25.66358 
z
" style="fill:#9467bd;"/>
   </g>
   <g id="patch_81">
    <path clip-path="url(#p030959e560)" d="M 170.809725 37.186287 
L 178.240125 37.186287 
L 178.240125 34.625686 
L 170.809725 34.625686 
z
" style="fill:#9467bd;"/>
   </g>
   <g id="patch_82">
    <path clip-path="url(#p030959e560)" d="M 185.670525 36.627283 
L 193.100925 36.627283 
L 193.100925 33.886357 
L 185.670525 33.886357 
z
" style="fill:#9467bd;"/>
   </g>
   <g id="patch_83">
    <path clip-path="url(#p030959e560)" d="M 51.923325 30.740251 
L 59.353725 30.740251 
L 59.353725 28.201916 
L 51.923325 28.201916 
z
" style="fill:#ff7f0e;"/>
   </g>
   <g id="patch_84">
    <path clip-path="url(#p030959e560)" d="M 66.784125 45.502027 
L 74.214525 45.502027 
L 74.214525 34.165772 
L 66.784125 34.165772 
z
" style="fill:#ff7f0e;"/>
   </g>
   <g id="patch_85">
    <path clip-path="url(#p030959e560)" d="M 81.644925 32.47478 
L 89.075325 32.47478 
L 89.075325 31.501752 
L 81.644925 31.501752 
z
" style="fill:#ff7f0e;"/>
   </g>
   <g id="patch_86">
    <path clip-path="url(#p030959e560)" d="M 96.505725 34.979811 
L 103.936125 34.979811 
L 103.936125 29.804127 
L 96.505725 29.804127 
z
" style="fill:#ff7f0e;"/>
   </g>
   <g id="patch_87">
    <path clip-path="url(#p030959e560)" d="M 111.366525 28.871367 
L 118.796925 28.871367 
L 118.796925 25.66358 
L 111.366525 25.66358 
z
" style="fill:#ff7f0e;"/>
   </g>
   <g id="patch_88">
    <path clip-path="url(#p030959e560)" d="M 126.227325 29.180551 
L 133.657725 29.180551 
L 133.657725 25.66358 
L 126.227325 25.66358 
z
" style="fill:#ff7f0e;"/>
   </g>
   <g id="patch_89">
    <path clip-path="url(#p030959e560)" d="M 141.088125 40.827662 
L 148.518525 40.827662 
L 148.518525 33.245621 
L 141.088125 33.245621 
z
" style="fill:#ff7f0e;"/>
   </g>
   <g id="patch_90">
    <path clip-path="url(#p030959e560)" d="M 155.948925 122.966437 
L 163.379325 122.966437 
L 163.379325 122.966437 
L 155.948925 122.966437 
z
" style="fill:#ff7f0e;"/>
   </g>
   <g id="patch_91">
    <path clip-path="url(#p030959e560)" d="M 170.809725 34.625686 
L 178.240125 34.625686 
L 178.240125 29.504483 
L 170.809725 29.504483 
z
" style="fill:#ff7f0e;"/>
   </g>
   <g id="patch_92">
    <path clip-path="url(#p030959e560)" d="M 185.670525 33.886357 
L 193.100925 33.886357 
L 193.100925 28.404506 
L 185.670525 28.404506 
z
" style="fill:#ff7f0e;"/>
   </g>
   <g id="patch_93">
    <path clip-path="url(#p030959e560)" d="M 51.923325 28.201916 
L 59.353725 28.201916 
L 59.353725 25.66358 
L 51.923325 25.66358 
z
" style="fill:#2ca02c;"/>
   </g>
   <g id="patch_94">
    <path clip-path="url(#p030959e560)" d="M 66.784125 34.165772 
L 74.214525 34.165772 
L 74.214525 25.66358 
L 66.784125 25.66358 
z
" style="fill:#2ca02c;"/>
   </g>
   <g id="patch_95">
    <path clip-path="url(#p030959e560)" d="M 81.644925 31.501752 
L 89.075325 31.501752 
L 89.075325 25.66358 
L 81.644925 25.66358 
z
" style="fill:#2ca02c;"/>
   </g>
   <g id="patch_96">
    <path clip-path="url(#p030959e560)" d="M 96.505725 29.804127 
L 103.936125 29.804127 
L 103.936125 25.66358 
L 96.505725 25.66358 
z
" style="fill:#2ca02c;"/>
   </g>
   <g id="patch_97">
    <path clip-path="url(#p030959e560)" d="M 111.366525 122.966437 
L 118.796925 122.966437 
L 118.796925 122.966437 
L 111.366525 122.966437 
z
" style="fill:#2ca02c;"/>
   </g>
   <g id="patch_98">
    <path clip-path="url(#p030959e560)" d="M 126.227325 122.966437 
L 133.657725 122.966437 
L 133.657725 122.966437 
L 126.227325 122.966437 
z
" style="fill:#2ca02c;"/>
   </g>
   <g id="patch_99">
    <path clip-path="url(#p030959e560)" d="M 141.088125 33.245621 
L 148.518525 33.245621 
L 148.518525 25.66358 
L 141.088125 25.66358 
z
" style="fill:#2ca02c;"/>
   </g>
   <g id="patch_100">
    <path clip-path="url(#p030959e560)" d="M 155.948925 122.966437 
L 163.379325 122.966437 
L 163.379325 122.966437 
L 155.948925 122.966437 
z
" style="fill:#2ca02c;"/>
   </g>
   <g id="patch_101">
    <path clip-path="url(#p030959e560)" d="M 170.809725 29.504483 
L 178.240125 29.504483 
L 178.240125 25.66358 
L 170.809725 25.66358 
z
" style="fill:#2ca02c;"/>
   </g>
   <g id="patch_102">
    <path clip-path="url(#p030959e560)" d="M 185.670525 28.404506 
L 193.100925 28.404506 
L 193.100925 25.66358 
L 185.670525 25.66358 
z
" style="fill:#2ca02c;"/>
   </g>
   <g id="matplotlib.axis_1">
    <g id="xtick_1">
     <g id="line2d_1"/>
     <g id="text_1">
      <!-- TRAV21 -->
      <g transform="translate(28.185029 147.100789)rotate(-30)scale(0.08 -0.08)">
       <defs>
        <path d="M -0.296875 72.90625 
L 61.375 72.90625 
L 61.375 64.59375 
L 35.5 64.59375 
L 35.5 0 
L 25.59375 0 
L 25.59375 64.59375 
L -0.296875 64.59375 
z
" id="DejaVuSans-84"/>
        <path d="M 44.390625 34.1875 
Q 47.5625 33.109375 50.5625 29.59375 
Q 53.5625 26.078125 56.59375 19.921875 
L 66.609375 0 
L 56 0 
L 46.6875 18.703125 
Q 43.0625 26.03125 39.671875 28.421875 
Q 36.28125 30.8125 30.421875 30.8125 
L 19.671875 30.8125 
L 19.671875 0 
L 9.8125 0 
L 9.8125 72.90625 
L 32.078125 72.90625 
Q 44.578125 72.90625 50.734375 67.671875 
Q 56.890625 62.453125 56.890625 51.90625 
Q 56.890625 45.015625 53.6875 40.46875 
Q 50.484375 35.9375 44.390625 34.1875 
z
M 19.671875 64.796875 
L 19.671875 38.921875 
L 32.078125 38.921875 
Q 39.203125 38.921875 42.84375 42.21875 
Q 46.484375 45.515625 46.484375 51.90625 
Q 46.484375 58.296875 42.84375 61.546875 
Q 39.203125 64.796875 32.078125 64.796875 
z
" id="DejaVuSans-82"/>
        <path d="M 34.1875 63.1875 
L 20.796875 26.90625 
L 47.609375 26.90625 
z
M 28.609375 72.90625 
L 39.796875 72.90625 
L 67.578125 0 
L 57.328125 0 
L 50.6875 18.703125 
L 17.828125 18.703125 
L 11.1875 0 
L 0.78125 0 
z
" id="DejaVuSans-65"/>
        <path d="M 28.609375 0 
L 0.78125 72.90625 
L 11.078125 72.90625 
L 34.1875 11.53125 
L 57.328125 72.90625 
L 67.578125 72.90625 
L 39.796875 0 
z
" id="DejaVuSans-86"/>
        <path d="M 19.1875 8.296875 
L 53.609375 8.296875 
L 53.609375 0 
L 7.328125 0 
L 7.328125 8.296875 
Q 12.9375 14.109375 22.625 23.890625 
Q 32.328125 33.6875 34.8125 36.53125 
Q 39.546875 41.84375 41.421875 45.53125 
Q 43.3125 49.21875 43.3125 52.78125 
Q 43.3125 58.59375 39.234375 62.25 
Q 35.15625 65.921875 28.609375 65.921875 
Q 23.96875 65.921875 18.8125 64.3125 
Q 13.671875 62.703125 7.8125 59.421875 
L 7.8125 69.390625 
Q 13.765625 71.78125 18.9375 73 
Q 24.125 74.21875 28.421875 74.21875 
Q 39.75 74.21875 46.484375 68.546875 
Q 53.21875 62.890625 53.21875 53.421875 
Q 53.21875 48.921875 51.53125 44.890625 
Q 49.859375 40.875 45.40625 35.40625 
Q 44.1875 33.984375 37.640625 27.21875 
Q 31.109375 20.453125 19.1875 8.296875 
z
" id="DejaVuSans-50"/>
        <path d="M 12.40625 8.296875 
L 28.515625 8.296875 
L 28.515625 63.921875 
L 10.984375 60.40625 
L 10.984375 69.390625 
L 28.421875 72.90625 
L 38.28125 72.90625 
L 38.28125 8.296875 
L 54.390625 8.296875 
L 54.390625 0 
L 12.40625 0 
z
" id="DejaVuSans-49"/>
       </defs>
       <use xlink:href="#DejaVuSans-84"/>
       <use x="61.083984" xlink:href="#DejaVuSans-82"/>
       <use x="126.566406" xlink:href="#DejaVuSans-65"/>
       <use x="188.599609" xlink:href="#DejaVuSans-86"/>
       <use x="257.007812" xlink:href="#DejaVuSans-50"/>
       <use x="320.630859" xlink:href="#DejaVuSans-49"/>
      </g>
     </g>
    </g>
    <g id="xtick_2">
     <g id="line2d_2"/>
     <g id="text_2">
      <!-- TRAV13-1 -->
      <g transform="translate(36.138194 151.088914)rotate(-30)scale(0.08 -0.08)">
       <defs>
        <path d="M 40.578125 39.3125 
Q 47.65625 37.796875 51.625 33 
Q 55.609375 28.21875 55.609375 21.1875 
Q 55.609375 10.40625 48.1875 4.484375 
Q 40.765625 -1.421875 27.09375 -1.421875 
Q 22.515625 -1.421875 17.65625 -0.515625 
Q 12.796875 0.390625 7.625 2.203125 
L 7.625 11.71875 
Q 11.71875 9.328125 16.59375 8.109375 
Q 21.484375 6.890625 26.8125 6.890625 
Q 36.078125 6.890625 40.9375 10.546875 
Q 45.796875 14.203125 45.796875 21.1875 
Q 45.796875 27.640625 41.28125 31.265625 
Q 36.765625 34.90625 28.71875 34.90625 
L 20.21875 34.90625 
L 20.21875 43.015625 
L 29.109375 43.015625 
Q 36.375 43.015625 40.234375 45.921875 
Q 44.09375 48.828125 44.09375 54.296875 
Q 44.09375 59.90625 40.109375 62.90625 
Q 36.140625 65.921875 28.71875 65.921875 
Q 24.65625 65.921875 20.015625 65.03125 
Q 15.375 64.15625 9.8125 62.3125 
L 9.8125 71.09375 
Q 15.4375 72.65625 20.34375 73.4375 
Q 25.25 74.21875 29.59375 74.21875 
Q 40.828125 74.21875 47.359375 69.109375 
Q 53.90625 64.015625 53.90625 55.328125 
Q 53.90625 49.265625 50.4375 45.09375 
Q 46.96875 40.921875 40.578125 39.3125 
z
" id="DejaVuSans-51"/>
        <path d="M 4.890625 31.390625 
L 31.203125 31.390625 
L 31.203125 23.390625 
L 4.890625 23.390625 
z
" id="DejaVuSans-45"/>
       </defs>
       <use xlink:href="#DejaVuSans-84"/>
       <use x="61.083984" xlink:href="#DejaVuSans-82"/>
       <use x="126.566406" xlink:href="#DejaVuSans-65"/>
       <use x="188.599609" xlink:href="#DejaVuSans-86"/>
       <use x="257.007812" xlink:href="#DejaVuSans-49"/>
       <use x="320.630859" xlink:href="#DejaVuSans-51"/>
       <use x="384.253906" xlink:href="#DejaVuSans-45"/>
       <use x="420.337891" xlink:href="#DejaVuSans-49"/>
      </g>
     </g>
    </g>
    <g id="xtick_3">
     <g id="line2d_3"/>
     <g id="text_3">
      <!-- TRAV12-2 -->
      <g transform="translate(50.998994 151.088914)rotate(-30)scale(0.08 -0.08)">
       <use xlink:href="#DejaVuSans-84"/>
       <use x="61.083984" xlink:href="#DejaVuSans-82"/>
       <use x="126.566406" xlink:href="#DejaVuSans-65"/>
       <use x="188.599609" xlink:href="#DejaVuSans-86"/>
       <use x="257.007812" xlink:href="#DejaVuSans-49"/>
       <use x="320.630859" xlink:href="#DejaVuSans-50"/>
       <use x="384.253906" xlink:href="#DejaVuSans-45"/>
       <use x="420.337891" xlink:href="#DejaVuSans-50"/>
      </g>
     </g>
    </g>
    <g id="xtick_4">
     <g id="line2d_4"/>
     <g id="text_4">
      <!-- TRAV38-2DV8 -->
      <g transform="translate(51.498928 159.380164)rotate(-30)scale(0.08 -0.08)">
       <defs>
        <path d="M 31.78125 34.625 
Q 24.75 34.625 20.71875 30.859375 
Q 16.703125 27.09375 16.703125 20.515625 
Q 16.703125 13.921875 20.71875 10.15625 
Q 24.75 6.390625 31.78125 6.390625 
Q 38.8125 6.390625 42.859375 10.171875 
Q 46.921875 13.96875 46.921875 20.515625 
Q 46.921875 27.09375 42.890625 30.859375 
Q 38.875 34.625 31.78125 34.625 
z
M 21.921875 38.8125 
Q 15.578125 40.375 12.03125 44.71875 
Q 8.5 49.078125 8.5 55.328125 
Q 8.5 64.0625 14.71875 69.140625 
Q 20.953125 74.21875 31.78125 74.21875 
Q 42.671875 74.21875 48.875 69.140625 
Q 55.078125 64.0625 55.078125 55.328125 
Q 55.078125 49.078125 51.53125 44.71875 
Q 48 40.375 41.703125 38.8125 
Q 48.828125 37.15625 52.796875 32.3125 
Q 56.78125 27.484375 56.78125 20.515625 
Q 56.78125 9.90625 50.3125 4.234375 
Q 43.84375 -1.421875 31.78125 -1.421875 
Q 19.734375 -1.421875 13.25 4.234375 
Q 6.78125 9.90625 6.78125 20.515625 
Q 6.78125 27.484375 10.78125 32.3125 
Q 14.796875 37.15625 21.921875 38.8125 
z
M 18.3125 54.390625 
Q 18.3125 48.734375 21.84375 45.5625 
Q 25.390625 42.390625 31.78125 42.390625 
Q 38.140625 42.390625 41.71875 45.5625 
Q 45.3125 48.734375 45.3125 54.390625 
Q 45.3125 60.0625 41.71875 63.234375 
Q 38.140625 66.40625 31.78125 66.40625 
Q 25.390625 66.40625 21.84375 63.234375 
Q 18.3125 60.0625 18.3125 54.390625 
z
" id="DejaVuSans-56"/>
        <path d="M 19.671875 64.796875 
L 19.671875 8.109375 
L 31.59375 8.109375 
Q 46.6875 8.109375 53.6875 14.9375 
Q 60.6875 21.78125 60.6875 36.53125 
Q 60.6875 51.171875 53.6875 57.984375 
Q 46.6875 64.796875 31.59375 64.796875 
z
M 9.8125 72.90625 
L 30.078125 72.90625 
Q 51.265625 72.90625 61.171875 64.09375 
Q 71.09375 55.28125 71.09375 36.53125 
Q 71.09375 17.671875 61.125 8.828125 
Q 51.171875 0 30.078125 0 
L 9.8125 0 
z
" id="DejaVuSans-68"/>
       </defs>
       <use xlink:href="#DejaVuSans-84"/>
       <use x="61.083984" xlink:href="#DejaVuSans-82"/>
       <use x="126.566406" xlink:href="#DejaVuSans-65"/>
       <use x="188.599609" xlink:href="#DejaVuSans-86"/>
       <use x="257.007812" xlink:href="#DejaVuSans-51"/>
       <use x="320.630859" xlink:href="#DejaVuSans-56"/>
       <use x="384.253906" xlink:href="#DejaVuSans-45"/>
       <use x="420.337891" xlink:href="#DejaVuSans-50"/>
       <use x="483.960938" xlink:href="#DejaVuSans-68"/>
       <use x="559.212891" xlink:href="#DejaVuSans-86"/>
       <use x="627.621094" xlink:href="#DejaVuSans-56"/>
      </g>
     </g>
    </g>
    <g id="xtick_5">
     <g id="line2d_5"/>
     <g id="text_5">
      <!-- TRAV29DV5 -->
      <g transform="translate(73.267363 155.392039)rotate(-30)scale(0.08 -0.08)">
       <defs>
        <path d="M 10.984375 1.515625 
L 10.984375 10.5 
Q 14.703125 8.734375 18.5 7.8125 
Q 22.3125 6.890625 25.984375 6.890625 
Q 35.75 6.890625 40.890625 13.453125 
Q 46.046875 20.015625 46.78125 33.40625 
Q 43.953125 29.203125 39.59375 26.953125 
Q 35.25 24.703125 29.984375 24.703125 
Q 19.046875 24.703125 12.671875 31.3125 
Q 6.296875 37.9375 6.296875 49.421875 
Q 6.296875 60.640625 12.9375 67.421875 
Q 19.578125 74.21875 30.609375 74.21875 
Q 43.265625 74.21875 49.921875 64.515625 
Q 56.59375 54.828125 56.59375 36.375 
Q 56.59375 19.140625 48.40625 8.859375 
Q 40.234375 -1.421875 26.421875 -1.421875 
Q 22.703125 -1.421875 18.890625 -0.6875 
Q 15.09375 0.046875 10.984375 1.515625 
z
M 30.609375 32.421875 
Q 37.25 32.421875 41.125 36.953125 
Q 45.015625 41.5 45.015625 49.421875 
Q 45.015625 57.28125 41.125 61.84375 
Q 37.25 66.40625 30.609375 66.40625 
Q 23.96875 66.40625 20.09375 61.84375 
Q 16.21875 57.28125 16.21875 49.421875 
Q 16.21875 41.5 20.09375 36.953125 
Q 23.96875 32.421875 30.609375 32.421875 
z
" id="DejaVuSans-57"/>
        <path d="M 10.796875 72.90625 
L 49.515625 72.90625 
L 49.515625 64.59375 
L 19.828125 64.59375 
L 19.828125 46.734375 
Q 21.96875 47.46875 24.109375 47.828125 
Q 26.265625 48.1875 28.421875 48.1875 
Q 40.625 48.1875 47.75 41.5 
Q 54.890625 34.8125 54.890625 23.390625 
Q 54.890625 11.625 47.5625 5.09375 
Q 40.234375 -1.421875 26.90625 -1.421875 
Q 22.3125 -1.421875 17.546875 -0.640625 
Q 12.796875 0.140625 7.71875 1.703125 
L 7.71875 11.625 
Q 12.109375 9.234375 16.796875 8.0625 
Q 21.484375 6.890625 26.703125 6.890625 
Q 35.15625 6.890625 40.078125 11.328125 
Q 45.015625 15.765625 45.015625 23.390625 
Q 45.015625 31 40.078125 35.4375 
Q 35.15625 39.890625 26.703125 39.890625 
Q 22.75 39.890625 18.8125 39.015625 
Q 14.890625 38.140625 10.796875 36.28125 
z
" id="DejaVuSans-53"/>
       </defs>
       <use xlink:href="#DejaVuSans-84"/>
       <use x="61.083984" xlink:href="#DejaVuSans-82"/>
       <use x="126.566406" xlink:href="#DejaVuSans-65"/>
       <use x="188.599609" xlink:href="#DejaVuSans-86"/>
       <use x="257.007812" xlink:href="#DejaVuSans-50"/>
       <use x="320.630859" xlink:href="#DejaVuSans-57"/>
       <use x="384.253906" xlink:href="#DejaVuSans-68"/>
       <use x="459.505859" xlink:href="#DejaVuSans-86"/>
       <use x="527.914062" xlink:href="#DejaVuSans-53"/>
      </g>
     </g>
    </g>
    <g id="xtick_6">
     <g id="line2d_6"/>
     <g id="text_6">
      <!-- TRAV17 -->
      <g transform="translate(102.489029 147.100789)rotate(-30)scale(0.08 -0.08)">
       <defs>
        <path d="M 8.203125 72.90625 
L 55.078125 72.90625 
L 55.078125 68.703125 
L 28.609375 0 
L 18.3125 0 
L 43.21875 64.59375 
L 8.203125 64.59375 
z
" id="DejaVuSans-55"/>
       </defs>
       <use xlink:href="#DejaVuSans-84"/>
       <use x="61.083984" xlink:href="#DejaVuSans-82"/>
       <use x="126.566406" xlink:href="#DejaVuSans-65"/>
       <use x="188.599609" xlink:href="#DejaVuSans-86"/>
       <use x="257.007812" xlink:href="#DejaVuSans-49"/>
       <use x="320.630859" xlink:href="#DejaVuSans-55"/>
      </g>
     </g>
    </g>
    <g id="xtick_7">
     <g id="line2d_7"/>
     <g id="text_7">
      <!-- TRAV9-2 -->
      <g transform="translate(114.850263 148.543914)rotate(-30)scale(0.08 -0.08)">
       <use xlink:href="#DejaVuSans-84"/>
       <use x="61.083984" xlink:href="#DejaVuSans-82"/>
       <use x="126.566406" xlink:href="#DejaVuSans-65"/>
       <use x="188.599609" xlink:href="#DejaVuSans-86"/>
       <use x="257.007812" xlink:href="#DejaVuSans-57"/>
       <use x="320.630859" xlink:href="#DejaVuSans-45"/>
       <use x="356.714844" xlink:href="#DejaVuSans-50"/>
      </g>
     </g>
    </g>
    <g id="xtick_8">
     <g id="line2d_8"/>
     <g id="text_8">
      <!-- TRAV14DV4 -->
      <g transform="translate(117.849763 155.392039)rotate(-30)scale(0.08 -0.08)">
       <defs>
        <path d="M 37.796875 64.3125 
L 12.890625 25.390625 
L 37.796875 25.390625 
z
M 35.203125 72.90625 
L 47.609375 72.90625 
L 47.609375 25.390625 
L 58.015625 25.390625 
L 58.015625 17.1875 
L 47.609375 17.1875 
L 47.609375 0 
L 37.796875 0 
L 37.796875 17.1875 
L 4.890625 17.1875 
L 4.890625 26.703125 
z
" id="DejaVuSans-52"/>
       </defs>
       <use xlink:href="#DejaVuSans-84"/>
       <use x="61.083984" xlink:href="#DejaVuSans-82"/>
       <use x="126.566406" xlink:href="#DejaVuSans-65"/>
       <use x="188.599609" xlink:href="#DejaVuSans-86"/>
       <use x="257.007812" xlink:href="#DejaVuSans-49"/>
       <use x="320.630859" xlink:href="#DejaVuSans-52"/>
       <use x="384.253906" xlink:href="#DejaVuSans-68"/>
       <use x="459.505859" xlink:href="#DejaVuSans-86"/>
       <use x="527.914062" xlink:href="#DejaVuSans-52"/>
      </g>
     </g>
    </g>
    <g id="xtick_9">
     <g id="line2d_9"/>
     <g id="text_9">
      <!-- TRAV8-4 -->
      <g transform="translate(144.571863 148.543914)rotate(-30)scale(0.08 -0.08)">
       <use xlink:href="#DejaVuSans-84"/>
       <use x="61.083984" xlink:href="#DejaVuSans-82"/>
       <use x="126.566406" xlink:href="#DejaVuSans-65"/>
       <use x="188.599609" xlink:href="#DejaVuSans-86"/>
       <use x="257.007812" xlink:href="#DejaVuSans-56"/>
       <use x="320.630859" xlink:href="#DejaVuSans-45"/>
       <use x="356.714844" xlink:href="#DejaVuSans-52"/>
      </g>
     </g>
    </g>
    <g id="xtick_10">
     <g id="line2d_10"/>
     <g id="text_10">
      <!-- TRAV12-1 -->
      <g transform="translate(155.024594 151.088914)rotate(-30)scale(0.08 -0.08)">
       <use xlink:href="#DejaVuSans-84"/>
       <use x="61.083984" xlink:href="#DejaVuSans-82"/>
       <use x="126.566406" xlink:href="#DejaVuSans-65"/>
       <use x="188.599609" xlink:href="#DejaVuSans-86"/>
       <use x="257.007812" xlink:href="#DejaVuSans-49"/>
       <use x="320.630859" xlink:href="#DejaVuSans-50"/>
       <use x="384.253906" xlink:href="#DejaVuSans-45"/>
       <use x="420.337891" xlink:href="#DejaVuSans-49"/>
      </g>
     </g>
    </g>
    <g id="text_11">
     <!-- IR_VJ_1_v_gene -->
     <g transform="translate(91.727125 170.677264)scale(0.08 -0.08)">
      <defs>
       <path d="M 9.8125 72.90625 
L 19.671875 72.90625 
L 19.671875 0 
L 9.8125 0 
z
" id="DejaVuSans-73"/>
       <path d="M 50.984375 -16.609375 
L 50.984375 -23.578125 
L -0.984375 -23.578125 
L -0.984375 -16.609375 
z
" id="DejaVuSans-95"/>
       <path d="M 9.8125 72.90625 
L 19.671875 72.90625 
L 19.671875 5.078125 
Q 19.671875 -8.109375 14.671875 -14.0625 
Q 9.671875 -20.015625 -1.421875 -20.015625 
L -5.171875 -20.015625 
L -5.171875 -11.71875 
L -2.09375 -11.71875 
Q 4.4375 -11.71875 7.125 -8.046875 
Q 9.8125 -4.390625 9.8125 5.078125 
z
" id="DejaVuSans-74"/>
       <path d="M 2.984375 54.6875 
L 12.5 54.6875 
L 29.59375 8.796875 
L 46.6875 54.6875 
L 56.203125 54.6875 
L 35.6875 0 
L 23.484375 0 
z
" id="DejaVuSans-118"/>
       <path d="M 45.40625 27.984375 
Q 45.40625 37.75 41.375 43.109375 
Q 37.359375 48.484375 30.078125 48.484375 
Q 22.859375 48.484375 18.828125 43.109375 
Q 14.796875 37.75 14.796875 27.984375 
Q 14.796875 18.265625 18.828125 12.890625 
Q 22.859375 7.515625 30.078125 7.515625 
Q 37.359375 7.515625 41.375 12.890625 
Q 45.40625 18.265625 45.40625 27.984375 
z
M 54.390625 6.78125 
Q 54.390625 -7.171875 48.1875 -13.984375 
Q 42 -20.796875 29.203125 -20.796875 
Q 24.46875 -20.796875 20.265625 -20.09375 
Q 16.0625 -19.390625 12.109375 -17.921875 
L 12.109375 -9.1875 
Q 16.0625 -11.328125 19.921875 -12.34375 
Q 23.78125 -13.375 27.78125 -13.375 
Q 36.625 -13.375 41.015625 -8.765625 
Q 45.40625 -4.15625 45.40625 5.171875 
L 45.40625 9.625 
Q 42.625 4.78125 38.28125 2.390625 
Q 33.9375 0 27.875 0 
Q 17.828125 0 11.671875 7.65625 
Q 5.515625 15.328125 5.515625 27.984375 
Q 5.515625 40.671875 11.671875 48.328125 
Q 17.828125 56 27.875 56 
Q 33.9375 56 38.28125 53.609375 
Q 42.625 51.21875 45.40625 46.390625 
L 45.40625 54.6875 
L 54.390625 54.6875 
z
" id="DejaVuSans-103"/>
       <path d="M 56.203125 29.59375 
L 56.203125 25.203125 
L 14.890625 25.203125 
Q 15.484375 15.921875 20.484375 11.0625 
Q 25.484375 6.203125 34.421875 6.203125 
Q 39.59375 6.203125 44.453125 7.46875 
Q 49.3125 8.734375 54.109375 11.28125 
L 54.109375 2.78125 
Q 49.265625 0.734375 44.1875 -0.34375 
Q 39.109375 -1.421875 33.890625 -1.421875 
Q 20.796875 -1.421875 13.15625 6.1875 
Q 5.515625 13.8125 5.515625 26.8125 
Q 5.515625 40.234375 12.765625 48.109375 
Q 20.015625 56 32.328125 56 
Q 43.359375 56 49.78125 48.890625 
Q 56.203125 41.796875 56.203125 29.59375 
z
M 47.21875 32.234375 
Q 47.125 39.59375 43.09375 43.984375 
Q 39.0625 48.390625 32.421875 48.390625 
Q 24.90625 48.390625 20.390625 44.140625 
Q 15.875 39.890625 15.1875 32.171875 
z
" id="DejaVuSans-101"/>
       <path d="M 54.890625 33.015625 
L 54.890625 0 
L 45.90625 0 
L 45.90625 32.71875 
Q 45.90625 40.484375 42.875 44.328125 
Q 39.84375 48.1875 33.796875 48.1875 
Q 26.515625 48.1875 22.3125 43.546875 
Q 18.109375 38.921875 18.109375 30.90625 
L 18.109375 0 
L 9.078125 0 
L 9.078125 54.6875 
L 18.109375 54.6875 
L 18.109375 46.1875 
Q 21.34375 51.125 25.703125 53.5625 
Q 30.078125 56 35.796875 56 
Q 45.21875 56 50.046875 50.171875 
Q 54.890625 44.34375 54.890625 33.015625 
z
" id="DejaVuSans-110"/>
      </defs>
      <use xlink:href="#DejaVuSans-73"/>
      <use x="29.492188" xlink:href="#DejaVuSans-82"/>
      <use x="98.974609" xlink:href="#DejaVuSans-95"/>
      <use x="148.974609" xlink:href="#DejaVuSans-86"/>
      <use x="217.382812" xlink:href="#DejaVuSans-74"/>
      <use x="246.875" xlink:href="#DejaVuSans-95"/>
      <use x="296.875" xlink:href="#DejaVuSans-49"/>
      <use x="360.498047" xlink:href="#DejaVuSans-95"/>
      <use x="410.498047" xlink:href="#DejaVuSans-118"/>
      <use x="469.677734" xlink:href="#DejaVuSans-95"/>
      <use x="519.677734" xlink:href="#DejaVuSans-103"/>
      <use x="583.154297" xlink:href="#DejaVuSans-101"/>
      <use x="644.677734" xlink:href="#DejaVuSans-110"/>
      <use x="708.056641" xlink:href="#DejaVuSans-101"/>
     </g>
    </g>
   </g>
   <g id="matplotlib.axis_2">
    <g id="ytick_1">
     <g id="line2d_11">
      <defs>
       <path d="M 0 0 
L -3.5 0 
" id="m5107a3f4bf" style="stroke:#000000;stroke-width:0.8;"/>
      </defs>
      <g>
       <use style="stroke:#000000;stroke-width:0.8;" x="48.208125" xlink:href="#m5107a3f4bf" y="122.966437"/>
      </g>
     </g>
     <g id="text_12">
      <!-- 0.00 -->
      <g transform="translate(18.9425 126.765656)scale(0.1 -0.1)">
       <defs>
        <path d="M 31.78125 66.40625 
Q 24.171875 66.40625 20.328125 58.90625 
Q 16.5 51.421875 16.5 36.375 
Q 16.5 21.390625 20.328125 13.890625 
Q 24.171875 6.390625 31.78125 6.390625 
Q 39.453125 6.390625 43.28125 13.890625 
Q 47.125 21.390625 47.125 36.375 
Q 47.125 51.421875 43.28125 58.90625 
Q 39.453125 66.40625 31.78125 66.40625 
z
M 31.78125 74.21875 
Q 44.046875 74.21875 50.515625 64.515625 
Q 56.984375 54.828125 56.984375 36.375 
Q 56.984375 17.96875 50.515625 8.265625 
Q 44.046875 -1.421875 31.78125 -1.421875 
Q 19.53125 -1.421875 13.0625 8.265625 
Q 6.59375 17.96875 6.59375 36.375 
Q 6.59375 54.828125 13.0625 64.515625 
Q 19.53125 74.21875 31.78125 74.21875 
z
" id="DejaVuSans-48"/>
        <path d="M 10.6875 12.40625 
L 21 12.40625 
L 21 0 
L 10.6875 0 
z
" id="DejaVuSans-46"/>
       </defs>
       <use xlink:href="#DejaVuSans-48"/>
       <use x="63.623047" xlink:href="#DejaVuSans-46"/>
       <use x="95.410156" xlink:href="#DejaVuSans-48"/>
       <use x="159.033203" xlink:href="#DejaVuSans-48"/>
      </g>
     </g>
    </g>
    <g id="ytick_2">
     <g id="line2d_12">
      <g>
       <use style="stroke:#000000;stroke-width:0.8;" x="48.208125" xlink:href="#m5107a3f4bf" y="98.640723"/>
      </g>
     </g>
     <g id="text_13">
      <!-- 0.25 -->
      <g transform="translate(18.9425 102.439942)scale(0.1 -0.1)">
       <use xlink:href="#DejaVuSans-48"/>
       <use x="63.623047" xlink:href="#DejaVuSans-46"/>
       <use x="95.410156" xlink:href="#DejaVuSans-50"/>
       <use x="159.033203" xlink:href="#DejaVuSans-53"/>
      </g>
     </g>
    </g>
    <g id="ytick_3">
     <g id="line2d_13">
      <g>
       <use style="stroke:#000000;stroke-width:0.8;" x="48.208125" xlink:href="#m5107a3f4bf" y="74.315009"/>
      </g>
     </g>
     <g id="text_14">
      <!-- 0.50 -->
      <g transform="translate(18.9425 78.114228)scale(0.1 -0.1)">
       <use xlink:href="#DejaVuSans-48"/>
       <use x="63.623047" xlink:href="#DejaVuSans-46"/>
       <use x="95.410156" xlink:href="#DejaVuSans-53"/>
       <use x="159.033203" xlink:href="#DejaVuSans-48"/>
      </g>
     </g>
    </g>
    <g id="ytick_4">
     <g id="line2d_14">
      <g>
       <use style="stroke:#000000;stroke-width:0.8;" x="48.208125" xlink:href="#m5107a3f4bf" y="49.989295"/>
      </g>
     </g>
     <g id="text_15">
      <!-- 0.75 -->
      <g transform="translate(18.9425 53.788513)scale(0.1 -0.1)">
       <use xlink:href="#DejaVuSans-48"/>
       <use x="63.623047" xlink:href="#DejaVuSans-46"/>
       <use x="95.410156" xlink:href="#DejaVuSans-55"/>
       <use x="159.033203" xlink:href="#DejaVuSans-53"/>
      </g>
     </g>
    </g>
    <g id="ytick_5">
     <g id="line2d_15">
      <g>
       <use style="stroke:#000000;stroke-width:0.8;" x="48.208125" xlink:href="#m5107a3f4bf" y="25.66358"/>
      </g>
     </g>
     <g id="text_16">
      <!-- 1.00 -->
      <g transform="translate(18.9425 29.462799)scale(0.1 -0.1)">
       <use xlink:href="#DejaVuSans-49"/>
       <use x="63.623047" xlink:href="#DejaVuSans-46"/>
       <use x="95.410156" xlink:href="#DejaVuSans-48"/>
       <use x="159.033203" xlink:href="#DejaVuSans-48"/>
      </g>
     </g>
    </g>
    <g id="text_17">
     <!-- Fraction of cells in cluster -->
     <g transform="translate(13.27875 123.006812)rotate(-90)scale(0.08 -0.08)">
      <defs>
       <path d="M 9.8125 72.90625 
L 51.703125 72.90625 
L 51.703125 64.59375 
L 19.671875 64.59375 
L 19.671875 43.109375 
L 48.578125 43.109375 
L 48.578125 34.8125 
L 19.671875 34.8125 
L 19.671875 0 
L 9.8125 0 
z
" id="DejaVuSans-70"/>
       <path d="M 41.109375 46.296875 
Q 39.59375 47.171875 37.8125 47.578125 
Q 36.03125 48 33.890625 48 
Q 26.265625 48 22.1875 43.046875 
Q 18.109375 38.09375 18.109375 28.8125 
L 18.109375 0 
L 9.078125 0 
L 9.078125 54.6875 
L 18.109375 54.6875 
L 18.109375 46.1875 
Q 20.953125 51.171875 25.484375 53.578125 
Q 30.03125 56 36.53125 56 
Q 37.453125 56 38.578125 55.875 
Q 39.703125 55.765625 41.0625 55.515625 
z
" id="DejaVuSans-114"/>
       <path d="M 34.28125 27.484375 
Q 23.390625 27.484375 19.1875 25 
Q 14.984375 22.515625 14.984375 16.5 
Q 14.984375 11.71875 18.140625 8.90625 
Q 21.296875 6.109375 26.703125 6.109375 
Q 34.1875 6.109375 38.703125 11.40625 
Q 43.21875 16.703125 43.21875 25.484375 
L 43.21875 27.484375 
z
M 52.203125 31.203125 
L 52.203125 0 
L 43.21875 0 
L 43.21875 8.296875 
Q 40.140625 3.328125 35.546875 0.953125 
Q 30.953125 -1.421875 24.3125 -1.421875 
Q 15.921875 -1.421875 10.953125 3.296875 
Q 6 8.015625 6 15.921875 
Q 6 25.140625 12.171875 29.828125 
Q 18.359375 34.515625 30.609375 34.515625 
L 43.21875 34.515625 
L 43.21875 35.40625 
Q 43.21875 41.609375 39.140625 45 
Q 35.0625 48.390625 27.6875 48.390625 
Q 23 48.390625 18.546875 47.265625 
Q 14.109375 46.140625 10.015625 43.890625 
L 10.015625 52.203125 
Q 14.9375 54.109375 19.578125 55.046875 
Q 24.21875 56 28.609375 56 
Q 40.484375 56 46.34375 49.84375 
Q 52.203125 43.703125 52.203125 31.203125 
z
" id="DejaVuSans-97"/>
       <path d="M 48.78125 52.59375 
L 48.78125 44.1875 
Q 44.96875 46.296875 41.140625 47.34375 
Q 37.3125 48.390625 33.40625 48.390625 
Q 24.65625 48.390625 19.8125 42.84375 
Q 14.984375 37.3125 14.984375 27.296875 
Q 14.984375 17.28125 19.8125 11.734375 
Q 24.65625 6.203125 33.40625 6.203125 
Q 37.3125 6.203125 41.140625 7.25 
Q 44.96875 8.296875 48.78125 10.40625 
L 48.78125 2.09375 
Q 45.015625 0.34375 40.984375 -0.53125 
Q 36.96875 -1.421875 32.421875 -1.421875 
Q 20.0625 -1.421875 12.78125 6.34375 
Q 5.515625 14.109375 5.515625 27.296875 
Q 5.515625 40.671875 12.859375 48.328125 
Q 20.21875 56 33.015625 56 
Q 37.15625 56 41.109375 55.140625 
Q 45.0625 54.296875 48.78125 52.59375 
z
" id="DejaVuSans-99"/>
       <path d="M 18.3125 70.21875 
L 18.3125 54.6875 
L 36.8125 54.6875 
L 36.8125 47.703125 
L 18.3125 47.703125 
L 18.3125 18.015625 
Q 18.3125 11.328125 20.140625 9.421875 
Q 21.96875 7.515625 27.59375 7.515625 
L 36.8125 7.515625 
L 36.8125 0 
L 27.59375 0 
Q 17.1875 0 13.234375 3.875 
Q 9.28125 7.765625 9.28125 18.015625 
L 9.28125 47.703125 
L 2.6875 47.703125 
L 2.6875 54.6875 
L 9.28125 54.6875 
L 9.28125 70.21875 
z
" id="DejaVuSans-116"/>
       <path d="M 9.421875 54.6875 
L 18.40625 54.6875 
L 18.40625 0 
L 9.421875 0 
z
M 9.421875 75.984375 
L 18.40625 75.984375 
L 18.40625 64.59375 
L 9.421875 64.59375 
z
" id="DejaVuSans-105"/>
       <path d="M 30.609375 48.390625 
Q 23.390625 48.390625 19.1875 42.75 
Q 14.984375 37.109375 14.984375 27.296875 
Q 14.984375 17.484375 19.15625 11.84375 
Q 23.34375 6.203125 30.609375 6.203125 
Q 37.796875 6.203125 41.984375 11.859375 
Q 46.1875 17.53125 46.1875 27.296875 
Q 46.1875 37.015625 41.984375 42.703125 
Q 37.796875 48.390625 30.609375 48.390625 
z
M 30.609375 56 
Q 42.328125 56 49.015625 48.375 
Q 55.71875 40.765625 55.71875 27.296875 
Q 55.71875 13.875 49.015625 6.21875 
Q 42.328125 -1.421875 30.609375 -1.421875 
Q 18.84375 -1.421875 12.171875 6.21875 
Q 5.515625 13.875 5.515625 27.296875 
Q 5.515625 40.765625 12.171875 48.375 
Q 18.84375 56 30.609375 56 
z
" id="DejaVuSans-111"/>
       <path id="DejaVuSans-32"/>
       <path d="M 37.109375 75.984375 
L 37.109375 68.5 
L 28.515625 68.5 
Q 23.6875 68.5 21.796875 66.546875 
Q 19.921875 64.59375 19.921875 59.515625 
L 19.921875 54.6875 
L 34.71875 54.6875 
L 34.71875 47.703125 
L 19.921875 47.703125 
L 19.921875 0 
L 10.890625 0 
L 10.890625 47.703125 
L 2.296875 47.703125 
L 2.296875 54.6875 
L 10.890625 54.6875 
L 10.890625 58.5 
Q 10.890625 67.625 15.140625 71.796875 
Q 19.390625 75.984375 28.609375 75.984375 
z
" id="DejaVuSans-102"/>
       <path d="M 9.421875 75.984375 
L 18.40625 75.984375 
L 18.40625 0 
L 9.421875 0 
z
" id="DejaVuSans-108"/>
       <path d="M 44.28125 53.078125 
L 44.28125 44.578125 
Q 40.484375 46.53125 36.375 47.5 
Q 32.28125 48.484375 27.875 48.484375 
Q 21.1875 48.484375 17.84375 46.4375 
Q 14.5 44.390625 14.5 40.28125 
Q 14.5 37.15625 16.890625 35.375 
Q 19.28125 33.59375 26.515625 31.984375 
L 29.59375 31.296875 
Q 39.15625 29.25 43.1875 25.515625 
Q 47.21875 21.78125 47.21875 15.09375 
Q 47.21875 7.46875 41.1875 3.015625 
Q 35.15625 -1.421875 24.609375 -1.421875 
Q 20.21875 -1.421875 15.453125 -0.5625 
Q 10.6875 0.296875 5.421875 2 
L 5.421875 11.28125 
Q 10.40625 8.6875 15.234375 7.390625 
Q 20.0625 6.109375 24.8125 6.109375 
Q 31.15625 6.109375 34.5625 8.28125 
Q 37.984375 10.453125 37.984375 14.40625 
Q 37.984375 18.0625 35.515625 20.015625 
Q 33.0625 21.96875 24.703125 23.78125 
L 21.578125 24.515625 
Q 13.234375 26.265625 9.515625 29.90625 
Q 5.8125 33.546875 5.8125 39.890625 
Q 5.8125 47.609375 11.28125 51.796875 
Q 16.75 56 26.8125 56 
Q 31.78125 56 36.171875 55.265625 
Q 40.578125 54.546875 44.28125 53.078125 
z
" id="DejaVuSans-115"/>
       <path d="M 8.5 21.578125 
L 8.5 54.6875 
L 17.484375 54.6875 
L 17.484375 21.921875 
Q 17.484375 14.15625 20.5 10.265625 
Q 23.53125 6.390625 29.59375 6.390625 
Q 36.859375 6.390625 41.078125 11.03125 
Q 45.3125 15.671875 45.3125 23.6875 
L 45.3125 54.6875 
L 54.296875 54.6875 
L 54.296875 0 
L 45.3125 0 
L 45.3125 8.40625 
Q 42.046875 3.421875 37.71875 1 
Q 33.40625 -1.421875 27.6875 -1.421875 
Q 18.265625 -1.421875 13.375 4.4375 
Q 8.5 10.296875 8.5 21.578125 
z
M 31.109375 56 
z
" id="DejaVuSans-117"/>
      </defs>
      <use xlink:href="#DejaVuSans-70"/>
      <use x="50.269531" xlink:href="#DejaVuSans-114"/>
      <use x="91.382812" xlink:href="#DejaVuSans-97"/>
      <use x="152.662109" xlink:href="#DejaVuSans-99"/>
      <use x="207.642578" xlink:href="#DejaVuSans-116"/>
      <use x="246.851562" xlink:href="#DejaVuSans-105"/>
      <use x="274.634766" xlink:href="#DejaVuSans-111"/>
      <use x="335.816406" xlink:href="#DejaVuSans-110"/>
      <use x="399.195312" xlink:href="#DejaVuSans-32"/>
      <use x="430.982422" xlink:href="#DejaVuSans-111"/>
      <use x="492.164062" xlink:href="#DejaVuSans-102"/>
      <use x="527.369141" xlink:href="#DejaVuSans-32"/>
      <use x="559.15625" xlink:href="#DejaVuSans-99"/>
      <use x="614.136719" xlink:href="#DejaVuSans-101"/>
      <use x="675.660156" xlink:href="#DejaVuSans-108"/>
      <use x="703.443359" xlink:href="#DejaVuSans-108"/>
      <use x="731.226562" xlink:href="#DejaVuSans-115"/>
      <use x="783.326172" xlink:href="#DejaVuSans-32"/>
      <use x="815.113281" xlink:href="#DejaVuSans-105"/>
      <use x="842.896484" xlink:href="#DejaVuSans-110"/>
      <use x="906.275391" xlink:href="#DejaVuSans-32"/>
      <use x="938.0625" xlink:href="#DejaVuSans-99"/>
      <use x="993.042969" xlink:href="#DejaVuSans-108"/>
      <use x="1020.826172" xlink:href="#DejaVuSans-117"/>
      <use x="1084.205078" xlink:href="#DejaVuSans-115"/>
      <use x="1136.304688" xlink:href="#DejaVuSans-116"/>
      <use x="1175.513672" xlink:href="#DejaVuSans-101"/>
      <use x="1237.037109" xlink:href="#DejaVuSans-114"/>
     </g>
    </g>
   </g>
   <g id="patch_103">
    <path d="M 48.208125 122.966437 
L 48.208125 20.798437 
" style="fill:none;stroke:#000000;stroke-linecap:square;stroke-linejoin:miter;stroke-width:0.8;"/>
   </g>
   <g id="patch_104">
    <path d="M 48.208125 122.966437 
L 196.816125 122.966437 
" style="fill:none;stroke:#000000;stroke-linecap:square;stroke-linejoin:miter;stroke-width:0.8;"/>
   </g>
   <g id="text_18">
    <!-- Fraction of cluster in each IR_VJ_1_v_gene -->
    <g transform="translate(17.686344 14.798437)scale(0.1 -0.1)">
     <defs>
      <path d="M 54.890625 33.015625 
L 54.890625 0 
L 45.90625 0 
L 45.90625 32.71875 
Q 45.90625 40.484375 42.875 44.328125 
Q 39.84375 48.1875 33.796875 48.1875 
Q 26.515625 48.1875 22.3125 43.546875 
Q 18.109375 38.921875 18.109375 30.90625 
L 18.109375 0 
L 9.078125 0 
L 9.078125 75.984375 
L 18.109375 75.984375 
L 18.109375 46.1875 
Q 21.34375 51.125 25.703125 53.5625 
Q 30.078125 56 35.796875 56 
Q 45.21875 56 50.046875 50.171875 
Q 54.890625 44.34375 54.890625 33.015625 
z
" id="DejaVuSans-104"/>
     </defs>
     <use xlink:href="#DejaVuSans-70"/>
     <use x="50.269531" xlink:href="#DejaVuSans-114"/>
     <use x="91.382812" xlink:href="#DejaVuSans-97"/>
     <use x="152.662109" xlink:href="#DejaVuSans-99"/>
     <use x="207.642578" xlink:href="#DejaVuSans-116"/>
     <use x="246.851562" xlink:href="#DejaVuSans-105"/>
     <use x="274.634766" xlink:href="#DejaVuSans-111"/>
     <use x="335.816406" xlink:href="#DejaVuSans-110"/>
     <use x="399.195312" xlink:href="#DejaVuSans-32"/>
     <use x="430.982422" xlink:href="#DejaVuSans-111"/>
     <use x="492.164062" xlink:href="#DejaVuSans-102"/>
     <use x="527.369141" xlink:href="#DejaVuSans-32"/>
     <use x="559.15625" xlink:href="#DejaVuSans-99"/>
     <use x="614.136719" xlink:href="#DejaVuSans-108"/>
     <use x="641.919922" xlink:href="#DejaVuSans-117"/>
     <use x="705.298828" xlink:href="#DejaVuSans-115"/>
     <use x="757.398438" xlink:href="#DejaVuSans-116"/>
     <use x="796.607422" xlink:href="#DejaVuSans-101"/>
     <use x="858.130859" xlink:href="#DejaVuSans-114"/>
     <use x="899.244141" xlink:href="#DejaVuSans-32"/>
     <use x="931.03125" xlink:href="#DejaVuSans-105"/>
     <use x="958.814453" xlink:href="#DejaVuSans-110"/>
     <use x="1022.193359" xlink:href="#DejaVuSans-32"/>
     <use x="1053.980469" xlink:href="#DejaVuSans-101"/>
     <use x="1115.503906" xlink:href="#DejaVuSans-97"/>
     <use x="1176.783203" xlink:href="#DejaVuSans-99"/>
     <use x="1231.763672" xlink:href="#DejaVuSans-104"/>
     <use x="1295.142578" xlink:href="#DejaVuSans-32"/>
     <use x="1326.929688" xlink:href="#DejaVuSans-73"/>
     <use x="1356.421875" xlink:href="#DejaVuSans-82"/>
     <use x="1425.904297" xlink:href="#DejaVuSans-95"/>
     <use x="1475.904297" xlink:href="#DejaVuSans-86"/>
     <use x="1544.3125" xlink:href="#DejaVuSans-74"/>
     <use x="1573.804688" xlink:href="#DejaVuSans-95"/>
     <use x="1623.804688" xlink:href="#DejaVuSans-49"/>
     <use x="1687.427734" xlink:href="#DejaVuSans-95"/>
     <use x="1737.427734" xlink:href="#DejaVuSans-118"/>
     <use x="1796.607422" xlink:href="#DejaVuSans-95"/>
     <use x="1846.607422" xlink:href="#DejaVuSans-103"/>
     <use x="1910.083984" xlink:href="#DejaVuSans-101"/>
     <use x="1971.607422" xlink:href="#DejaVuSans-110"/>
     <use x="2034.986328" xlink:href="#DejaVuSans-101"/>
    </g>
   </g>
   <g id="legend_1">
    <g id="patch_105">
     <path d="M 233.737725 34.077187 
L 249.737725 34.077187 
L 249.737725 28.477187 
L 233.737725 28.477187 
z
" style="fill:#bcbd22;"/>
    </g>
    <g id="text_19">
     <!-- CD8_Trm -->
     <g transform="translate(256.137725 34.077187)scale(0.08 -0.08)">
      <defs>
       <path d="M 64.40625 67.28125 
L 64.40625 56.890625 
Q 59.421875 61.53125 53.78125 63.8125 
Q 48.140625 66.109375 41.796875 66.109375 
Q 29.296875 66.109375 22.65625 58.46875 
Q 16.015625 50.828125 16.015625 36.375 
Q 16.015625 21.96875 22.65625 14.328125 
Q 29.296875 6.6875 41.796875 6.6875 
Q 48.140625 6.6875 53.78125 8.984375 
Q 59.421875 11.28125 64.40625 15.921875 
L 64.40625 5.609375 
Q 59.234375 2.09375 53.4375 0.328125 
Q 47.65625 -1.421875 41.21875 -1.421875 
Q 24.65625 -1.421875 15.125 8.703125 
Q 5.609375 18.84375 5.609375 36.375 
Q 5.609375 53.953125 15.125 64.078125 
Q 24.65625 74.21875 41.21875 74.21875 
Q 47.75 74.21875 53.53125 72.484375 
Q 59.328125 70.75 64.40625 67.28125 
z
" id="DejaVuSans-67"/>
       <path d="M 52 44.1875 
Q 55.375 50.25 60.0625 53.125 
Q 64.75 56 71.09375 56 
Q 79.640625 56 84.28125 50.015625 
Q 88.921875 44.046875 88.921875 33.015625 
L 88.921875 0 
L 79.890625 0 
L 79.890625 32.71875 
Q 79.890625 40.578125 77.09375 44.375 
Q 74.3125 48.1875 68.609375 48.1875 
Q 61.625 48.1875 57.5625 43.546875 
Q 53.515625 38.921875 53.515625 30.90625 
L 53.515625 0 
L 44.484375 0 
L 44.484375 32.71875 
Q 44.484375 40.625 41.703125 44.40625 
Q 38.921875 48.1875 33.109375 48.1875 
Q 26.21875 48.1875 22.15625 43.53125 
Q 18.109375 38.875 18.109375 30.90625 
L 18.109375 0 
L 9.078125 0 
L 9.078125 54.6875 
L 18.109375 54.6875 
L 18.109375 46.1875 
Q 21.1875 51.21875 25.484375 53.609375 
Q 29.78125 56 35.6875 56 
Q 41.65625 56 45.828125 52.96875 
Q 50 49.953125 52 44.1875 
z
" id="DejaVuSans-109"/>
      </defs>
      <use xlink:href="#DejaVuSans-67"/>
      <use x="69.824219" xlink:href="#DejaVuSans-68"/>
      <use x="146.826172" xlink:href="#DejaVuSans-56"/>
      <use x="210.449219" xlink:href="#DejaVuSans-95"/>
      <use x="260.449219" xlink:href="#DejaVuSans-84"/>
      <use x="306.783203" xlink:href="#DejaVuSans-114"/>
      <use x="346.146484" xlink:href="#DejaVuSans-109"/>
     </g>
    </g>
    <g id="patch_106">
     <path d="M 233.737725 46.042187 
L 249.737725 46.042187 
L 249.737725 40.442187 
L 233.737725 40.442187 
z
" style="fill:#d62728;"/>
    </g>
    <g id="text_20">
     <!-- CD4_TCF7 -->
     <g transform="translate(256.137725 46.042187)scale(0.08 -0.08)">
      <use xlink:href="#DejaVuSans-67"/>
      <use x="69.824219" xlink:href="#DejaVuSans-68"/>
      <use x="146.826172" xlink:href="#DejaVuSans-52"/>
      <use x="210.449219" xlink:href="#DejaVuSans-95"/>
      <use x="260.449219" xlink:href="#DejaVuSans-84"/>
      <use x="315.658203" xlink:href="#DejaVuSans-67"/>
      <use x="385.482422" xlink:href="#DejaVuSans-70"/>
      <use x="443.001953" xlink:href="#DejaVuSans-55"/>
     </g>
    </g>
    <g id="patch_107">
     <path d="M 233.737725 58.007187 
L 249.737725 58.007187 
L 249.737725 52.407187 
L 233.737725 52.407187 
z
" style="fill:#7f7f7f;"/>
    </g>
    <g id="text_21">
     <!-- CD8_Tem -->
     <g transform="translate(256.137725 58.007187)scale(0.08 -0.08)">
      <use xlink:href="#DejaVuSans-67"/>
      <use x="69.824219" xlink:href="#DejaVuSans-68"/>
      <use x="146.826172" xlink:href="#DejaVuSans-56"/>
      <use x="210.449219" xlink:href="#DejaVuSans-95"/>
      <use x="260.449219" xlink:href="#DejaVuSans-84"/>
      <use x="304.533203" xlink:href="#DejaVuSans-101"/>
      <use x="366.056641" xlink:href="#DejaVuSans-109"/>
     </g>
    </g>
    <g id="patch_108">
     <path d="M 233.737725 69.972187 
L 249.737725 69.972187 
L 249.737725 64.372187 
L 233.737725 64.372187 
z
" style="fill:#1f77b4;"/>
    </g>
    <g id="text_22">
     <!-- CD4_FOSS -->
     <g transform="translate(256.137725 69.972187)scale(0.08 -0.08)">
      <defs>
       <path d="M 39.40625 66.21875 
Q 28.65625 66.21875 22.328125 58.203125 
Q 16.015625 50.203125 16.015625 36.375 
Q 16.015625 22.609375 22.328125 14.59375 
Q 28.65625 6.59375 39.40625 6.59375 
Q 50.140625 6.59375 56.421875 14.59375 
Q 62.703125 22.609375 62.703125 36.375 
Q 62.703125 50.203125 56.421875 58.203125 
Q 50.140625 66.21875 39.40625 66.21875 
z
M 39.40625 74.21875 
Q 54.734375 74.21875 63.90625 63.9375 
Q 73.09375 53.65625 73.09375 36.375 
Q 73.09375 19.140625 63.90625 8.859375 
Q 54.734375 -1.421875 39.40625 -1.421875 
Q 24.03125 -1.421875 14.8125 8.828125 
Q 5.609375 19.09375 5.609375 36.375 
Q 5.609375 53.65625 14.8125 63.9375 
Q 24.03125 74.21875 39.40625 74.21875 
z
" id="DejaVuSans-79"/>
       <path d="M 53.515625 70.515625 
L 53.515625 60.890625 
Q 47.90625 63.578125 42.921875 64.890625 
Q 37.9375 66.21875 33.296875 66.21875 
Q 25.25 66.21875 20.875 63.09375 
Q 16.5 59.96875 16.5 54.203125 
Q 16.5 49.359375 19.40625 46.890625 
Q 22.3125 44.4375 30.421875 42.921875 
L 36.375 41.703125 
Q 47.40625 39.59375 52.65625 34.296875 
Q 57.90625 29 57.90625 20.125 
Q 57.90625 9.515625 50.796875 4.046875 
Q 43.703125 -1.421875 29.984375 -1.421875 
Q 24.8125 -1.421875 18.96875 -0.25 
Q 13.140625 0.921875 6.890625 3.21875 
L 6.890625 13.375 
Q 12.890625 10.015625 18.65625 8.296875 
Q 24.421875 6.59375 29.984375 6.59375 
Q 38.421875 6.59375 43.015625 9.90625 
Q 47.609375 13.234375 47.609375 19.390625 
Q 47.609375 24.75 44.3125 27.78125 
Q 41.015625 30.8125 33.5 32.328125 
L 27.484375 33.5 
Q 16.453125 35.6875 11.515625 40.375 
Q 6.59375 45.0625 6.59375 53.421875 
Q 6.59375 63.09375 13.40625 68.65625 
Q 20.21875 74.21875 32.171875 74.21875 
Q 37.3125 74.21875 42.625 73.28125 
Q 47.953125 72.359375 53.515625 70.515625 
z
" id="DejaVuSans-83"/>
      </defs>
      <use xlink:href="#DejaVuSans-67"/>
      <use x="69.824219" xlink:href="#DejaVuSans-68"/>
      <use x="146.826172" xlink:href="#DejaVuSans-52"/>
      <use x="210.449219" xlink:href="#DejaVuSans-95"/>
      <use x="260.449219" xlink:href="#DejaVuSans-70"/>
      <use x="317.96875" xlink:href="#DejaVuSans-79"/>
      <use x="396.679688" xlink:href="#DejaVuSans-83"/>
      <use x="460.15625" xlink:href="#DejaVuSans-83"/>
     </g>
    </g>
    <g id="patch_109">
     <path d="M 233.737725 81.937187 
L 249.737725 81.937187 
L 249.737725 76.337187 
L 233.737725 76.337187 
z
" style="fill:#8c564b;"/>
    </g>
    <g id="text_23">
     <!-- CD4_Trm -->
     <g transform="translate(256.137725 81.937187)scale(0.08 -0.08)">
      <use xlink:href="#DejaVuSans-67"/>
      <use x="69.824219" xlink:href="#DejaVuSans-68"/>
      <use x="146.826172" xlink:href="#DejaVuSans-52"/>
      <use x="210.449219" xlink:href="#DejaVuSans-95"/>
      <use x="260.449219" xlink:href="#DejaVuSans-84"/>
      <use x="306.783203" xlink:href="#DejaVuSans-114"/>
      <use x="346.146484" xlink:href="#DejaVuSans-109"/>
     </g>
    </g>
    <g id="patch_110">
     <path d="M 233.737725 93.902187 
L 249.737725 93.902187 
L 249.737725 88.302187 
L 233.737725 88.302187 
z
" style="fill:#17becf;"/>
    </g>
    <g id="text_24">
     <!-- other -->
     <g transform="translate(256.137725 93.902187)scale(0.08 -0.08)">
      <use xlink:href="#DejaVuSans-111"/>
      <use x="61.181641" xlink:href="#DejaVuSans-116"/>
      <use x="100.390625" xlink:href="#DejaVuSans-104"/>
      <use x="163.769531" xlink:href="#DejaVuSans-101"/>
      <use x="225.292969" xlink:href="#DejaVuSans-114"/>
     </g>
    </g>
    <g id="patch_111">
     <path d="M 233.737725 105.644687 
L 249.737725 105.644687 
L 249.737725 100.044687 
L 233.737725 100.044687 
z
" style="fill:#e377c2;"/>
    </g>
    <g id="text_25">
     <!-- CD8_Teff -->
     <g transform="translate(256.137725 105.644687)scale(0.08 -0.08)">
      <use xlink:href="#DejaVuSans-67"/>
      <use x="69.824219" xlink:href="#DejaVuSans-68"/>
      <use x="146.826172" xlink:href="#DejaVuSans-56"/>
      <use x="210.449219" xlink:href="#DejaVuSans-95"/>
      <use x="260.449219" xlink:href="#DejaVuSans-84"/>
      <use x="304.533203" xlink:href="#DejaVuSans-101"/>
      <use x="366.056641" xlink:href="#DejaVuSans-102"/>
      <use x="401.261719" xlink:href="#DejaVuSans-102"/>
     </g>
    </g>
    <g id="patch_112">
     <path d="M 233.737725 117.609687 
L 249.737725 117.609687 
L 249.737725 112.009687 
L 233.737725 112.009687 
z
" style="fill:#9467bd;"/>
    </g>
    <g id="text_26">
     <!-- CD4_Treg -->
     <g transform="translate(256.137725 117.609687)scale(0.08 -0.08)">
      <use xlink:href="#DejaVuSans-67"/>
      <use x="69.824219" xlink:href="#DejaVuSans-68"/>
      <use x="146.826172" xlink:href="#DejaVuSans-52"/>
      <use x="210.449219" xlink:href="#DejaVuSans-95"/>
      <use x="260.449219" xlink:href="#DejaVuSans-84"/>
      <use x="306.783203" xlink:href="#DejaVuSans-114"/>
      <use x="345.646484" xlink:href="#DejaVuSans-101"/>
      <use x="407.169922" xlink:href="#DejaVuSans-103"/>
     </g>
    </g>
    <g id="patch_113">
     <path d="M 233.737725 129.574687 
L 249.737725 129.574687 
L 249.737725 123.974687 
L 233.737725 123.974687 
z
" style="fill:#ff7f0e;"/>
    </g>
    <g id="text_27">
     <!-- CD4_IL6ST -->
     <g transform="translate(256.137725 129.574687)scale(0.08 -0.08)">
      <defs>
       <path d="M 9.8125 72.90625 
L 19.671875 72.90625 
L 19.671875 8.296875 
L 55.171875 8.296875 
L 55.171875 0 
L 9.8125 0 
z
" id="DejaVuSans-76"/>
       <path d="M 33.015625 40.375 
Q 26.375 40.375 22.484375 35.828125 
Q 18.609375 31.296875 18.609375 23.390625 
Q 18.609375 15.53125 22.484375 10.953125 
Q 26.375 6.390625 33.015625 6.390625 
Q 39.65625 6.390625 43.53125 10.953125 
Q 47.40625 15.53125 47.40625 23.390625 
Q 47.40625 31.296875 43.53125 35.828125 
Q 39.65625 40.375 33.015625 40.375 
z
M 52.59375 71.296875 
L 52.59375 62.3125 
Q 48.875 64.0625 45.09375 64.984375 
Q 41.3125 65.921875 37.59375 65.921875 
Q 27.828125 65.921875 22.671875 59.328125 
Q 17.53125 52.734375 16.796875 39.40625 
Q 19.671875 43.65625 24.015625 45.921875 
Q 28.375 48.1875 33.59375 48.1875 
Q 44.578125 48.1875 50.953125 41.515625 
Q 57.328125 34.859375 57.328125 23.390625 
Q 57.328125 12.15625 50.6875 5.359375 
Q 44.046875 -1.421875 33.015625 -1.421875 
Q 20.359375 -1.421875 13.671875 8.265625 
Q 6.984375 17.96875 6.984375 36.375 
Q 6.984375 53.65625 15.1875 63.9375 
Q 23.390625 74.21875 37.203125 74.21875 
Q 40.921875 74.21875 44.703125 73.484375 
Q 48.484375 72.75 52.59375 71.296875 
z
" id="DejaVuSans-54"/>
      </defs>
      <use xlink:href="#DejaVuSans-67"/>
      <use x="69.824219" xlink:href="#DejaVuSans-68"/>
      <use x="146.826172" xlink:href="#DejaVuSans-52"/>
      <use x="210.449219" xlink:href="#DejaVuSans-95"/>
      <use x="260.449219" xlink:href="#DejaVuSans-73"/>
      <use x="289.941406" xlink:href="#DejaVuSans-76"/>
      <use x="345.654297" xlink:href="#DejaVuSans-54"/>
      <use x="409.277344" xlink:href="#DejaVuSans-83"/>
      <use x="472.753906" xlink:href="#DejaVuSans-84"/>
     </g>
    </g>
    <g id="patch_114">
     <path d="M 233.737725 141.539687 
L 249.737725 141.539687 
L 249.737725 135.939687 
L 233.737725 135.939687 
z
" style="fill:#2ca02c;"/>
    </g>
    <g id="text_28">
     <!-- CD4_RPL32 -->
     <g transform="translate(256.137725 141.539687)scale(0.08 -0.08)">
      <defs>
       <path d="M 19.671875 64.796875 
L 19.671875 37.40625 
L 32.078125 37.40625 
Q 38.96875 37.40625 42.71875 40.96875 
Q 46.484375 44.53125 46.484375 51.125 
Q 46.484375 57.671875 42.71875 61.234375 
Q 38.96875 64.796875 32.078125 64.796875 
z
M 9.8125 72.90625 
L 32.078125 72.90625 
Q 44.34375 72.90625 50.609375 67.359375 
Q 56.890625 61.8125 56.890625 51.125 
Q 56.890625 40.328125 50.609375 34.8125 
Q 44.34375 29.296875 32.078125 29.296875 
L 19.671875 29.296875 
L 19.671875 0 
L 9.8125 0 
z
" id="DejaVuSans-80"/>
      </defs>
      <use xlink:href="#DejaVuSans-67"/>
      <use x="69.824219" xlink:href="#DejaVuSans-68"/>
      <use x="146.826172" xlink:href="#DejaVuSans-52"/>
      <use x="210.449219" xlink:href="#DejaVuSans-95"/>
      <use x="260.449219" xlink:href="#DejaVuSans-82"/>
      <use x="329.931641" xlink:href="#DejaVuSans-80"/>
      <use x="390.234375" xlink:href="#DejaVuSans-76"/>
      <use x="445.947266" xlink:href="#DejaVuSans-51"/>
      <use x="509.570312" xlink:href="#DejaVuSans-50"/>
     </g>
    </g>
   </g>
  </g>
 </g>
 <defs>
  <clipPath id="p030959e560">
   <rect height="102.168" width="148.608" x="48.208125" y="20.798437"/>
  </clipPath>
 </defs>
</svg>
