<?xml version="1.0" encoding="utf-8" standalone="no"?>
<!DOCTYPE svg PUBLIC "-//W3C//DTD SVG 1.1//EN"
  "http://www.w3.org/Graphics/SVG/1.1/DTD/svg11.dtd">
<!-- Created with matplotlib (https://matplotlib.org/) -->
<svg height="246.721562pt" version="1.1" viewBox="0 0 388.266 246.721562" width="388.266pt" xmlns="http://www.w3.org/2000/svg" xmlns:xlink="http://www.w3.org/1999/xlink">
 <metadata>
  <rdf:RDF xmlns:cc="http://creativecommons.org/ns#" xmlns:dc="http://purl.org/dc/elements/1.1/" xmlns:rdf="http://www.w3.org/1999/02/22-rdf-syntax-ns#">
   <cc:Work>
    <dc:type rdf:resource="http://purl.org/dc/dcmitype/StillImage"/>
    <dc:date>2020-12-10T14:38:42.447672</dc:date>
    <dc:format>image/svg+xml</dc:format>
    <dc:creator>
     <cc:Agent>
      <dc:title>Matplotlib v3.3.3, https://matplotlib.org/</dc:title>
     </cc:Agent>
    </dc:creator>
   </cc:Work>
  </rdf:RDF>
 </metadata>
 <defs>
  <style type="text/css">*{stroke-linecap:butt;stroke-linejoin:round;}</style>
 </defs>
 <g id="figure_1">
  <g id="patch_1">
   <path d="M 0 246.721562 
L 388.266 246.721562 
L 388.266 0 
L 0 0 
z
" style="fill:#ffffff;"/>
  </g>
  <g id="axes_1">
   <g id="patch_2">
    <path d="M 38.89 210.878437 
L 315.37 210.878437 
L 315.37 20.798437 
L 38.89 20.798437 
z
" style="fill:#ffffff;"/>
   </g>
   <g id="PathCollection_1">
    <path clip-path="url(#p51a505de10)" d="M 38.89 212.458751 
C 43.186781 212.458751 47.308156 210.751621 50.346439 207.713338 
C 53.384722 204.675055 55.091852 200.55368 55.091852 196.256899 
C 55.091852 191.960118 53.384722 187.838743 50.346439 184.80046 
C 47.308156 181.762177 43.186781 180.055047 38.89 180.055047 
C 34.593219 180.055047 30.471844 181.762177 27.433561 184.80046 
C 24.395278 187.838743 22.688148 191.960118 22.688148 196.256899 
C 22.688148 200.55368 24.395278 204.675055 27.433561 207.713338 
C 30.471844 210.751621 34.593219 212.458751 38.89 212.458751 
z
" style="fill:#1f77b4;fill-opacity:0.3;stroke:#1f77b4;stroke-opacity:0.3;"/>
    <path clip-path="url(#p51a505de10)" d="M 38.89 187.800602 
C 40.525041 187.800602 42.093335 187.150993 43.249484 185.994845 
C 44.405633 184.838696 45.055242 183.270402 45.055242 181.635361 
C 45.055242 180.000319 44.405633 178.432025 43.249484 177.275876 
C 42.093335 176.119728 40.525041 175.470119 38.89 175.470119 
C 37.254959 175.470119 35.686665 176.119728 34.530516 177.275876 
C 33.374367 178.432025 32.724758 180.000319 32.724758 181.635361 
C 32.724758 183.270402 33.374367 184.838696 34.530516 185.994845 
C 35.686665 187.150993 37.254959 187.800602 38.89 187.800602 
z
" style="fill:#1f77b4;fill-opacity:0.3;stroke:#1f77b4;stroke-opacity:0.3;"/>
    <path clip-path="url(#p51a505de10)" d="M 38.89 171.071932 
C 39.966223 171.071932 40.998512 170.644344 41.759517 169.883339 
C 42.520522 169.122334 42.94811 168.090045 42.94811 167.013822 
C 42.94811 165.937599 42.520522 164.90531 41.759517 164.144305 
C 40.998512 163.3833 39.966223 162.955712 38.89 162.955712 
C 37.813777 162.955712 36.781488 163.3833 36.020483 164.144305 
C 35.259478 164.90531 34.83189 165.937599 34.83189 167.013822 
C 34.83189 168.090045 35.259478 169.122334 36.020483 169.883339 
C 36.781488 170.644344 37.813777 171.071932 38.89 171.071932 
z
" style="fill:#1f77b4;fill-opacity:0.3;stroke:#1f77b4;stroke-opacity:0.3;"/>
    <path clip-path="url(#p51a505de10)" d="M 38.89 156.160663 
C 39.889386 156.160663 40.847974 155.763602 41.554646 155.05693 
C 42.261319 154.350258 42.658379 153.391669 42.658379 152.392284 
C 42.658379 151.392898 42.261319 150.43431 41.554646 149.727637 
C 40.847974 149.020965 39.889386 148.623905 38.89 148.623905 
C 37.890614 148.623905 36.932026 149.020965 36.225354 149.727637 
C 35.518681 150.43431 35.121621 151.392898 35.121621 152.392284 
C 35.121621 153.391669 35.518681 154.350258 36.225354 155.05693 
C 36.932026 155.763602 37.890614 156.160663 38.89 156.160663 
z
" style="fill:#1f77b4;fill-opacity:0.3;stroke:#1f77b4;stroke-opacity:0.3;"/>
    <path clip-path="url(#p51a505de10)" d="M 38.89 141.306279 
C 39.827635 141.306279 40.726992 140.933753 41.39 140.270745 
C 42.053008 139.607737 42.425534 138.70838 42.425534 137.770745 
C 42.425534 136.833111 42.053008 135.933753 41.39 135.270745 
C 40.726992 134.607737 39.827635 134.235211 38.89 134.235211 
C 37.952365 134.235211 37.053008 134.607737 36.39 135.270745 
C 35.726992 135.933753 35.354466 136.833111 35.354466 137.770745 
C 35.354466 138.70838 35.726992 139.607737 36.39 140.270745 
C 37.053008 140.933753 37.952365 141.306279 38.89 141.306279 
z
" style="fill:#1f77b4;fill-opacity:0.3;stroke:#1f77b4;stroke-opacity:0.3;"/>
    <path clip-path="url(#p51a505de10)" d="M 60.157692 220.101363 
C 62.603641 220.101363 64.949739 219.129578 66.679286 217.400031 
C 68.408832 215.670484 69.380618 213.324386 69.380618 210.878437 
C 69.380618 208.432489 68.408832 206.086391 66.679286 204.356844 
C 64.949739 202.627297 62.603641 201.655512 60.157692 201.655512 
C 57.711744 201.655512 55.365646 202.627297 53.636099 204.356844 
C 51.906552 206.086391 50.934767 208.432489 50.934767 210.878437 
C 50.934767 213.324386 51.906552 215.670484 53.636099 217.400031 
C 55.365646 219.129578 57.711744 220.101363 60.157692 220.101363 
z
" style="fill:#1f77b4;fill-opacity:0.3;stroke:#1f77b4;stroke-opacity:0.3;"/>
    <path clip-path="url(#p51a505de10)" d="M 60.157692 200.839846 
C 61.373104 200.839846 62.538899 200.356958 63.398325 199.497532 
C 64.257751 198.638106 64.740639 197.472311 64.740639 196.256899 
C 64.740639 195.041487 64.257751 193.875692 63.398325 193.016266 
C 62.538899 192.15684 61.373104 191.673952 60.157692 191.673952 
C 58.942281 191.673952 57.776485 192.15684 56.91706 193.016266 
C 56.057634 193.875692 55.574746 195.041487 55.574746 196.256899 
C 55.574746 197.472311 56.057634 198.638106 56.91706 199.497532 
C 57.776485 200.356958 58.942281 200.839846 60.157692 200.839846 
z
" style="fill:#1f77b4;fill-opacity:0.3;stroke:#1f77b4;stroke-opacity:0.3;"/>
    <path clip-path="url(#p51a505de10)" d="M 60.157692 185.250176 
C 61.116353 185.250176 62.035878 184.869297 62.713753 184.191421 
C 63.391628 183.513546 63.772508 182.594021 63.772508 181.635361 
C 63.772508 180.6767 63.391628 179.757175 62.713753 179.0793 
C 62.035878 178.401425 61.116353 178.020545 60.157692 178.020545 
C 59.199032 178.020545 58.279507 178.401425 57.601632 179.0793 
C 56.923756 179.757175 56.542876 180.6767 56.542876 181.635361 
C 56.542876 182.594021 56.923756 183.513546 57.601632 184.191421 
C 58.279507 184.869297 59.199032 185.250176 60.157692 185.250176 
z
" style="fill:#1f77b4;fill-opacity:0.3;stroke:#1f77b4;stroke-opacity:0.3;"/>
    <path clip-path="url(#p51a505de10)" d="M 60.157692 126.684741 
C 61.095327 126.684741 61.994685 126.312214 62.657692 125.649207 
C 63.3207 124.986199 63.693226 124.086841 63.693226 123.149207 
C 63.693226 122.211572 63.3207 121.312214 62.657692 120.649207 
C 61.994685 119.986199 61.095327 119.613673 60.157692 119.613673 
C 59.220058 119.613673 58.3207 119.986199 57.657692 120.649207 
C 56.994685 121.312214 56.622158 122.211572 56.622158 123.149207 
C 56.622158 124.086841 56.994685 124.986199 57.657692 125.649207 
C 58.3207 126.312214 59.220058 126.684741 60.157692 126.684741 
z
" style="fill:#1f77b4;fill-opacity:0.3;stroke:#1f77b4;stroke-opacity:0.3;"/>
    <path clip-path="url(#p51a505de10)" d="M 81.425385 215.140941 
C 82.555814 215.140941 83.640096 214.691817 84.43943 213.892482 
C 85.238764 213.093148 85.687888 212.008867 85.687888 210.878437 
C 85.687888 209.748008 85.238764 208.663727 84.43943 207.864393 
C 83.640096 207.065058 82.555814 206.615934 81.425385 206.615934 
C 80.294956 206.615934 79.210674 207.065058 78.41134 207.864393 
C 77.612006 208.663727 77.162881 209.748008 77.162881 210.878437 
C 77.162881 212.008867 77.612006 213.093148 78.41134 213.892482 
C 79.210674 214.691817 80.294956 215.140941 81.425385 215.140941 
z
" style="fill:#1f77b4;fill-opacity:0.3;stroke:#1f77b4;stroke-opacity:0.3;"/>
    <path clip-path="url(#p51a505de10)" d="M 81.425385 199.792433 
C 82.363019 199.792433 83.262377 199.419907 83.925385 198.756899 
C 84.588392 198.093891 84.960919 197.194534 84.960919 196.256899 
C 84.960919 195.319264 84.588392 194.419907 83.925385 193.756899 
C 83.262377 193.093891 82.363019 192.721365 81.425385 192.721365 
C 80.48775 192.721365 79.588392 193.093891 78.925385 193.756899 
C 78.262377 194.419907 77.889851 195.319264 77.889851 196.256899 
C 77.889851 197.194534 78.262377 198.093891 78.925385 198.756899 
C 79.588392 199.419907 80.48775 199.792433 81.425385 199.792433 
z
" style="fill:#1f77b4;fill-opacity:0.3;stroke:#1f77b4;stroke-opacity:0.3;"/>
    <path clip-path="url(#p51a505de10)" d="M 81.425385 185.170894 
C 82.363019 185.170894 83.262377 184.798368 83.925385 184.135361 
C 84.588392 183.472353 84.960919 182.572995 84.960919 181.635361 
C 84.960919 180.697726 84.588392 179.798368 83.925385 179.135361 
C 83.262377 178.472353 82.363019 178.099827 81.425385 178.099827 
C 80.48775 178.099827 79.588392 178.472353 78.925385 179.135361 
C 78.262377 179.798368 77.889851 180.697726 77.889851 181.635361 
C 77.889851 182.572995 78.262377 183.472353 78.925385 184.135361 
C 79.588392 184.798368 80.48775 185.170894 81.425385 185.170894 
z
" style="fill:#1f77b4;fill-opacity:0.3;stroke:#1f77b4;stroke-opacity:0.3;"/>
    <path clip-path="url(#p51a505de10)" d="M 81.425385 141.385561 
C 82.384045 141.385561 83.30357 141.004681 83.981445 140.326806 
C 84.659321 139.648931 85.0402 138.729406 85.0402 137.770745 
C 85.0402 136.812085 84.659321 135.89256 83.981445 135.214684 
C 83.30357 134.536809 82.384045 134.155929 81.425385 134.155929 
C 80.466724 134.155929 79.547199 134.536809 78.869324 135.214684 
C 78.191449 135.89256 77.810569 136.812085 77.810569 137.770745 
C 77.810569 138.729406 78.191449 139.648931 78.869324 140.326806 
C 79.547199 141.004681 80.466724 141.385561 81.425385 141.385561 
z
" style="fill:#1f77b4;fill-opacity:0.3;stroke:#1f77b4;stroke-opacity:0.3;"/>
    <path clip-path="url(#p51a505de10)" d="M 102.693077 214.413971 
C 103.630711 214.413971 104.530069 214.041445 105.193077 213.378437 
C 105.856085 212.71543 106.228611 211.816072 106.228611 210.878437 
C 106.228611 209.940803 105.856085 209.041445 105.193077 208.378437 
C 104.530069 207.71543 103.630711 207.342904 102.693077 207.342904 
C 101.755442 207.342904 100.856085 207.71543 100.193077 208.378437 
C 99.530069 209.041445 99.157543 209.940803 99.157543 210.878437 
C 99.157543 211.816072 99.530069 212.71543 100.193077 213.378437 
C 100.856085 214.041445 101.755442 214.413971 102.693077 214.413971 
z
" style="fill:#1f77b4;fill-opacity:0.3;stroke:#1f77b4;stroke-opacity:0.3;"/>
    <path clip-path="url(#p51a505de10)" d="M 102.693077 199.792433 
C 103.630711 199.792433 104.530069 199.419907 105.193077 198.756899 
C 105.856085 198.093891 106.228611 197.194534 106.228611 196.256899 
C 106.228611 195.319264 105.856085 194.419907 105.193077 193.756899 
C 104.530069 193.093891 103.630711 192.721365 102.693077 192.721365 
C 101.755442 192.721365 100.856085 193.093891 100.193077 193.756899 
C 99.530069 194.419907 99.157543 195.319264 99.157543 196.256899 
C 99.157543 197.194534 99.530069 198.093891 100.193077 198.756899 
C 100.856085 199.419907 101.755442 199.792433 102.693077 199.792433 
z
" style="fill:#1f77b4;fill-opacity:0.3;stroke:#1f77b4;stroke-opacity:0.3;"/>
    <path clip-path="url(#p51a505de10)" d="M 102.693077 185.170894 
C 103.630711 185.170894 104.530069 184.798368 105.193077 184.135361 
C 105.856085 183.472353 106.228611 182.572995 106.228611 181.635361 
C 106.228611 180.697726 105.856085 179.798368 105.193077 179.135361 
C 104.530069 178.472353 103.630711 178.099827 102.693077 178.099827 
C 101.755442 178.099827 100.856085 178.472353 100.193077 179.135361 
C 99.530069 179.798368 99.157543 180.697726 99.157543 181.635361 
C 99.157543 182.572995 99.530069 183.472353 100.193077 184.135361 
C 100.856085 184.798368 101.755442 185.170894 102.693077 185.170894 
z
" style="fill:#1f77b4;fill-opacity:0.3;stroke:#1f77b4;stroke-opacity:0.3;"/>
    <path clip-path="url(#p51a505de10)" d="M 102.693077 170.549356 
C 103.630711 170.549356 104.530069 170.17683 105.193077 169.513822 
C 105.856085 168.850814 106.228611 167.951457 106.228611 167.013822 
C 106.228611 166.076188 105.856085 165.17683 105.193077 164.513822 
C 104.530069 163.850814 103.630711 163.478288 102.693077 163.478288 
C 101.755442 163.478288 100.856085 163.850814 100.193077 164.513822 
C 99.530069 165.17683 99.157543 166.076188 99.157543 167.013822 
C 99.157543 167.951457 99.530069 168.850814 100.193077 169.513822 
C 100.856085 170.17683 101.755442 170.549356 102.693077 170.549356 
z
" style="fill:#1f77b4;fill-opacity:0.3;stroke:#1f77b4;stroke-opacity:0.3;"/>
    <path clip-path="url(#p51a505de10)" d="M 123.960769 214.413971 
C 124.898404 214.413971 125.797761 214.041445 126.460769 213.378437 
C 127.123777 212.71543 127.496303 211.816072 127.496303 210.878437 
C 127.496303 209.940803 127.123777 209.041445 126.460769 208.378437 
C 125.797761 207.71543 124.898404 207.342904 123.960769 207.342904 
C 123.023135 207.342904 122.123777 207.71543 121.460769 208.378437 
C 120.797761 209.041445 120.425235 209.940803 120.425235 210.878437 
C 120.425235 211.816072 120.797761 212.71543 121.460769 213.378437 
C 122.123777 214.041445 123.023135 214.413971 123.960769 214.413971 
z
" style="fill:#1f77b4;fill-opacity:0.3;stroke:#1f77b4;stroke-opacity:0.3;"/>
    <path clip-path="url(#p51a505de10)" d="M 123.960769 199.792433 
C 124.898404 199.792433 125.797761 199.419907 126.460769 198.756899 
C 127.123777 198.093891 127.496303 197.194534 127.496303 196.256899 
C 127.496303 195.319264 127.123777 194.419907 126.460769 193.756899 
C 125.797761 193.093891 124.898404 192.721365 123.960769 192.721365 
C 123.023135 192.721365 122.123777 193.093891 121.460769 193.756899 
C 120.797761 194.419907 120.425235 195.319264 120.425235 196.256899 
C 120.425235 197.194534 120.797761 198.093891 121.460769 198.756899 
C 122.123777 199.419907 123.023135 199.792433 123.960769 199.792433 
z
" style="fill:#1f77b4;fill-opacity:0.3;stroke:#1f77b4;stroke-opacity:0.3;"/>
    <path clip-path="url(#p51a505de10)" d="M 123.960769 38.95551 
C 124.898404 38.95551 125.797761 38.582984 126.460769 37.919976 
C 127.123777 37.256968 127.496303 36.357611 127.496303 35.419976 
C 127.496303 34.482341 127.123777 33.582984 126.460769 32.919976 
C 125.797761 32.256968 124.898404 31.884442 123.960769 31.884442 
C 123.023135 31.884442 122.123777 32.256968 121.460769 32.919976 
C 120.797761 33.582984 120.425235 34.482341 120.425235 35.419976 
C 120.425235 36.357611 120.797761 37.256968 121.460769 37.919976 
C 122.123777 38.582984 123.023135 38.95551 123.960769 38.95551 
z
" style="fill:#1f77b4;fill-opacity:0.3;stroke:#1f77b4;stroke-opacity:0.3;"/>
    <path clip-path="url(#p51a505de10)" d="M 145.228462 214.493253 
C 146.187122 214.493253 147.106647 214.112374 147.784522 213.434498 
C 148.462398 212.756623 148.843277 211.837098 148.843277 210.878437 
C 148.843277 209.919777 148.462398 209.000252 147.784522 208.322377 
C 147.106647 207.644501 146.187122 207.263622 145.228462 207.263622 
C 144.269801 207.263622 143.350276 207.644501 142.672401 208.322377 
C 141.994526 209.000252 141.613646 209.919777 141.613646 210.878437 
C 141.613646 211.837098 141.994526 212.756623 142.672401 213.434498 
C 143.350276 214.112374 144.269801 214.493253 145.228462 214.493253 
z
" style="fill:#1f77b4;fill-opacity:0.3;stroke:#1f77b4;stroke-opacity:0.3;"/>
    <path clip-path="url(#p51a505de10)" d="M 145.228462 141.306279 
C 146.166096 141.306279 147.065454 140.933753 147.728462 140.270745 
C 148.391469 139.607737 148.763995 138.70838 148.763995 137.770745 
C 148.763995 136.833111 148.391469 135.933753 147.728462 135.270745 
C 147.065454 134.607737 146.166096 134.235211 145.228462 134.235211 
C 144.290827 134.235211 143.391469 134.607737 142.728462 135.270745 
C 142.065454 135.933753 141.692928 136.833111 141.692928 137.770745 
C 141.692928 138.70838 142.065454 139.607737 142.728462 140.270745 
C 143.391469 140.933753 144.290827 141.306279 145.228462 141.306279 
z
" style="fill:#1f77b4;fill-opacity:0.3;stroke:#1f77b4;stroke-opacity:0.3;"/>
    <path clip-path="url(#p51a505de10)" d="M 187.763846 185.170894 
C 188.701481 185.170894 189.600838 184.798368 190.263846 184.135361 
C 190.926854 183.472353 191.29938 182.572995 191.29938 181.635361 
C 191.29938 180.697726 190.926854 179.798368 190.263846 179.135361 
C 189.600838 178.472353 188.701481 178.099827 187.763846 178.099827 
C 186.826212 178.099827 185.926854 178.472353 185.263846 179.135361 
C 184.600838 179.798368 184.228312 180.697726 184.228312 181.635361 
C 184.228312 182.572995 184.600838 183.472353 185.263846 184.135361 
C 185.926854 184.798368 186.826212 185.170894 187.763846 185.170894 
z
" style="fill:#1f77b4;fill-opacity:0.3;stroke:#1f77b4;stroke-opacity:0.3;"/>
    <path clip-path="url(#p51a505de10)" d="M 187.763846 141.306279 
C 188.701481 141.306279 189.600838 140.933753 190.263846 140.270745 
C 190.926854 139.607737 191.29938 138.70838 191.29938 137.770745 
C 191.29938 136.833111 190.926854 135.933753 190.263846 135.270745 
C 189.600838 134.607737 188.701481 134.235211 187.763846 134.235211 
C 186.826212 134.235211 185.926854 134.607737 185.263846 135.270745 
C 184.600838 135.933753 184.228312 136.833111 184.228312 137.770745 
C 184.228312 138.70838 184.600838 139.607737 185.263846 140.270745 
C 185.926854 140.933753 186.826212 141.306279 187.763846 141.306279 
z
" style="fill:#1f77b4;fill-opacity:0.3;stroke:#1f77b4;stroke-opacity:0.3;"/>
    <path clip-path="url(#p51a505de10)" d="M 209.031538 214.413971 
C 209.969173 214.413971 210.868531 214.041445 211.531538 213.378437 
C 212.194546 212.71543 212.567072 211.816072 212.567072 210.878437 
C 212.567072 209.940803 212.194546 209.041445 211.531538 208.378437 
C 210.868531 207.71543 209.969173 207.342904 209.031538 207.342904 
C 208.093904 207.342904 207.194546 207.71543 206.531538 208.378437 
C 205.868531 209.041445 205.496005 209.940803 205.496005 210.878437 
C 205.496005 211.816072 205.868531 212.71543 206.531538 213.378437 
C 207.194546 214.041445 208.093904 214.413971 209.031538 214.413971 
z
" style="fill:#1f77b4;fill-opacity:0.3;stroke:#1f77b4;stroke-opacity:0.3;"/>
    <path clip-path="url(#p51a505de10)" d="M 230.299231 214.413971 
C 231.236865 214.413971 232.136223 214.041445 232.799231 213.378437 
C 233.462239 212.71543 233.834765 211.816072 233.834765 210.878437 
C 233.834765 209.940803 233.462239 209.041445 232.799231 208.378437 
C 232.136223 207.71543 231.236865 207.342904 230.299231 207.342904 
C 229.361596 207.342904 228.462239 207.71543 227.799231 208.378437 
C 227.136223 209.041445 226.763697 209.940803 226.763697 210.878437 
C 226.763697 211.816072 227.136223 212.71543 227.799231 213.378437 
C 228.462239 214.041445 229.361596 214.413971 230.299231 214.413971 
z
" style="fill:#1f77b4;fill-opacity:0.3;stroke:#1f77b4;stroke-opacity:0.3;"/>
    <path clip-path="url(#p51a505de10)" d="M 251.566923 214.413971 
C 252.504558 214.413971 253.403915 214.041445 254.066923 213.378437 
C 254.729931 212.71543 255.102457 211.816072 255.102457 210.878437 
C 255.102457 209.940803 254.729931 209.041445 254.066923 208.378437 
C 253.403915 207.71543 252.504558 207.342904 251.566923 207.342904 
C 250.629289 207.342904 249.729931 207.71543 249.066923 208.378437 
C 248.403915 209.041445 248.031389 209.940803 248.031389 210.878437 
C 248.031389 211.816072 248.403915 212.71543 249.066923 213.378437 
C 249.729931 214.041445 250.629289 214.413971 251.566923 214.413971 
z
" style="fill:#1f77b4;fill-opacity:0.3;stroke:#1f77b4;stroke-opacity:0.3;"/>
   </g>
   <g id="matplotlib.axis_1">
    <g id="xtick_1">
     <g id="line2d_1">
      <defs>
       <path d="M 0 0 
L 0 3.5 
" id="m9b63718fa2" style="stroke:#000000;stroke-width:0.8;"/>
      </defs>
      <g>
       <use style="stroke:#000000;stroke-width:0.8;" x="38.89" xlink:href="#m9b63718fa2" y="210.878437"/>
      </g>
     </g>
     <g id="text_1">
      <!-- 0 -->
      <g transform="translate(35.70875 225.476875)scale(0.1 -0.1)">
       <defs>
        <path d="M 31.78125 66.40625 
Q 24.171875 66.40625 20.328125 58.90625 
Q 16.5 51.421875 16.5 36.375 
Q 16.5 21.390625 20.328125 13.890625 
Q 24.171875 6.390625 31.78125 6.390625 
Q 39.453125 6.390625 43.28125 13.890625 
Q 47.125 21.390625 47.125 36.375 
Q 47.125 51.421875 43.28125 58.90625 
Q 39.453125 66.40625 31.78125 66.40625 
z
M 31.78125 74.21875 
Q 44.046875 74.21875 50.515625 64.515625 
Q 56.984375 54.828125 56.984375 36.375 
Q 56.984375 17.96875 50.515625 8.265625 
Q 44.046875 -1.421875 31.78125 -1.421875 
Q 19.53125 -1.421875 13.0625 8.265625 
Q 6.59375 17.96875 6.59375 36.375 
Q 6.59375 54.828125 13.0625 64.515625 
Q 19.53125 74.21875 31.78125 74.21875 
z
" id="DejaVuSans-48"/>
       </defs>
       <use xlink:href="#DejaVuSans-48"/>
      </g>
     </g>
    </g>
    <g id="xtick_2">
     <g id="line2d_2">
      <g>
       <use style="stroke:#000000;stroke-width:0.8;" x="81.425385" xlink:href="#m9b63718fa2" y="210.878437"/>
      </g>
     </g>
     <g id="text_2">
      <!-- 2 -->
      <g transform="translate(78.244135 225.476875)scale(0.1 -0.1)">
       <defs>
        <path d="M 19.1875 8.296875 
L 53.609375 8.296875 
L 53.609375 0 
L 7.328125 0 
L 7.328125 8.296875 
Q 12.9375 14.109375 22.625 23.890625 
Q 32.328125 33.6875 34.8125 36.53125 
Q 39.546875 41.84375 41.421875 45.53125 
Q 43.3125 49.21875 43.3125 52.78125 
Q 43.3125 58.59375 39.234375 62.25 
Q 35.15625 65.921875 28.609375 65.921875 
Q 23.96875 65.921875 18.8125 64.3125 
Q 13.671875 62.703125 7.8125 59.421875 
L 7.8125 69.390625 
Q 13.765625 71.78125 18.9375 73 
Q 24.125 74.21875 28.421875 74.21875 
Q 39.75 74.21875 46.484375 68.546875 
Q 53.21875 62.890625 53.21875 53.421875 
Q 53.21875 48.921875 51.53125 44.890625 
Q 49.859375 40.875 45.40625 35.40625 
Q 44.1875 33.984375 37.640625 27.21875 
Q 31.109375 20.453125 19.1875 8.296875 
z
" id="DejaVuSans-50"/>
       </defs>
       <use xlink:href="#DejaVuSans-50"/>
      </g>
     </g>
    </g>
    <g id="xtick_3">
     <g id="line2d_3">
      <g>
       <use style="stroke:#000000;stroke-width:0.8;" x="123.960769" xlink:href="#m9b63718fa2" y="210.878437"/>
      </g>
     </g>
     <g id="text_3">
      <!-- 4 -->
      <g transform="translate(120.779519 225.476875)scale(0.1 -0.1)">
       <defs>
        <path d="M 37.796875 64.3125 
L 12.890625 25.390625 
L 37.796875 25.390625 
z
M 35.203125 72.90625 
L 47.609375 72.90625 
L 47.609375 25.390625 
L 58.015625 25.390625 
L 58.015625 17.1875 
L 47.609375 17.1875 
L 47.609375 0 
L 37.796875 0 
L 37.796875 17.1875 
L 4.890625 17.1875 
L 4.890625 26.703125 
z
" id="DejaVuSans-52"/>
       </defs>
       <use xlink:href="#DejaVuSans-52"/>
      </g>
     </g>
    </g>
    <g id="xtick_4">
     <g id="line2d_4">
      <g>
       <use style="stroke:#000000;stroke-width:0.8;" x="166.496154" xlink:href="#m9b63718fa2" y="210.878437"/>
      </g>
     </g>
     <g id="text_4">
      <!-- 6 -->
      <g transform="translate(163.314904 225.476875)scale(0.1 -0.1)">
       <defs>
        <path d="M 33.015625 40.375 
Q 26.375 40.375 22.484375 35.828125 
Q 18.609375 31.296875 18.609375 23.390625 
Q 18.609375 15.53125 22.484375 10.953125 
Q 26.375 6.390625 33.015625 6.390625 
Q 39.65625 6.390625 43.53125 10.953125 
Q 47.40625 15.53125 47.40625 23.390625 
Q 47.40625 31.296875 43.53125 35.828125 
Q 39.65625 40.375 33.015625 40.375 
z
M 52.59375 71.296875 
L 52.59375 62.3125 
Q 48.875 64.0625 45.09375 64.984375 
Q 41.3125 65.921875 37.59375 65.921875 
Q 27.828125 65.921875 22.671875 59.328125 
Q 17.53125 52.734375 16.796875 39.40625 
Q 19.671875 43.65625 24.015625 45.921875 
Q 28.375 48.1875 33.59375 48.1875 
Q 44.578125 48.1875 50.953125 41.515625 
Q 57.328125 34.859375 57.328125 23.390625 
Q 57.328125 12.15625 50.6875 5.359375 
Q 44.046875 -1.421875 33.015625 -1.421875 
Q 20.359375 -1.421875 13.671875 8.265625 
Q 6.984375 17.96875 6.984375 36.375 
Q 6.984375 53.65625 15.1875 63.9375 
Q 23.390625 74.21875 37.203125 74.21875 
Q 40.921875 74.21875 44.703125 73.484375 
Q 48.484375 72.75 52.59375 71.296875 
z
" id="DejaVuSans-54"/>
       </defs>
       <use xlink:href="#DejaVuSans-54"/>
      </g>
     </g>
    </g>
    <g id="xtick_5">
     <g id="line2d_5">
      <g>
       <use style="stroke:#000000;stroke-width:0.8;" x="209.031538" xlink:href="#m9b63718fa2" y="210.878437"/>
      </g>
     </g>
     <g id="text_5">
      <!-- 8 -->
      <g transform="translate(205.850288 225.476875)scale(0.1 -0.1)">
       <defs>
        <path d="M 31.78125 34.625 
Q 24.75 34.625 20.71875 30.859375 
Q 16.703125 27.09375 16.703125 20.515625 
Q 16.703125 13.921875 20.71875 10.15625 
Q 24.75 6.390625 31.78125 6.390625 
Q 38.8125 6.390625 42.859375 10.171875 
Q 46.921875 13.96875 46.921875 20.515625 
Q 46.921875 27.09375 42.890625 30.859375 
Q 38.875 34.625 31.78125 34.625 
z
M 21.921875 38.8125 
Q 15.578125 40.375 12.03125 44.71875 
Q 8.5 49.078125 8.5 55.328125 
Q 8.5 64.0625 14.71875 69.140625 
Q 20.953125 74.21875 31.78125 74.21875 
Q 42.671875 74.21875 48.875 69.140625 
Q 55.078125 64.0625 55.078125 55.328125 
Q 55.078125 49.078125 51.53125 44.71875 
Q 48 40.375 41.703125 38.8125 
Q 48.828125 37.15625 52.796875 32.3125 
Q 56.78125 27.484375 56.78125 20.515625 
Q 56.78125 9.90625 50.3125 4.234375 
Q 43.84375 -1.421875 31.78125 -1.421875 
Q 19.734375 -1.421875 13.25 4.234375 
Q 6.78125 9.90625 6.78125 20.515625 
Q 6.78125 27.484375 10.78125 32.3125 
Q 14.796875 37.15625 21.921875 38.8125 
z
M 18.3125 54.390625 
Q 18.3125 48.734375 21.84375 45.5625 
Q 25.390625 42.390625 31.78125 42.390625 
Q 38.140625 42.390625 41.71875 45.5625 
Q 45.3125 48.734375 45.3125 54.390625 
Q 45.3125 60.0625 41.71875 63.234375 
Q 38.140625 66.40625 31.78125 66.40625 
Q 25.390625 66.40625 21.84375 63.234375 
Q 18.3125 60.0625 18.3125 54.390625 
z
" id="DejaVuSans-56"/>
       </defs>
       <use xlink:href="#DejaVuSans-56"/>
      </g>
     </g>
    </g>
    <g id="xtick_6">
     <g id="line2d_6">
      <g>
       <use style="stroke:#000000;stroke-width:0.8;" x="251.566923" xlink:href="#m9b63718fa2" y="210.878437"/>
      </g>
     </g>
     <g id="text_6">
      <!-- 10 -->
      <g transform="translate(245.204423 225.476875)scale(0.1 -0.1)">
       <defs>
        <path d="M 12.40625 8.296875 
L 28.515625 8.296875 
L 28.515625 63.921875 
L 10.984375 60.40625 
L 10.984375 69.390625 
L 28.421875 72.90625 
L 38.28125 72.90625 
L 38.28125 8.296875 
L 54.390625 8.296875 
L 54.390625 0 
L 12.40625 0 
z
" id="DejaVuSans-49"/>
       </defs>
       <use xlink:href="#DejaVuSans-49"/>
       <use x="63.623047" xlink:href="#DejaVuSans-48"/>
      </g>
     </g>
    </g>
    <g id="xtick_7">
     <g id="line2d_7">
      <g>
       <use style="stroke:#000000;stroke-width:0.8;" x="294.102308" xlink:href="#m9b63718fa2" y="210.878437"/>
      </g>
     </g>
     <g id="text_7">
      <!-- 12 -->
      <g transform="translate(287.739808 225.476875)scale(0.1 -0.1)">
       <use xlink:href="#DejaVuSans-49"/>
       <use x="63.623047" xlink:href="#DejaVuSans-50"/>
      </g>
     </g>
    </g>
    <g id="text_8">
     <!-- Clonotype size in CD8_Teff -->
     <g transform="translate(124.185 237.635312)scale(0.08 -0.08)">
      <defs>
       <path d="M 64.40625 67.28125 
L 64.40625 56.890625 
Q 59.421875 61.53125 53.78125 63.8125 
Q 48.140625 66.109375 41.796875 66.109375 
Q 29.296875 66.109375 22.65625 58.46875 
Q 16.015625 50.828125 16.015625 36.375 
Q 16.015625 21.96875 22.65625 14.328125 
Q 29.296875 6.6875 41.796875 6.6875 
Q 48.140625 6.6875 53.78125 8.984375 
Q 59.421875 11.28125 64.40625 15.921875 
L 64.40625 5.609375 
Q 59.234375 2.09375 53.4375 0.328125 
Q 47.65625 -1.421875 41.21875 -1.421875 
Q 24.65625 -1.421875 15.125 8.703125 
Q 5.609375 18.84375 5.609375 36.375 
Q 5.609375 53.953125 15.125 64.078125 
Q 24.65625 74.21875 41.21875 74.21875 
Q 47.75 74.21875 53.53125 72.484375 
Q 59.328125 70.75 64.40625 67.28125 
z
" id="DejaVuSans-67"/>
       <path d="M 9.421875 75.984375 
L 18.40625 75.984375 
L 18.40625 0 
L 9.421875 0 
z
" id="DejaVuSans-108"/>
       <path d="M 30.609375 48.390625 
Q 23.390625 48.390625 19.1875 42.75 
Q 14.984375 37.109375 14.984375 27.296875 
Q 14.984375 17.484375 19.15625 11.84375 
Q 23.34375 6.203125 30.609375 6.203125 
Q 37.796875 6.203125 41.984375 11.859375 
Q 46.1875 17.53125 46.1875 27.296875 
Q 46.1875 37.015625 41.984375 42.703125 
Q 37.796875 48.390625 30.609375 48.390625 
z
M 30.609375 56 
Q 42.328125 56 49.015625 48.375 
Q 55.71875 40.765625 55.71875 27.296875 
Q 55.71875 13.875 49.015625 6.21875 
Q 42.328125 -1.421875 30.609375 -1.421875 
Q 18.84375 -1.421875 12.171875 6.21875 
Q 5.515625 13.875 5.515625 27.296875 
Q 5.515625 40.765625 12.171875 48.375 
Q 18.84375 56 30.609375 56 
z
" id="DejaVuSans-111"/>
       <path d="M 54.890625 33.015625 
L 54.890625 0 
L 45.90625 0 
L 45.90625 32.71875 
Q 45.90625 40.484375 42.875 44.328125 
Q 39.84375 48.1875 33.796875 48.1875 
Q 26.515625 48.1875 22.3125 43.546875 
Q 18.109375 38.921875 18.109375 30.90625 
L 18.109375 0 
L 9.078125 0 
L 9.078125 54.6875 
L 18.109375 54.6875 
L 18.109375 46.1875 
Q 21.34375 51.125 25.703125 53.5625 
Q 30.078125 56 35.796875 56 
Q 45.21875 56 50.046875 50.171875 
Q 54.890625 44.34375 54.890625 33.015625 
z
" id="DejaVuSans-110"/>
       <path d="M 18.3125 70.21875 
L 18.3125 54.6875 
L 36.8125 54.6875 
L 36.8125 47.703125 
L 18.3125 47.703125 
L 18.3125 18.015625 
Q 18.3125 11.328125 20.140625 9.421875 
Q 21.96875 7.515625 27.59375 7.515625 
L 36.8125 7.515625 
L 36.8125 0 
L 27.59375 0 
Q 17.1875 0 13.234375 3.875 
Q 9.28125 7.765625 9.28125 18.015625 
L 9.28125 47.703125 
L 2.6875 47.703125 
L 2.6875 54.6875 
L 9.28125 54.6875 
L 9.28125 70.21875 
z
" id="DejaVuSans-116"/>
       <path d="M 32.171875 -5.078125 
Q 28.375 -14.84375 24.75 -17.8125 
Q 21.140625 -20.796875 15.09375 -20.796875 
L 7.90625 -20.796875 
L 7.90625 -13.28125 
L 13.1875 -13.28125 
Q 16.890625 -13.28125 18.9375 -11.515625 
Q 21 -9.765625 23.484375 -3.21875 
L 25.09375 0.875 
L 2.984375 54.6875 
L 12.5 54.6875 
L 29.59375 11.921875 
L 46.6875 54.6875 
L 56.203125 54.6875 
z
" id="DejaVuSans-121"/>
       <path d="M 18.109375 8.203125 
L 18.109375 -20.796875 
L 9.078125 -20.796875 
L 9.078125 54.6875 
L 18.109375 54.6875 
L 18.109375 46.390625 
Q 20.953125 51.265625 25.265625 53.625 
Q 29.59375 56 35.59375 56 
Q 45.5625 56 51.78125 48.09375 
Q 58.015625 40.1875 58.015625 27.296875 
Q 58.015625 14.40625 51.78125 6.484375 
Q 45.5625 -1.421875 35.59375 -1.421875 
Q 29.59375 -1.421875 25.265625 0.953125 
Q 20.953125 3.328125 18.109375 8.203125 
z
M 48.6875 27.296875 
Q 48.6875 37.203125 44.609375 42.84375 
Q 40.53125 48.484375 33.40625 48.484375 
Q 26.265625 48.484375 22.1875 42.84375 
Q 18.109375 37.203125 18.109375 27.296875 
Q 18.109375 17.390625 22.1875 11.75 
Q 26.265625 6.109375 33.40625 6.109375 
Q 40.53125 6.109375 44.609375 11.75 
Q 48.6875 17.390625 48.6875 27.296875 
z
" id="DejaVuSans-112"/>
       <path d="M 56.203125 29.59375 
L 56.203125 25.203125 
L 14.890625 25.203125 
Q 15.484375 15.921875 20.484375 11.0625 
Q 25.484375 6.203125 34.421875 6.203125 
Q 39.59375 6.203125 44.453125 7.46875 
Q 49.3125 8.734375 54.109375 11.28125 
L 54.109375 2.78125 
Q 49.265625 0.734375 44.1875 -0.34375 
Q 39.109375 -1.421875 33.890625 -1.421875 
Q 20.796875 -1.421875 13.15625 6.1875 
Q 5.515625 13.8125 5.515625 26.8125 
Q 5.515625 40.234375 12.765625 48.109375 
Q 20.015625 56 32.328125 56 
Q 43.359375 56 49.78125 48.890625 
Q 56.203125 41.796875 56.203125 29.59375 
z
M 47.21875 32.234375 
Q 47.125 39.59375 43.09375 43.984375 
Q 39.0625 48.390625 32.421875 48.390625 
Q 24.90625 48.390625 20.390625 44.140625 
Q 15.875 39.890625 15.1875 32.171875 
z
" id="DejaVuSans-101"/>
       <path id="DejaVuSans-32"/>
       <path d="M 44.28125 53.078125 
L 44.28125 44.578125 
Q 40.484375 46.53125 36.375 47.5 
Q 32.28125 48.484375 27.875 48.484375 
Q 21.1875 48.484375 17.84375 46.4375 
Q 14.5 44.390625 14.5 40.28125 
Q 14.5 37.15625 16.890625 35.375 
Q 19.28125 33.59375 26.515625 31.984375 
L 29.59375 31.296875 
Q 39.15625 29.25 43.1875 25.515625 
Q 47.21875 21.78125 47.21875 15.09375 
Q 47.21875 7.46875 41.1875 3.015625 
Q 35.15625 -1.421875 24.609375 -1.421875 
Q 20.21875 -1.421875 15.453125 -0.5625 
Q 10.6875 0.296875 5.421875 2 
L 5.421875 11.28125 
Q 10.40625 8.6875 15.234375 7.390625 
Q 20.0625 6.109375 24.8125 6.109375 
Q 31.15625 6.109375 34.5625 8.28125 
Q 37.984375 10.453125 37.984375 14.40625 
Q 37.984375 18.0625 35.515625 20.015625 
Q 33.0625 21.96875 24.703125 23.78125 
L 21.578125 24.515625 
Q 13.234375 26.265625 9.515625 29.90625 
Q 5.8125 33.546875 5.8125 39.890625 
Q 5.8125 47.609375 11.28125 51.796875 
Q 16.75 56 26.8125 56 
Q 31.78125 56 36.171875 55.265625 
Q 40.578125 54.546875 44.28125 53.078125 
z
" id="DejaVuSans-115"/>
       <path d="M 9.421875 54.6875 
L 18.40625 54.6875 
L 18.40625 0 
L 9.421875 0 
z
M 9.421875 75.984375 
L 18.40625 75.984375 
L 18.40625 64.59375 
L 9.421875 64.59375 
z
" id="DejaVuSans-105"/>
       <path d="M 5.515625 54.6875 
L 48.1875 54.6875 
L 48.1875 46.484375 
L 14.40625 7.171875 
L 48.1875 7.171875 
L 48.1875 0 
L 4.296875 0 
L 4.296875 8.203125 
L 38.09375 47.515625 
L 5.515625 47.515625 
z
" id="DejaVuSans-122"/>
       <path d="M 19.671875 64.796875 
L 19.671875 8.109375 
L 31.59375 8.109375 
Q 46.6875 8.109375 53.6875 14.9375 
Q 60.6875 21.78125 60.6875 36.53125 
Q 60.6875 51.171875 53.6875 57.984375 
Q 46.6875 64.796875 31.59375 64.796875 
z
M 9.8125 72.90625 
L 30.078125 72.90625 
Q 51.265625 72.90625 61.171875 64.09375 
Q 71.09375 55.28125 71.09375 36.53125 
Q 71.09375 17.671875 61.125 8.828125 
Q 51.171875 0 30.078125 0 
L 9.8125 0 
z
" id="DejaVuSans-68"/>
       <path d="M 50.984375 -16.609375 
L 50.984375 -23.578125 
L -0.984375 -23.578125 
L -0.984375 -16.609375 
z
" id="DejaVuSans-95"/>
       <path d="M -0.296875 72.90625 
L 61.375 72.90625 
L 61.375 64.59375 
L 35.5 64.59375 
L 35.5 0 
L 25.59375 0 
L 25.59375 64.59375 
L -0.296875 64.59375 
z
" id="DejaVuSans-84"/>
       <path d="M 37.109375 75.984375 
L 37.109375 68.5 
L 28.515625 68.5 
Q 23.6875 68.5 21.796875 66.546875 
Q 19.921875 64.59375 19.921875 59.515625 
L 19.921875 54.6875 
L 34.71875 54.6875 
L 34.71875 47.703125 
L 19.921875 47.703125 
L 19.921875 0 
L 10.890625 0 
L 10.890625 47.703125 
L 2.296875 47.703125 
L 2.296875 54.6875 
L 10.890625 54.6875 
L 10.890625 58.5 
Q 10.890625 67.625 15.140625 71.796875 
Q 19.390625 75.984375 28.609375 75.984375 
z
" id="DejaVuSans-102"/>
      </defs>
      <use xlink:href="#DejaVuSans-67"/>
      <use x="69.824219" xlink:href="#DejaVuSans-108"/>
      <use x="97.607422" xlink:href="#DejaVuSans-111"/>
      <use x="158.789062" xlink:href="#DejaVuSans-110"/>
      <use x="222.167969" xlink:href="#DejaVuSans-111"/>
      <use x="283.349609" xlink:href="#DejaVuSans-116"/>
      <use x="322.558594" xlink:href="#DejaVuSans-121"/>
      <use x="381.738281" xlink:href="#DejaVuSans-112"/>
      <use x="445.214844" xlink:href="#DejaVuSans-101"/>
      <use x="506.738281" xlink:href="#DejaVuSans-32"/>
      <use x="538.525391" xlink:href="#DejaVuSans-115"/>
      <use x="590.625" xlink:href="#DejaVuSans-105"/>
      <use x="618.408203" xlink:href="#DejaVuSans-122"/>
      <use x="670.898438" xlink:href="#DejaVuSans-101"/>
      <use x="732.421875" xlink:href="#DejaVuSans-32"/>
      <use x="764.208984" xlink:href="#DejaVuSans-105"/>
      <use x="791.992188" xlink:href="#DejaVuSans-110"/>
      <use x="855.371094" xlink:href="#DejaVuSans-32"/>
      <use x="887.158203" xlink:href="#DejaVuSans-67"/>
      <use x="956.982422" xlink:href="#DejaVuSans-68"/>
      <use x="1033.984375" xlink:href="#DejaVuSans-56"/>
      <use x="1097.607422" xlink:href="#DejaVuSans-95"/>
      <use x="1147.607422" xlink:href="#DejaVuSans-84"/>
      <use x="1191.691406" xlink:href="#DejaVuSans-101"/>
      <use x="1253.214844" xlink:href="#DejaVuSans-102"/>
      <use x="1288.419922" xlink:href="#DejaVuSans-102"/>
     </g>
    </g>
   </g>
   <g id="matplotlib.axis_2">
    <g id="ytick_1">
     <g id="line2d_8">
      <defs>
       <path d="M 0 0 
L -3.5 0 
" id="m537c33fac7" style="stroke:#000000;stroke-width:0.8;"/>
      </defs>
      <g>
       <use style="stroke:#000000;stroke-width:0.8;" x="38.89" xlink:href="#m537c33fac7" y="210.878437"/>
      </g>
     </g>
     <g id="text_9">
      <!-- 0 -->
      <g transform="translate(25.5275 214.677656)scale(0.1 -0.1)">
       <use xlink:href="#DejaVuSans-48"/>
      </g>
     </g>
    </g>
    <g id="ytick_2">
     <g id="line2d_9">
      <g>
       <use style="stroke:#000000;stroke-width:0.8;" x="38.89" xlink:href="#m537c33fac7" y="181.635361"/>
      </g>
     </g>
     <g id="text_10">
      <!-- 2 -->
      <g transform="translate(25.5275 185.434579)scale(0.1 -0.1)">
       <use xlink:href="#DejaVuSans-50"/>
      </g>
     </g>
    </g>
    <g id="ytick_3">
     <g id="line2d_10">
      <g>
       <use style="stroke:#000000;stroke-width:0.8;" x="38.89" xlink:href="#m537c33fac7" y="152.392284"/>
      </g>
     </g>
     <g id="text_11">
      <!-- 4 -->
      <g transform="translate(25.5275 156.191502)scale(0.1 -0.1)">
       <use xlink:href="#DejaVuSans-52"/>
      </g>
     </g>
    </g>
    <g id="ytick_4">
     <g id="line2d_11">
      <g>
       <use style="stroke:#000000;stroke-width:0.8;" x="38.89" xlink:href="#m537c33fac7" y="123.149207"/>
      </g>
     </g>
     <g id="text_12">
      <!-- 6 -->
      <g transform="translate(25.5275 126.948425)scale(0.1 -0.1)">
       <use xlink:href="#DejaVuSans-54"/>
      </g>
     </g>
    </g>
    <g id="ytick_5">
     <g id="line2d_12">
      <g>
       <use style="stroke:#000000;stroke-width:0.8;" x="38.89" xlink:href="#m537c33fac7" y="93.90613"/>
      </g>
     </g>
     <g id="text_13">
      <!-- 8 -->
      <g transform="translate(25.5275 97.705349)scale(0.1 -0.1)">
       <use xlink:href="#DejaVuSans-56"/>
      </g>
     </g>
    </g>
    <g id="ytick_6">
     <g id="line2d_13">
      <g>
       <use style="stroke:#000000;stroke-width:0.8;" x="38.89" xlink:href="#m537c33fac7" y="64.663053"/>
      </g>
     </g>
     <g id="text_14">
      <!-- 10 -->
      <g transform="translate(19.165 68.462272)scale(0.1 -0.1)">
       <use xlink:href="#DejaVuSans-49"/>
       <use x="63.623047" xlink:href="#DejaVuSans-48"/>
      </g>
     </g>
    </g>
    <g id="ytick_7">
     <g id="line2d_14">
      <g>
       <use style="stroke:#000000;stroke-width:0.8;" x="38.89" xlink:href="#m537c33fac7" y="35.419976"/>
      </g>
     </g>
     <g id="text_15">
      <!-- 12 -->
      <g transform="translate(19.165 39.219195)scale(0.1 -0.1)">
       <use xlink:href="#DejaVuSans-49"/>
       <use x="63.623047" xlink:href="#DejaVuSans-50"/>
      </g>
     </g>
    </g>
    <g id="text_16">
     <!-- Clonotype size in CD8_Trm -->
     <g transform="translate(13.27875 169.066562)rotate(-90)scale(0.08 -0.08)">
      <defs>
       <path d="M 41.109375 46.296875 
Q 39.59375 47.171875 37.8125 47.578125 
Q 36.03125 48 33.890625 48 
Q 26.265625 48 22.1875 43.046875 
Q 18.109375 38.09375 18.109375 28.8125 
L 18.109375 0 
L 9.078125 0 
L 9.078125 54.6875 
L 18.109375 54.6875 
L 18.109375 46.1875 
Q 20.953125 51.171875 25.484375 53.578125 
Q 30.03125 56 36.53125 56 
Q 37.453125 56 38.578125 55.875 
Q 39.703125 55.765625 41.0625 55.515625 
z
" id="DejaVuSans-114"/>
       <path d="M 52 44.1875 
Q 55.375 50.25 60.0625 53.125 
Q 64.75 56 71.09375 56 
Q 79.640625 56 84.28125 50.015625 
Q 88.921875 44.046875 88.921875 33.015625 
L 88.921875 0 
L 79.890625 0 
L 79.890625 32.71875 
Q 79.890625 40.578125 77.09375 44.375 
Q 74.3125 48.1875 68.609375 48.1875 
Q 61.625 48.1875 57.5625 43.546875 
Q 53.515625 38.921875 53.515625 30.90625 
L 53.515625 0 
L 44.484375 0 
L 44.484375 32.71875 
Q 44.484375 40.625 41.703125 44.40625 
Q 38.921875 48.1875 33.109375 48.1875 
Q 26.21875 48.1875 22.15625 43.53125 
Q 18.109375 38.875 18.109375 30.90625 
L 18.109375 0 
L 9.078125 0 
L 9.078125 54.6875 
L 18.109375 54.6875 
L 18.109375 46.1875 
Q 21.1875 51.21875 25.484375 53.609375 
Q 29.78125 56 35.6875 56 
Q 41.65625 56 45.828125 52.96875 
Q 50 49.953125 52 44.1875 
z
" id="DejaVuSans-109"/>
      </defs>
      <use xlink:href="#DejaVuSans-67"/>
      <use x="69.824219" xlink:href="#DejaVuSans-108"/>
      <use x="97.607422" xlink:href="#DejaVuSans-111"/>
      <use x="158.789062" xlink:href="#DejaVuSans-110"/>
      <use x="222.167969" xlink:href="#DejaVuSans-111"/>
      <use x="283.349609" xlink:href="#DejaVuSans-116"/>
      <use x="322.558594" xlink:href="#DejaVuSans-121"/>
      <use x="381.738281" xlink:href="#DejaVuSans-112"/>
      <use x="445.214844" xlink:href="#DejaVuSans-101"/>
      <use x="506.738281" xlink:href="#DejaVuSans-32"/>
      <use x="538.525391" xlink:href="#DejaVuSans-115"/>
      <use x="590.625" xlink:href="#DejaVuSans-105"/>
      <use x="618.408203" xlink:href="#DejaVuSans-122"/>
      <use x="670.898438" xlink:href="#DejaVuSans-101"/>
      <use x="732.421875" xlink:href="#DejaVuSans-32"/>
      <use x="764.208984" xlink:href="#DejaVuSans-105"/>
      <use x="791.992188" xlink:href="#DejaVuSans-110"/>
      <use x="855.371094" xlink:href="#DejaVuSans-32"/>
      <use x="887.158203" xlink:href="#DejaVuSans-67"/>
      <use x="956.982422" xlink:href="#DejaVuSans-68"/>
      <use x="1033.984375" xlink:href="#DejaVuSans-56"/>
      <use x="1097.607422" xlink:href="#DejaVuSans-95"/>
      <use x="1147.607422" xlink:href="#DejaVuSans-84"/>
      <use x="1193.941406" xlink:href="#DejaVuSans-114"/>
      <use x="1233.304688" xlink:href="#DejaVuSans-109"/>
     </g>
    </g>
   </g>
   <g id="patch_3">
    <path d="M 38.89 210.878437 
L 38.89 20.798437 
" style="fill:none;stroke:#000000;stroke-linecap:square;stroke-linejoin:miter;stroke-width:0.8;"/>
   </g>
   <g id="patch_4">
    <path d="M 38.89 210.878437 
L 315.37 210.878437 
" style="fill:none;stroke:#000000;stroke-linecap:square;stroke-linejoin:miter;stroke-width:0.8;"/>
   </g>
   <g id="text_17">
    <!-- Repertoire overlap between CD8_Teff and CD8_Trm -->
    <g transform="translate(49.316719 14.798437)scale(0.1 -0.1)">
     <defs>
      <path d="M 44.390625 34.1875 
Q 47.5625 33.109375 50.5625 29.59375 
Q 53.5625 26.078125 56.59375 19.921875 
L 66.609375 0 
L 56 0 
L 46.6875 18.703125 
Q 43.0625 26.03125 39.671875 28.421875 
Q 36.28125 30.8125 30.421875 30.8125 
L 19.671875 30.8125 
L 19.671875 0 
L 9.8125 0 
L 9.8125 72.90625 
L 32.078125 72.90625 
Q 44.578125 72.90625 50.734375 67.671875 
Q 56.890625 62.453125 56.890625 51.90625 
Q 56.890625 45.015625 53.6875 40.46875 
Q 50.484375 35.9375 44.390625 34.1875 
z
M 19.671875 64.796875 
L 19.671875 38.921875 
L 32.078125 38.921875 
Q 39.203125 38.921875 42.84375 42.21875 
Q 46.484375 45.515625 46.484375 51.90625 
Q 46.484375 58.296875 42.84375 61.546875 
Q 39.203125 64.796875 32.078125 64.796875 
z
" id="DejaVuSans-82"/>
      <path d="M 2.984375 54.6875 
L 12.5 54.6875 
L 29.59375 8.796875 
L 46.6875 54.6875 
L 56.203125 54.6875 
L 35.6875 0 
L 23.484375 0 
z
" id="DejaVuSans-118"/>
      <path d="M 34.28125 27.484375 
Q 23.390625 27.484375 19.1875 25 
Q 14.984375 22.515625 14.984375 16.5 
Q 14.984375 11.71875 18.140625 8.90625 
Q 21.296875 6.109375 26.703125 6.109375 
Q 34.1875 6.109375 38.703125 11.40625 
Q 43.21875 16.703125 43.21875 25.484375 
L 43.21875 27.484375 
z
M 52.203125 31.203125 
L 52.203125 0 
L 43.21875 0 
L 43.21875 8.296875 
Q 40.140625 3.328125 35.546875 0.953125 
Q 30.953125 -1.421875 24.3125 -1.421875 
Q 15.921875 -1.421875 10.953125 3.296875 
Q 6 8.015625 6 15.921875 
Q 6 25.140625 12.171875 29.828125 
Q 18.359375 34.515625 30.609375 34.515625 
L 43.21875 34.515625 
L 43.21875 35.40625 
Q 43.21875 41.609375 39.140625 45 
Q 35.0625 48.390625 27.6875 48.390625 
Q 23 48.390625 18.546875 47.265625 
Q 14.109375 46.140625 10.015625 43.890625 
L 10.015625 52.203125 
Q 14.9375 54.109375 19.578125 55.046875 
Q 24.21875 56 28.609375 56 
Q 40.484375 56 46.34375 49.84375 
Q 52.203125 43.703125 52.203125 31.203125 
z
" id="DejaVuSans-97"/>
      <path d="M 48.6875 27.296875 
Q 48.6875 37.203125 44.609375 42.84375 
Q 40.53125 48.484375 33.40625 48.484375 
Q 26.265625 48.484375 22.1875 42.84375 
Q 18.109375 37.203125 18.109375 27.296875 
Q 18.109375 17.390625 22.1875 11.75 
Q 26.265625 6.109375 33.40625 6.109375 
Q 40.53125 6.109375 44.609375 11.75 
Q 48.6875 17.390625 48.6875 27.296875 
z
M 18.109375 46.390625 
Q 20.953125 51.265625 25.265625 53.625 
Q 29.59375 56 35.59375 56 
Q 45.5625 56 51.78125 48.09375 
Q 58.015625 40.1875 58.015625 27.296875 
Q 58.015625 14.40625 51.78125 6.484375 
Q 45.5625 -1.421875 35.59375 -1.421875 
Q 29.59375 -1.421875 25.265625 0.953125 
Q 20.953125 3.328125 18.109375 8.203125 
L 18.109375 0 
L 9.078125 0 
L 9.078125 75.984375 
L 18.109375 75.984375 
z
" id="DejaVuSans-98"/>
      <path d="M 4.203125 54.6875 
L 13.1875 54.6875 
L 24.421875 12.015625 
L 35.59375 54.6875 
L 46.1875 54.6875 
L 57.421875 12.015625 
L 68.609375 54.6875 
L 77.59375 54.6875 
L 63.28125 0 
L 52.6875 0 
L 40.921875 44.828125 
L 29.109375 0 
L 18.5 0 
z
" id="DejaVuSans-119"/>
      <path d="M 45.40625 46.390625 
L 45.40625 75.984375 
L 54.390625 75.984375 
L 54.390625 0 
L 45.40625 0 
L 45.40625 8.203125 
Q 42.578125 3.328125 38.25 0.953125 
Q 33.9375 -1.421875 27.875 -1.421875 
Q 17.96875 -1.421875 11.734375 6.484375 
Q 5.515625 14.40625 5.515625 27.296875 
Q 5.515625 40.1875 11.734375 48.09375 
Q 17.96875 56 27.875 56 
Q 33.9375 56 38.25 53.625 
Q 42.578125 51.265625 45.40625 46.390625 
z
M 14.796875 27.296875 
Q 14.796875 17.390625 18.875 11.75 
Q 22.953125 6.109375 30.078125 6.109375 
Q 37.203125 6.109375 41.296875 11.75 
Q 45.40625 17.390625 45.40625 27.296875 
Q 45.40625 37.203125 41.296875 42.84375 
Q 37.203125 48.484375 30.078125 48.484375 
Q 22.953125 48.484375 18.875 42.84375 
Q 14.796875 37.203125 14.796875 27.296875 
z
" id="DejaVuSans-100"/>
     </defs>
     <use xlink:href="#DejaVuSans-82"/>
     <use x="64.982422" xlink:href="#DejaVuSans-101"/>
     <use x="126.505859" xlink:href="#DejaVuSans-112"/>
     <use x="189.982422" xlink:href="#DejaVuSans-101"/>
     <use x="251.505859" xlink:href="#DejaVuSans-114"/>
     <use x="292.619141" xlink:href="#DejaVuSans-116"/>
     <use x="331.828125" xlink:href="#DejaVuSans-111"/>
     <use x="393.009766" xlink:href="#DejaVuSans-105"/>
     <use x="420.792969" xlink:href="#DejaVuSans-114"/>
     <use x="459.65625" xlink:href="#DejaVuSans-101"/>
     <use x="521.179688" xlink:href="#DejaVuSans-32"/>
     <use x="552.966797" xlink:href="#DejaVuSans-111"/>
     <use x="614.148438" xlink:href="#DejaVuSans-118"/>
     <use x="673.328125" xlink:href="#DejaVuSans-101"/>
     <use x="734.851562" xlink:href="#DejaVuSans-114"/>
     <use x="775.964844" xlink:href="#DejaVuSans-108"/>
     <use x="803.748047" xlink:href="#DejaVuSans-97"/>
     <use x="865.027344" xlink:href="#DejaVuSans-112"/>
     <use x="928.503906" xlink:href="#DejaVuSans-32"/>
     <use x="960.291016" xlink:href="#DejaVuSans-98"/>
     <use x="1023.767578" xlink:href="#DejaVuSans-101"/>
     <use x="1085.291016" xlink:href="#DejaVuSans-116"/>
     <use x="1124.5" xlink:href="#DejaVuSans-119"/>
     <use x="1206.287109" xlink:href="#DejaVuSans-101"/>
     <use x="1267.810547" xlink:href="#DejaVuSans-101"/>
     <use x="1329.333984" xlink:href="#DejaVuSans-110"/>
     <use x="1392.712891" xlink:href="#DejaVuSans-32"/>
     <use x="1424.5" xlink:href="#DejaVuSans-67"/>
     <use x="1494.324219" xlink:href="#DejaVuSans-68"/>
     <use x="1571.326172" xlink:href="#DejaVuSans-56"/>
     <use x="1634.949219" xlink:href="#DejaVuSans-95"/>
     <use x="1684.949219" xlink:href="#DejaVuSans-84"/>
     <use x="1729.033203" xlink:href="#DejaVuSans-101"/>
     <use x="1790.556641" xlink:href="#DejaVuSans-102"/>
     <use x="1825.761719" xlink:href="#DejaVuSans-102"/>
     <use x="1860.966797" xlink:href="#DejaVuSans-32"/>
     <use x="1892.753906" xlink:href="#DejaVuSans-97"/>
     <use x="1954.033203" xlink:href="#DejaVuSans-110"/>
     <use x="2017.412109" xlink:href="#DejaVuSans-100"/>
     <use x="2080.888672" xlink:href="#DejaVuSans-32"/>
     <use x="2112.675781" xlink:href="#DejaVuSans-67"/>
     <use x="2182.5" xlink:href="#DejaVuSans-68"/>
     <use x="2259.501953" xlink:href="#DejaVuSans-56"/>
     <use x="2323.125" xlink:href="#DejaVuSans-95"/>
     <use x="2373.125" xlink:href="#DejaVuSans-84"/>
     <use x="2419.458984" xlink:href="#DejaVuSans-114"/>
     <use x="2458.822266" xlink:href="#DejaVuSans-109"/>
    </g>
   </g>
   <g id="legend_1"/>
  </g>
 </g>
 <defs>
  <clipPath id="p51a505de10">
   <rect height="190.08" width="276.48" x="38.89" y="20.798437"/>
  </clipPath>
 </defs>
</svg>
