<?xml version="1.0" encoding="utf-8" standalone="no"?>
<!DOCTYPE svg PUBLIC "-//W3C//DTD SVG 1.1//EN"
  "http://www.w3.org/Graphics/SVG/1.1/DTD/svg11.dtd">
<!-- Created with matplotlib (https://matplotlib.org/) -->
<svg height="245.338639pt" version="1.1" viewBox="0 0 443.3935 245.338639" width="443.3935pt" xmlns="http://www.w3.org/2000/svg" xmlns:xlink="http://www.w3.org/1999/xlink">
 <metadata>
  <rdf:RDF xmlns:cc="http://creativecommons.org/ns#" xmlns:dc="http://purl.org/dc/elements/1.1/" xmlns:rdf="http://www.w3.org/1999/02/22-rdf-syntax-ns#">
   <cc:Work>
    <dc:type rdf:resource="http://purl.org/dc/dcmitype/StillImage"/>
    <dc:date>2021-01-30T16:37:28.136741</dc:date>
    <dc:format>image/svg+xml</dc:format>
    <dc:creator>
     <cc:Agent>
      <dc:title>Matplotlib v3.3.4, https://matplotlib.org/</dc:title>
     </cc:Agent>
    </dc:creator>
   </cc:Work>
  </rdf:RDF>
 </metadata>
 <defs>
  <style type="text/css">*{stroke-linecap:butt;stroke-linejoin:round;}</style>
 </defs>
 <g id="figure_1">
  <g id="patch_1">
   <path d="M 0 245.338639 
L 443.3935 245.338639 
L 443.3935 0 
L 0 0 
z
" style="fill:#ffffff;"/>
  </g>
  <g id="axes_1">
   <g id="patch_2">
    <path d="M 32.305 210.878437 
L 308.785 210.878437 
L 308.785 20.798437 
L 32.305 20.798437 
z
" style="fill:#ffffff;"/>
   </g>
   <g id="patch_3">
    <path clip-path="url(#p8b947b9417)" d="M 35.446818 210.878437 
L 41.730455 210.878437 
L 41.730455 210.878437 
L 35.446818 210.878437 
z
" style="fill:#1f77b4;"/>
   </g>
   <g id="patch_4">
    <path clip-path="url(#p8b947b9417)" d="M 48.014091 210.878437 
L 54.297727 210.878437 
L 54.297727 210.878437 
L 48.014091 210.878437 
z
" style="fill:#1f77b4;"/>
   </g>
   <g id="patch_5">
    <path clip-path="url(#p8b947b9417)" d="M 60.581364 210.878437 
L 66.865 210.878437 
L 66.865 210.878437 
L 60.581364 210.878437 
z
" style="fill:#1f77b4;"/>
   </g>
   <g id="patch_6">
    <path clip-path="url(#p8b947b9417)" d="M 73.148636 210.878437 
L 79.432273 210.878437 
L 79.432273 210.878437 
L 73.148636 210.878437 
z
" style="fill:#1f77b4;"/>
   </g>
   <g id="patch_7">
    <path clip-path="url(#p8b947b9417)" d="M 85.715909 210.878437 
L 91.999545 210.878437 
L 91.999545 210.878437 
L 85.715909 210.878437 
z
" style="fill:#1f77b4;"/>
   </g>
   <g id="patch_8">
    <path clip-path="url(#p8b947b9417)" d="M 98.283182 210.878437 
L 104.566818 210.878437 
L 104.566818 210.878437 
L 98.283182 210.878437 
z
" style="fill:#1f77b4;"/>
   </g>
   <g id="patch_9">
    <path clip-path="url(#p8b947b9417)" d="M 110.850455 210.878437 
L 117.134091 210.878437 
L 117.134091 210.878437 
L 110.850455 210.878437 
z
" style="fill:#1f77b4;"/>
   </g>
   <g id="patch_10">
    <path clip-path="url(#p8b947b9417)" d="M 123.417727 210.878437 
L 129.701364 210.878437 
L 129.701364 210.878437 
L 123.417727 210.878437 
z
" style="fill:#1f77b4;"/>
   </g>
   <g id="patch_11">
    <path clip-path="url(#p8b947b9417)" d="M 135.985 210.878437 
L 142.268636 210.878437 
L 142.268636 210.878437 
L 135.985 210.878437 
z
" style="fill:#1f77b4;"/>
   </g>
   <g id="patch_12">
    <path clip-path="url(#p8b947b9417)" d="M 148.552273 210.878437 
L 154.835909 210.878437 
L 154.835909 210.878437 
L 148.552273 210.878437 
z
" style="fill:#1f77b4;"/>
   </g>
   <g id="patch_13">
    <path clip-path="url(#p8b947b9417)" d="M 161.119545 210.878437 
L 167.403182 210.878437 
L 167.403182 210.878437 
L 161.119545 210.878437 
z
" style="fill:#1f77b4;"/>
   </g>
   <g id="patch_14">
    <path clip-path="url(#p8b947b9417)" d="M 173.686818 210.878437 
L 179.970455 210.878437 
L 179.970455 208.34412 
L 173.686818 208.34412 
z
" style="fill:#1f77b4;"/>
   </g>
   <g id="patch_15">
    <path clip-path="url(#p8b947b9417)" d="M 186.254091 210.878437 
L 192.537727 210.878437 
L 192.537727 203.129962 
L 186.254091 203.129962 
z
" style="fill:#1f77b4;"/>
   </g>
   <g id="patch_16">
    <path clip-path="url(#p8b947b9417)" d="M 198.821364 210.878437 
L 205.105 210.878437 
L 205.105 190.327991 
L 198.821364 190.327991 
z
" style="fill:#1f77b4;"/>
   </g>
   <g id="patch_17">
    <path clip-path="url(#p8b947b9417)" d="M 211.388636 210.878437 
L 217.672273 210.878437 
L 217.672273 182.872278 
L 211.388636 182.872278 
z
" style="fill:#1f77b4;"/>
   </g>
   <g id="patch_18">
    <path clip-path="url(#p8b947b9417)" d="M 223.955909 210.878437 
L 230.239545 210.878437 
L 230.239545 168.757877 
L 223.955909 168.757877 
z
" style="fill:#1f77b4;"/>
   </g>
   <g id="patch_19">
    <path clip-path="url(#p8b947b9417)" d="M 236.523182 210.878437 
L 242.806818 210.878437 
L 242.806818 192.01577 
L 236.523182 192.01577 
z
" style="fill:#1f77b4;"/>
   </g>
   <g id="patch_20">
    <path clip-path="url(#p8b947b9417)" d="M 249.090455 210.878437 
L 255.374091 210.878437 
L 255.374091 206.355661 
L 249.090455 206.355661 
z
" style="fill:#1f77b4;"/>
   </g>
   <g id="patch_21">
    <path clip-path="url(#p8b947b9417)" d="M 261.657727 210.878437 
L 267.941364 210.878437 
L 267.941364 205.112861 
L 261.657727 205.112861 
z
" style="fill:#1f77b4;"/>
   </g>
   <g id="patch_22">
    <path clip-path="url(#p8b947b9417)" d="M 274.225 210.878437 
L 280.508636 210.878437 
L 280.508636 210.37163 
L 274.225 210.37163 
z
" style="fill:#1f77b4;"/>
   </g>
   <g id="patch_23">
    <path clip-path="url(#p8b947b9417)" d="M 286.792273 210.878437 
L 293.075909 210.878437 
L 293.075909 210.878437 
L 286.792273 210.878437 
z
" style="fill:#1f77b4;"/>
   </g>
   <g id="patch_24">
    <path clip-path="url(#p8b947b9417)" d="M 299.359545 210.878437 
L 305.643182 210.878437 
L 305.643182 210.224923 
L 299.359545 210.224923 
z
" style="fill:#1f77b4;"/>
   </g>
   <g id="patch_25">
    <path clip-path="url(#p8b947b9417)" d="M 35.446818 210.878437 
L 41.730455 210.878437 
L 41.730455 210.878437 
L 35.446818 210.878437 
z
" style="fill:#ff7f0e;"/>
   </g>
   <g id="patch_26">
    <path clip-path="url(#p8b947b9417)" d="M 48.014091 210.878437 
L 54.297727 210.878437 
L 54.297727 210.878437 
L 48.014091 210.878437 
z
" style="fill:#ff7f0e;"/>
   </g>
   <g id="patch_27">
    <path clip-path="url(#p8b947b9417)" d="M 60.581364 210.878437 
L 66.865 210.878437 
L 66.865 210.878437 
L 60.581364 210.878437 
z
" style="fill:#ff7f0e;"/>
   </g>
   <g id="patch_28">
    <path clip-path="url(#p8b947b9417)" d="M 73.148636 210.878437 
L 79.432273 210.878437 
L 79.432273 210.878437 
L 73.148636 210.878437 
z
" style="fill:#ff7f0e;"/>
   </g>
   <g id="patch_29">
    <path clip-path="url(#p8b947b9417)" d="M 85.715909 210.878437 
L 91.999545 210.878437 
L 91.999545 210.878437 
L 85.715909 210.878437 
z
" style="fill:#ff7f0e;"/>
   </g>
   <g id="patch_30">
    <path clip-path="url(#p8b947b9417)" d="M 98.283182 210.878437 
L 104.566818 210.878437 
L 104.566818 210.878437 
L 98.283182 210.878437 
z
" style="fill:#ff7f0e;"/>
   </g>
   <g id="patch_31">
    <path clip-path="url(#p8b947b9417)" d="M 110.850455 210.878437 
L 117.134091 210.878437 
L 117.134091 210.878437 
L 110.850455 210.878437 
z
" style="fill:#ff7f0e;"/>
   </g>
   <g id="patch_32">
    <path clip-path="url(#p8b947b9417)" d="M 123.417727 210.878437 
L 129.701364 210.878437 
L 129.701364 210.878437 
L 123.417727 210.878437 
z
" style="fill:#ff7f0e;"/>
   </g>
   <g id="patch_33">
    <path clip-path="url(#p8b947b9417)" d="M 135.985 210.878437 
L 142.268636 210.878437 
L 142.268636 210.878437 
L 135.985 210.878437 
z
" style="fill:#ff7f0e;"/>
   </g>
   <g id="patch_34">
    <path clip-path="url(#p8b947b9417)" d="M 148.552273 210.878437 
L 154.835909 210.878437 
L 154.835909 210.878437 
L 148.552273 210.878437 
z
" style="fill:#ff7f0e;"/>
   </g>
   <g id="patch_35">
    <path clip-path="url(#p8b947b9417)" d="M 161.119545 210.878437 
L 167.403182 210.878437 
L 167.403182 210.878437 
L 161.119545 210.878437 
z
" style="fill:#ff7f0e;"/>
   </g>
   <g id="patch_36">
    <path clip-path="url(#p8b947b9417)" d="M 173.686818 208.34412 
L 179.970455 208.34412 
L 179.970455 207.102442 
L 173.686818 207.102442 
z
" style="fill:#ff7f0e;"/>
   </g>
   <g id="patch_37">
    <path clip-path="url(#p8b947b9417)" d="M 186.254091 203.129962 
L 192.537727 203.129962 
L 192.537727 195.858083 
L 186.254091 195.858083 
z
" style="fill:#ff7f0e;"/>
   </g>
   <g id="patch_38">
    <path clip-path="url(#p8b947b9417)" d="M 198.821364 190.327991 
L 205.105 190.327991 
L 205.105 162.115768 
L 198.821364 162.115768 
z
" style="fill:#ff7f0e;"/>
   </g>
   <g id="patch_39">
    <path clip-path="url(#p8b947b9417)" d="M 211.388636 182.872278 
L 217.672273 182.872278 
L 217.672273 164.909499 
L 211.388636 164.909499 
z
" style="fill:#ff7f0e;"/>
   </g>
   <g id="patch_40">
    <path clip-path="url(#p8b947b9417)" d="M 223.955909 168.757877 
L 230.239545 168.757877 
L 230.239545 138.393481 
L 223.955909 138.393481 
z
" style="fill:#ff7f0e;"/>
   </g>
   <g id="patch_41">
    <path clip-path="url(#p8b947b9417)" d="M 236.523182 192.01577 
L 242.806818 192.01577 
L 242.806818 185.113803 
L 236.523182 185.113803 
z
" style="fill:#ff7f0e;"/>
   </g>
   <g id="patch_42">
    <path clip-path="url(#p8b947b9417)" d="M 249.090455 206.355661 
L 255.374091 206.355661 
L 255.374091 197.231745 
L 249.090455 197.231745 
z
" style="fill:#ff7f0e;"/>
   </g>
   <g id="patch_43">
    <path clip-path="url(#p8b947b9417)" d="M 261.657727 205.112861 
L 267.941364 205.112861 
L 267.941364 202.348457 
L 261.657727 202.348457 
z
" style="fill:#ff7f0e;"/>
   </g>
   <g id="patch_44">
    <path clip-path="url(#p8b947b9417)" d="M 274.225 210.37163 
L 280.508636 210.37163 
L 280.508636 209.020392 
L 274.225 209.020392 
z
" style="fill:#ff7f0e;"/>
   </g>
   <g id="patch_45">
    <path clip-path="url(#p8b947b9417)" d="M 286.792273 210.878437 
L 293.075909 210.878437 
L 293.075909 209.504742 
L 286.792273 209.504742 
z
" style="fill:#ff7f0e;"/>
   </g>
   <g id="patch_46">
    <path clip-path="url(#p8b947b9417)" d="M 299.359545 210.878437 
L 305.643182 210.878437 
L 305.643182 210.878437 
L 299.359545 210.878437 
z
" style="fill:#ff7f0e;"/>
   </g>
   <g id="patch_47">
    <path clip-path="url(#p8b947b9417)" d="M 35.446818 210.878437 
L 41.730455 210.878437 
L 41.730455 210.878437 
L 35.446818 210.878437 
z
" style="fill:#2ca02c;"/>
   </g>
   <g id="patch_48">
    <path clip-path="url(#p8b947b9417)" d="M 48.014091 210.878437 
L 54.297727 210.878437 
L 54.297727 210.878437 
L 48.014091 210.878437 
z
" style="fill:#2ca02c;"/>
   </g>
   <g id="patch_49">
    <path clip-path="url(#p8b947b9417)" d="M 60.581364 210.878437 
L 66.865 210.878437 
L 66.865 210.878437 
L 60.581364 210.878437 
z
" style="fill:#2ca02c;"/>
   </g>
   <g id="patch_50">
    <path clip-path="url(#p8b947b9417)" d="M 73.148636 210.878437 
L 79.432273 210.878437 
L 79.432273 210.878437 
L 73.148636 210.878437 
z
" style="fill:#2ca02c;"/>
   </g>
   <g id="patch_51">
    <path clip-path="url(#p8b947b9417)" d="M 85.715909 210.878437 
L 91.999545 210.878437 
L 91.999545 210.878437 
L 85.715909 210.878437 
z
" style="fill:#2ca02c;"/>
   </g>
   <g id="patch_52">
    <path clip-path="url(#p8b947b9417)" d="M 98.283182 210.878437 
L 104.566818 210.878437 
L 104.566818 210.878437 
L 98.283182 210.878437 
z
" style="fill:#2ca02c;"/>
   </g>
   <g id="patch_53">
    <path clip-path="url(#p8b947b9417)" d="M 110.850455 210.878437 
L 117.134091 210.878437 
L 117.134091 210.878437 
L 110.850455 210.878437 
z
" style="fill:#2ca02c;"/>
   </g>
   <g id="patch_54">
    <path clip-path="url(#p8b947b9417)" d="M 123.417727 210.878437 
L 129.701364 210.878437 
L 129.701364 210.878437 
L 123.417727 210.878437 
z
" style="fill:#2ca02c;"/>
   </g>
   <g id="patch_55">
    <path clip-path="url(#p8b947b9417)" d="M 135.985 210.878437 
L 142.268636 210.878437 
L 142.268636 210.878437 
L 135.985 210.878437 
z
" style="fill:#2ca02c;"/>
   </g>
   <g id="patch_56">
    <path clip-path="url(#p8b947b9417)" d="M 148.552273 210.878437 
L 154.835909 210.878437 
L 154.835909 210.878437 
L 148.552273 210.878437 
z
" style="fill:#2ca02c;"/>
   </g>
   <g id="patch_57">
    <path clip-path="url(#p8b947b9417)" d="M 161.119545 210.878437 
L 167.403182 210.878437 
L 167.403182 210.878437 
L 161.119545 210.878437 
z
" style="fill:#2ca02c;"/>
   </g>
   <g id="patch_58">
    <path clip-path="url(#p8b947b9417)" d="M 173.686818 207.102442 
L 179.970455 207.102442 
L 179.970455 204.089739 
L 173.686818 204.089739 
z
" style="fill:#2ca02c;"/>
   </g>
   <g id="patch_59">
    <path clip-path="url(#p8b947b9417)" d="M 186.254091 195.858083 
L 192.537727 195.858083 
L 192.537727 192.413795 
L 186.254091 192.413795 
z
" style="fill:#2ca02c;"/>
   </g>
   <g id="patch_60">
    <path clip-path="url(#p8b947b9417)" d="M 198.821364 162.115768 
L 205.105 162.115768 
L 205.105 148.46449 
L 198.821364 148.46449 
z
" style="fill:#2ca02c;"/>
   </g>
   <g id="patch_61">
    <path clip-path="url(#p8b947b9417)" d="M 211.388636 164.909499 
L 217.672273 164.909499 
L 217.672273 141.633645 
L 211.388636 141.633645 
z
" style="fill:#2ca02c;"/>
   </g>
   <g id="patch_62">
    <path clip-path="url(#p8b947b9417)" d="M 223.955909 138.393481 
L 230.239545 138.393481 
L 230.239545 104.094146 
L 223.955909 104.094146 
z
" style="fill:#2ca02c;"/>
   </g>
   <g id="patch_63">
    <path clip-path="url(#p8b947b9417)" d="M 236.523182 185.113803 
L 242.806818 185.113803 
L 242.806818 166.862111 
L 236.523182 166.862111 
z
" style="fill:#2ca02c;"/>
   </g>
   <g id="patch_64">
    <path clip-path="url(#p8b947b9417)" d="M 249.090455 197.231745 
L 255.374091 197.231745 
L 255.374091 187.202979 
L 249.090455 187.202979 
z
" style="fill:#2ca02c;"/>
   </g>
   <g id="patch_65">
    <path clip-path="url(#p8b947b9417)" d="M 261.657727 202.348457 
L 267.941364 202.348457 
L 267.941364 184.26529 
L 261.657727 184.26529 
z
" style="fill:#2ca02c;"/>
   </g>
   <g id="patch_66">
    <path clip-path="url(#p8b947b9417)" d="M 274.225 210.878437 
L 280.508636 210.878437 
L 280.508636 210.878437 
L 274.225 210.878437 
z
" style="fill:#2ca02c;"/>
   </g>
   <g id="patch_67">
    <path clip-path="url(#p8b947b9417)" d="M 286.792273 210.878437 
L 293.075909 210.878437 
L 293.075909 210.878437 
L 286.792273 210.878437 
z
" style="fill:#2ca02c;"/>
   </g>
   <g id="patch_68">
    <path clip-path="url(#p8b947b9417)" d="M 299.359545 210.878437 
L 305.643182 210.878437 
L 305.643182 210.878437 
L 299.359545 210.878437 
z
" style="fill:#2ca02c;"/>
   </g>
   <g id="patch_69">
    <path clip-path="url(#p8b947b9417)" d="M 35.446818 210.878437 
L 41.730455 210.878437 
L 41.730455 210.878437 
L 35.446818 210.878437 
z
" style="fill:#d62728;"/>
   </g>
   <g id="patch_70">
    <path clip-path="url(#p8b947b9417)" d="M 48.014091 210.878437 
L 54.297727 210.878437 
L 54.297727 210.878437 
L 48.014091 210.878437 
z
" style="fill:#d62728;"/>
   </g>
   <g id="patch_71">
    <path clip-path="url(#p8b947b9417)" d="M 60.581364 210.878437 
L 66.865 210.878437 
L 66.865 210.878437 
L 60.581364 210.878437 
z
" style="fill:#d62728;"/>
   </g>
   <g id="patch_72">
    <path clip-path="url(#p8b947b9417)" d="M 73.148636 210.878437 
L 79.432273 210.878437 
L 79.432273 210.878437 
L 73.148636 210.878437 
z
" style="fill:#d62728;"/>
   </g>
   <g id="patch_73">
    <path clip-path="url(#p8b947b9417)" d="M 85.715909 210.878437 
L 91.999545 210.878437 
L 91.999545 210.878437 
L 85.715909 210.878437 
z
" style="fill:#d62728;"/>
   </g>
   <g id="patch_74">
    <path clip-path="url(#p8b947b9417)" d="M 98.283182 210.878437 
L 104.566818 210.878437 
L 104.566818 210.878437 
L 98.283182 210.878437 
z
" style="fill:#d62728;"/>
   </g>
   <g id="patch_75">
    <path clip-path="url(#p8b947b9417)" d="M 110.850455 210.878437 
L 117.134091 210.878437 
L 117.134091 210.878437 
L 110.850455 210.878437 
z
" style="fill:#d62728;"/>
   </g>
   <g id="patch_76">
    <path clip-path="url(#p8b947b9417)" d="M 123.417727 210.878437 
L 129.701364 210.878437 
L 129.701364 210.878437 
L 123.417727 210.878437 
z
" style="fill:#d62728;"/>
   </g>
   <g id="patch_77">
    <path clip-path="url(#p8b947b9417)" d="M 135.985 210.878437 
L 142.268636 210.878437 
L 142.268636 210.878437 
L 135.985 210.878437 
z
" style="fill:#d62728;"/>
   </g>
   <g id="patch_78">
    <path clip-path="url(#p8b947b9417)" d="M 148.552273 210.878437 
L 154.835909 210.878437 
L 154.835909 210.878437 
L 148.552273 210.878437 
z
" style="fill:#d62728;"/>
   </g>
   <g id="patch_79">
    <path clip-path="url(#p8b947b9417)" d="M 161.119545 210.878437 
L 167.403182 210.878437 
L 167.403182 209.580684 
L 161.119545 209.580684 
z
" style="fill:#d62728;"/>
   </g>
   <g id="patch_80">
    <path clip-path="url(#p8b947b9417)" d="M 173.686818 204.089739 
L 179.970455 204.089739 
L 179.970455 188.833554 
L 173.686818 188.833554 
z
" style="fill:#d62728;"/>
   </g>
   <g id="patch_81">
    <path clip-path="url(#p8b947b9417)" d="M 186.254091 192.413795 
L 192.537727 192.413795 
L 192.537727 165.988312 
L 186.254091 165.988312 
z
" style="fill:#d62728;"/>
   </g>
   <g id="patch_82">
    <path clip-path="url(#p8b947b9417)" d="M 198.821364 148.46449 
L 205.105 148.46449 
L 205.105 111.962708 
L 198.821364 111.962708 
z
" style="fill:#d62728;"/>
   </g>
   <g id="patch_83">
    <path clip-path="url(#p8b947b9417)" d="M 211.388636 141.633645 
L 217.672273 141.633645 
L 217.672273 90.069339 
L 211.388636 90.069339 
z
" style="fill:#d62728;"/>
   </g>
   <g id="patch_84">
    <path clip-path="url(#p8b947b9417)" d="M 223.955909 104.094146 
L 230.239545 104.094146 
L 230.239545 67.574732 
L 223.955909 67.574732 
z
" style="fill:#d62728;"/>
   </g>
   <g id="patch_85">
    <path clip-path="url(#p8b947b9417)" d="M 236.523182 166.862111 
L 242.806818 166.862111 
L 242.806818 148.943154 
L 236.523182 148.943154 
z
" style="fill:#d62728;"/>
   </g>
   <g id="patch_86">
    <path clip-path="url(#p8b947b9417)" d="M 249.090455 187.202979 
L 255.374091 187.202979 
L 255.374091 176.962664 
L 249.090455 176.962664 
z
" style="fill:#d62728;"/>
   </g>
   <g id="patch_87">
    <path clip-path="url(#p8b947b9417)" d="M 261.657727 184.26529 
L 267.941364 184.26529 
L 267.941364 180.346277 
L 261.657727 180.346277 
z
" style="fill:#d62728;"/>
   </g>
   <g id="patch_88">
    <path clip-path="url(#p8b947b9417)" d="M 274.225 209.020392 
L 280.508636 209.020392 
L 280.508636 208.399553 
L 274.225 208.399553 
z
" style="fill:#d62728;"/>
   </g>
   <g id="patch_89">
    <path clip-path="url(#p8b947b9417)" d="M 286.792273 210.878437 
L 293.075909 210.878437 
L 293.075909 210.878437 
L 286.792273 210.878437 
z
" style="fill:#d62728;"/>
   </g>
   <g id="patch_90">
    <path clip-path="url(#p8b947b9417)" d="M 299.359545 210.878437 
L 305.643182 210.878437 
L 305.643182 210.878437 
L 299.359545 210.878437 
z
" style="fill:#d62728;"/>
   </g>
   <g id="patch_91">
    <path clip-path="url(#p8b947b9417)" d="M 35.446818 210.878437 
L 41.730455 210.878437 
L 41.730455 210.878437 
L 35.446818 210.878437 
z
" style="fill:#9467bd;"/>
   </g>
   <g id="patch_92">
    <path clip-path="url(#p8b947b9417)" d="M 48.014091 210.878437 
L 54.297727 210.878437 
L 54.297727 210.878437 
L 48.014091 210.878437 
z
" style="fill:#9467bd;"/>
   </g>
   <g id="patch_93">
    <path clip-path="url(#p8b947b9417)" d="M 60.581364 210.878437 
L 66.865 210.878437 
L 66.865 210.878437 
L 60.581364 210.878437 
z
" style="fill:#9467bd;"/>
   </g>
   <g id="patch_94">
    <path clip-path="url(#p8b947b9417)" d="M 73.148636 210.878437 
L 79.432273 210.878437 
L 79.432273 210.878437 
L 73.148636 210.878437 
z
" style="fill:#9467bd;"/>
   </g>
   <g id="patch_95">
    <path clip-path="url(#p8b947b9417)" d="M 85.715909 210.878437 
L 91.999545 210.878437 
L 91.999545 210.878437 
L 85.715909 210.878437 
z
" style="fill:#9467bd;"/>
   </g>
   <g id="patch_96">
    <path clip-path="url(#p8b947b9417)" d="M 98.283182 210.878437 
L 104.566818 210.878437 
L 104.566818 210.878437 
L 98.283182 210.878437 
z
" style="fill:#9467bd;"/>
   </g>
   <g id="patch_97">
    <path clip-path="url(#p8b947b9417)" d="M 110.850455 210.878437 
L 117.134091 210.878437 
L 117.134091 210.878437 
L 110.850455 210.878437 
z
" style="fill:#9467bd;"/>
   </g>
   <g id="patch_98">
    <path clip-path="url(#p8b947b9417)" d="M 123.417727 210.878437 
L 129.701364 210.878437 
L 129.701364 210.878437 
L 123.417727 210.878437 
z
" style="fill:#9467bd;"/>
   </g>
   <g id="patch_99">
    <path clip-path="url(#p8b947b9417)" d="M 135.985 210.878437 
L 142.268636 210.878437 
L 142.268636 210.878437 
L 135.985 210.878437 
z
" style="fill:#9467bd;"/>
   </g>
   <g id="patch_100">
    <path clip-path="url(#p8b947b9417)" d="M 148.552273 210.878437 
L 154.835909 210.878437 
L 154.835909 210.878437 
L 148.552273 210.878437 
z
" style="fill:#9467bd;"/>
   </g>
   <g id="patch_101">
    <path clip-path="url(#p8b947b9417)" d="M 161.119545 210.878437 
L 167.403182 210.878437 
L 167.403182 210.878437 
L 161.119545 210.878437 
z
" style="fill:#9467bd;"/>
   </g>
   <g id="patch_102">
    <path clip-path="url(#p8b947b9417)" d="M 173.686818 188.833554 
L 179.970455 188.833554 
L 179.970455 185.184119 
L 173.686818 185.184119 
z
" style="fill:#9467bd;"/>
   </g>
   <g id="patch_103">
    <path clip-path="url(#p8b947b9417)" d="M 186.254091 165.988312 
L 192.537727 165.988312 
L 192.537727 162.543538 
L 186.254091 162.543538 
z
" style="fill:#9467bd;"/>
   </g>
   <g id="patch_104">
    <path clip-path="url(#p8b947b9417)" d="M 198.821364 111.962708 
L 205.105 111.962708 
L 205.105 89.902759 
L 198.821364 89.902759 
z
" style="fill:#9467bd;"/>
   </g>
   <g id="patch_105">
    <path clip-path="url(#p8b947b9417)" d="M 211.388636 90.069339 
L 217.672273 90.069339 
L 217.672273 55.952806 
L 211.388636 55.952806 
z
" style="fill:#9467bd;"/>
   </g>
   <g id="patch_106">
    <path clip-path="url(#p8b947b9417)" d="M 223.955909 67.574732 
L 230.239545 67.574732 
L 230.239545 29.849866 
L 223.955909 29.849866 
z
" style="fill:#9467bd;"/>
   </g>
   <g id="patch_107">
    <path clip-path="url(#p8b947b9417)" d="M 236.523182 148.943154 
L 242.806818 148.943154 
L 242.806818 132.584905 
L 236.523182 132.584905 
z
" style="fill:#9467bd;"/>
   </g>
   <g id="patch_108">
    <path clip-path="url(#p8b947b9417)" d="M 249.090455 176.962664 
L 255.374091 176.962664 
L 255.374091 163.988464 
L 249.090455 163.988464 
z
" style="fill:#9467bd;"/>
   </g>
   <g id="patch_109">
    <path clip-path="url(#p8b947b9417)" d="M 261.657727 180.346277 
L 267.941364 180.346277 
L 267.941364 179.071924 
L 261.657727 179.071924 
z
" style="fill:#9467bd;"/>
   </g>
   <g id="patch_110">
    <path clip-path="url(#p8b947b9417)" d="M 274.225 208.399553 
L 280.508636 208.399553 
L 280.508636 207.543224 
L 274.225 207.543224 
z
" style="fill:#9467bd;"/>
   </g>
   <g id="patch_111">
    <path clip-path="url(#p8b947b9417)" d="M 286.792273 209.504742 
L 293.075909 209.504742 
L 293.075909 208.774343 
L 286.792273 208.774343 
z
" style="fill:#9467bd;"/>
   </g>
   <g id="patch_112">
    <path clip-path="url(#p8b947b9417)" d="M 299.359545 210.878437 
L 305.643182 210.878437 
L 305.643182 210.878437 
L 299.359545 210.878437 
z
" style="fill:#9467bd;"/>
   </g>
   <g id="matplotlib.axis_1">
    <g id="xtick_1">
     <g id="line2d_1"/>
     <g id="text_1">
      <!-- 0 -->
      <g transform="translate(33.348692 222.187789)rotate(-30)scale(0.08 -0.08)">
       <defs>
        <path d="M 31.78125 66.40625 
Q 24.171875 66.40625 20.328125 58.90625 
Q 16.5 51.421875 16.5 36.375 
Q 16.5 21.390625 20.328125 13.890625 
Q 24.171875 6.390625 31.78125 6.390625 
Q 39.453125 6.390625 43.28125 13.890625 
Q 47.125 21.390625 47.125 36.375 
Q 47.125 51.421875 43.28125 58.90625 
Q 39.453125 66.40625 31.78125 66.40625 
z
M 31.78125 74.21875 
Q 44.046875 74.21875 50.515625 64.515625 
Q 56.984375 54.828125 56.984375 36.375 
Q 56.984375 17.96875 50.515625 8.265625 
Q 44.046875 -1.421875 31.78125 -1.421875 
Q 19.53125 -1.421875 13.0625 8.265625 
Q 6.59375 17.96875 6.59375 36.375 
Q 6.59375 54.828125 13.0625 64.515625 
Q 19.53125 74.21875 31.78125 74.21875 
z
" id="DejaVuSans-48"/>
       </defs>
       <use xlink:href="#DejaVuSans-48"/>
      </g>
     </g>
    </g>
    <g id="xtick_2">
     <g id="line2d_2"/>
     <g id="text_2">
      <!-- 1 -->
      <g transform="translate(45.915965 222.187789)rotate(-30)scale(0.08 -0.08)">
       <defs>
        <path d="M 12.40625 8.296875 
L 28.515625 8.296875 
L 28.515625 63.921875 
L 10.984375 60.40625 
L 10.984375 69.390625 
L 28.421875 72.90625 
L 38.28125 72.90625 
L 38.28125 8.296875 
L 54.390625 8.296875 
L 54.390625 0 
L 12.40625 0 
z
" id="DejaVuSans-49"/>
       </defs>
       <use xlink:href="#DejaVuSans-49"/>
      </g>
     </g>
    </g>
    <g id="xtick_3">
     <g id="line2d_3"/>
     <g id="text_3">
      <!-- 2 -->
      <g transform="translate(58.483238 222.187789)rotate(-30)scale(0.08 -0.08)">
       <defs>
        <path d="M 19.1875 8.296875 
L 53.609375 8.296875 
L 53.609375 0 
L 7.328125 0 
L 7.328125 8.296875 
Q 12.9375 14.109375 22.625 23.890625 
Q 32.328125 33.6875 34.8125 36.53125 
Q 39.546875 41.84375 41.421875 45.53125 
Q 43.3125 49.21875 43.3125 52.78125 
Q 43.3125 58.59375 39.234375 62.25 
Q 35.15625 65.921875 28.609375 65.921875 
Q 23.96875 65.921875 18.8125 64.3125 
Q 13.671875 62.703125 7.8125 59.421875 
L 7.8125 69.390625 
Q 13.765625 71.78125 18.9375 73 
Q 24.125 74.21875 28.421875 74.21875 
Q 39.75 74.21875 46.484375 68.546875 
Q 53.21875 62.890625 53.21875 53.421875 
Q 53.21875 48.921875 51.53125 44.890625 
Q 49.859375 40.875 45.40625 35.40625 
Q 44.1875 33.984375 37.640625 27.21875 
Q 31.109375 20.453125 19.1875 8.296875 
z
" id="DejaVuSans-50"/>
       </defs>
       <use xlink:href="#DejaVuSans-50"/>
      </g>
     </g>
    </g>
    <g id="xtick_4">
     <g id="line2d_4"/>
     <g id="text_4">
      <!-- 3 -->
      <g transform="translate(71.05051 222.187789)rotate(-30)scale(0.08 -0.08)">
       <defs>
        <path d="M 40.578125 39.3125 
Q 47.65625 37.796875 51.625 33 
Q 55.609375 28.21875 55.609375 21.1875 
Q 55.609375 10.40625 48.1875 4.484375 
Q 40.765625 -1.421875 27.09375 -1.421875 
Q 22.515625 -1.421875 17.65625 -0.515625 
Q 12.796875 0.390625 7.625 2.203125 
L 7.625 11.71875 
Q 11.71875 9.328125 16.59375 8.109375 
Q 21.484375 6.890625 26.8125 6.890625 
Q 36.078125 6.890625 40.9375 10.546875 
Q 45.796875 14.203125 45.796875 21.1875 
Q 45.796875 27.640625 41.28125 31.265625 
Q 36.765625 34.90625 28.71875 34.90625 
L 20.21875 34.90625 
L 20.21875 43.015625 
L 29.109375 43.015625 
Q 36.375 43.015625 40.234375 45.921875 
Q 44.09375 48.828125 44.09375 54.296875 
Q 44.09375 59.90625 40.109375 62.90625 
Q 36.140625 65.921875 28.71875 65.921875 
Q 24.65625 65.921875 20.015625 65.03125 
Q 15.375 64.15625 9.8125 62.3125 
L 9.8125 71.09375 
Q 15.4375 72.65625 20.34375 73.4375 
Q 25.25 74.21875 29.59375 74.21875 
Q 40.828125 74.21875 47.359375 69.109375 
Q 53.90625 64.015625 53.90625 55.328125 
Q 53.90625 49.265625 50.4375 45.09375 
Q 46.96875 40.921875 40.578125 39.3125 
z
" id="DejaVuSans-51"/>
       </defs>
       <use xlink:href="#DejaVuSans-51"/>
      </g>
     </g>
    </g>
    <g id="xtick_5">
     <g id="line2d_5"/>
     <g id="text_5">
      <!-- 4 -->
      <g transform="translate(83.617783 222.187789)rotate(-30)scale(0.08 -0.08)">
       <defs>
        <path d="M 37.796875 64.3125 
L 12.890625 25.390625 
L 37.796875 25.390625 
z
M 35.203125 72.90625 
L 47.609375 72.90625 
L 47.609375 25.390625 
L 58.015625 25.390625 
L 58.015625 17.1875 
L 47.609375 17.1875 
L 47.609375 0 
L 37.796875 0 
L 37.796875 17.1875 
L 4.890625 17.1875 
L 4.890625 26.703125 
z
" id="DejaVuSans-52"/>
       </defs>
       <use xlink:href="#DejaVuSans-52"/>
      </g>
     </g>
    </g>
    <g id="xtick_6">
     <g id="line2d_6"/>
     <g id="text_6">
      <!-- 5 -->
      <g transform="translate(96.185056 222.187789)rotate(-30)scale(0.08 -0.08)">
       <defs>
        <path d="M 10.796875 72.90625 
L 49.515625 72.90625 
L 49.515625 64.59375 
L 19.828125 64.59375 
L 19.828125 46.734375 
Q 21.96875 47.46875 24.109375 47.828125 
Q 26.265625 48.1875 28.421875 48.1875 
Q 40.625 48.1875 47.75 41.5 
Q 54.890625 34.8125 54.890625 23.390625 
Q 54.890625 11.625 47.5625 5.09375 
Q 40.234375 -1.421875 26.90625 -1.421875 
Q 22.3125 -1.421875 17.546875 -0.640625 
Q 12.796875 0.140625 7.71875 1.703125 
L 7.71875 11.625 
Q 12.109375 9.234375 16.796875 8.0625 
Q 21.484375 6.890625 26.703125 6.890625 
Q 35.15625 6.890625 40.078125 11.328125 
Q 45.015625 15.765625 45.015625 23.390625 
Q 45.015625 31 40.078125 35.4375 
Q 35.15625 39.890625 26.703125 39.890625 
Q 22.75 39.890625 18.8125 39.015625 
Q 14.890625 38.140625 10.796875 36.28125 
z
" id="DejaVuSans-53"/>
       </defs>
       <use xlink:href="#DejaVuSans-53"/>
      </g>
     </g>
    </g>
    <g id="xtick_7">
     <g id="line2d_7"/>
     <g id="text_7">
      <!-- 6 -->
      <g transform="translate(108.752328 222.187789)rotate(-30)scale(0.08 -0.08)">
       <defs>
        <path d="M 33.015625 40.375 
Q 26.375 40.375 22.484375 35.828125 
Q 18.609375 31.296875 18.609375 23.390625 
Q 18.609375 15.53125 22.484375 10.953125 
Q 26.375 6.390625 33.015625 6.390625 
Q 39.65625 6.390625 43.53125 10.953125 
Q 47.40625 15.53125 47.40625 23.390625 
Q 47.40625 31.296875 43.53125 35.828125 
Q 39.65625 40.375 33.015625 40.375 
z
M 52.59375 71.296875 
L 52.59375 62.3125 
Q 48.875 64.0625 45.09375 64.984375 
Q 41.3125 65.921875 37.59375 65.921875 
Q 27.828125 65.921875 22.671875 59.328125 
Q 17.53125 52.734375 16.796875 39.40625 
Q 19.671875 43.65625 24.015625 45.921875 
Q 28.375 48.1875 33.59375 48.1875 
Q 44.578125 48.1875 50.953125 41.515625 
Q 57.328125 34.859375 57.328125 23.390625 
Q 57.328125 12.15625 50.6875 5.359375 
Q 44.046875 -1.421875 33.015625 -1.421875 
Q 20.359375 -1.421875 13.671875 8.265625 
Q 6.984375 17.96875 6.984375 36.375 
Q 6.984375 53.65625 15.1875 63.9375 
Q 23.390625 74.21875 37.203125 74.21875 
Q 40.921875 74.21875 44.703125 73.484375 
Q 48.484375 72.75 52.59375 71.296875 
z
" id="DejaVuSans-54"/>
       </defs>
       <use xlink:href="#DejaVuSans-54"/>
      </g>
     </g>
    </g>
    <g id="xtick_8">
     <g id="line2d_8"/>
     <g id="text_8">
      <!-- 7 -->
      <g transform="translate(121.319601 222.187789)rotate(-30)scale(0.08 -0.08)">
       <defs>
        <path d="M 8.203125 72.90625 
L 55.078125 72.90625 
L 55.078125 68.703125 
L 28.609375 0 
L 18.3125 0 
L 43.21875 64.59375 
L 8.203125 64.59375 
z
" id="DejaVuSans-55"/>
       </defs>
       <use xlink:href="#DejaVuSans-55"/>
      </g>
     </g>
    </g>
    <g id="xtick_9">
     <g id="line2d_9"/>
     <g id="text_9">
      <!-- 8 -->
      <g transform="translate(133.886874 222.187789)rotate(-30)scale(0.08 -0.08)">
       <defs>
        <path d="M 31.78125 34.625 
Q 24.75 34.625 20.71875 30.859375 
Q 16.703125 27.09375 16.703125 20.515625 
Q 16.703125 13.921875 20.71875 10.15625 
Q 24.75 6.390625 31.78125 6.390625 
Q 38.8125 6.390625 42.859375 10.171875 
Q 46.921875 13.96875 46.921875 20.515625 
Q 46.921875 27.09375 42.890625 30.859375 
Q 38.875 34.625 31.78125 34.625 
z
M 21.921875 38.8125 
Q 15.578125 40.375 12.03125 44.71875 
Q 8.5 49.078125 8.5 55.328125 
Q 8.5 64.0625 14.71875 69.140625 
Q 20.953125 74.21875 31.78125 74.21875 
Q 42.671875 74.21875 48.875 69.140625 
Q 55.078125 64.0625 55.078125 55.328125 
Q 55.078125 49.078125 51.53125 44.71875 
Q 48 40.375 41.703125 38.8125 
Q 48.828125 37.15625 52.796875 32.3125 
Q 56.78125 27.484375 56.78125 20.515625 
Q 56.78125 9.90625 50.3125 4.234375 
Q 43.84375 -1.421875 31.78125 -1.421875 
Q 19.734375 -1.421875 13.25 4.234375 
Q 6.78125 9.90625 6.78125 20.515625 
Q 6.78125 27.484375 10.78125 32.3125 
Q 14.796875 37.15625 21.921875 38.8125 
z
M 18.3125 54.390625 
Q 18.3125 48.734375 21.84375 45.5625 
Q 25.390625 42.390625 31.78125 42.390625 
Q 38.140625 42.390625 41.71875 45.5625 
Q 45.3125 48.734375 45.3125 54.390625 
Q 45.3125 60.0625 41.71875 63.234375 
Q 38.140625 66.40625 31.78125 66.40625 
Q 25.390625 66.40625 21.84375 63.234375 
Q 18.3125 60.0625 18.3125 54.390625 
z
" id="DejaVuSans-56"/>
       </defs>
       <use xlink:href="#DejaVuSans-56"/>
      </g>
     </g>
    </g>
    <g id="xtick_10">
     <g id="line2d_10"/>
     <g id="text_10">
      <!-- 9 -->
      <g transform="translate(146.454147 222.187789)rotate(-30)scale(0.08 -0.08)">
       <defs>
        <path d="M 10.984375 1.515625 
L 10.984375 10.5 
Q 14.703125 8.734375 18.5 7.8125 
Q 22.3125 6.890625 25.984375 6.890625 
Q 35.75 6.890625 40.890625 13.453125 
Q 46.046875 20.015625 46.78125 33.40625 
Q 43.953125 29.203125 39.59375 26.953125 
Q 35.25 24.703125 29.984375 24.703125 
Q 19.046875 24.703125 12.671875 31.3125 
Q 6.296875 37.9375 6.296875 49.421875 
Q 6.296875 60.640625 12.9375 67.421875 
Q 19.578125 74.21875 30.609375 74.21875 
Q 43.265625 74.21875 49.921875 64.515625 
Q 56.59375 54.828125 56.59375 36.375 
Q 56.59375 19.140625 48.40625 8.859375 
Q 40.234375 -1.421875 26.421875 -1.421875 
Q 22.703125 -1.421875 18.890625 -0.6875 
Q 15.09375 0.046875 10.984375 1.515625 
z
M 30.609375 32.421875 
Q 37.25 32.421875 41.125 36.953125 
Q 45.015625 41.5 45.015625 49.421875 
Q 45.015625 57.28125 41.125 61.84375 
Q 37.25 66.40625 30.609375 66.40625 
Q 23.96875 66.40625 20.09375 61.84375 
Q 16.21875 57.28125 16.21875 49.421875 
Q 16.21875 41.5 20.09375 36.953125 
Q 23.96875 32.421875 30.609375 32.421875 
z
" id="DejaVuSans-57"/>
       </defs>
       <use xlink:href="#DejaVuSans-57"/>
      </g>
     </g>
    </g>
    <g id="xtick_11">
     <g id="line2d_11"/>
     <g id="text_11">
      <!-- 10 -->
      <g transform="translate(154.61335 224.732789)rotate(-30)scale(0.08 -0.08)">
       <use xlink:href="#DejaVuSans-49"/>
       <use x="63.623047" xlink:href="#DejaVuSans-48"/>
      </g>
     </g>
    </g>
    <g id="xtick_12">
     <g id="line2d_12"/>
     <g id="text_12">
      <!-- 11 -->
      <g transform="translate(167.180623 224.732789)rotate(-30)scale(0.08 -0.08)">
       <use xlink:href="#DejaVuSans-49"/>
       <use x="63.623047" xlink:href="#DejaVuSans-49"/>
      </g>
     </g>
    </g>
    <g id="xtick_13">
     <g id="line2d_13"/>
     <g id="text_13">
      <!-- 12 -->
      <g transform="translate(179.747895 224.732789)rotate(-30)scale(0.08 -0.08)">
       <use xlink:href="#DejaVuSans-49"/>
       <use x="63.623047" xlink:href="#DejaVuSans-50"/>
      </g>
     </g>
    </g>
    <g id="xtick_14">
     <g id="line2d_14"/>
     <g id="text_14">
      <!-- 13 -->
      <g transform="translate(192.315168 224.732789)rotate(-30)scale(0.08 -0.08)">
       <use xlink:href="#DejaVuSans-49"/>
       <use x="63.623047" xlink:href="#DejaVuSans-51"/>
      </g>
     </g>
    </g>
    <g id="xtick_15">
     <g id="line2d_15"/>
     <g id="text_15">
      <!-- 14 -->
      <g transform="translate(204.882441 224.732789)rotate(-30)scale(0.08 -0.08)">
       <use xlink:href="#DejaVuSans-49"/>
       <use x="63.623047" xlink:href="#DejaVuSans-52"/>
      </g>
     </g>
    </g>
    <g id="xtick_16">
     <g id="line2d_16"/>
     <g id="text_16">
      <!-- 15 -->
      <g transform="translate(217.449714 224.732789)rotate(-30)scale(0.08 -0.08)">
       <use xlink:href="#DejaVuSans-49"/>
       <use x="63.623047" xlink:href="#DejaVuSans-53"/>
      </g>
     </g>
    </g>
    <g id="xtick_17">
     <g id="line2d_17"/>
     <g id="text_17">
      <!-- 16 -->
      <g transform="translate(230.016986 224.732789)rotate(-30)scale(0.08 -0.08)">
       <use xlink:href="#DejaVuSans-49"/>
       <use x="63.623047" xlink:href="#DejaVuSans-54"/>
      </g>
     </g>
    </g>
    <g id="xtick_18">
     <g id="line2d_18"/>
     <g id="text_18">
      <!-- 17 -->
      <g transform="translate(242.584259 224.732789)rotate(-30)scale(0.08 -0.08)">
       <use xlink:href="#DejaVuSans-49"/>
       <use x="63.623047" xlink:href="#DejaVuSans-55"/>
      </g>
     </g>
    </g>
    <g id="xtick_19">
     <g id="line2d_19"/>
     <g id="text_19">
      <!-- 18 -->
      <g transform="translate(255.151532 224.732789)rotate(-30)scale(0.08 -0.08)">
       <use xlink:href="#DejaVuSans-49"/>
       <use x="63.623047" xlink:href="#DejaVuSans-56"/>
      </g>
     </g>
    </g>
    <g id="xtick_20">
     <g id="line2d_20"/>
     <g id="text_20">
      <!-- 19 -->
      <g transform="translate(267.718805 224.732789)rotate(-30)scale(0.08 -0.08)">
       <use xlink:href="#DejaVuSans-49"/>
       <use x="63.623047" xlink:href="#DejaVuSans-57"/>
      </g>
     </g>
    </g>
    <g id="xtick_21">
     <g id="line2d_21"/>
     <g id="text_21">
      <!-- 20 -->
      <g transform="translate(280.286077 224.732789)rotate(-30)scale(0.08 -0.08)">
       <use xlink:href="#DejaVuSans-50"/>
       <use x="63.623047" xlink:href="#DejaVuSans-48"/>
      </g>
     </g>
    </g>
    <g id="xtick_22">
     <g id="line2d_22"/>
     <g id="text_22">
      <!-- 21 -->
      <g transform="translate(292.85335 224.732789)rotate(-30)scale(0.08 -0.08)">
       <use xlink:href="#DejaVuSans-50"/>
       <use x="63.623047" xlink:href="#DejaVuSans-49"/>
      </g>
     </g>
    </g>
    <g id="text_23">
     <!-- IR_VDJ_1_cdr3 length -->
     <g transform="translate(128.095 236.252389)scale(0.08 -0.08)">
      <defs>
       <path d="M 9.8125 72.90625 
L 19.671875 72.90625 
L 19.671875 0 
L 9.8125 0 
z
" id="DejaVuSans-73"/>
       <path d="M 44.390625 34.1875 
Q 47.5625 33.109375 50.5625 29.59375 
Q 53.5625 26.078125 56.59375 19.921875 
L 66.609375 0 
L 56 0 
L 46.6875 18.703125 
Q 43.0625 26.03125 39.671875 28.421875 
Q 36.28125 30.8125 30.421875 30.8125 
L 19.671875 30.8125 
L 19.671875 0 
L 9.8125 0 
L 9.8125 72.90625 
L 32.078125 72.90625 
Q 44.578125 72.90625 50.734375 67.671875 
Q 56.890625 62.453125 56.890625 51.90625 
Q 56.890625 45.015625 53.6875 40.46875 
Q 50.484375 35.9375 44.390625 34.1875 
z
M 19.671875 64.796875 
L 19.671875 38.921875 
L 32.078125 38.921875 
Q 39.203125 38.921875 42.84375 42.21875 
Q 46.484375 45.515625 46.484375 51.90625 
Q 46.484375 58.296875 42.84375 61.546875 
Q 39.203125 64.796875 32.078125 64.796875 
z
" id="DejaVuSans-82"/>
       <path d="M 50.984375 -16.609375 
L 50.984375 -23.578125 
L -0.984375 -23.578125 
L -0.984375 -16.609375 
z
" id="DejaVuSans-95"/>
       <path d="M 28.609375 0 
L 0.78125 72.90625 
L 11.078125 72.90625 
L 34.1875 11.53125 
L 57.328125 72.90625 
L 67.578125 72.90625 
L 39.796875 0 
z
" id="DejaVuSans-86"/>
       <path d="M 19.671875 64.796875 
L 19.671875 8.109375 
L 31.59375 8.109375 
Q 46.6875 8.109375 53.6875 14.9375 
Q 60.6875 21.78125 60.6875 36.53125 
Q 60.6875 51.171875 53.6875 57.984375 
Q 46.6875 64.796875 31.59375 64.796875 
z
M 9.8125 72.90625 
L 30.078125 72.90625 
Q 51.265625 72.90625 61.171875 64.09375 
Q 71.09375 55.28125 71.09375 36.53125 
Q 71.09375 17.671875 61.125 8.828125 
Q 51.171875 0 30.078125 0 
L 9.8125 0 
z
" id="DejaVuSans-68"/>
       <path d="M 9.8125 72.90625 
L 19.671875 72.90625 
L 19.671875 5.078125 
Q 19.671875 -8.109375 14.671875 -14.0625 
Q 9.671875 -20.015625 -1.421875 -20.015625 
L -5.171875 -20.015625 
L -5.171875 -11.71875 
L -2.09375 -11.71875 
Q 4.4375 -11.71875 7.125 -8.046875 
Q 9.8125 -4.390625 9.8125 5.078125 
z
" id="DejaVuSans-74"/>
       <path d="M 48.78125 52.59375 
L 48.78125 44.1875 
Q 44.96875 46.296875 41.140625 47.34375 
Q 37.3125 48.390625 33.40625 48.390625 
Q 24.65625 48.390625 19.8125 42.84375 
Q 14.984375 37.3125 14.984375 27.296875 
Q 14.984375 17.28125 19.8125 11.734375 
Q 24.65625 6.203125 33.40625 6.203125 
Q 37.3125 6.203125 41.140625 7.25 
Q 44.96875 8.296875 48.78125 10.40625 
L 48.78125 2.09375 
Q 45.015625 0.34375 40.984375 -0.53125 
Q 36.96875 -1.421875 32.421875 -1.421875 
Q 20.0625 -1.421875 12.78125 6.34375 
Q 5.515625 14.109375 5.515625 27.296875 
Q 5.515625 40.671875 12.859375 48.328125 
Q 20.21875 56 33.015625 56 
Q 37.15625 56 41.109375 55.140625 
Q 45.0625 54.296875 48.78125 52.59375 
z
" id="DejaVuSans-99"/>
       <path d="M 45.40625 46.390625 
L 45.40625 75.984375 
L 54.390625 75.984375 
L 54.390625 0 
L 45.40625 0 
L 45.40625 8.203125 
Q 42.578125 3.328125 38.25 0.953125 
Q 33.9375 -1.421875 27.875 -1.421875 
Q 17.96875 -1.421875 11.734375 6.484375 
Q 5.515625 14.40625 5.515625 27.296875 
Q 5.515625 40.1875 11.734375 48.09375 
Q 17.96875 56 27.875 56 
Q 33.9375 56 38.25 53.625 
Q 42.578125 51.265625 45.40625 46.390625 
z
M 14.796875 27.296875 
Q 14.796875 17.390625 18.875 11.75 
Q 22.953125 6.109375 30.078125 6.109375 
Q 37.203125 6.109375 41.296875 11.75 
Q 45.40625 17.390625 45.40625 27.296875 
Q 45.40625 37.203125 41.296875 42.84375 
Q 37.203125 48.484375 30.078125 48.484375 
Q 22.953125 48.484375 18.875 42.84375 
Q 14.796875 37.203125 14.796875 27.296875 
z
" id="DejaVuSans-100"/>
       <path d="M 41.109375 46.296875 
Q 39.59375 47.171875 37.8125 47.578125 
Q 36.03125 48 33.890625 48 
Q 26.265625 48 22.1875 43.046875 
Q 18.109375 38.09375 18.109375 28.8125 
L 18.109375 0 
L 9.078125 0 
L 9.078125 54.6875 
L 18.109375 54.6875 
L 18.109375 46.1875 
Q 20.953125 51.171875 25.484375 53.578125 
Q 30.03125 56 36.53125 56 
Q 37.453125 56 38.578125 55.875 
Q 39.703125 55.765625 41.0625 55.515625 
z
" id="DejaVuSans-114"/>
       <path id="DejaVuSans-32"/>
       <path d="M 9.421875 75.984375 
L 18.40625 75.984375 
L 18.40625 0 
L 9.421875 0 
z
" id="DejaVuSans-108"/>
       <path d="M 56.203125 29.59375 
L 56.203125 25.203125 
L 14.890625 25.203125 
Q 15.484375 15.921875 20.484375 11.0625 
Q 25.484375 6.203125 34.421875 6.203125 
Q 39.59375 6.203125 44.453125 7.46875 
Q 49.3125 8.734375 54.109375 11.28125 
L 54.109375 2.78125 
Q 49.265625 0.734375 44.1875 -0.34375 
Q 39.109375 -1.421875 33.890625 -1.421875 
Q 20.796875 -1.421875 13.15625 6.1875 
Q 5.515625 13.8125 5.515625 26.8125 
Q 5.515625 40.234375 12.765625 48.109375 
Q 20.015625 56 32.328125 56 
Q 43.359375 56 49.78125 48.890625 
Q 56.203125 41.796875 56.203125 29.59375 
z
M 47.21875 32.234375 
Q 47.125 39.59375 43.09375 43.984375 
Q 39.0625 48.390625 32.421875 48.390625 
Q 24.90625 48.390625 20.390625 44.140625 
Q 15.875 39.890625 15.1875 32.171875 
z
" id="DejaVuSans-101"/>
       <path d="M 54.890625 33.015625 
L 54.890625 0 
L 45.90625 0 
L 45.90625 32.71875 
Q 45.90625 40.484375 42.875 44.328125 
Q 39.84375 48.1875 33.796875 48.1875 
Q 26.515625 48.1875 22.3125 43.546875 
Q 18.109375 38.921875 18.109375 30.90625 
L 18.109375 0 
L 9.078125 0 
L 9.078125 54.6875 
L 18.109375 54.6875 
L 18.109375 46.1875 
Q 21.34375 51.125 25.703125 53.5625 
Q 30.078125 56 35.796875 56 
Q 45.21875 56 50.046875 50.171875 
Q 54.890625 44.34375 54.890625 33.015625 
z
" id="DejaVuSans-110"/>
       <path d="M 45.40625 27.984375 
Q 45.40625 37.75 41.375 43.109375 
Q 37.359375 48.484375 30.078125 48.484375 
Q 22.859375 48.484375 18.828125 43.109375 
Q 14.796875 37.75 14.796875 27.984375 
Q 14.796875 18.265625 18.828125 12.890625 
Q 22.859375 7.515625 30.078125 7.515625 
Q 37.359375 7.515625 41.375 12.890625 
Q 45.40625 18.265625 45.40625 27.984375 
z
M 54.390625 6.78125 
Q 54.390625 -7.171875 48.1875 -13.984375 
Q 42 -20.796875 29.203125 -20.796875 
Q 24.46875 -20.796875 20.265625 -20.09375 
Q 16.0625 -19.390625 12.109375 -17.921875 
L 12.109375 -9.1875 
Q 16.0625 -11.328125 19.921875 -12.34375 
Q 23.78125 -13.375 27.78125 -13.375 
Q 36.625 -13.375 41.015625 -8.765625 
Q 45.40625 -4.15625 45.40625 5.171875 
L 45.40625 9.625 
Q 42.625 4.78125 38.28125 2.390625 
Q 33.9375 0 27.875 0 
Q 17.828125 0 11.671875 7.65625 
Q 5.515625 15.328125 5.515625 27.984375 
Q 5.515625 40.671875 11.671875 48.328125 
Q 17.828125 56 27.875 56 
Q 33.9375 56 38.28125 53.609375 
Q 42.625 51.21875 45.40625 46.390625 
L 45.40625 54.6875 
L 54.390625 54.6875 
z
" id="DejaVuSans-103"/>
       <path d="M 18.3125 70.21875 
L 18.3125 54.6875 
L 36.8125 54.6875 
L 36.8125 47.703125 
L 18.3125 47.703125 
L 18.3125 18.015625 
Q 18.3125 11.328125 20.140625 9.421875 
Q 21.96875 7.515625 27.59375 7.515625 
L 36.8125 7.515625 
L 36.8125 0 
L 27.59375 0 
Q 17.1875 0 13.234375 3.875 
Q 9.28125 7.765625 9.28125 18.015625 
L 9.28125 47.703125 
L 2.6875 47.703125 
L 2.6875 54.6875 
L 9.28125 54.6875 
L 9.28125 70.21875 
z
" id="DejaVuSans-116"/>
       <path d="M 54.890625 33.015625 
L 54.890625 0 
L 45.90625 0 
L 45.90625 32.71875 
Q 45.90625 40.484375 42.875 44.328125 
Q 39.84375 48.1875 33.796875 48.1875 
Q 26.515625 48.1875 22.3125 43.546875 
Q 18.109375 38.921875 18.109375 30.90625 
L 18.109375 0 
L 9.078125 0 
L 9.078125 75.984375 
L 18.109375 75.984375 
L 18.109375 46.1875 
Q 21.34375 51.125 25.703125 53.5625 
Q 30.078125 56 35.796875 56 
Q 45.21875 56 50.046875 50.171875 
Q 54.890625 44.34375 54.890625 33.015625 
z
" id="DejaVuSans-104"/>
      </defs>
      <use xlink:href="#DejaVuSans-73"/>
      <use x="29.492188" xlink:href="#DejaVuSans-82"/>
      <use x="98.974609" xlink:href="#DejaVuSans-95"/>
      <use x="148.974609" xlink:href="#DejaVuSans-86"/>
      <use x="217.382812" xlink:href="#DejaVuSans-68"/>
      <use x="294.384766" xlink:href="#DejaVuSans-74"/>
      <use x="323.876953" xlink:href="#DejaVuSans-95"/>
      <use x="373.876953" xlink:href="#DejaVuSans-49"/>
      <use x="437.5" xlink:href="#DejaVuSans-95"/>
      <use x="487.5" xlink:href="#DejaVuSans-99"/>
      <use x="542.480469" xlink:href="#DejaVuSans-100"/>
      <use x="605.957031" xlink:href="#DejaVuSans-114"/>
      <use x="647.070312" xlink:href="#DejaVuSans-51"/>
      <use x="710.693359" xlink:href="#DejaVuSans-32"/>
      <use x="742.480469" xlink:href="#DejaVuSans-108"/>
      <use x="770.263672" xlink:href="#DejaVuSans-101"/>
      <use x="831.787109" xlink:href="#DejaVuSans-110"/>
      <use x="895.166016" xlink:href="#DejaVuSans-103"/>
      <use x="958.642578" xlink:href="#DejaVuSans-116"/>
      <use x="997.851562" xlink:href="#DejaVuSans-104"/>
     </g>
    </g>
   </g>
   <g id="matplotlib.axis_2">
    <g id="ytick_1">
     <g id="line2d_23">
      <defs>
       <path d="M 0 0 
L -3.5 0 
" id="mb289068b6f" style="stroke:#000000;stroke-width:0.8;"/>
      </defs>
      <g>
       <use style="stroke:#000000;stroke-width:0.8;" x="32.305" xlink:href="#mb289068b6f" y="210.878437"/>
      </g>
     </g>
     <g id="text_24">
      <!-- 0 -->
      <g transform="translate(18.9425 214.677656)scale(0.1 -0.1)">
       <use xlink:href="#DejaVuSans-48"/>
      </g>
     </g>
    </g>
    <g id="ytick_2">
     <g id="line2d_24">
      <g>
       <use style="stroke:#000000;stroke-width:0.8;" x="32.305" xlink:href="#mb289068b6f" y="186.044877"/>
      </g>
     </g>
     <g id="text_25">
      <!-- 1 -->
      <g transform="translate(18.9425 189.844096)scale(0.1 -0.1)">
       <use xlink:href="#DejaVuSans-49"/>
      </g>
     </g>
    </g>
    <g id="ytick_3">
     <g id="line2d_25">
      <g>
       <use style="stroke:#000000;stroke-width:0.8;" x="32.305" xlink:href="#mb289068b6f" y="161.211316"/>
      </g>
     </g>
     <g id="text_26">
      <!-- 2 -->
      <g transform="translate(18.9425 165.010535)scale(0.1 -0.1)">
       <use xlink:href="#DejaVuSans-50"/>
      </g>
     </g>
    </g>
    <g id="ytick_4">
     <g id="line2d_26">
      <g>
       <use style="stroke:#000000;stroke-width:0.8;" x="32.305" xlink:href="#mb289068b6f" y="136.377756"/>
      </g>
     </g>
     <g id="text_27">
      <!-- 3 -->
      <g transform="translate(18.9425 140.176975)scale(0.1 -0.1)">
       <use xlink:href="#DejaVuSans-51"/>
      </g>
     </g>
    </g>
    <g id="ytick_5">
     <g id="line2d_27">
      <g>
       <use style="stroke:#000000;stroke-width:0.8;" x="32.305" xlink:href="#mb289068b6f" y="111.544195"/>
      </g>
     </g>
     <g id="text_28">
      <!-- 4 -->
      <g transform="translate(18.9425 115.343414)scale(0.1 -0.1)">
       <use xlink:href="#DejaVuSans-52"/>
      </g>
     </g>
    </g>
    <g id="ytick_6">
     <g id="line2d_28">
      <g>
       <use style="stroke:#000000;stroke-width:0.8;" x="32.305" xlink:href="#mb289068b6f" y="86.710635"/>
      </g>
     </g>
     <g id="text_29">
      <!-- 5 -->
      <g transform="translate(18.9425 90.509853)scale(0.1 -0.1)">
       <use xlink:href="#DejaVuSans-53"/>
      </g>
     </g>
    </g>
    <g id="ytick_7">
     <g id="line2d_29">
      <g>
       <use style="stroke:#000000;stroke-width:0.8;" x="32.305" xlink:href="#mb289068b6f" y="61.877074"/>
      </g>
     </g>
     <g id="text_30">
      <!-- 6 -->
      <g transform="translate(18.9425 65.676293)scale(0.1 -0.1)">
       <use xlink:href="#DejaVuSans-54"/>
      </g>
     </g>
    </g>
    <g id="ytick_8">
     <g id="line2d_30">
      <g>
       <use style="stroke:#000000;stroke-width:0.8;" x="32.305" xlink:href="#mb289068b6f" y="37.043513"/>
      </g>
     </g>
     <g id="text_31">
      <!-- 7 -->
      <g transform="translate(18.9425 40.842732)scale(0.1 -0.1)">
       <use xlink:href="#DejaVuSans-55"/>
      </g>
     </g>
    </g>
    <g id="text_32">
     <!-- Fraction of cells in sample -->
     <g transform="translate(13.27875 167.902812)rotate(-90)scale(0.08 -0.08)">
      <defs>
       <path d="M 9.8125 72.90625 
L 51.703125 72.90625 
L 51.703125 64.59375 
L 19.671875 64.59375 
L 19.671875 43.109375 
L 48.578125 43.109375 
L 48.578125 34.8125 
L 19.671875 34.8125 
L 19.671875 0 
L 9.8125 0 
z
" id="DejaVuSans-70"/>
       <path d="M 34.28125 27.484375 
Q 23.390625 27.484375 19.1875 25 
Q 14.984375 22.515625 14.984375 16.5 
Q 14.984375 11.71875 18.140625 8.90625 
Q 21.296875 6.109375 26.703125 6.109375 
Q 34.1875 6.109375 38.703125 11.40625 
Q 43.21875 16.703125 43.21875 25.484375 
L 43.21875 27.484375 
z
M 52.203125 31.203125 
L 52.203125 0 
L 43.21875 0 
L 43.21875 8.296875 
Q 40.140625 3.328125 35.546875 0.953125 
Q 30.953125 -1.421875 24.3125 -1.421875 
Q 15.921875 -1.421875 10.953125 3.296875 
Q 6 8.015625 6 15.921875 
Q 6 25.140625 12.171875 29.828125 
Q 18.359375 34.515625 30.609375 34.515625 
L 43.21875 34.515625 
L 43.21875 35.40625 
Q 43.21875 41.609375 39.140625 45 
Q 35.0625 48.390625 27.6875 48.390625 
Q 23 48.390625 18.546875 47.265625 
Q 14.109375 46.140625 10.015625 43.890625 
L 10.015625 52.203125 
Q 14.9375 54.109375 19.578125 55.046875 
Q 24.21875 56 28.609375 56 
Q 40.484375 56 46.34375 49.84375 
Q 52.203125 43.703125 52.203125 31.203125 
z
" id="DejaVuSans-97"/>
       <path d="M 9.421875 54.6875 
L 18.40625 54.6875 
L 18.40625 0 
L 9.421875 0 
z
M 9.421875 75.984375 
L 18.40625 75.984375 
L 18.40625 64.59375 
L 9.421875 64.59375 
z
" id="DejaVuSans-105"/>
       <path d="M 30.609375 48.390625 
Q 23.390625 48.390625 19.1875 42.75 
Q 14.984375 37.109375 14.984375 27.296875 
Q 14.984375 17.484375 19.15625 11.84375 
Q 23.34375 6.203125 30.609375 6.203125 
Q 37.796875 6.203125 41.984375 11.859375 
Q 46.1875 17.53125 46.1875 27.296875 
Q 46.1875 37.015625 41.984375 42.703125 
Q 37.796875 48.390625 30.609375 48.390625 
z
M 30.609375 56 
Q 42.328125 56 49.015625 48.375 
Q 55.71875 40.765625 55.71875 27.296875 
Q 55.71875 13.875 49.015625 6.21875 
Q 42.328125 -1.421875 30.609375 -1.421875 
Q 18.84375 -1.421875 12.171875 6.21875 
Q 5.515625 13.875 5.515625 27.296875 
Q 5.515625 40.765625 12.171875 48.375 
Q 18.84375 56 30.609375 56 
z
" id="DejaVuSans-111"/>
       <path d="M 37.109375 75.984375 
L 37.109375 68.5 
L 28.515625 68.5 
Q 23.6875 68.5 21.796875 66.546875 
Q 19.921875 64.59375 19.921875 59.515625 
L 19.921875 54.6875 
L 34.71875 54.6875 
L 34.71875 47.703125 
L 19.921875 47.703125 
L 19.921875 0 
L 10.890625 0 
L 10.890625 47.703125 
L 2.296875 47.703125 
L 2.296875 54.6875 
L 10.890625 54.6875 
L 10.890625 58.5 
Q 10.890625 67.625 15.140625 71.796875 
Q 19.390625 75.984375 28.609375 75.984375 
z
" id="DejaVuSans-102"/>
       <path d="M 44.28125 53.078125 
L 44.28125 44.578125 
Q 40.484375 46.53125 36.375 47.5 
Q 32.28125 48.484375 27.875 48.484375 
Q 21.1875 48.484375 17.84375 46.4375 
Q 14.5 44.390625 14.5 40.28125 
Q 14.5 37.15625 16.890625 35.375 
Q 19.28125 33.59375 26.515625 31.984375 
L 29.59375 31.296875 
Q 39.15625 29.25 43.1875 25.515625 
Q 47.21875 21.78125 47.21875 15.09375 
Q 47.21875 7.46875 41.1875 3.015625 
Q 35.15625 -1.421875 24.609375 -1.421875 
Q 20.21875 -1.421875 15.453125 -0.5625 
Q 10.6875 0.296875 5.421875 2 
L 5.421875 11.28125 
Q 10.40625 8.6875 15.234375 7.390625 
Q 20.0625 6.109375 24.8125 6.109375 
Q 31.15625 6.109375 34.5625 8.28125 
Q 37.984375 10.453125 37.984375 14.40625 
Q 37.984375 18.0625 35.515625 20.015625 
Q 33.0625 21.96875 24.703125 23.78125 
L 21.578125 24.515625 
Q 13.234375 26.265625 9.515625 29.90625 
Q 5.8125 33.546875 5.8125 39.890625 
Q 5.8125 47.609375 11.28125 51.796875 
Q 16.75 56 26.8125 56 
Q 31.78125 56 36.171875 55.265625 
Q 40.578125 54.546875 44.28125 53.078125 
z
" id="DejaVuSans-115"/>
       <path d="M 52 44.1875 
Q 55.375 50.25 60.0625 53.125 
Q 64.75 56 71.09375 56 
Q 79.640625 56 84.28125 50.015625 
Q 88.921875 44.046875 88.921875 33.015625 
L 88.921875 0 
L 79.890625 0 
L 79.890625 32.71875 
Q 79.890625 40.578125 77.09375 44.375 
Q 74.3125 48.1875 68.609375 48.1875 
Q 61.625 48.1875 57.5625 43.546875 
Q 53.515625 38.921875 53.515625 30.90625 
L 53.515625 0 
L 44.484375 0 
L 44.484375 32.71875 
Q 44.484375 40.625 41.703125 44.40625 
Q 38.921875 48.1875 33.109375 48.1875 
Q 26.21875 48.1875 22.15625 43.53125 
Q 18.109375 38.875 18.109375 30.90625 
L 18.109375 0 
L 9.078125 0 
L 9.078125 54.6875 
L 18.109375 54.6875 
L 18.109375 46.1875 
Q 21.1875 51.21875 25.484375 53.609375 
Q 29.78125 56 35.6875 56 
Q 41.65625 56 45.828125 52.96875 
Q 50 49.953125 52 44.1875 
z
" id="DejaVuSans-109"/>
       <path d="M 18.109375 8.203125 
L 18.109375 -20.796875 
L 9.078125 -20.796875 
L 9.078125 54.6875 
L 18.109375 54.6875 
L 18.109375 46.390625 
Q 20.953125 51.265625 25.265625 53.625 
Q 29.59375 56 35.59375 56 
Q 45.5625 56 51.78125 48.09375 
Q 58.015625 40.1875 58.015625 27.296875 
Q 58.015625 14.40625 51.78125 6.484375 
Q 45.5625 -1.421875 35.59375 -1.421875 
Q 29.59375 -1.421875 25.265625 0.953125 
Q 20.953125 3.328125 18.109375 8.203125 
z
M 48.6875 27.296875 
Q 48.6875 37.203125 44.609375 42.84375 
Q 40.53125 48.484375 33.40625 48.484375 
Q 26.265625 48.484375 22.1875 42.84375 
Q 18.109375 37.203125 18.109375 27.296875 
Q 18.109375 17.390625 22.1875 11.75 
Q 26.265625 6.109375 33.40625 6.109375 
Q 40.53125 6.109375 44.609375 11.75 
Q 48.6875 17.390625 48.6875 27.296875 
z
" id="DejaVuSans-112"/>
      </defs>
      <use xlink:href="#DejaVuSans-70"/>
      <use x="50.269531" xlink:href="#DejaVuSans-114"/>
      <use x="91.382812" xlink:href="#DejaVuSans-97"/>
      <use x="152.662109" xlink:href="#DejaVuSans-99"/>
      <use x="207.642578" xlink:href="#DejaVuSans-116"/>
      <use x="246.851562" xlink:href="#DejaVuSans-105"/>
      <use x="274.634766" xlink:href="#DejaVuSans-111"/>
      <use x="335.816406" xlink:href="#DejaVuSans-110"/>
      <use x="399.195312" xlink:href="#DejaVuSans-32"/>
      <use x="430.982422" xlink:href="#DejaVuSans-111"/>
      <use x="492.164062" xlink:href="#DejaVuSans-102"/>
      <use x="527.369141" xlink:href="#DejaVuSans-32"/>
      <use x="559.15625" xlink:href="#DejaVuSans-99"/>
      <use x="614.136719" xlink:href="#DejaVuSans-101"/>
      <use x="675.660156" xlink:href="#DejaVuSans-108"/>
      <use x="703.443359" xlink:href="#DejaVuSans-108"/>
      <use x="731.226562" xlink:href="#DejaVuSans-115"/>
      <use x="783.326172" xlink:href="#DejaVuSans-32"/>
      <use x="815.113281" xlink:href="#DejaVuSans-105"/>
      <use x="842.896484" xlink:href="#DejaVuSans-110"/>
      <use x="906.275391" xlink:href="#DejaVuSans-32"/>
      <use x="938.0625" xlink:href="#DejaVuSans-115"/>
      <use x="990.162109" xlink:href="#DejaVuSans-97"/>
      <use x="1051.441406" xlink:href="#DejaVuSans-109"/>
      <use x="1148.853516" xlink:href="#DejaVuSans-112"/>
      <use x="1212.330078" xlink:href="#DejaVuSans-108"/>
      <use x="1240.113281" xlink:href="#DejaVuSans-101"/>
     </g>
    </g>
   </g>
   <g id="patch_113">
    <path d="M 32.305 210.878437 
L 32.305 20.798437 
" style="fill:none;stroke:#000000;stroke-linecap:square;stroke-linejoin:miter;stroke-width:0.8;"/>
   </g>
   <g id="patch_114">
    <path d="M 32.305 210.878437 
L 308.785 210.878437 
" style="fill:none;stroke:#000000;stroke-linecap:square;stroke-linejoin:miter;stroke-width:0.8;"/>
   </g>
   <g id="text_33">
    <!-- Spectratype of IR_VDJ_1_cdr3 by IR_VDJ_1_v_gene -->
    <g transform="translate(44.944219 14.798437)scale(0.1 -0.1)">
     <defs>
      <path d="M 53.515625 70.515625 
L 53.515625 60.890625 
Q 47.90625 63.578125 42.921875 64.890625 
Q 37.9375 66.21875 33.296875 66.21875 
Q 25.25 66.21875 20.875 63.09375 
Q 16.5 59.96875 16.5 54.203125 
Q 16.5 49.359375 19.40625 46.890625 
Q 22.3125 44.4375 30.421875 42.921875 
L 36.375 41.703125 
Q 47.40625 39.59375 52.65625 34.296875 
Q 57.90625 29 57.90625 20.125 
Q 57.90625 9.515625 50.796875 4.046875 
Q 43.703125 -1.421875 29.984375 -1.421875 
Q 24.8125 -1.421875 18.96875 -0.25 
Q 13.140625 0.921875 6.890625 3.21875 
L 6.890625 13.375 
Q 12.890625 10.015625 18.65625 8.296875 
Q 24.421875 6.59375 29.984375 6.59375 
Q 38.421875 6.59375 43.015625 9.90625 
Q 47.609375 13.234375 47.609375 19.390625 
Q 47.609375 24.75 44.3125 27.78125 
Q 41.015625 30.8125 33.5 32.328125 
L 27.484375 33.5 
Q 16.453125 35.6875 11.515625 40.375 
Q 6.59375 45.0625 6.59375 53.421875 
Q 6.59375 63.09375 13.40625 68.65625 
Q 20.21875 74.21875 32.171875 74.21875 
Q 37.3125 74.21875 42.625 73.28125 
Q 47.953125 72.359375 53.515625 70.515625 
z
" id="DejaVuSans-83"/>
      <path d="M 32.171875 -5.078125 
Q 28.375 -14.84375 24.75 -17.8125 
Q 21.140625 -20.796875 15.09375 -20.796875 
L 7.90625 -20.796875 
L 7.90625 -13.28125 
L 13.1875 -13.28125 
Q 16.890625 -13.28125 18.9375 -11.515625 
Q 21 -9.765625 23.484375 -3.21875 
L 25.09375 0.875 
L 2.984375 54.6875 
L 12.5 54.6875 
L 29.59375 11.921875 
L 46.6875 54.6875 
L 56.203125 54.6875 
z
" id="DejaVuSans-121"/>
      <path d="M 48.6875 27.296875 
Q 48.6875 37.203125 44.609375 42.84375 
Q 40.53125 48.484375 33.40625 48.484375 
Q 26.265625 48.484375 22.1875 42.84375 
Q 18.109375 37.203125 18.109375 27.296875 
Q 18.109375 17.390625 22.1875 11.75 
Q 26.265625 6.109375 33.40625 6.109375 
Q 40.53125 6.109375 44.609375 11.75 
Q 48.6875 17.390625 48.6875 27.296875 
z
M 18.109375 46.390625 
Q 20.953125 51.265625 25.265625 53.625 
Q 29.59375 56 35.59375 56 
Q 45.5625 56 51.78125 48.09375 
Q 58.015625 40.1875 58.015625 27.296875 
Q 58.015625 14.40625 51.78125 6.484375 
Q 45.5625 -1.421875 35.59375 -1.421875 
Q 29.59375 -1.421875 25.265625 0.953125 
Q 20.953125 3.328125 18.109375 8.203125 
L 18.109375 0 
L 9.078125 0 
L 9.078125 75.984375 
L 18.109375 75.984375 
z
" id="DejaVuSans-98"/>
      <path d="M 2.984375 54.6875 
L 12.5 54.6875 
L 29.59375 8.796875 
L 46.6875 54.6875 
L 56.203125 54.6875 
L 35.6875 0 
L 23.484375 0 
z
" id="DejaVuSans-118"/>
     </defs>
     <use xlink:href="#DejaVuSans-83"/>
     <use x="63.476562" xlink:href="#DejaVuSans-112"/>
     <use x="126.953125" xlink:href="#DejaVuSans-101"/>
     <use x="188.476562" xlink:href="#DejaVuSans-99"/>
     <use x="243.457031" xlink:href="#DejaVuSans-116"/>
     <use x="282.666016" xlink:href="#DejaVuSans-114"/>
     <use x="323.779297" xlink:href="#DejaVuSans-97"/>
     <use x="385.058594" xlink:href="#DejaVuSans-116"/>
     <use x="424.267578" xlink:href="#DejaVuSans-121"/>
     <use x="483.447266" xlink:href="#DejaVuSans-112"/>
     <use x="546.923828" xlink:href="#DejaVuSans-101"/>
     <use x="608.447266" xlink:href="#DejaVuSans-32"/>
     <use x="640.234375" xlink:href="#DejaVuSans-111"/>
     <use x="701.416016" xlink:href="#DejaVuSans-102"/>
     <use x="736.621094" xlink:href="#DejaVuSans-32"/>
     <use x="768.408203" xlink:href="#DejaVuSans-73"/>
     <use x="797.900391" xlink:href="#DejaVuSans-82"/>
     <use x="867.382812" xlink:href="#DejaVuSans-95"/>
     <use x="917.382812" xlink:href="#DejaVuSans-86"/>
     <use x="985.791016" xlink:href="#DejaVuSans-68"/>
     <use x="1062.792969" xlink:href="#DejaVuSans-74"/>
     <use x="1092.285156" xlink:href="#DejaVuSans-95"/>
     <use x="1142.285156" xlink:href="#DejaVuSans-49"/>
     <use x="1205.908203" xlink:href="#DejaVuSans-95"/>
     <use x="1255.908203" xlink:href="#DejaVuSans-99"/>
     <use x="1310.888672" xlink:href="#DejaVuSans-100"/>
     <use x="1374.365234" xlink:href="#DejaVuSans-114"/>
     <use x="1415.478516" xlink:href="#DejaVuSans-51"/>
     <use x="1479.101562" xlink:href="#DejaVuSans-32"/>
     <use x="1510.888672" xlink:href="#DejaVuSans-98"/>
     <use x="1574.365234" xlink:href="#DejaVuSans-121"/>
     <use x="1633.544922" xlink:href="#DejaVuSans-32"/>
     <use x="1665.332031" xlink:href="#DejaVuSans-73"/>
     <use x="1694.824219" xlink:href="#DejaVuSans-82"/>
     <use x="1764.306641" xlink:href="#DejaVuSans-95"/>
     <use x="1814.306641" xlink:href="#DejaVuSans-86"/>
     <use x="1882.714844" xlink:href="#DejaVuSans-68"/>
     <use x="1959.716797" xlink:href="#DejaVuSans-74"/>
     <use x="1989.208984" xlink:href="#DejaVuSans-95"/>
     <use x="2039.208984" xlink:href="#DejaVuSans-49"/>
     <use x="2102.832031" xlink:href="#DejaVuSans-95"/>
     <use x="2152.832031" xlink:href="#DejaVuSans-118"/>
     <use x="2212.011719" xlink:href="#DejaVuSans-95"/>
     <use x="2262.011719" xlink:href="#DejaVuSans-103"/>
     <use x="2325.488281" xlink:href="#DejaVuSans-101"/>
     <use x="2387.011719" xlink:href="#DejaVuSans-110"/>
     <use x="2450.390625" xlink:href="#DejaVuSans-101"/>
    </g>
   </g>
   <g id="legend_1">
    <g id="patch_115">
     <path d="M 371.281 34.077187 
L 387.281 34.077187 
L 387.281 28.477187 
L 371.281 28.477187 
z
" style="fill:#1f77b4;"/>
    </g>
    <g id="text_34">
     <!-- TRBV5-1 -->
     <g transform="translate(393.681 34.077187)scale(0.08 -0.08)">
      <defs>
       <path d="M -0.296875 72.90625 
L 61.375 72.90625 
L 61.375 64.59375 
L 35.5 64.59375 
L 35.5 0 
L 25.59375 0 
L 25.59375 64.59375 
L -0.296875 64.59375 
z
" id="DejaVuSans-84"/>
       <path d="M 19.671875 34.8125 
L 19.671875 8.109375 
L 35.5 8.109375 
Q 43.453125 8.109375 47.28125 11.40625 
Q 51.125 14.703125 51.125 21.484375 
Q 51.125 28.328125 47.28125 31.5625 
Q 43.453125 34.8125 35.5 34.8125 
z
M 19.671875 64.796875 
L 19.671875 42.828125 
L 34.28125 42.828125 
Q 41.5 42.828125 45.03125 45.53125 
Q 48.578125 48.25 48.578125 53.8125 
Q 48.578125 59.328125 45.03125 62.0625 
Q 41.5 64.796875 34.28125 64.796875 
z
M 9.8125 72.90625 
L 35.015625 72.90625 
Q 46.296875 72.90625 52.390625 68.21875 
Q 58.5 63.53125 58.5 54.890625 
Q 58.5 48.1875 55.375 44.234375 
Q 52.25 40.28125 46.1875 39.3125 
Q 53.46875 37.75 57.5 32.78125 
Q 61.53125 27.828125 61.53125 20.40625 
Q 61.53125 10.640625 54.890625 5.3125 
Q 48.25 0 35.984375 0 
L 9.8125 0 
z
" id="DejaVuSans-66"/>
       <path d="M 4.890625 31.390625 
L 31.203125 31.390625 
L 31.203125 23.390625 
L 4.890625 23.390625 
z
" id="DejaVuSans-45"/>
      </defs>
      <use xlink:href="#DejaVuSans-84"/>
      <use x="61.083984" xlink:href="#DejaVuSans-82"/>
      <use x="130.566406" xlink:href="#DejaVuSans-66"/>
      <use x="196.044922" xlink:href="#DejaVuSans-86"/>
      <use x="264.453125" xlink:href="#DejaVuSans-53"/>
      <use x="328.076172" xlink:href="#DejaVuSans-45"/>
      <use x="364.160156" xlink:href="#DejaVuSans-49"/>
     </g>
    </g>
    <g id="patch_116">
     <path d="M 371.281 45.819687 
L 387.281 45.819687 
L 387.281 40.219687 
L 371.281 40.219687 
z
" style="fill:#ff7f0e;"/>
    </g>
    <g id="text_35">
     <!-- TRBV7-2 -->
     <g transform="translate(393.681 45.819687)scale(0.08 -0.08)">
      <use xlink:href="#DejaVuSans-84"/>
      <use x="61.083984" xlink:href="#DejaVuSans-82"/>
      <use x="130.566406" xlink:href="#DejaVuSans-66"/>
      <use x="196.044922" xlink:href="#DejaVuSans-86"/>
      <use x="264.453125" xlink:href="#DejaVuSans-55"/>
      <use x="328.076172" xlink:href="#DejaVuSans-45"/>
      <use x="364.160156" xlink:href="#DejaVuSans-50"/>
     </g>
    </g>
    <g id="patch_117">
     <path d="M 371.281 57.562187 
L 387.281 57.562187 
L 387.281 51.962187 
L 371.281 51.962187 
z
" style="fill:#2ca02c;"/>
    </g>
    <g id="text_36">
     <!-- TRBV7-9 -->
     <g transform="translate(393.681 57.562187)scale(0.08 -0.08)">
      <use xlink:href="#DejaVuSans-84"/>
      <use x="61.083984" xlink:href="#DejaVuSans-82"/>
      <use x="130.566406" xlink:href="#DejaVuSans-66"/>
      <use x="196.044922" xlink:href="#DejaVuSans-86"/>
      <use x="264.453125" xlink:href="#DejaVuSans-55"/>
      <use x="328.076172" xlink:href="#DejaVuSans-45"/>
      <use x="364.160156" xlink:href="#DejaVuSans-57"/>
     </g>
    </g>
    <g id="patch_118">
     <path d="M 371.281 69.304687 
L 387.281 69.304687 
L 387.281 63.704687 
L 371.281 63.704687 
z
" style="fill:#d62728;"/>
    </g>
    <g id="text_37">
     <!-- TRBV20-1 -->
     <g transform="translate(393.681 69.304687)scale(0.08 -0.08)">
      <use xlink:href="#DejaVuSans-84"/>
      <use x="61.083984" xlink:href="#DejaVuSans-82"/>
      <use x="130.566406" xlink:href="#DejaVuSans-66"/>
      <use x="196.044922" xlink:href="#DejaVuSans-86"/>
      <use x="264.453125" xlink:href="#DejaVuSans-50"/>
      <use x="328.076172" xlink:href="#DejaVuSans-48"/>
      <use x="391.699219" xlink:href="#DejaVuSans-45"/>
      <use x="427.783203" xlink:href="#DejaVuSans-49"/>
     </g>
    </g>
    <g id="patch_119">
     <path d="M 371.281 81.047187 
L 387.281 81.047187 
L 387.281 75.447187 
L 371.281 75.447187 
z
" style="fill:#9467bd;"/>
    </g>
    <g id="text_38">
     <!-- TRBV28 -->
     <g transform="translate(393.681 81.047187)scale(0.08 -0.08)">
      <use xlink:href="#DejaVuSans-84"/>
      <use x="61.083984" xlink:href="#DejaVuSans-82"/>
      <use x="130.566406" xlink:href="#DejaVuSans-66"/>
      <use x="196.044922" xlink:href="#DejaVuSans-86"/>
      <use x="264.453125" xlink:href="#DejaVuSans-50"/>
      <use x="328.076172" xlink:href="#DejaVuSans-56"/>
     </g>
    </g>
   </g>
  </g>
 </g>
 <defs>
  <clipPath id="p8b947b9417">
   <rect height="190.08" width="276.48" x="32.305" y="20.798437"/>
  </clipPath>
 </defs>
</svg>
