<?xml version="1.0" encoding="utf-8" standalone="no"?>
<!DOCTYPE svg PUBLIC "-//W3C//DTD SVG 1.1//EN"
  "http://www.w3.org/Graphics/SVG/1.1/DTD/svg11.dtd">
<!-- Created with matplotlib (https://matplotlib.org/) -->
<svg height="246.499062pt" version="1.1" viewBox="0 0 381.681 246.499062" width="381.681pt" xmlns="http://www.w3.org/2000/svg" xmlns:xlink="http://www.w3.org/1999/xlink">
 <defs>
  <style type="text/css">
*{stroke-linecap:butt;stroke-linejoin:round;}
  </style>
 </defs>
 <g id="figure_1">
  <g id="patch_1">
   <path d="M 0 246.499062 
L 381.681 246.499062 
L 381.681 0 
L 0 0 
z
" style="fill:#ffffff;"/>
  </g>
  <g id="axes_1">
   <g id="patch_2">
    <path d="M 32.305 210.878437 
L 308.785 210.878437 
L 308.785 20.798437 
L 32.305 20.798437 
z
" style="fill:#ffffff;"/>
   </g>
   <g id="PathCollection_1">
    <path clip-path="url(#pcd901a9864)" d="M 32.305 205.960289 
C 36.601781 205.960289 40.723156 204.25316 43.761439 201.214877 
C 46.799722 198.176594 48.506852 194.055219 48.506852 189.758437 
C 48.506852 185.461656 46.799722 181.340281 43.761439 178.301998 
C 40.723156 175.263715 36.601781 173.556586 32.305 173.556586 
C 28.008219 173.556586 23.886844 175.263715 20.848561 178.301998 
C 17.810278 181.340281 16.103148 185.461656 16.103148 189.758437 
C 16.103148 194.055219 17.810278 198.176594 20.848561 201.214877 
C 23.886844 204.25316 28.008219 205.960289 32.305 205.960289 
z
" style="fill:#1f77b4;fill-opacity:0.3;stroke:#1f77b4;stroke-opacity:0.3;"/>
    <path clip-path="url(#pcd901a9864)" d="M 32.305 173.82986 
C 33.681781 173.82986 35.002359 173.282859 35.97589 172.309328 
C 36.949421 171.335796 37.496422 170.015219 37.496422 168.638437 
C 37.496422 167.261656 36.949421 165.941079 35.97589 164.967547 
C 35.002359 163.994016 33.681781 163.447015 32.305 163.447015 
C 30.928219 163.447015 29.607641 163.994016 28.63411 164.967547 
C 27.660579 165.941079 27.113578 167.261656 27.113578 168.638437 
C 27.113578 170.015219 27.660579 171.335796 28.63411 172.309328 
C 29.607641 173.282859 30.928219 173.82986 32.305 173.82986 
z
" style="fill:#1f77b4;fill-opacity:0.3;stroke:#1f77b4;stroke-opacity:0.3;"/>
    <path clip-path="url(#pcd901a9864)" d="M 32.305 151.25275 
C 33.295351 151.25275 34.245273 150.859279 34.945557 150.158995 
C 35.645841 149.458711 36.039312 148.508789 36.039312 147.518437 
C 36.039312 146.528086 35.645841 145.578164 34.945557 144.87788 
C 34.245273 144.177596 33.295351 143.784125 32.305 143.784125 
C 31.314649 143.784125 30.364727 144.177596 29.664443 144.87788 
C 28.964159 145.578164 28.570688 146.528086 28.570688 147.518437 
C 28.570688 148.508789 28.964159 149.458711 29.664443 150.158995 
C 30.364727 150.859279 31.314649 151.25275 32.305 151.25275 
z
" style="fill:#1f77b4;fill-opacity:0.3;stroke:#1f77b4;stroke-opacity:0.3;"/>
    <path clip-path="url(#pcd901a9864)" d="M 32.305 130.13275 
C 33.295351 130.13275 34.245273 129.739279 34.945557 129.038995 
C 35.645841 128.338711 36.039312 127.388789 36.039312 126.398437 
C 36.039312 125.408086 35.645841 124.458164 34.945557 123.75788 
C 34.245273 123.057596 33.295351 122.664125 32.305 122.664125 
C 31.314649 122.664125 30.364727 123.057596 29.664443 123.75788 
C 28.964159 124.458164 28.570688 125.408086 28.570688 126.398437 
C 28.570688 127.388789 28.964159 128.338711 29.664443 129.038995 
C 30.364727 129.739279 31.314649 130.13275 32.305 130.13275 
z
" style="fill:#1f77b4;fill-opacity:0.3;stroke:#1f77b4;stroke-opacity:0.3;"/>
    <path clip-path="url(#pcd901a9864)" d="M 32.305 108.813971 
C 33.242635 108.813971 34.141992 108.441445 34.805 107.778437 
C 35.468008 107.11543 35.840534 106.216072 35.840534 105.278437 
C 35.840534 104.340803 35.468008 103.441445 34.805 102.778437 
C 34.141992 102.11543 33.242635 101.742904 32.305 101.742904 
C 31.367365 101.742904 30.468008 102.11543 29.805 102.778437 
C 29.141992 103.441445 28.769466 104.340803 28.769466 105.278437 
C 28.769466 106.216072 29.141992 107.11543 29.805 107.778437 
C 30.468008 108.441445 31.367365 108.813971 32.305 108.813971 
z
" style="fill:#1f77b4;fill-opacity:0.3;stroke:#1f77b4;stroke-opacity:0.3;"/>
    <path clip-path="url(#pcd901a9864)" d="M 63.025 224.35342 
C 66.598607 224.35342 70.026329 222.933611 72.553251 220.406689 
C 75.080173 217.879767 76.499982 214.452045 76.499982 210.878437 
C 76.499982 207.30483 75.080173 203.877108 72.553251 201.350186 
C 70.026329 198.823264 66.598607 197.403455 63.025 197.403455 
C 59.451393 197.403455 56.023671 198.823264 53.496749 201.350186 
C 50.969827 203.877108 49.550018 207.30483 49.550018 210.878437 
C 49.550018 214.452045 50.969827 217.879767 53.496749 220.406689 
C 56.023671 222.933611 59.451393 224.35342 63.025 224.35342 
z
" style="fill:#1f77b4;fill-opacity:0.3;stroke:#1f77b4;stroke-opacity:0.3;"/>
    <path clip-path="url(#pcd901a9864)" d="M 63.025 193.49275 
C 64.015351 193.49275 64.965273 193.099279 65.665557 192.398995 
C 66.365841 191.698711 66.759312 190.748789 66.759312 189.758437 
C 66.759312 188.768086 66.365841 187.818164 65.665557 187.11788 
C 64.965273 186.417596 64.015351 186.024125 63.025 186.024125 
C 62.034649 186.024125 61.084727 186.417596 60.384443 187.11788 
C 59.684159 187.818164 59.290688 188.768086 59.290688 189.758437 
C 59.290688 190.748789 59.684159 191.698711 60.384443 192.398995 
C 61.084727 193.099279 62.034649 193.49275 63.025 193.49275 
z
" style="fill:#1f77b4;fill-opacity:0.3;stroke:#1f77b4;stroke-opacity:0.3;"/>
    <path clip-path="url(#pcd901a9864)" d="M 63.025 151.053971 
C 63.962635 151.053971 64.861992 150.681445 65.525 150.018437 
C 66.188008 149.35543 66.560534 148.456072 66.560534 147.518437 
C 66.560534 146.580803 66.188008 145.681445 65.525 145.018437 
C 64.861992 144.35543 63.962635 143.982904 63.025 143.982904 
C 62.087365 143.982904 61.188008 144.35543 60.525 145.018437 
C 59.861992 145.681445 59.489466 146.580803 59.489466 147.518437 
C 59.489466 148.456072 59.861992 149.35543 60.525 150.018437 
C 61.188008 150.681445 62.087365 151.053971 63.025 151.053971 
z
" style="fill:#1f77b4;fill-opacity:0.3;stroke:#1f77b4;stroke-opacity:0.3;"/>
    <path clip-path="url(#pcd901a9864)" d="M 63.025 129.933971 
C 63.962635 129.933971 64.861992 129.561445 65.525 128.898437 
C 66.188008 128.23543 66.560534 127.336072 66.560534 126.398437 
C 66.560534 125.460803 66.188008 124.561445 65.525 123.898437 
C 64.861992 123.23543 63.962635 122.862904 63.025 122.862904 
C 62.087365 122.862904 61.188008 123.23543 60.525 123.898437 
C 59.861992 124.561445 59.489466 125.460803 59.489466 126.398437 
C 59.489466 127.336072 59.861992 128.23543 60.525 128.898437 
C 61.188008 129.561445 62.087365 129.933971 63.025 129.933971 
z
" style="fill:#1f77b4;fill-opacity:0.3;stroke:#1f77b4;stroke-opacity:0.3;"/>
    <path clip-path="url(#pcd901a9864)" d="M 93.745 215.634024 
C 95.006196 215.634024 96.215907 215.132946 97.107708 214.241145 
C 97.999508 213.349345 98.500587 212.139634 98.500587 210.878437 
C 98.500587 209.617241 97.999508 208.40753 97.107708 207.51573 
C 96.215907 206.623929 95.006196 206.122851 93.745 206.122851 
C 92.483804 206.122851 91.274093 206.623929 90.382292 207.51573 
C 89.490492 208.40753 88.989413 209.617241 88.989413 210.878437 
C 88.989413 212.139634 89.490492 213.349345 90.382292 214.241145 
C 91.274093 215.132946 92.483804 215.634024 93.745 215.634024 
z
" style="fill:#1f77b4;fill-opacity:0.3;stroke:#1f77b4;stroke-opacity:0.3;"/>
    <path clip-path="url(#pcd901a9864)" d="M 93.745 172.37275 
C 94.735351 172.37275 95.685273 171.979279 96.385557 171.278995 
C 97.085841 170.578711 97.479312 169.628789 97.479312 168.638437 
C 97.479312 167.648086 97.085841 166.698164 96.385557 165.99788 
C 95.685273 165.297596 94.735351 164.904125 93.745 164.904125 
C 92.754649 164.904125 91.804727 165.297596 91.104443 165.99788 
C 90.404159 166.698164 90.010688 167.648086 90.010688 168.638437 
C 90.010688 169.628789 90.404159 170.578711 91.104443 171.278995 
C 91.804727 171.979279 92.754649 172.37275 93.745 172.37275 
z
" style="fill:#1f77b4;fill-opacity:0.3;stroke:#1f77b4;stroke-opacity:0.3;"/>
    <path clip-path="url(#pcd901a9864)" d="M 93.745 151.053971 
C 94.682635 151.053971 95.581992 150.681445 96.245 150.018437 
C 96.908008 149.35543 97.280534 148.456072 97.280534 147.518437 
C 97.280534 146.580803 96.908008 145.681445 96.245 145.018437 
C 95.581992 144.35543 94.682635 143.982904 93.745 143.982904 
C 92.807365 143.982904 91.908008 144.35543 91.245 145.018437 
C 90.581992 145.681445 90.209466 146.580803 90.209466 147.518437 
C 90.209466 148.456072 90.581992 149.35543 91.245 150.018437 
C 91.908008 150.681445 92.807365 151.053971 93.745 151.053971 
z
" style="fill:#1f77b4;fill-opacity:0.3;stroke:#1f77b4;stroke-opacity:0.3;"/>
    <path clip-path="url(#pcd901a9864)" d="M 124.465 214.413971 
C 125.402635 214.413971 126.301992 214.041445 126.965 213.378437 
C 127.628008 212.71543 128.000534 211.816072 128.000534 210.878437 
C 128.000534 209.940803 127.628008 209.041445 126.965 208.378437 
C 126.301992 207.71543 125.402635 207.342904 124.465 207.342904 
C 123.527365 207.342904 122.628008 207.71543 121.965 208.378437 
C 121.301992 209.041445 120.929466 209.940803 120.929466 210.878437 
C 120.929466 211.816072 121.301992 212.71543 121.965 213.378437 
C 122.628008 214.041445 123.527365 214.413971 124.465 214.413971 
z
" style="fill:#1f77b4;fill-opacity:0.3;stroke:#1f77b4;stroke-opacity:0.3;"/>
    <path clip-path="url(#pcd901a9864)" d="M 124.465 193.293971 
C 125.402635 193.293971 126.301992 192.921445 126.965 192.258437 
C 127.628008 191.59543 128.000534 190.696072 128.000534 189.758437 
C 128.000534 188.820803 127.628008 187.921445 126.965 187.258437 
C 126.301992 186.59543 125.402635 186.222904 124.465 186.222904 
C 123.527365 186.222904 122.628008 186.59543 121.965 187.258437 
C 121.301992 187.921445 120.929466 188.820803 120.929466 189.758437 
C 120.929466 190.696072 121.301992 191.59543 121.965 192.258437 
C 122.628008 192.921445 123.527365 193.293971 124.465 193.293971 
z
" style="fill:#1f77b4;fill-opacity:0.3;stroke:#1f77b4;stroke-opacity:0.3;"/>
    <path clip-path="url(#pcd901a9864)" d="M 155.185 214.413971 
C 156.122635 214.413971 157.021992 214.041445 157.685 213.378437 
C 158.348008 212.71543 158.720534 211.816072 158.720534 210.878437 
C 158.720534 209.940803 158.348008 209.041445 157.685 208.378437 
C 157.021992 207.71543 156.122635 207.342904 155.185 207.342904 
C 154.247365 207.342904 153.348008 207.71543 152.685 208.378437 
C 152.021992 209.041445 151.649466 209.940803 151.649466 210.878437 
C 151.649466 211.816072 152.021992 212.71543 152.685 213.378437 
C 153.348008 214.041445 154.247365 214.413971 155.185 214.413971 
z
" style="fill:#1f77b4;fill-opacity:0.3;stroke:#1f77b4;stroke-opacity:0.3;"/>
    <path clip-path="url(#pcd901a9864)" d="M 155.185 151.053971 
C 156.122635 151.053971 157.021992 150.681445 157.685 150.018437 
C 158.348008 149.35543 158.720534 148.456072 158.720534 147.518437 
C 158.720534 146.580803 158.348008 145.681445 157.685 145.018437 
C 157.021992 144.35543 156.122635 143.982904 155.185 143.982904 
C 154.247365 143.982904 153.348008 144.35543 152.685 145.018437 
C 152.021992 145.681445 151.649466 146.580803 151.649466 147.518437 
C 151.649466 148.456072 152.021992 149.35543 152.685 150.018437 
C 153.348008 150.681445 154.247365 151.053971 155.185 151.053971 
z
" style="fill:#1f77b4;fill-opacity:0.3;stroke:#1f77b4;stroke-opacity:0.3;"/>
    <path clip-path="url(#pcd901a9864)" d="M 216.625 193.293971 
C 217.562635 193.293971 218.461992 192.921445 219.125 192.258437 
C 219.788008 191.59543 220.160534 190.696072 220.160534 189.758437 
C 220.160534 188.820803 219.788008 187.921445 219.125 187.258437 
C 218.461992 186.59543 217.562635 186.222904 216.625 186.222904 
C 215.687365 186.222904 214.788008 186.59543 214.125 187.258437 
C 213.461992 187.921445 213.089466 188.820803 213.089466 189.758437 
C 213.089466 190.696072 213.461992 191.59543 214.125 192.258437 
C 214.788008 192.921445 215.687365 193.293971 216.625 193.293971 
z
" style="fill:#1f77b4;fill-opacity:0.3;stroke:#1f77b4;stroke-opacity:0.3;"/>
    <path clip-path="url(#pcd901a9864)" d="M 247.345 151.053971 
C 248.282635 151.053971 249.181992 150.681445 249.845 150.018437 
C 250.508008 149.35543 250.880534 148.456072 250.880534 147.518437 
C 250.880534 146.580803 250.508008 145.681445 249.845 145.018437 
C 249.181992 144.35543 248.282635 143.982904 247.345 143.982904 
C 246.407365 143.982904 245.508008 144.35543 244.845 145.018437 
C 244.181992 145.681445 243.809466 146.580803 243.809466 147.518437 
C 243.809466 148.456072 244.181992 149.35543 244.845 150.018437 
C 245.508008 150.681445 246.407365 151.053971 247.345 151.053971 
z
" style="fill:#1f77b4;fill-opacity:0.3;stroke:#1f77b4;stroke-opacity:0.3;"/>
    <path clip-path="url(#pcd901a9864)" d="M 278.065 214.413971 
C 279.002635 214.413971 279.901992 214.041445 280.565 213.378437 
C 281.228008 212.71543 281.600534 211.816072 281.600534 210.878437 
C 281.600534 209.940803 281.228008 209.041445 280.565 208.378437 
C 279.901992 207.71543 279.002635 207.342904 278.065 207.342904 
C 277.127365 207.342904 276.228008 207.71543 275.565 208.378437 
C 274.901992 209.041445 274.529466 209.940803 274.529466 210.878437 
C 274.529466 211.816072 274.901992 212.71543 275.565 213.378437 
C 276.228008 214.041445 277.127365 214.413971 278.065 214.413971 
z
" style="fill:#1f77b4;fill-opacity:0.3;stroke:#1f77b4;stroke-opacity:0.3;"/>
   </g>
   <g id="matplotlib.axis_1">
    <g id="xtick_1">
     <g id="line2d_1">
      <defs>
       <path d="M 0 0 
L 0 3.5 
" id="m2099d90e37" style="stroke:#000000;stroke-width:0.8;"/>
      </defs>
      <g>
       <use style="stroke:#000000;stroke-width:0.8;" x="32.305" xlink:href="#m2099d90e37" y="210.878437"/>
      </g>
     </g>
     <g id="text_1">
      <!-- 0 -->
      <defs>
       <path d="M 31.78125 66.40625 
Q 24.171875 66.40625 20.328125 58.90625 
Q 16.5 51.421875 16.5 36.375 
Q 16.5 21.390625 20.328125 13.890625 
Q 24.171875 6.390625 31.78125 6.390625 
Q 39.453125 6.390625 43.28125 13.890625 
Q 47.125 21.390625 47.125 36.375 
Q 47.125 51.421875 43.28125 58.90625 
Q 39.453125 66.40625 31.78125 66.40625 
z
M 31.78125 74.21875 
Q 44.046875 74.21875 50.515625 64.515625 
Q 56.984375 54.828125 56.984375 36.375 
Q 56.984375 17.96875 50.515625 8.265625 
Q 44.046875 -1.421875 31.78125 -1.421875 
Q 19.53125 -1.421875 13.0625 8.265625 
Q 6.59375 17.96875 6.59375 36.375 
Q 6.59375 54.828125 13.0625 64.515625 
Q 19.53125 74.21875 31.78125 74.21875 
z
" id="DejaVuSans-48"/>
      </defs>
      <g transform="translate(29.12375 225.476875)scale(0.1 -0.1)">
       <use xlink:href="#DejaVuSans-48"/>
      </g>
     </g>
    </g>
    <g id="xtick_2">
     <g id="line2d_2">
      <g>
       <use style="stroke:#000000;stroke-width:0.8;" x="63.025" xlink:href="#m2099d90e37" y="210.878437"/>
      </g>
     </g>
     <g id="text_2">
      <!-- 1 -->
      <defs>
       <path d="M 12.40625 8.296875 
L 28.515625 8.296875 
L 28.515625 63.921875 
L 10.984375 60.40625 
L 10.984375 69.390625 
L 28.421875 72.90625 
L 38.28125 72.90625 
L 38.28125 8.296875 
L 54.390625 8.296875 
L 54.390625 0 
L 12.40625 0 
z
" id="DejaVuSans-49"/>
      </defs>
      <g transform="translate(59.84375 225.476875)scale(0.1 -0.1)">
       <use xlink:href="#DejaVuSans-49"/>
      </g>
     </g>
    </g>
    <g id="xtick_3">
     <g id="line2d_3">
      <g>
       <use style="stroke:#000000;stroke-width:0.8;" x="93.745" xlink:href="#m2099d90e37" y="210.878437"/>
      </g>
     </g>
     <g id="text_3">
      <!-- 2 -->
      <defs>
       <path d="M 19.1875 8.296875 
L 53.609375 8.296875 
L 53.609375 0 
L 7.328125 0 
L 7.328125 8.296875 
Q 12.9375 14.109375 22.625 23.890625 
Q 32.328125 33.6875 34.8125 36.53125 
Q 39.546875 41.84375 41.421875 45.53125 
Q 43.3125 49.21875 43.3125 52.78125 
Q 43.3125 58.59375 39.234375 62.25 
Q 35.15625 65.921875 28.609375 65.921875 
Q 23.96875 65.921875 18.8125 64.3125 
Q 13.671875 62.703125 7.8125 59.421875 
L 7.8125 69.390625 
Q 13.765625 71.78125 18.9375 73 
Q 24.125 74.21875 28.421875 74.21875 
Q 39.75 74.21875 46.484375 68.546875 
Q 53.21875 62.890625 53.21875 53.421875 
Q 53.21875 48.921875 51.53125 44.890625 
Q 49.859375 40.875 45.40625 35.40625 
Q 44.1875 33.984375 37.640625 27.21875 
Q 31.109375 20.453125 19.1875 8.296875 
z
" id="DejaVuSans-50"/>
      </defs>
      <g transform="translate(90.56375 225.476875)scale(0.1 -0.1)">
       <use xlink:href="#DejaVuSans-50"/>
      </g>
     </g>
    </g>
    <g id="xtick_4">
     <g id="line2d_4">
      <g>
       <use style="stroke:#000000;stroke-width:0.8;" x="124.465" xlink:href="#m2099d90e37" y="210.878437"/>
      </g>
     </g>
     <g id="text_4">
      <!-- 3 -->
      <defs>
       <path d="M 40.578125 39.3125 
Q 47.65625 37.796875 51.625 33 
Q 55.609375 28.21875 55.609375 21.1875 
Q 55.609375 10.40625 48.1875 4.484375 
Q 40.765625 -1.421875 27.09375 -1.421875 
Q 22.515625 -1.421875 17.65625 -0.515625 
Q 12.796875 0.390625 7.625 2.203125 
L 7.625 11.71875 
Q 11.71875 9.328125 16.59375 8.109375 
Q 21.484375 6.890625 26.8125 6.890625 
Q 36.078125 6.890625 40.9375 10.546875 
Q 45.796875 14.203125 45.796875 21.1875 
Q 45.796875 27.640625 41.28125 31.265625 
Q 36.765625 34.90625 28.71875 34.90625 
L 20.21875 34.90625 
L 20.21875 43.015625 
L 29.109375 43.015625 
Q 36.375 43.015625 40.234375 45.921875 
Q 44.09375 48.828125 44.09375 54.296875 
Q 44.09375 59.90625 40.109375 62.90625 
Q 36.140625 65.921875 28.71875 65.921875 
Q 24.65625 65.921875 20.015625 65.03125 
Q 15.375 64.15625 9.8125 62.3125 
L 9.8125 71.09375 
Q 15.4375 72.65625 20.34375 73.4375 
Q 25.25 74.21875 29.59375 74.21875 
Q 40.828125 74.21875 47.359375 69.109375 
Q 53.90625 64.015625 53.90625 55.328125 
Q 53.90625 49.265625 50.4375 45.09375 
Q 46.96875 40.921875 40.578125 39.3125 
z
" id="DejaVuSans-51"/>
      </defs>
      <g transform="translate(121.28375 225.476875)scale(0.1 -0.1)">
       <use xlink:href="#DejaVuSans-51"/>
      </g>
     </g>
    </g>
    <g id="xtick_5">
     <g id="line2d_5">
      <g>
       <use style="stroke:#000000;stroke-width:0.8;" x="155.185" xlink:href="#m2099d90e37" y="210.878437"/>
      </g>
     </g>
     <g id="text_5">
      <!-- 4 -->
      <defs>
       <path d="M 37.796875 64.3125 
L 12.890625 25.390625 
L 37.796875 25.390625 
z
M 35.203125 72.90625 
L 47.609375 72.90625 
L 47.609375 25.390625 
L 58.015625 25.390625 
L 58.015625 17.1875 
L 47.609375 17.1875 
L 47.609375 0 
L 37.796875 0 
L 37.796875 17.1875 
L 4.890625 17.1875 
L 4.890625 26.703125 
z
" id="DejaVuSans-52"/>
      </defs>
      <g transform="translate(152.00375 225.476875)scale(0.1 -0.1)">
       <use xlink:href="#DejaVuSans-52"/>
      </g>
     </g>
    </g>
    <g id="xtick_6">
     <g id="line2d_6">
      <g>
       <use style="stroke:#000000;stroke-width:0.8;" x="185.905" xlink:href="#m2099d90e37" y="210.878437"/>
      </g>
     </g>
     <g id="text_6">
      <!-- 5 -->
      <defs>
       <path d="M 10.796875 72.90625 
L 49.515625 72.90625 
L 49.515625 64.59375 
L 19.828125 64.59375 
L 19.828125 46.734375 
Q 21.96875 47.46875 24.109375 47.828125 
Q 26.265625 48.1875 28.421875 48.1875 
Q 40.625 48.1875 47.75 41.5 
Q 54.890625 34.8125 54.890625 23.390625 
Q 54.890625 11.625 47.5625 5.09375 
Q 40.234375 -1.421875 26.90625 -1.421875 
Q 22.3125 -1.421875 17.546875 -0.640625 
Q 12.796875 0.140625 7.71875 1.703125 
L 7.71875 11.625 
Q 12.109375 9.234375 16.796875 8.0625 
Q 21.484375 6.890625 26.703125 6.890625 
Q 35.15625 6.890625 40.078125 11.328125 
Q 45.015625 15.765625 45.015625 23.390625 
Q 45.015625 31 40.078125 35.4375 
Q 35.15625 39.890625 26.703125 39.890625 
Q 22.75 39.890625 18.8125 39.015625 
Q 14.890625 38.140625 10.796875 36.28125 
z
" id="DejaVuSans-53"/>
      </defs>
      <g transform="translate(182.72375 225.476875)scale(0.1 -0.1)">
       <use xlink:href="#DejaVuSans-53"/>
      </g>
     </g>
    </g>
    <g id="xtick_7">
     <g id="line2d_7">
      <g>
       <use style="stroke:#000000;stroke-width:0.8;" x="216.625" xlink:href="#m2099d90e37" y="210.878437"/>
      </g>
     </g>
     <g id="text_7">
      <!-- 6 -->
      <defs>
       <path d="M 33.015625 40.375 
Q 26.375 40.375 22.484375 35.828125 
Q 18.609375 31.296875 18.609375 23.390625 
Q 18.609375 15.53125 22.484375 10.953125 
Q 26.375 6.390625 33.015625 6.390625 
Q 39.65625 6.390625 43.53125 10.953125 
Q 47.40625 15.53125 47.40625 23.390625 
Q 47.40625 31.296875 43.53125 35.828125 
Q 39.65625 40.375 33.015625 40.375 
z
M 52.59375 71.296875 
L 52.59375 62.3125 
Q 48.875 64.0625 45.09375 64.984375 
Q 41.3125 65.921875 37.59375 65.921875 
Q 27.828125 65.921875 22.671875 59.328125 
Q 17.53125 52.734375 16.796875 39.40625 
Q 19.671875 43.65625 24.015625 45.921875 
Q 28.375 48.1875 33.59375 48.1875 
Q 44.578125 48.1875 50.953125 41.515625 
Q 57.328125 34.859375 57.328125 23.390625 
Q 57.328125 12.15625 50.6875 5.359375 
Q 44.046875 -1.421875 33.015625 -1.421875 
Q 20.359375 -1.421875 13.671875 8.265625 
Q 6.984375 17.96875 6.984375 36.375 
Q 6.984375 53.65625 15.1875 63.9375 
Q 23.390625 74.21875 37.203125 74.21875 
Q 40.921875 74.21875 44.703125 73.484375 
Q 48.484375 72.75 52.59375 71.296875 
z
" id="DejaVuSans-54"/>
      </defs>
      <g transform="translate(213.44375 225.476875)scale(0.1 -0.1)">
       <use xlink:href="#DejaVuSans-54"/>
      </g>
     </g>
    </g>
    <g id="xtick_8">
     <g id="line2d_8">
      <g>
       <use style="stroke:#000000;stroke-width:0.8;" x="247.345" xlink:href="#m2099d90e37" y="210.878437"/>
      </g>
     </g>
     <g id="text_8">
      <!-- 7 -->
      <defs>
       <path d="M 8.203125 72.90625 
L 55.078125 72.90625 
L 55.078125 68.703125 
L 28.609375 0 
L 18.3125 0 
L 43.21875 64.59375 
L 8.203125 64.59375 
z
" id="DejaVuSans-55"/>
      </defs>
      <g transform="translate(244.16375 225.476875)scale(0.1 -0.1)">
       <use xlink:href="#DejaVuSans-55"/>
      </g>
     </g>
    </g>
    <g id="xtick_9">
     <g id="line2d_9">
      <g>
       <use style="stroke:#000000;stroke-width:0.8;" x="278.065" xlink:href="#m2099d90e37" y="210.878437"/>
      </g>
     </g>
     <g id="text_9">
      <!-- 8 -->
      <defs>
       <path d="M 31.78125 34.625 
Q 24.75 34.625 20.71875 30.859375 
Q 16.703125 27.09375 16.703125 20.515625 
Q 16.703125 13.921875 20.71875 10.15625 
Q 24.75 6.390625 31.78125 6.390625 
Q 38.8125 6.390625 42.859375 10.171875 
Q 46.921875 13.96875 46.921875 20.515625 
Q 46.921875 27.09375 42.890625 30.859375 
Q 38.875 34.625 31.78125 34.625 
z
M 21.921875 38.8125 
Q 15.578125 40.375 12.03125 44.71875 
Q 8.5 49.078125 8.5 55.328125 
Q 8.5 64.0625 14.71875 69.140625 
Q 20.953125 74.21875 31.78125 74.21875 
Q 42.671875 74.21875 48.875 69.140625 
Q 55.078125 64.0625 55.078125 55.328125 
Q 55.078125 49.078125 51.53125 44.71875 
Q 48 40.375 41.703125 38.8125 
Q 48.828125 37.15625 52.796875 32.3125 
Q 56.78125 27.484375 56.78125 20.515625 
Q 56.78125 9.90625 50.3125 4.234375 
Q 43.84375 -1.421875 31.78125 -1.421875 
Q 19.734375 -1.421875 13.25 4.234375 
Q 6.78125 9.90625 6.78125 20.515625 
Q 6.78125 27.484375 10.78125 32.3125 
Q 14.796875 37.15625 21.921875 38.8125 
z
M 18.3125 54.390625 
Q 18.3125 48.734375 21.84375 45.5625 
Q 25.390625 42.390625 31.78125 42.390625 
Q 38.140625 42.390625 41.71875 45.5625 
Q 45.3125 48.734375 45.3125 54.390625 
Q 45.3125 60.0625 41.71875 63.234375 
Q 38.140625 66.40625 31.78125 66.40625 
Q 25.390625 66.40625 21.84375 63.234375 
Q 18.3125 60.0625 18.3125 54.390625 
z
" id="DejaVuSans-56"/>
      </defs>
      <g transform="translate(274.88375 225.476875)scale(0.1 -0.1)">
       <use xlink:href="#DejaVuSans-56"/>
      </g>
     </g>
    </g>
    <g id="xtick_10">
     <g id="line2d_10">
      <g>
       <use style="stroke:#000000;stroke-width:0.8;" x="308.785" xlink:href="#m2099d90e37" y="210.878437"/>
      </g>
     </g>
     <g id="text_10">
      <!-- 9 -->
      <defs>
       <path d="M 10.984375 1.515625 
L 10.984375 10.5 
Q 14.703125 8.734375 18.5 7.8125 
Q 22.3125 6.890625 25.984375 6.890625 
Q 35.75 6.890625 40.890625 13.453125 
Q 46.046875 20.015625 46.78125 33.40625 
Q 43.953125 29.203125 39.59375 26.953125 
Q 35.25 24.703125 29.984375 24.703125 
Q 19.046875 24.703125 12.671875 31.3125 
Q 6.296875 37.9375 6.296875 49.421875 
Q 6.296875 60.640625 12.9375 67.421875 
Q 19.578125 74.21875 30.609375 74.21875 
Q 43.265625 74.21875 49.921875 64.515625 
Q 56.59375 54.828125 56.59375 36.375 
Q 56.59375 19.140625 48.40625 8.859375 
Q 40.234375 -1.421875 26.421875 -1.421875 
Q 22.703125 -1.421875 18.890625 -0.6875 
Q 15.09375 0.046875 10.984375 1.515625 
z
M 30.609375 32.421875 
Q 37.25 32.421875 41.125 36.953125 
Q 45.015625 41.5 45.015625 49.421875 
Q 45.015625 57.28125 41.125 61.84375 
Q 37.25 66.40625 30.609375 66.40625 
Q 23.96875 66.40625 20.09375 61.84375 
Q 16.21875 57.28125 16.21875 49.421875 
Q 16.21875 41.5 20.09375 36.953125 
Q 23.96875 32.421875 30.609375 32.421875 
z
" id="DejaVuSans-57"/>
      </defs>
      <g transform="translate(305.60375 225.476875)scale(0.1 -0.1)">
       <use xlink:href="#DejaVuSans-57"/>
      </g>
     </g>
    </g>
    <g id="text_11">
     <!-- Clonotype size in LN2 -->
     <defs>
      <path d="M 64.40625 67.28125 
L 64.40625 56.890625 
Q 59.421875 61.53125 53.78125 63.8125 
Q 48.140625 66.109375 41.796875 66.109375 
Q 29.296875 66.109375 22.65625 58.46875 
Q 16.015625 50.828125 16.015625 36.375 
Q 16.015625 21.96875 22.65625 14.328125 
Q 29.296875 6.6875 41.796875 6.6875 
Q 48.140625 6.6875 53.78125 8.984375 
Q 59.421875 11.28125 64.40625 15.921875 
L 64.40625 5.609375 
Q 59.234375 2.09375 53.4375 0.328125 
Q 47.65625 -1.421875 41.21875 -1.421875 
Q 24.65625 -1.421875 15.125 8.703125 
Q 5.609375 18.84375 5.609375 36.375 
Q 5.609375 53.953125 15.125 64.078125 
Q 24.65625 74.21875 41.21875 74.21875 
Q 47.75 74.21875 53.53125 72.484375 
Q 59.328125 70.75 64.40625 67.28125 
z
" id="DejaVuSans-67"/>
      <path d="M 9.421875 75.984375 
L 18.40625 75.984375 
L 18.40625 0 
L 9.421875 0 
z
" id="DejaVuSans-108"/>
      <path d="M 30.609375 48.390625 
Q 23.390625 48.390625 19.1875 42.75 
Q 14.984375 37.109375 14.984375 27.296875 
Q 14.984375 17.484375 19.15625 11.84375 
Q 23.34375 6.203125 30.609375 6.203125 
Q 37.796875 6.203125 41.984375 11.859375 
Q 46.1875 17.53125 46.1875 27.296875 
Q 46.1875 37.015625 41.984375 42.703125 
Q 37.796875 48.390625 30.609375 48.390625 
z
M 30.609375 56 
Q 42.328125 56 49.015625 48.375 
Q 55.71875 40.765625 55.71875 27.296875 
Q 55.71875 13.875 49.015625 6.21875 
Q 42.328125 -1.421875 30.609375 -1.421875 
Q 18.84375 -1.421875 12.171875 6.21875 
Q 5.515625 13.875 5.515625 27.296875 
Q 5.515625 40.765625 12.171875 48.375 
Q 18.84375 56 30.609375 56 
z
" id="DejaVuSans-111"/>
      <path d="M 54.890625 33.015625 
L 54.890625 0 
L 45.90625 0 
L 45.90625 32.71875 
Q 45.90625 40.484375 42.875 44.328125 
Q 39.84375 48.1875 33.796875 48.1875 
Q 26.515625 48.1875 22.3125 43.546875 
Q 18.109375 38.921875 18.109375 30.90625 
L 18.109375 0 
L 9.078125 0 
L 9.078125 54.6875 
L 18.109375 54.6875 
L 18.109375 46.1875 
Q 21.34375 51.125 25.703125 53.5625 
Q 30.078125 56 35.796875 56 
Q 45.21875 56 50.046875 50.171875 
Q 54.890625 44.34375 54.890625 33.015625 
z
" id="DejaVuSans-110"/>
      <path d="M 18.3125 70.21875 
L 18.3125 54.6875 
L 36.8125 54.6875 
L 36.8125 47.703125 
L 18.3125 47.703125 
L 18.3125 18.015625 
Q 18.3125 11.328125 20.140625 9.421875 
Q 21.96875 7.515625 27.59375 7.515625 
L 36.8125 7.515625 
L 36.8125 0 
L 27.59375 0 
Q 17.1875 0 13.234375 3.875 
Q 9.28125 7.765625 9.28125 18.015625 
L 9.28125 47.703125 
L 2.6875 47.703125 
L 2.6875 54.6875 
L 9.28125 54.6875 
L 9.28125 70.21875 
z
" id="DejaVuSans-116"/>
      <path d="M 32.171875 -5.078125 
Q 28.375 -14.84375 24.75 -17.8125 
Q 21.140625 -20.796875 15.09375 -20.796875 
L 7.90625 -20.796875 
L 7.90625 -13.28125 
L 13.1875 -13.28125 
Q 16.890625 -13.28125 18.9375 -11.515625 
Q 21 -9.765625 23.484375 -3.21875 
L 25.09375 0.875 
L 2.984375 54.6875 
L 12.5 54.6875 
L 29.59375 11.921875 
L 46.6875 54.6875 
L 56.203125 54.6875 
z
" id="DejaVuSans-121"/>
      <path d="M 18.109375 8.203125 
L 18.109375 -20.796875 
L 9.078125 -20.796875 
L 9.078125 54.6875 
L 18.109375 54.6875 
L 18.109375 46.390625 
Q 20.953125 51.265625 25.265625 53.625 
Q 29.59375 56 35.59375 56 
Q 45.5625 56 51.78125 48.09375 
Q 58.015625 40.1875 58.015625 27.296875 
Q 58.015625 14.40625 51.78125 6.484375 
Q 45.5625 -1.421875 35.59375 -1.421875 
Q 29.59375 -1.421875 25.265625 0.953125 
Q 20.953125 3.328125 18.109375 8.203125 
z
M 48.6875 27.296875 
Q 48.6875 37.203125 44.609375 42.84375 
Q 40.53125 48.484375 33.40625 48.484375 
Q 26.265625 48.484375 22.1875 42.84375 
Q 18.109375 37.203125 18.109375 27.296875 
Q 18.109375 17.390625 22.1875 11.75 
Q 26.265625 6.109375 33.40625 6.109375 
Q 40.53125 6.109375 44.609375 11.75 
Q 48.6875 17.390625 48.6875 27.296875 
z
" id="DejaVuSans-112"/>
      <path d="M 56.203125 29.59375 
L 56.203125 25.203125 
L 14.890625 25.203125 
Q 15.484375 15.921875 20.484375 11.0625 
Q 25.484375 6.203125 34.421875 6.203125 
Q 39.59375 6.203125 44.453125 7.46875 
Q 49.3125 8.734375 54.109375 11.28125 
L 54.109375 2.78125 
Q 49.265625 0.734375 44.1875 -0.34375 
Q 39.109375 -1.421875 33.890625 -1.421875 
Q 20.796875 -1.421875 13.15625 6.1875 
Q 5.515625 13.8125 5.515625 26.8125 
Q 5.515625 40.234375 12.765625 48.109375 
Q 20.015625 56 32.328125 56 
Q 43.359375 56 49.78125 48.890625 
Q 56.203125 41.796875 56.203125 29.59375 
z
M 47.21875 32.234375 
Q 47.125 39.59375 43.09375 43.984375 
Q 39.0625 48.390625 32.421875 48.390625 
Q 24.90625 48.390625 20.390625 44.140625 
Q 15.875 39.890625 15.1875 32.171875 
z
" id="DejaVuSans-101"/>
      <path id="DejaVuSans-32"/>
      <path d="M 44.28125 53.078125 
L 44.28125 44.578125 
Q 40.484375 46.53125 36.375 47.5 
Q 32.28125 48.484375 27.875 48.484375 
Q 21.1875 48.484375 17.84375 46.4375 
Q 14.5 44.390625 14.5 40.28125 
Q 14.5 37.15625 16.890625 35.375 
Q 19.28125 33.59375 26.515625 31.984375 
L 29.59375 31.296875 
Q 39.15625 29.25 43.1875 25.515625 
Q 47.21875 21.78125 47.21875 15.09375 
Q 47.21875 7.46875 41.1875 3.015625 
Q 35.15625 -1.421875 24.609375 -1.421875 
Q 20.21875 -1.421875 15.453125 -0.5625 
Q 10.6875 0.296875 5.421875 2 
L 5.421875 11.28125 
Q 10.40625 8.6875 15.234375 7.390625 
Q 20.0625 6.109375 24.8125 6.109375 
Q 31.15625 6.109375 34.5625 8.28125 
Q 37.984375 10.453125 37.984375 14.40625 
Q 37.984375 18.0625 35.515625 20.015625 
Q 33.0625 21.96875 24.703125 23.78125 
L 21.578125 24.515625 
Q 13.234375 26.265625 9.515625 29.90625 
Q 5.8125 33.546875 5.8125 39.890625 
Q 5.8125 47.609375 11.28125 51.796875 
Q 16.75 56 26.8125 56 
Q 31.78125 56 36.171875 55.265625 
Q 40.578125 54.546875 44.28125 53.078125 
z
" id="DejaVuSans-115"/>
      <path d="M 9.421875 54.6875 
L 18.40625 54.6875 
L 18.40625 0 
L 9.421875 0 
z
M 9.421875 75.984375 
L 18.40625 75.984375 
L 18.40625 64.59375 
L 9.421875 64.59375 
z
" id="DejaVuSans-105"/>
      <path d="M 5.515625 54.6875 
L 48.1875 54.6875 
L 48.1875 46.484375 
L 14.40625 7.171875 
L 48.1875 7.171875 
L 48.1875 0 
L 4.296875 0 
L 4.296875 8.203125 
L 38.09375 47.515625 
L 5.515625 47.515625 
z
" id="DejaVuSans-122"/>
      <path d="M 9.8125 72.90625 
L 19.671875 72.90625 
L 19.671875 8.296875 
L 55.171875 8.296875 
L 55.171875 0 
L 9.8125 0 
z
" id="DejaVuSans-76"/>
      <path d="M 9.8125 72.90625 
L 23.09375 72.90625 
L 55.421875 11.921875 
L 55.421875 72.90625 
L 64.984375 72.90625 
L 64.984375 0 
L 51.703125 0 
L 19.390625 60.984375 
L 19.390625 0 
L 9.8125 0 
z
" id="DejaVuSans-78"/>
     </defs>
     <g transform="translate(127.2925 237.635312)scale(0.08 -0.08)">
      <use xlink:href="#DejaVuSans-67"/>
      <use x="69.824219" xlink:href="#DejaVuSans-108"/>
      <use x="97.607422" xlink:href="#DejaVuSans-111"/>
      <use x="158.789062" xlink:href="#DejaVuSans-110"/>
      <use x="222.167969" xlink:href="#DejaVuSans-111"/>
      <use x="283.349609" xlink:href="#DejaVuSans-116"/>
      <use x="322.558594" xlink:href="#DejaVuSans-121"/>
      <use x="381.738281" xlink:href="#DejaVuSans-112"/>
      <use x="445.214844" xlink:href="#DejaVuSans-101"/>
      <use x="506.738281" xlink:href="#DejaVuSans-32"/>
      <use x="538.525391" xlink:href="#DejaVuSans-115"/>
      <use x="590.625" xlink:href="#DejaVuSans-105"/>
      <use x="618.408203" xlink:href="#DejaVuSans-122"/>
      <use x="670.898438" xlink:href="#DejaVuSans-101"/>
      <use x="732.421875" xlink:href="#DejaVuSans-32"/>
      <use x="764.208984" xlink:href="#DejaVuSans-105"/>
      <use x="791.992188" xlink:href="#DejaVuSans-110"/>
      <use x="855.371094" xlink:href="#DejaVuSans-32"/>
      <use x="887.158203" xlink:href="#DejaVuSans-76"/>
      <use x="942.871094" xlink:href="#DejaVuSans-78"/>
      <use x="1017.675781" xlink:href="#DejaVuSans-50"/>
     </g>
    </g>
   </g>
   <g id="matplotlib.axis_2">
    <g id="ytick_1">
     <g id="line2d_11">
      <defs>
       <path d="M 0 0 
L -3.5 0 
" id="m020477db86" style="stroke:#000000;stroke-width:0.8;"/>
      </defs>
      <g>
       <use style="stroke:#000000;stroke-width:0.8;" x="32.305" xlink:href="#m020477db86" y="210.878437"/>
      </g>
     </g>
     <g id="text_12">
      <!-- 0 -->
      <g transform="translate(18.9425 214.677656)scale(0.1 -0.1)">
       <use xlink:href="#DejaVuSans-48"/>
      </g>
     </g>
    </g>
    <g id="ytick_2">
     <g id="line2d_12">
      <g>
       <use style="stroke:#000000;stroke-width:0.8;" x="32.305" xlink:href="#m020477db86" y="189.758437"/>
      </g>
     </g>
     <g id="text_13">
      <!-- 1 -->
      <g transform="translate(18.9425 193.557656)scale(0.1 -0.1)">
       <use xlink:href="#DejaVuSans-49"/>
      </g>
     </g>
    </g>
    <g id="ytick_3">
     <g id="line2d_13">
      <g>
       <use style="stroke:#000000;stroke-width:0.8;" x="32.305" xlink:href="#m020477db86" y="168.638437"/>
      </g>
     </g>
     <g id="text_14">
      <!-- 2 -->
      <g transform="translate(18.9425 172.437656)scale(0.1 -0.1)">
       <use xlink:href="#DejaVuSans-50"/>
      </g>
     </g>
    </g>
    <g id="ytick_4">
     <g id="line2d_14">
      <g>
       <use style="stroke:#000000;stroke-width:0.8;" x="32.305" xlink:href="#m020477db86" y="147.518437"/>
      </g>
     </g>
     <g id="text_15">
      <!-- 3 -->
      <g transform="translate(18.9425 151.317656)scale(0.1 -0.1)">
       <use xlink:href="#DejaVuSans-51"/>
      </g>
     </g>
    </g>
    <g id="ytick_5">
     <g id="line2d_15">
      <g>
       <use style="stroke:#000000;stroke-width:0.8;" x="32.305" xlink:href="#m020477db86" y="126.398437"/>
      </g>
     </g>
     <g id="text_16">
      <!-- 4 -->
      <g transform="translate(18.9425 130.197656)scale(0.1 -0.1)">
       <use xlink:href="#DejaVuSans-52"/>
      </g>
     </g>
    </g>
    <g id="ytick_6">
     <g id="line2d_16">
      <g>
       <use style="stroke:#000000;stroke-width:0.8;" x="32.305" xlink:href="#m020477db86" y="105.278437"/>
      </g>
     </g>
     <g id="text_17">
      <!-- 5 -->
      <g transform="translate(18.9425 109.077656)scale(0.1 -0.1)">
       <use xlink:href="#DejaVuSans-53"/>
      </g>
     </g>
    </g>
    <g id="ytick_7">
     <g id="line2d_17">
      <g>
       <use style="stroke:#000000;stroke-width:0.8;" x="32.305" xlink:href="#m020477db86" y="84.158437"/>
      </g>
     </g>
     <g id="text_18">
      <!-- 6 -->
      <g transform="translate(18.9425 87.957656)scale(0.1 -0.1)">
       <use xlink:href="#DejaVuSans-54"/>
      </g>
     </g>
    </g>
    <g id="ytick_8">
     <g id="line2d_18">
      <g>
       <use style="stroke:#000000;stroke-width:0.8;" x="32.305" xlink:href="#m020477db86" y="63.038437"/>
      </g>
     </g>
     <g id="text_19">
      <!-- 7 -->
      <g transform="translate(18.9425 66.837656)scale(0.1 -0.1)">
       <use xlink:href="#DejaVuSans-55"/>
      </g>
     </g>
    </g>
    <g id="ytick_9">
     <g id="line2d_19">
      <g>
       <use style="stroke:#000000;stroke-width:0.8;" x="32.305" xlink:href="#m020477db86" y="41.918437"/>
      </g>
     </g>
     <g id="text_20">
      <!-- 8 -->
      <g transform="translate(18.9425 45.717656)scale(0.1 -0.1)">
       <use xlink:href="#DejaVuSans-56"/>
      </g>
     </g>
    </g>
    <g id="ytick_10">
     <g id="line2d_20">
      <g>
       <use style="stroke:#000000;stroke-width:0.8;" x="32.305" xlink:href="#m020477db86" y="20.798437"/>
      </g>
     </g>
     <g id="text_21">
      <!-- 9 -->
      <g transform="translate(18.9425 24.597656)scale(0.1 -0.1)">
       <use xlink:href="#DejaVuSans-57"/>
      </g>
     </g>
    </g>
    <g id="text_22">
     <!-- Clonotype size in LT2 -->
     <defs>
      <path d="M -0.296875 72.90625 
L 61.375 72.90625 
L 61.375 64.59375 
L 35.5 64.59375 
L 35.5 0 
L 25.59375 0 
L 25.59375 64.59375 
L -0.296875 64.59375 
z
" id="DejaVuSans-84"/>
     </defs>
     <g transform="translate(13.27875 157.991562)rotate(-90)scale(0.08 -0.08)">
      <use xlink:href="#DejaVuSans-67"/>
      <use x="69.824219" xlink:href="#DejaVuSans-108"/>
      <use x="97.607422" xlink:href="#DejaVuSans-111"/>
      <use x="158.789062" xlink:href="#DejaVuSans-110"/>
      <use x="222.167969" xlink:href="#DejaVuSans-111"/>
      <use x="283.349609" xlink:href="#DejaVuSans-116"/>
      <use x="322.558594" xlink:href="#DejaVuSans-121"/>
      <use x="381.738281" xlink:href="#DejaVuSans-112"/>
      <use x="445.214844" xlink:href="#DejaVuSans-101"/>
      <use x="506.738281" xlink:href="#DejaVuSans-32"/>
      <use x="538.525391" xlink:href="#DejaVuSans-115"/>
      <use x="590.625" xlink:href="#DejaVuSans-105"/>
      <use x="618.408203" xlink:href="#DejaVuSans-122"/>
      <use x="670.898438" xlink:href="#DejaVuSans-101"/>
      <use x="732.421875" xlink:href="#DejaVuSans-32"/>
      <use x="764.208984" xlink:href="#DejaVuSans-105"/>
      <use x="791.992188" xlink:href="#DejaVuSans-110"/>
      <use x="855.371094" xlink:href="#DejaVuSans-32"/>
      <use x="887.158203" xlink:href="#DejaVuSans-76"/>
      <use x="929.121094" xlink:href="#DejaVuSans-84"/>
      <use x="990.205078" xlink:href="#DejaVuSans-50"/>
     </g>
    </g>
   </g>
   <g id="patch_3">
    <path d="M 32.305 210.878437 
L 32.305 20.798437 
" style="fill:none;stroke:#000000;stroke-linecap:square;stroke-linejoin:miter;stroke-width:0.8;"/>
   </g>
   <g id="patch_4">
    <path d="M 32.305 210.878437 
L 308.785 210.878437 
" style="fill:none;stroke:#000000;stroke-linecap:square;stroke-linejoin:miter;stroke-width:0.8;"/>
   </g>
   <g id="text_23">
    <!-- Repertoire overlap between LN2 and LT2 -->
    <defs>
     <path d="M 44.390625 34.1875 
Q 47.5625 33.109375 50.5625 29.59375 
Q 53.5625 26.078125 56.59375 19.921875 
L 66.609375 0 
L 56 0 
L 46.6875 18.703125 
Q 43.0625 26.03125 39.671875 28.421875 
Q 36.28125 30.8125 30.421875 30.8125 
L 19.671875 30.8125 
L 19.671875 0 
L 9.8125 0 
L 9.8125 72.90625 
L 32.078125 72.90625 
Q 44.578125 72.90625 50.734375 67.671875 
Q 56.890625 62.453125 56.890625 51.90625 
Q 56.890625 45.015625 53.6875 40.46875 
Q 50.484375 35.9375 44.390625 34.1875 
z
M 19.671875 64.796875 
L 19.671875 38.921875 
L 32.078125 38.921875 
Q 39.203125 38.921875 42.84375 42.21875 
Q 46.484375 45.515625 46.484375 51.90625 
Q 46.484375 58.296875 42.84375 61.546875 
Q 39.203125 64.796875 32.078125 64.796875 
z
" id="DejaVuSans-82"/>
     <path d="M 41.109375 46.296875 
Q 39.59375 47.171875 37.8125 47.578125 
Q 36.03125 48 33.890625 48 
Q 26.265625 48 22.1875 43.046875 
Q 18.109375 38.09375 18.109375 28.8125 
L 18.109375 0 
L 9.078125 0 
L 9.078125 54.6875 
L 18.109375 54.6875 
L 18.109375 46.1875 
Q 20.953125 51.171875 25.484375 53.578125 
Q 30.03125 56 36.53125 56 
Q 37.453125 56 38.578125 55.875 
Q 39.703125 55.765625 41.0625 55.515625 
z
" id="DejaVuSans-114"/>
     <path d="M 2.984375 54.6875 
L 12.5 54.6875 
L 29.59375 8.796875 
L 46.6875 54.6875 
L 56.203125 54.6875 
L 35.6875 0 
L 23.484375 0 
z
" id="DejaVuSans-118"/>
     <path d="M 34.28125 27.484375 
Q 23.390625 27.484375 19.1875 25 
Q 14.984375 22.515625 14.984375 16.5 
Q 14.984375 11.71875 18.140625 8.90625 
Q 21.296875 6.109375 26.703125 6.109375 
Q 34.1875 6.109375 38.703125 11.40625 
Q 43.21875 16.703125 43.21875 25.484375 
L 43.21875 27.484375 
z
M 52.203125 31.203125 
L 52.203125 0 
L 43.21875 0 
L 43.21875 8.296875 
Q 40.140625 3.328125 35.546875 0.953125 
Q 30.953125 -1.421875 24.3125 -1.421875 
Q 15.921875 -1.421875 10.953125 3.296875 
Q 6 8.015625 6 15.921875 
Q 6 25.140625 12.171875 29.828125 
Q 18.359375 34.515625 30.609375 34.515625 
L 43.21875 34.515625 
L 43.21875 35.40625 
Q 43.21875 41.609375 39.140625 45 
Q 35.0625 48.390625 27.6875 48.390625 
Q 23 48.390625 18.546875 47.265625 
Q 14.109375 46.140625 10.015625 43.890625 
L 10.015625 52.203125 
Q 14.9375 54.109375 19.578125 55.046875 
Q 24.21875 56 28.609375 56 
Q 40.484375 56 46.34375 49.84375 
Q 52.203125 43.703125 52.203125 31.203125 
z
" id="DejaVuSans-97"/>
     <path d="M 48.6875 27.296875 
Q 48.6875 37.203125 44.609375 42.84375 
Q 40.53125 48.484375 33.40625 48.484375 
Q 26.265625 48.484375 22.1875 42.84375 
Q 18.109375 37.203125 18.109375 27.296875 
Q 18.109375 17.390625 22.1875 11.75 
Q 26.265625 6.109375 33.40625 6.109375 
Q 40.53125 6.109375 44.609375 11.75 
Q 48.6875 17.390625 48.6875 27.296875 
z
M 18.109375 46.390625 
Q 20.953125 51.265625 25.265625 53.625 
Q 29.59375 56 35.59375 56 
Q 45.5625 56 51.78125 48.09375 
Q 58.015625 40.1875 58.015625 27.296875 
Q 58.015625 14.40625 51.78125 6.484375 
Q 45.5625 -1.421875 35.59375 -1.421875 
Q 29.59375 -1.421875 25.265625 0.953125 
Q 20.953125 3.328125 18.109375 8.203125 
L 18.109375 0 
L 9.078125 0 
L 9.078125 75.984375 
L 18.109375 75.984375 
z
" id="DejaVuSans-98"/>
     <path d="M 4.203125 54.6875 
L 13.1875 54.6875 
L 24.421875 12.015625 
L 35.59375 54.6875 
L 46.1875 54.6875 
L 57.421875 12.015625 
L 68.609375 54.6875 
L 77.59375 54.6875 
L 63.28125 0 
L 52.6875 0 
L 40.921875 44.828125 
L 29.109375 0 
L 18.5 0 
z
" id="DejaVuSans-119"/>
     <path d="M 45.40625 46.390625 
L 45.40625 75.984375 
L 54.390625 75.984375 
L 54.390625 0 
L 45.40625 0 
L 45.40625 8.203125 
Q 42.578125 3.328125 38.25 0.953125 
Q 33.9375 -1.421875 27.875 -1.421875 
Q 17.96875 -1.421875 11.734375 6.484375 
Q 5.515625 14.40625 5.515625 27.296875 
Q 5.515625 40.1875 11.734375 48.09375 
Q 17.96875 56 27.875 56 
Q 33.9375 56 38.25 53.625 
Q 42.578125 51.265625 45.40625 46.390625 
z
M 14.796875 27.296875 
Q 14.796875 17.390625 18.875 11.75 
Q 22.953125 6.109375 30.078125 6.109375 
Q 37.203125 6.109375 41.296875 11.75 
Q 45.40625 17.390625 45.40625 27.296875 
Q 45.40625 37.203125 41.296875 42.84375 
Q 37.203125 48.484375 30.078125 48.484375 
Q 22.953125 48.484375 18.875 42.84375 
Q 14.796875 37.203125 14.796875 27.296875 
z
" id="DejaVuSans-100"/>
    </defs>
    <g transform="translate(68.691094 14.798437)scale(0.1 -0.1)">
     <use xlink:href="#DejaVuSans-82"/>
     <use x="64.982422" xlink:href="#DejaVuSans-101"/>
     <use x="126.505859" xlink:href="#DejaVuSans-112"/>
     <use x="189.982422" xlink:href="#DejaVuSans-101"/>
     <use x="251.505859" xlink:href="#DejaVuSans-114"/>
     <use x="292.619141" xlink:href="#DejaVuSans-116"/>
     <use x="331.828125" xlink:href="#DejaVuSans-111"/>
     <use x="393.009766" xlink:href="#DejaVuSans-105"/>
     <use x="420.792969" xlink:href="#DejaVuSans-114"/>
     <use x="459.65625" xlink:href="#DejaVuSans-101"/>
     <use x="521.179688" xlink:href="#DejaVuSans-32"/>
     <use x="552.966797" xlink:href="#DejaVuSans-111"/>
     <use x="614.148438" xlink:href="#DejaVuSans-118"/>
     <use x="673.328125" xlink:href="#DejaVuSans-101"/>
     <use x="734.851562" xlink:href="#DejaVuSans-114"/>
     <use x="775.964844" xlink:href="#DejaVuSans-108"/>
     <use x="803.748047" xlink:href="#DejaVuSans-97"/>
     <use x="865.027344" xlink:href="#DejaVuSans-112"/>
     <use x="928.503906" xlink:href="#DejaVuSans-32"/>
     <use x="960.291016" xlink:href="#DejaVuSans-98"/>
     <use x="1023.767578" xlink:href="#DejaVuSans-101"/>
     <use x="1085.291016" xlink:href="#DejaVuSans-116"/>
     <use x="1124.5" xlink:href="#DejaVuSans-119"/>
     <use x="1206.287109" xlink:href="#DejaVuSans-101"/>
     <use x="1267.810547" xlink:href="#DejaVuSans-101"/>
     <use x="1329.333984" xlink:href="#DejaVuSans-110"/>
     <use x="1392.712891" xlink:href="#DejaVuSans-32"/>
     <use x="1424.5" xlink:href="#DejaVuSans-76"/>
     <use x="1480.212891" xlink:href="#DejaVuSans-78"/>
     <use x="1555.017578" xlink:href="#DejaVuSans-50"/>
     <use x="1618.640625" xlink:href="#DejaVuSans-32"/>
     <use x="1650.427734" xlink:href="#DejaVuSans-97"/>
     <use x="1711.707031" xlink:href="#DejaVuSans-110"/>
     <use x="1775.085938" xlink:href="#DejaVuSans-100"/>
     <use x="1838.5625" xlink:href="#DejaVuSans-32"/>
     <use x="1870.349609" xlink:href="#DejaVuSans-76"/>
     <use x="1912.3125" xlink:href="#DejaVuSans-84"/>
     <use x="1973.396484" xlink:href="#DejaVuSans-50"/>
    </g>
   </g>
   <g id="legend_1"/>
  </g>
 </g>
 <defs>
  <clipPath id="pcd901a9864">
   <rect height="190.08" width="276.48" x="32.305" y="20.798437"/>
  </clipPath>
 </defs>
</svg>
