<?xml version="1.0" encoding="utf-8" standalone="no"?>
<!DOCTYPE svg PUBLIC "-//W3C//DTD SVG 1.1//EN"
  "http://www.w3.org/Graphics/SVG/1.1/DTD/svg11.dtd">
<!-- Created with matplotlib (https://matplotlib.org/) -->
<svg height="181.691257pt" version="1.1" viewBox="0 0 216.423385 181.691257" width="216.423385pt" xmlns="http://www.w3.org/2000/svg" xmlns:xlink="http://www.w3.org/1999/xlink">
 <defs>
  <style type="text/css">
*{stroke-linecap:butt;stroke-linejoin:round;}
  </style>
 </defs>
 <g id="figure_1">
  <g id="patch_1">
   <path d="M 0 181.691257 
L 216.423385 181.691257 
L 216.423385 0 
L 0 0 
z
" style="fill:#ffffff;"/>
  </g>
  <g id="axes_1">
   <g id="patch_2">
    <path d="M 12.819056 150.2352 
L 204.771056 150.2352 
L 204.771056 7.2 
L 12.819056 7.2 
z
" style="fill:#ffffff;"/>
   </g>
   <g id="matplotlib.axis_1">
    <g id="xtick_1">
     <g id="text_1">
      <!-- RN3 -->
      <defs>
       <path d="M 44.390625 34.1875 
Q 47.5625 33.109375 50.5625 29.59375 
Q 53.5625 26.078125 56.59375 19.921875 
L 66.609375 0 
L 56 0 
L 46.6875 18.703125 
Q 43.0625 26.03125 39.671875 28.421875 
Q 36.28125 30.8125 30.421875 30.8125 
L 19.671875 30.8125 
L 19.671875 0 
L 9.8125 0 
L 9.8125 72.90625 
L 32.078125 72.90625 
Q 44.578125 72.90625 50.734375 67.671875 
Q 56.890625 62.453125 56.890625 51.90625 
Q 56.890625 45.015625 53.6875 40.46875 
Q 50.484375 35.9375 44.390625 34.1875 
z
M 19.671875 64.796875 
L 19.671875 38.921875 
L 32.078125 38.921875 
Q 39.203125 38.921875 42.84375 42.21875 
Q 46.484375 45.515625 46.484375 51.90625 
Q 46.484375 58.296875 42.84375 61.546875 
Q 39.203125 64.796875 32.078125 64.796875 
z
" id="DejaVuSans-82"/>
       <path d="M 9.8125 72.90625 
L 23.09375 72.90625 
L 55.421875 11.921875 
L 55.421875 72.90625 
L 64.984375 72.90625 
L 64.984375 0 
L 51.703125 0 
L 19.390625 60.984375 
L 19.390625 0 
L 9.8125 0 
z
" id="DejaVuSans-78"/>
       <path d="M 40.578125 39.3125 
Q 47.65625 37.796875 51.625 33 
Q 55.609375 28.21875 55.609375 21.1875 
Q 55.609375 10.40625 48.1875 4.484375 
Q 40.765625 -1.421875 27.09375 -1.421875 
Q 22.515625 -1.421875 17.65625 -0.515625 
Q 12.796875 0.390625 7.625 2.203125 
L 7.625 11.71875 
Q 11.71875 9.328125 16.59375 8.109375 
Q 21.484375 6.890625 26.8125 6.890625 
Q 36.078125 6.890625 40.9375 10.546875 
Q 45.796875 14.203125 45.796875 21.1875 
Q 45.796875 27.640625 41.28125 31.265625 
Q 36.765625 34.90625 28.71875 34.90625 
L 20.21875 34.90625 
L 20.21875 43.015625 
L 29.109375 43.015625 
Q 36.375 43.015625 40.234375 45.921875 
Q 44.09375 48.828125 44.09375 54.296875 
Q 44.09375 59.90625 40.109375 62.90625 
Q 36.140625 65.921875 28.71875 65.921875 
Q 24.65625 65.921875 20.015625 65.03125 
Q 15.375 64.15625 9.8125 62.3125 
L 9.8125 71.09375 
Q 15.4375 72.65625 20.34375 73.4375 
Q 25.25 74.21875 29.59375 74.21875 
Q 40.828125 74.21875 47.359375 69.109375 
Q 53.90625 64.015625 53.90625 55.328125 
Q 53.90625 49.265625 50.4375 45.09375 
Q 46.96875 40.921875 40.578125 39.3125 
z
" id="DejaVuSans-51"/>
      </defs>
      <g style="fill:#72384f;" transform="translate(11.498325 173.295363)rotate(-45)scale(0.08 -0.08)">
       <use xlink:href="#DejaVuSans-82"/>
       <use x="69.482422" xlink:href="#DejaVuSans-78"/>
       <use x="144.287109" xlink:href="#DejaVuSans-51"/>
      </g>
     </g>
    </g>
    <g id="xtick_2">
     <g id="text_2">
      <!-- RB3 -->
      <defs>
       <path d="M 19.671875 34.8125 
L 19.671875 8.109375 
L 35.5 8.109375 
Q 43.453125 8.109375 47.28125 11.40625 
Q 51.125 14.703125 51.125 21.484375 
Q 51.125 28.328125 47.28125 31.5625 
Q 43.453125 34.8125 35.5 34.8125 
z
M 19.671875 64.796875 
L 19.671875 42.828125 
L 34.28125 42.828125 
Q 41.5 42.828125 45.03125 45.53125 
Q 48.578125 48.25 48.578125 53.8125 
Q 48.578125 59.328125 45.03125 62.0625 
Q 41.5 64.796875 34.28125 64.796875 
z
M 9.8125 72.90625 
L 35.015625 72.90625 
Q 46.296875 72.90625 52.390625 68.21875 
Q 58.5 63.53125 58.5 54.890625 
Q 58.5 48.1875 55.375 44.234375 
Q 52.25 40.28125 46.1875 39.3125 
Q 53.46875 37.75 57.5 32.78125 
Q 61.53125 27.828125 61.53125 20.40625 
Q 61.53125 10.640625 54.890625 5.3125 
Q 48.25 0 35.984375 0 
L 9.8125 0 
z
" id="DejaVuSans-66"/>
      </defs>
      <g style="fill:#c6b08d;" transform="translate(17.672276 172.944461)rotate(-45)scale(0.08 -0.08)">
       <use xlink:href="#DejaVuSans-82"/>
       <use x="69.482422" xlink:href="#DejaVuSans-66"/>
       <use x="138.085938" xlink:href="#DejaVuSans-51"/>
      </g>
     </g>
    </g>
    <g id="xtick_3">
     <g id="text_3">
      <!-- RT3 -->
      <defs>
       <path d="M -0.296875 72.90625 
L 61.375 72.90625 
L 61.375 64.59375 
L 35.5 64.59375 
L 35.5 0 
L 25.59375 0 
L 25.59375 64.59375 
L -0.296875 64.59375 
z
" id="DejaVuSans-84"/>
      </defs>
      <g style="fill:#569198;" transform="translate(24.088853 172.108307)rotate(-45)scale(0.08 -0.08)">
       <use xlink:href="#DejaVuSans-82"/>
       <use x="62.232422" xlink:href="#DejaVuSans-84"/>
       <use x="123.316406" xlink:href="#DejaVuSans-51"/>
      </g>
     </g>
    </g>
    <g id="xtick_4">
     <g id="text_4">
      <!-- EN3 -->
      <defs>
       <path d="M 9.8125 72.90625 
L 55.90625 72.90625 
L 55.90625 64.59375 
L 19.671875 64.59375 
L 19.671875 43.015625 
L 54.390625 43.015625 
L 54.390625 34.71875 
L 19.671875 34.71875 
L 19.671875 8.296875 
L 56.78125 8.296875 
L 56.78125 0 
L 9.8125 0 
z
" id="DejaVuSans-69"/>
      </defs>
      <g style="fill:#72384f;" transform="translate(29.671928 172.939158)rotate(-45)scale(0.08 -0.08)">
       <use xlink:href="#DejaVuSans-69"/>
       <use x="63.183594" xlink:href="#DejaVuSans-78"/>
       <use x="137.988281" xlink:href="#DejaVuSans-51"/>
      </g>
     </g>
    </g>
    <g id="xtick_5">
     <g id="text_5">
      <!-- CT2 -->
      <defs>
       <path d="M 64.40625 67.28125 
L 64.40625 56.890625 
Q 59.421875 61.53125 53.78125 63.8125 
Q 48.140625 66.109375 41.796875 66.109375 
Q 29.296875 66.109375 22.65625 58.46875 
Q 16.015625 50.828125 16.015625 36.375 
Q 16.015625 21.96875 22.65625 14.328125 
Q 29.296875 6.6875 41.796875 6.6875 
Q 48.140625 6.6875 53.78125 8.984375 
Q 59.421875 11.28125 64.40625 15.921875 
L 64.40625 5.609375 
Q 59.234375 2.09375 53.4375 0.328125 
Q 47.65625 -1.421875 41.21875 -1.421875 
Q 24.65625 -1.421875 15.125 8.703125 
Q 5.609375 18.84375 5.609375 36.375 
Q 5.609375 53.953125 15.125 64.078125 
Q 24.65625 74.21875 41.21875 74.21875 
Q 47.75 74.21875 53.53125 72.484375 
Q 59.328125 70.75 64.40625 67.28125 
z
" id="DejaVuSans-67"/>
       <path d="M 19.1875 8.296875 
L 53.609375 8.296875 
L 53.609375 0 
L 7.328125 0 
L 7.328125 8.296875 
Q 12.9375 14.109375 22.625 23.890625 
Q 32.328125 33.6875 34.8125 36.53125 
Q 39.546875 41.84375 41.421875 45.53125 
Q 43.3125 49.21875 43.3125 52.78125 
Q 43.3125 58.59375 39.234375 62.25 
Q 35.15625 65.921875 28.609375 65.921875 
Q 23.96875 65.921875 18.8125 64.3125 
Q 13.671875 62.703125 7.8125 59.421875 
L 7.8125 69.390625 
Q 13.765625 71.78125 18.9375 73 
Q 24.125 74.21875 28.421875 74.21875 
Q 39.75 74.21875 46.484375 68.546875 
Q 53.21875 62.890625 53.21875 53.421875 
Q 53.21875 48.921875 51.53125 44.890625 
Q 49.859375 40.875 45.40625 35.40625 
Q 44.1875 33.984375 37.640625 27.21875 
Q 31.109375 20.453125 19.1875 8.296875 
z
" id="DejaVuSans-50"/>
      </defs>
      <g style="fill:#569198;" transform="translate(35.871069 172.537875)rotate(-45)scale(0.08 -0.08)">
       <use xlink:href="#DejaVuSans-67"/>
       <use x="69.824219" xlink:href="#DejaVuSans-84"/>
       <use x="130.908203" xlink:href="#DejaVuSans-50"/>
      </g>
     </g>
    </g>
    <g id="xtick_6">
     <g id="text_6">
      <!-- CN2 -->
      <g style="fill:#72384f;" transform="translate(41.481103 173.314808)rotate(-45)scale(0.08 -0.08)">
       <use xlink:href="#DejaVuSans-67"/>
       <use x="69.824219" xlink:href="#DejaVuSans-78"/>
       <use x="144.628906" xlink:href="#DejaVuSans-50"/>
      </g>
     </g>
    </g>
    <g id="xtick_7">
     <g id="text_7">
      <!-- LB6 -->
      <defs>
       <path d="M 9.8125 72.90625 
L 19.671875 72.90625 
L 19.671875 8.296875 
L 55.171875 8.296875 
L 55.171875 0 
L 9.8125 0 
z
" id="DejaVuSans-76"/>
       <path d="M 33.015625 40.375 
Q 26.375 40.375 22.484375 35.828125 
Q 18.609375 31.296875 18.609375 23.390625 
Q 18.609375 15.53125 22.484375 10.953125 
Q 26.375 6.390625 33.015625 6.390625 
Q 39.65625 6.390625 43.53125 10.953125 
Q 47.40625 15.53125 47.40625 23.390625 
Q 47.40625 31.296875 43.53125 35.828125 
Q 39.65625 40.375 33.015625 40.375 
z
M 52.59375 71.296875 
L 52.59375 62.3125 
Q 48.875 64.0625 45.09375 64.984375 
Q 41.3125 65.921875 37.59375 65.921875 
Q 27.828125 65.921875 22.671875 59.328125 
Q 17.53125 52.734375 16.796875 39.40625 
Q 19.671875 43.65625 24.015625 45.921875 
Q 28.375 48.1875 33.59375 48.1875 
Q 44.578125 48.1875 50.953125 41.515625 
Q 57.328125 34.859375 57.328125 23.390625 
Q 57.328125 12.15625 50.6875 5.359375 
Q 44.046875 -1.421875 33.015625 -1.421875 
Q 20.359375 -1.421875 13.671875 8.265625 
Q 6.984375 17.96875 6.984375 36.375 
Q 6.984375 53.65625 15.1875 63.9375 
Q 23.390625 74.21875 37.203125 74.21875 
Q 40.921875 74.21875 44.703125 73.484375 
Q 48.484375 72.75 52.59375 71.296875 
z
" id="DejaVuSans-54"/>
      </defs>
      <g style="fill:#c6b08d;" transform="translate(48.054127 172.16576)rotate(-45)scale(0.08 -0.08)">
       <use xlink:href="#DejaVuSans-76"/>
       <use x="55.712891" xlink:href="#DejaVuSans-66"/>
       <use x="124.316406" xlink:href="#DejaVuSans-54"/>
      </g>
     </g>
    </g>
    <g id="xtick_8">
     <g id="text_8">
      <!-- LN6 -->
      <g style="fill:#72384f;" transform="translate(53.877176 172.516661)rotate(-45)scale(0.08 -0.08)">
       <use xlink:href="#DejaVuSans-76"/>
       <use x="55.712891" xlink:href="#DejaVuSans-78"/>
       <use x="130.517578" xlink:href="#DejaVuSans-54"/>
      </g>
     </g>
    </g>
    <g id="xtick_9">
     <g id="text_9">
      <!-- LT6 -->
      <g style="fill:#569198;" transform="translate(60.653052 170.96191)rotate(-45)scale(0.08 -0.08)">
       <use xlink:href="#DejaVuSans-76"/>
       <use x="41.962891" xlink:href="#DejaVuSans-84"/>
       <use x="103.046875" xlink:href="#DejaVuSans-54"/>
      </g>
     </g>
    </g>
    <g id="xtick_10">
     <g id="text_10">
      <!-- ET3 -->
      <g style="fill:#569198;" transform="translate(66.051395 172.162224)rotate(-45)scale(0.08 -0.08)">
       <use xlink:href="#DejaVuSans-69"/>
       <use x="63.183594" xlink:href="#DejaVuSans-84"/>
       <use x="124.267578" xlink:href="#DejaVuSans-51"/>
      </g>
     </g>
    </g>
    <g id="xtick_11">
     <g id="text_11">
      <!-- RN1 -->
      <defs>
       <path d="M 12.40625 8.296875 
L 28.515625 8.296875 
L 28.515625 63.921875 
L 10.984375 60.40625 
L 10.984375 69.390625 
L 28.421875 72.90625 
L 38.28125 72.90625 
L 38.28125 8.296875 
L 54.390625 8.296875 
L 54.390625 0 
L 12.40625 0 
z
" id="DejaVuSans-49"/>
      </defs>
      <g style="fill:#72384f;" transform="translate(71.483325 173.295363)rotate(-45)scale(0.08 -0.08)">
       <use xlink:href="#DejaVuSans-82"/>
       <use x="69.482422" xlink:href="#DejaVuSans-78"/>
       <use x="144.287109" xlink:href="#DejaVuSans-49"/>
      </g>
     </g>
    </g>
    <g id="xtick_12">
     <g id="text_12">
      <!-- RB1 -->
      <g style="fill:#c6b08d;" transform="translate(77.657276 172.944461)rotate(-45)scale(0.08 -0.08)">
       <use xlink:href="#DejaVuSans-82"/>
       <use x="69.482422" xlink:href="#DejaVuSans-66"/>
       <use x="138.085938" xlink:href="#DejaVuSans-49"/>
      </g>
     </g>
    </g>
    <g id="xtick_13">
     <g id="text_13">
      <!-- RT1 -->
      <g style="fill:#569198;" transform="translate(84.073853 172.108307)rotate(-45)scale(0.08 -0.08)">
       <use xlink:href="#DejaVuSans-82"/>
       <use x="62.232422" xlink:href="#DejaVuSans-84"/>
       <use x="123.316406" xlink:href="#DejaVuSans-49"/>
      </g>
     </g>
    </g>
    <g id="xtick_14">
     <g id="text_14">
      <!-- LN4 -->
      <defs>
       <path d="M 37.796875 64.3125 
L 12.890625 25.390625 
L 37.796875 25.390625 
z
M 35.203125 72.90625 
L 47.609375 72.90625 
L 47.609375 25.390625 
L 58.015625 25.390625 
L 58.015625 17.1875 
L 47.609375 17.1875 
L 47.609375 0 
L 37.796875 0 
L 37.796875 17.1875 
L 4.890625 17.1875 
L 4.890625 26.703125 
z
" id="DejaVuSans-52"/>
      </defs>
      <g style="fill:#72384f;" transform="translate(89.868176 172.516661)rotate(-45)scale(0.08 -0.08)">
       <use xlink:href="#DejaVuSans-76"/>
       <use x="55.712891" xlink:href="#DejaVuSans-78"/>
       <use x="130.517578" xlink:href="#DejaVuSans-52"/>
      </g>
     </g>
    </g>
    <g id="xtick_15">
     <g id="text_15">
      <!-- LT4 -->
      <g style="fill:#569198;" transform="translate(96.644052 170.96191)rotate(-45)scale(0.08 -0.08)">
       <use xlink:href="#DejaVuSans-76"/>
       <use x="41.962891" xlink:href="#DejaVuSans-84"/>
       <use x="103.046875" xlink:href="#DejaVuSans-52"/>
      </g>
     </g>
    </g>
    <g id="xtick_16">
     <g id="text_16">
      <!-- LN5 -->
      <defs>
       <path d="M 10.796875 72.90625 
L 49.515625 72.90625 
L 49.515625 64.59375 
L 19.828125 64.59375 
L 19.828125 46.734375 
Q 21.96875 47.46875 24.109375 47.828125 
Q 26.265625 48.1875 28.421875 48.1875 
Q 40.625 48.1875 47.75 41.5 
Q 54.890625 34.8125 54.890625 23.390625 
Q 54.890625 11.625 47.5625 5.09375 
Q 40.234375 -1.421875 26.90625 -1.421875 
Q 22.3125 -1.421875 17.546875 -0.640625 
Q 12.796875 0.140625 7.71875 1.703125 
L 7.71875 11.625 
Q 12.109375 9.234375 16.796875 8.0625 
Q 21.484375 6.890625 26.703125 6.890625 
Q 35.15625 6.890625 40.078125 11.328125 
Q 45.015625 15.765625 45.015625 23.390625 
Q 45.015625 31 40.078125 35.4375 
Q 35.15625 39.890625 26.703125 39.890625 
Q 22.75 39.890625 18.8125 39.015625 
Q 14.890625 38.140625 10.796875 36.28125 
z
" id="DejaVuSans-53"/>
      </defs>
      <g style="fill:#72384f;" transform="translate(101.865176 172.516661)rotate(-45)scale(0.08 -0.08)">
       <use xlink:href="#DejaVuSans-76"/>
       <use x="55.712891" xlink:href="#DejaVuSans-78"/>
       <use x="130.517578" xlink:href="#DejaVuSans-53"/>
      </g>
     </g>
    </g>
    <g id="xtick_17">
     <g id="text_17">
      <!-- LT5 -->
      <g style="fill:#569198;" transform="translate(108.641052 170.96191)rotate(-45)scale(0.08 -0.08)">
       <use xlink:href="#DejaVuSans-76"/>
       <use x="41.962891" xlink:href="#DejaVuSans-84"/>
       <use x="103.046875" xlink:href="#DejaVuSans-53"/>
      </g>
     </g>
    </g>
    <g id="xtick_18">
     <g id="text_18">
      <!-- EN1 -->
      <g style="fill:#72384f;" transform="translate(113.650928 172.939158)rotate(-45)scale(0.08 -0.08)">
       <use xlink:href="#DejaVuSans-69"/>
       <use x="63.183594" xlink:href="#DejaVuSans-78"/>
       <use x="137.988281" xlink:href="#DejaVuSans-49"/>
      </g>
     </g>
    </g>
    <g id="xtick_19">
     <g id="text_19">
      <!-- ET1 -->
      <g style="fill:#569198;" transform="translate(120.037895 172.162224)rotate(-45)scale(0.08 -0.08)">
       <use xlink:href="#DejaVuSans-69"/>
       <use x="63.183594" xlink:href="#DejaVuSans-84"/>
       <use x="124.267578" xlink:href="#DejaVuSans-49"/>
      </g>
     </g>
    </g>
    <g id="xtick_20">
     <g id="text_20">
      <!-- EN2 -->
      <g style="fill:#72384f;" transform="translate(125.647928 172.939158)rotate(-45)scale(0.08 -0.08)">
       <use xlink:href="#DejaVuSans-69"/>
       <use x="63.183594" xlink:href="#DejaVuSans-78"/>
       <use x="137.988281" xlink:href="#DejaVuSans-50"/>
      </g>
     </g>
    </g>
    <g id="xtick_21">
     <g id="text_21">
      <!-- ET2 -->
      <g style="fill:#569198;" transform="translate(132.034895 172.162224)rotate(-45)scale(0.08 -0.08)">
       <use xlink:href="#DejaVuSans-69"/>
       <use x="63.183594" xlink:href="#DejaVuSans-84"/>
       <use x="124.267578" xlink:href="#DejaVuSans-50"/>
      </g>
     </g>
    </g>
    <g id="xtick_22">
     <g id="text_22">
      <!-- RN2 -->
      <g style="fill:#72384f;" transform="translate(137.466825 173.295363)rotate(-45)scale(0.08 -0.08)">
       <use xlink:href="#DejaVuSans-82"/>
       <use x="69.482422" xlink:href="#DejaVuSans-78"/>
       <use x="144.287109" xlink:href="#DejaVuSans-50"/>
      </g>
     </g>
    </g>
    <g id="xtick_23">
     <g id="text_23">
      <!-- RB2 -->
      <g style="fill:#c6b08d;" transform="translate(143.640776 172.944461)rotate(-45)scale(0.08 -0.08)">
       <use xlink:href="#DejaVuSans-82"/>
       <use x="69.482422" xlink:href="#DejaVuSans-66"/>
       <use x="138.085938" xlink:href="#DejaVuSans-50"/>
      </g>
     </g>
    </g>
    <g id="xtick_24">
     <g id="text_24">
      <!-- RT2 -->
      <g style="fill:#569198;" transform="translate(150.057353 172.108307)rotate(-45)scale(0.08 -0.08)">
       <use xlink:href="#DejaVuSans-82"/>
       <use x="62.232422" xlink:href="#DejaVuSans-84"/>
       <use x="123.316406" xlink:href="#DejaVuSans-50"/>
      </g>
     </g>
    </g>
    <g id="xtick_25">
     <g id="text_25">
      <!-- LN2 -->
      <g style="fill:#72384f;" transform="translate(155.851676 172.516661)rotate(-45)scale(0.08 -0.08)">
       <use xlink:href="#DejaVuSans-76"/>
       <use x="55.712891" xlink:href="#DejaVuSans-78"/>
       <use x="130.517578" xlink:href="#DejaVuSans-50"/>
      </g>
     </g>
    </g>
    <g id="xtick_26">
     <g id="text_26">
      <!-- LT2 -->
      <g style="fill:#569198;" transform="translate(162.627552 170.96191)rotate(-45)scale(0.08 -0.08)">
       <use xlink:href="#DejaVuSans-76"/>
       <use x="41.962891" xlink:href="#DejaVuSans-84"/>
       <use x="103.046875" xlink:href="#DejaVuSans-50"/>
      </g>
     </g>
    </g>
    <g id="xtick_27">
     <g id="text_27">
      <!-- CN1 -->
      <g style="fill:#72384f;" transform="translate(167.449603 173.314808)rotate(-45)scale(0.08 -0.08)">
       <use xlink:href="#DejaVuSans-67"/>
       <use x="69.824219" xlink:href="#DejaVuSans-78"/>
       <use x="144.628906" xlink:href="#DejaVuSans-49"/>
      </g>
     </g>
    </g>
    <g id="xtick_28">
     <g id="text_28">
      <!-- CT1 -->
      <g style="fill:#569198;" transform="translate(173.836569 172.537875)rotate(-45)scale(0.08 -0.08)">
       <use xlink:href="#DejaVuSans-67"/>
       <use x="69.824219" xlink:href="#DejaVuSans-84"/>
       <use x="130.908203" xlink:href="#DejaVuSans-49"/>
      </g>
     </g>
    </g>
    <g id="xtick_29">
     <g id="text_29">
      <!-- LN1 -->
      <g style="fill:#72384f;" transform="translate(179.845676 172.516661)rotate(-45)scale(0.08 -0.08)">
       <use xlink:href="#DejaVuSans-76"/>
       <use x="55.712891" xlink:href="#DejaVuSans-78"/>
       <use x="130.517578" xlink:href="#DejaVuSans-49"/>
      </g>
     </g>
    </g>
    <g id="xtick_30">
     <g id="text_30">
      <!-- LT1 -->
      <g style="fill:#569198;" transform="translate(186.621552 170.96191)rotate(-45)scale(0.08 -0.08)">
       <use xlink:href="#DejaVuSans-76"/>
       <use x="41.962891" xlink:href="#DejaVuSans-84"/>
       <use x="103.046875" xlink:href="#DejaVuSans-49"/>
      </g>
     </g>
    </g>
    <g id="xtick_31">
     <g id="text_31">
      <!-- LN3 -->
      <g style="fill:#72384f;" transform="translate(191.842676 172.516661)rotate(-45)scale(0.08 -0.08)">
       <use xlink:href="#DejaVuSans-76"/>
       <use x="55.712891" xlink:href="#DejaVuSans-78"/>
       <use x="130.517578" xlink:href="#DejaVuSans-51"/>
      </g>
     </g>
    </g>
    <g id="xtick_32">
     <g id="text_32">
      <!-- LT3 -->
      <g style="fill:#569198;" transform="translate(198.618552 170.96191)rotate(-45)scale(0.08 -0.08)">
       <use xlink:href="#DejaVuSans-76"/>
       <use x="41.962891" xlink:href="#DejaVuSans-84"/>
       <use x="103.046875" xlink:href="#DejaVuSans-51"/>
      </g>
     </g>
    </g>
   </g>
   <g id="matplotlib.axis_2"/>
   <g id="LineCollection_1">
    <path clip-path="url(#p4a6e7e1180)" d="M 21.816806 150.2352 
L 21.816806 19.807966 
L 27.815306 19.807966 
L 27.815306 150.2352 
" style="fill:none;stroke:#0000ff;stroke-width:1.5;"/>
    <path clip-path="url(#p4a6e7e1180)" d="M 15.818306 150.2352 
L 15.818306 18.9648 
L 24.816056 18.9648 
L 24.816056 19.807966 
" style="fill:none;stroke:#0000ff;stroke-width:1.5;"/>
    <path clip-path="url(#p4a6e7e1180)" d="M 57.807806 150.2352 
L 57.807806 15.632914 
L 63.806306 15.632914 
L 63.806306 150.2352 
" style="fill:none;stroke:#0000ff;stroke-width:1.5;"/>
    <path clip-path="url(#p4a6e7e1180)" d="M 81.801806 150.2352 
L 81.801806 26.984914 
L 87.800306 26.984914 
L 87.800306 150.2352 
" style="fill:none;stroke:#0000ff;stroke-width:1.5;"/>
    <path clip-path="url(#p4a6e7e1180)" d="M 75.803306 150.2352 
L 75.803306 16.488 
L 84.801056 16.488 
L 84.801056 26.984914 
" style="fill:none;stroke:#0000ff;stroke-width:1.5;"/>
    <path clip-path="url(#p4a6e7e1180)" d="M 93.798806 150.2352 
L 93.798806 15.929848 
L 99.797306 15.929848 
L 99.797306 150.2352 
" style="fill:none;stroke:#0000ff;stroke-width:1.5;"/>
    <path clip-path="url(#p4a6e7e1180)" d="M 80.302181 16.488 
L 80.302181 15.260961 
L 96.798056 15.260961 
L 96.798056 15.929848 
" style="fill:none;stroke:#0000ff;stroke-width:1.5;"/>
    <path clip-path="url(#p4a6e7e1180)" d="M 105.795806 150.2352 
L 105.795806 16.930286 
L 111.794306 16.930286 
L 111.794306 150.2352 
" style="fill:none;stroke:#0000ff;stroke-width:1.5;"/>
    <path clip-path="url(#p4a6e7e1180)" d="M 117.792806 150.2352 
L 117.792806 18.648613 
L 123.791306 18.648613 
L 123.791306 150.2352 
" style="fill:none;stroke:#0000ff;stroke-width:1.5;"/>
    <path clip-path="url(#p4a6e7e1180)" d="M 129.789806 150.2352 
L 129.789806 16.014494 
L 135.788306 16.014494 
L 135.788306 150.2352 
" style="fill:none;stroke:#0000ff;stroke-width:1.5;"/>
    <path clip-path="url(#p4a6e7e1180)" d="M 120.792056 18.648613 
L 120.792056 14.913346 
L 132.789056 14.913346 
L 132.789056 16.014494 
" style="fill:none;stroke:#0000ff;stroke-width:1.5;"/>
    <path clip-path="url(#p4a6e7e1180)" d="M 108.795056 16.930286 
L 108.795056 14.907411 
L 126.790556 14.907411 
L 126.790556 14.913346 
" style="fill:none;stroke:#0000ff;stroke-width:1.5;"/>
    <path clip-path="url(#p4a6e7e1180)" d="M 88.550118 15.260961 
L 88.550118 14.659886 
L 117.792806 14.659886 
L 117.792806 14.907411 
" style="fill:none;stroke:#0000ff;stroke-width:1.5;"/>
    <path clip-path="url(#p4a6e7e1180)" d="M 147.785306 150.2352 
L 147.785306 27.831026 
L 153.783806 27.831026 
L 153.783806 150.2352 
" style="fill:none;stroke:#0000ff;stroke-width:1.5;"/>
    <path clip-path="url(#p4a6e7e1180)" d="M 141.786806 150.2352 
L 141.786806 21.32524 
L 150.784556 21.32524 
L 150.784556 27.831026 
" style="fill:none;stroke:#0000ff;stroke-width:1.5;"/>
    <path clip-path="url(#p4a6e7e1180)" d="M 159.782306 150.2352 
L 159.782306 18.890866 
L 165.780806 18.890866 
L 165.780806 150.2352 
" style="fill:none;stroke:#0000ff;stroke-width:1.5;"/>
    <path clip-path="url(#p4a6e7e1180)" d="M 146.285681 21.32524 
L 146.285681 14.731962 
L 162.781556 14.731962 
L 162.781556 18.890866 
" style="fill:none;stroke:#0000ff;stroke-width:1.5;"/>
    <path clip-path="url(#p4a6e7e1180)" d="M 171.779306 150.2352 
L 171.779306 17.903314 
L 177.777806 17.903314 
L 177.777806 150.2352 
" style="fill:none;stroke:#0000ff;stroke-width:1.5;"/>
    <path clip-path="url(#p4a6e7e1180)" d="M 183.776306 150.2352 
L 183.776306 19.08 
L 189.774806 19.08 
L 189.774806 150.2352 
" style="fill:none;stroke:#0000ff;stroke-width:1.5;"/>
    <path clip-path="url(#p4a6e7e1180)" d="M 195.773306 150.2352 
L 195.773306 15.213176 
L 201.771806 15.213176 
L 201.771806 150.2352 
" style="fill:none;stroke:#0000ff;stroke-width:1.5;"/>
    <path clip-path="url(#p4a6e7e1180)" d="M 186.775556 19.08 
L 186.775556 14.913346 
L 198.772556 14.913346 
L 198.772556 15.213176 
" style="fill:none;stroke:#0000ff;stroke-width:1.5;"/>
    <path clip-path="url(#p4a6e7e1180)" d="M 174.778556 17.903314 
L 174.778556 14.659886 
L 192.774056 14.659886 
L 192.774056 14.913346 
" style="fill:none;stroke:#0000ff;stroke-width:1.5;"/>
    <path clip-path="url(#p4a6e7e1180)" d="M 154.533618 14.731962 
L 154.533618 14.658345 
L 183.776306 14.658345 
L 183.776306 14.659886 
" style="fill:none;stroke:#0000ff;stroke-width:1.5;"/>
    <path clip-path="url(#p4a6e7e1180)" d="M 103.171462 14.659886 
L 103.171462 14.63896 
L 169.154962 14.63896 
L 169.154962 14.658345 
" style="fill:none;stroke:#0000ff;stroke-width:1.5;"/>
    <path clip-path="url(#p4a6e7e1180)" d="M 69.804806 150.2352 
L 69.804806 14.562714 
L 136.163212 14.562714 
L 136.163212 14.63896 
" style="fill:none;stroke:#0000ff;stroke-width:1.5;"/>
    <path clip-path="url(#p4a6e7e1180)" d="M 60.807056 15.632914 
L 60.807056 14.558284 
L 102.984009 14.558284 
L 102.984009 14.562714 
" style="fill:none;stroke:#0000ff;stroke-width:1.5;"/>
    <path clip-path="url(#p4a6e7e1180)" d="M 51.809306 150.2352 
L 51.809306 14.537161 
L 81.895532 14.537161 
L 81.895532 14.558284 
" style="fill:none;stroke:#0000ff;stroke-width:1.5;"/>
    <path clip-path="url(#p4a6e7e1180)" d="M 45.810806 150.2352 
L 45.810806 14.0112 
L 66.852419 14.0112 
L 66.852419 14.537161 
" style="fill:none;stroke:#0000ff;stroke-width:1.5;"/>
    <path clip-path="url(#p4a6e7e1180)" d="M 39.812306 150.2352 
L 39.812306 14.0112 
L 56.331612 14.0112 
L 56.331612 14.0112 
" style="fill:none;stroke:#0000ff;stroke-width:1.5;"/>
    <path clip-path="url(#p4a6e7e1180)" d="M 33.813806 150.2352 
L 33.813806 14.0112 
L 48.071959 14.0112 
L 48.071959 14.0112 
" style="fill:none;stroke:#0000ff;stroke-width:1.5;"/>
    <path clip-path="url(#p4a6e7e1180)" d="M 20.317181 18.9648 
L 20.317181 14.0112 
L 40.942882 14.0112 
L 40.942882 14.0112 
" style="fill:none;stroke:#0000ff;stroke-width:1.5;"/>
   </g>
  </g>
 </g>
 <defs>
  <clipPath id="p4a6e7e1180">
   <rect height="143.0352" width="191.952" x="12.819056" y="7.2"/>
  </clipPath>
 </defs>
</svg>
