<?xml version="1.0" encoding="utf-8" standalone="no"?>
<!DOCTYPE svg PUBLIC "-//W3C//DTD SVG 1.1//EN"
  "http://www.w3.org/Graphics/SVG/1.1/DTD/svg11.dtd">
<!-- Created with matplotlib (https://matplotlib.org/) -->
<svg height="250.206139pt" version="1.1" viewBox="0 0 447.742875 250.206139" width="447.742875pt" xmlns="http://www.w3.org/2000/svg" xmlns:xlink="http://www.w3.org/1999/xlink">
 <defs>
  <style type="text/css">
*{stroke-linecap:butt;stroke-linejoin:round;}
  </style>
 </defs>
 <g id="figure_1">
  <g id="patch_1">
   <path d="M 0 250.206139 
L 447.742875 250.206139 
L 447.742875 0 
L 0 0 
z
" style="fill:#ffffff;"/>
  </g>
  <g id="axes_1">
   <g id="patch_2">
    <path d="M 48.208125 210.878437 
L 324.688125 210.878437 
L 324.688125 20.798437 
L 48.208125 20.798437 
z
" style="fill:#ffffff;"/>
   </g>
   <g id="patch_3">
    <path clip-path="url(#pe2faed038d)" d="M 52.816125 210.878437 
L 62.032125 210.878437 
L 62.032125 210.878437 
L 52.816125 210.878437 
z
" style="fill:#e377c2;"/>
   </g>
   <g id="patch_4">
    <path clip-path="url(#pe2faed038d)" d="M 71.248125 210.878437 
L 80.464125 210.878437 
L 80.464125 210.878437 
L 71.248125 210.878437 
z
" style="fill:#e377c2;"/>
   </g>
   <g id="patch_5">
    <path clip-path="url(#pe2faed038d)" d="M 89.680125 210.878437 
L 98.896125 210.878437 
L 98.896125 210.878437 
L 89.680125 210.878437 
z
" style="fill:#e377c2;"/>
   </g>
   <g id="patch_6">
    <path clip-path="url(#pe2faed038d)" d="M 108.112125 210.878437 
L 117.328125 210.878437 
L 117.328125 210.878437 
L 108.112125 210.878437 
z
" style="fill:#e377c2;"/>
   </g>
   <g id="patch_7">
    <path clip-path="url(#pe2faed038d)" d="M 126.544125 210.878437 
L 135.760125 210.878437 
L 135.760125 210.878437 
L 126.544125 210.878437 
z
" style="fill:#e377c2;"/>
   </g>
   <g id="patch_8">
    <path clip-path="url(#pe2faed038d)" d="M 144.976125 210.878437 
L 154.192125 210.878437 
L 154.192125 210.878437 
L 144.976125 210.878437 
z
" style="fill:#e377c2;"/>
   </g>
   <g id="patch_9">
    <path clip-path="url(#pe2faed038d)" d="M 163.408125 210.878437 
L 172.624125 210.878437 
L 172.624125 210.878437 
L 163.408125 210.878437 
z
" style="fill:#e377c2;"/>
   </g>
   <g id="patch_10">
    <path clip-path="url(#pe2faed038d)" d="M 181.840125 210.878437 
L 191.056125 210.878437 
L 191.056125 210.878437 
L 181.840125 210.878437 
z
" style="fill:#e377c2;"/>
   </g>
   <g id="patch_11">
    <path clip-path="url(#pe2faed038d)" d="M 200.272125 210.878437 
L 209.488125 210.878437 
L 209.488125 134.655881 
L 200.272125 134.655881 
z
" style="fill:#e377c2;"/>
   </g>
   <g id="patch_12">
    <path clip-path="url(#pe2faed038d)" d="M 218.704125 210.878437 
L 227.920125 210.878437 
L 227.920125 210.878437 
L 218.704125 210.878437 
z
" style="fill:#e377c2;"/>
   </g>
   <g id="patch_13">
    <path clip-path="url(#pe2faed038d)" d="M 237.136125 210.878437 
L 246.352125 210.878437 
L 246.352125 210.878437 
L 237.136125 210.878437 
z
" style="fill:#e377c2;"/>
   </g>
   <g id="patch_14">
    <path clip-path="url(#pe2faed038d)" d="M 255.568125 210.878437 
L 264.784125 210.878437 
L 264.784125 210.878437 
L 255.568125 210.878437 
z
" style="fill:#e377c2;"/>
   </g>
   <g id="patch_15">
    <path clip-path="url(#pe2faed038d)" d="M 274.000125 210.878437 
L 283.216125 210.878437 
L 283.216125 201.350618 
L 274.000125 201.350618 
z
" style="fill:#e377c2;"/>
   </g>
   <g id="patch_16">
    <path clip-path="url(#pe2faed038d)" d="M 292.432125 210.878437 
L 301.648125 210.878437 
L 301.648125 144.183701 
L 292.432125 144.183701 
z
" style="fill:#e377c2;"/>
   </g>
   <g id="patch_17">
    <path clip-path="url(#pe2faed038d)" d="M 310.864125 210.878437 
L 320.080125 210.878437 
L 320.080125 210.878437 
L 310.864125 210.878437 
z
" style="fill:#e377c2;"/>
   </g>
   <g id="patch_18">
    <path clip-path="url(#pe2faed038d)" d="M 52.816125 210.878437 
L 62.032125 210.878437 
L 62.032125 210.878437 
L 52.816125 210.878437 
z
" style="fill:#b5bd61;"/>
   </g>
   <g id="patch_19">
    <path clip-path="url(#pe2faed038d)" d="M 71.248125 210.878437 
L 80.464125 210.878437 
L 80.464125 210.878437 
L 71.248125 210.878437 
z
" style="fill:#b5bd61;"/>
   </g>
   <g id="patch_20">
    <path clip-path="url(#pe2faed038d)" d="M 89.680125 210.878437 
L 98.896125 210.878437 
L 98.896125 210.878437 
L 89.680125 210.878437 
z
" style="fill:#b5bd61;"/>
   </g>
   <g id="patch_21">
    <path clip-path="url(#pe2faed038d)" d="M 108.112125 210.878437 
L 117.328125 210.878437 
L 117.328125 210.878437 
L 108.112125 210.878437 
z
" style="fill:#b5bd61;"/>
   </g>
   <g id="patch_22">
    <path clip-path="url(#pe2faed038d)" d="M 126.544125 210.878437 
L 135.760125 210.878437 
L 135.760125 201.350618 
L 126.544125 201.350618 
z
" style="fill:#b5bd61;"/>
   </g>
   <g id="patch_23">
    <path clip-path="url(#pe2faed038d)" d="M 144.976125 210.878437 
L 154.192125 210.878437 
L 154.192125 210.878437 
L 144.976125 210.878437 
z
" style="fill:#b5bd61;"/>
   </g>
   <g id="patch_24">
    <path clip-path="url(#pe2faed038d)" d="M 163.408125 210.878437 
L 172.624125 210.878437 
L 172.624125 210.878437 
L 163.408125 210.878437 
z
" style="fill:#b5bd61;"/>
   </g>
   <g id="patch_25">
    <path clip-path="url(#pe2faed038d)" d="M 181.840125 210.878437 
L 191.056125 210.878437 
L 191.056125 210.878437 
L 181.840125 210.878437 
z
" style="fill:#b5bd61;"/>
   </g>
   <g id="patch_26">
    <path clip-path="url(#pe2faed038d)" d="M 200.272125 210.878437 
L 209.488125 210.878437 
L 209.488125 210.878437 
L 200.272125 210.878437 
z
" style="fill:#b5bd61;"/>
   </g>
   <g id="patch_27">
    <path clip-path="url(#pe2faed038d)" d="M 218.704125 210.878437 
L 227.920125 210.878437 
L 227.920125 210.878437 
L 218.704125 210.878437 
z
" style="fill:#b5bd61;"/>
   </g>
   <g id="patch_28">
    <path clip-path="url(#pe2faed038d)" d="M 237.136125 210.878437 
L 246.352125 210.878437 
L 246.352125 210.878437 
L 237.136125 210.878437 
z
" style="fill:#b5bd61;"/>
   </g>
   <g id="patch_29">
    <path clip-path="url(#pe2faed038d)" d="M 255.568125 210.878437 
L 264.784125 210.878437 
L 264.784125 191.822798 
L 255.568125 191.822798 
z
" style="fill:#b5bd61;"/>
   </g>
   <g id="patch_30">
    <path clip-path="url(#pe2faed038d)" d="M 274.000125 201.350618 
L 283.216125 201.350618 
L 283.216125 191.822798 
L 274.000125 191.822798 
z
" style="fill:#b5bd61;"/>
   </g>
   <g id="patch_31">
    <path clip-path="url(#pe2faed038d)" d="M 292.432125 210.878437 
L 301.648125 210.878437 
L 301.648125 210.878437 
L 292.432125 210.878437 
z
" style="fill:#b5bd61;"/>
   </g>
   <g id="patch_32">
    <path clip-path="url(#pe2faed038d)" d="M 310.864125 210.878437 
L 320.080125 210.878437 
L 320.080125 144.183701 
L 310.864125 144.183701 
z
" style="fill:#b5bd61;"/>
   </g>
   <g id="patch_33">
    <path clip-path="url(#pe2faed038d)" d="M 52.816125 210.878437 
L 62.032125 210.878437 
L 62.032125 210.878437 
L 52.816125 210.878437 
z
" style="fill:#ffbb78;"/>
   </g>
   <g id="patch_34">
    <path clip-path="url(#pe2faed038d)" d="M 71.248125 210.878437 
L 80.464125 210.878437 
L 80.464125 210.878437 
L 71.248125 210.878437 
z
" style="fill:#ffbb78;"/>
   </g>
   <g id="patch_35">
    <path clip-path="url(#pe2faed038d)" d="M 89.680125 210.878437 
L 98.896125 210.878437 
L 98.896125 210.878437 
L 89.680125 210.878437 
z
" style="fill:#ffbb78;"/>
   </g>
   <g id="patch_36">
    <path clip-path="url(#pe2faed038d)" d="M 108.112125 210.878437 
L 117.328125 210.878437 
L 117.328125 210.878437 
L 108.112125 210.878437 
z
" style="fill:#ffbb78;"/>
   </g>
   <g id="patch_37">
    <path clip-path="url(#pe2faed038d)" d="M 126.544125 210.878437 
L 135.760125 210.878437 
L 135.760125 210.878437 
L 126.544125 210.878437 
z
" style="fill:#ffbb78;"/>
   </g>
   <g id="patch_38">
    <path clip-path="url(#pe2faed038d)" d="M 144.976125 210.878437 
L 154.192125 210.878437 
L 154.192125 210.878437 
L 144.976125 210.878437 
z
" style="fill:#ffbb78;"/>
   </g>
   <g id="patch_39">
    <path clip-path="url(#pe2faed038d)" d="M 163.408125 210.878437 
L 172.624125 210.878437 
L 172.624125 210.878437 
L 163.408125 210.878437 
z
" style="fill:#ffbb78;"/>
   </g>
   <g id="patch_40">
    <path clip-path="url(#pe2faed038d)" d="M 181.840125 210.878437 
L 191.056125 210.878437 
L 191.056125 210.878437 
L 181.840125 210.878437 
z
" style="fill:#ffbb78;"/>
   </g>
   <g id="patch_41">
    <path clip-path="url(#pe2faed038d)" d="M 200.272125 210.878437 
L 209.488125 210.878437 
L 209.488125 210.878437 
L 200.272125 210.878437 
z
" style="fill:#ffbb78;"/>
   </g>
   <g id="patch_42">
    <path clip-path="url(#pe2faed038d)" d="M 218.704125 210.878437 
L 227.920125 210.878437 
L 227.920125 210.878437 
L 218.704125 210.878437 
z
" style="fill:#ffbb78;"/>
   </g>
   <g id="patch_43">
    <path clip-path="url(#pe2faed038d)" d="M 237.136125 210.878437 
L 246.352125 210.878437 
L 246.352125 210.878437 
L 237.136125 210.878437 
z
" style="fill:#ffbb78;"/>
   </g>
   <g id="patch_44">
    <path clip-path="url(#pe2faed038d)" d="M 255.568125 210.878437 
L 264.784125 210.878437 
L 264.784125 210.878437 
L 255.568125 210.878437 
z
" style="fill:#ffbb78;"/>
   </g>
   <g id="patch_45">
    <path clip-path="url(#pe2faed038d)" d="M 274.000125 210.878437 
L 283.216125 210.878437 
L 283.216125 210.878437 
L 274.000125 210.878437 
z
" style="fill:#ffbb78;"/>
   </g>
   <g id="patch_46">
    <path clip-path="url(#pe2faed038d)" d="M 292.432125 210.878437 
L 301.648125 210.878437 
L 301.648125 210.878437 
L 292.432125 210.878437 
z
" style="fill:#ffbb78;"/>
   </g>
   <g id="patch_47">
    <path clip-path="url(#pe2faed038d)" d="M 310.864125 210.878437 
L 320.080125 210.878437 
L 320.080125 210.878437 
L 310.864125 210.878437 
z
" style="fill:#ffbb78;"/>
   </g>
   <g id="patch_48">
    <path clip-path="url(#pe2faed038d)" d="M 52.816125 210.878437 
L 62.032125 210.878437 
L 62.032125 210.878437 
L 52.816125 210.878437 
z
" style="fill:#8c564b;"/>
   </g>
   <g id="patch_49">
    <path clip-path="url(#pe2faed038d)" d="M 71.248125 210.878437 
L 80.464125 210.878437 
L 80.464125 210.878437 
L 71.248125 210.878437 
z
" style="fill:#8c564b;"/>
   </g>
   <g id="patch_50">
    <path clip-path="url(#pe2faed038d)" d="M 89.680125 210.878437 
L 98.896125 210.878437 
L 98.896125 210.878437 
L 89.680125 210.878437 
z
" style="fill:#8c564b;"/>
   </g>
   <g id="patch_51">
    <path clip-path="url(#pe2faed038d)" d="M 108.112125 210.878437 
L 117.328125 210.878437 
L 117.328125 210.878437 
L 108.112125 210.878437 
z
" style="fill:#8c564b;"/>
   </g>
   <g id="patch_52">
    <path clip-path="url(#pe2faed038d)" d="M 126.544125 201.350618 
L 135.760125 201.350618 
L 135.760125 87.016783 
L 126.544125 87.016783 
z
" style="fill:#8c564b;"/>
   </g>
   <g id="patch_53">
    <path clip-path="url(#pe2faed038d)" d="M 144.976125 210.878437 
L 154.192125 210.878437 
L 154.192125 106.072422 
L 144.976125 106.072422 
z
" style="fill:#8c564b;"/>
   </g>
   <g id="patch_54">
    <path clip-path="url(#pe2faed038d)" d="M 163.408125 210.878437 
L 172.624125 210.878437 
L 172.624125 210.878437 
L 163.408125 210.878437 
z
" style="fill:#8c564b;"/>
   </g>
   <g id="patch_55">
    <path clip-path="url(#pe2faed038d)" d="M 181.840125 210.878437 
L 191.056125 210.878437 
L 191.056125 210.878437 
L 181.840125 210.878437 
z
" style="fill:#8c564b;"/>
   </g>
   <g id="patch_56">
    <path clip-path="url(#pe2faed038d)" d="M 200.272125 210.878437 
L 209.488125 210.878437 
L 209.488125 210.878437 
L 200.272125 210.878437 
z
" style="fill:#8c564b;"/>
   </g>
   <g id="patch_57">
    <path clip-path="url(#pe2faed038d)" d="M 218.704125 210.878437 
L 227.920125 210.878437 
L 227.920125 144.183701 
L 218.704125 144.183701 
z
" style="fill:#8c564b;"/>
   </g>
   <g id="patch_58">
    <path clip-path="url(#pe2faed038d)" d="M 237.136125 210.878437 
L 246.352125 210.878437 
L 246.352125 210.878437 
L 237.136125 210.878437 
z
" style="fill:#8c564b;"/>
   </g>
   <g id="patch_59">
    <path clip-path="url(#pe2faed038d)" d="M 255.568125 191.822798 
L 264.784125 191.822798 
L 264.784125 144.183701 
L 255.568125 144.183701 
z
" style="fill:#8c564b;"/>
   </g>
   <g id="patch_60">
    <path clip-path="url(#pe2faed038d)" d="M 274.000125 210.878437 
L 283.216125 210.878437 
L 283.216125 210.878437 
L 274.000125 210.878437 
z
" style="fill:#8c564b;"/>
   </g>
   <g id="patch_61">
    <path clip-path="url(#pe2faed038d)" d="M 292.432125 210.878437 
L 301.648125 210.878437 
L 301.648125 210.878437 
L 292.432125 210.878437 
z
" style="fill:#8c564b;"/>
   </g>
   <g id="patch_62">
    <path clip-path="url(#pe2faed038d)" d="M 310.864125 210.878437 
L 320.080125 210.878437 
L 320.080125 210.878437 
L 310.864125 210.878437 
z
" style="fill:#8c564b;"/>
   </g>
   <g id="patch_63">
    <path clip-path="url(#pe2faed038d)" d="M 52.816125 210.878437 
L 62.032125 210.878437 
L 62.032125 210.878437 
L 52.816125 210.878437 
z
" style="fill:#279e68;"/>
   </g>
   <g id="patch_64">
    <path clip-path="url(#pe2faed038d)" d="M 71.248125 210.878437 
L 80.464125 210.878437 
L 80.464125 210.878437 
L 71.248125 210.878437 
z
" style="fill:#279e68;"/>
   </g>
   <g id="patch_65">
    <path clip-path="url(#pe2faed038d)" d="M 89.680125 210.878437 
L 98.896125 210.878437 
L 98.896125 210.878437 
L 89.680125 210.878437 
z
" style="fill:#279e68;"/>
   </g>
   <g id="patch_66">
    <path clip-path="url(#pe2faed038d)" d="M 108.112125 210.878437 
L 117.328125 210.878437 
L 117.328125 210.878437 
L 108.112125 210.878437 
z
" style="fill:#279e68;"/>
   </g>
   <g id="patch_67">
    <path clip-path="url(#pe2faed038d)" d="M 126.544125 210.878437 
L 135.760125 210.878437 
L 135.760125 210.878437 
L 126.544125 210.878437 
z
" style="fill:#279e68;"/>
   </g>
   <g id="patch_68">
    <path clip-path="url(#pe2faed038d)" d="M 144.976125 210.878437 
L 154.192125 210.878437 
L 154.192125 210.878437 
L 144.976125 210.878437 
z
" style="fill:#279e68;"/>
   </g>
   <g id="patch_69">
    <path clip-path="url(#pe2faed038d)" d="M 163.408125 210.878437 
L 172.624125 210.878437 
L 172.624125 210.878437 
L 163.408125 210.878437 
z
" style="fill:#279e68;"/>
   </g>
   <g id="patch_70">
    <path clip-path="url(#pe2faed038d)" d="M 181.840125 210.878437 
L 191.056125 210.878437 
L 191.056125 210.878437 
L 181.840125 210.878437 
z
" style="fill:#279e68;"/>
   </g>
   <g id="patch_71">
    <path clip-path="url(#pe2faed038d)" d="M 200.272125 210.878437 
L 209.488125 210.878437 
L 209.488125 210.878437 
L 200.272125 210.878437 
z
" style="fill:#279e68;"/>
   </g>
   <g id="patch_72">
    <path clip-path="url(#pe2faed038d)" d="M 218.704125 210.878437 
L 227.920125 210.878437 
L 227.920125 210.878437 
L 218.704125 210.878437 
z
" style="fill:#279e68;"/>
   </g>
   <g id="patch_73">
    <path clip-path="url(#pe2faed038d)" d="M 237.136125 210.878437 
L 246.352125 210.878437 
L 246.352125 210.878437 
L 237.136125 210.878437 
z
" style="fill:#279e68;"/>
   </g>
   <g id="patch_74">
    <path clip-path="url(#pe2faed038d)" d="M 255.568125 210.878437 
L 264.784125 210.878437 
L 264.784125 210.878437 
L 255.568125 210.878437 
z
" style="fill:#279e68;"/>
   </g>
   <g id="patch_75">
    <path clip-path="url(#pe2faed038d)" d="M 274.000125 210.878437 
L 283.216125 210.878437 
L 283.216125 210.878437 
L 274.000125 210.878437 
z
" style="fill:#279e68;"/>
   </g>
   <g id="patch_76">
    <path clip-path="url(#pe2faed038d)" d="M 292.432125 210.878437 
L 301.648125 210.878437 
L 301.648125 210.878437 
L 292.432125 210.878437 
z
" style="fill:#279e68;"/>
   </g>
   <g id="patch_77">
    <path clip-path="url(#pe2faed038d)" d="M 310.864125 210.878437 
L 320.080125 210.878437 
L 320.080125 210.878437 
L 310.864125 210.878437 
z
" style="fill:#279e68;"/>
   </g>
   <g id="patch_78">
    <path clip-path="url(#pe2faed038d)" d="M 52.816125 210.878437 
L 62.032125 210.878437 
L 62.032125 29.849866 
L 52.816125 29.849866 
z
" style="fill:#ff9896;"/>
   </g>
   <g id="patch_79">
    <path clip-path="url(#pe2faed038d)" d="M 71.248125 210.878437 
L 80.464125 210.878437 
L 80.464125 39.377686 
L 71.248125 39.377686 
z
" style="fill:#ff9896;"/>
   </g>
   <g id="patch_80">
    <path clip-path="url(#pe2faed038d)" d="M 89.680125 210.878437 
L 98.896125 210.878437 
L 98.896125 58.433325 
L 89.680125 58.433325 
z
" style="fill:#ff9896;"/>
   </g>
   <g id="patch_81">
    <path clip-path="url(#pe2faed038d)" d="M 108.112125 210.878437 
L 117.328125 210.878437 
L 117.328125 210.878437 
L 108.112125 210.878437 
z
" style="fill:#ff9896;"/>
   </g>
   <g id="patch_82">
    <path clip-path="url(#pe2faed038d)" d="M 126.544125 210.878437 
L 135.760125 210.878437 
L 135.760125 210.878437 
L 126.544125 210.878437 
z
" style="fill:#ff9896;"/>
   </g>
   <g id="patch_83">
    <path clip-path="url(#pe2faed038d)" d="M 144.976125 210.878437 
L 154.192125 210.878437 
L 154.192125 210.878437 
L 144.976125 210.878437 
z
" style="fill:#ff9896;"/>
   </g>
   <g id="patch_84">
    <path clip-path="url(#pe2faed038d)" d="M 163.408125 210.878437 
L 172.624125 210.878437 
L 172.624125 210.878437 
L 163.408125 210.878437 
z
" style="fill:#ff9896;"/>
   </g>
   <g id="patch_85">
    <path clip-path="url(#pe2faed038d)" d="M 181.840125 210.878437 
L 191.056125 210.878437 
L 191.056125 210.878437 
L 181.840125 210.878437 
z
" style="fill:#ff9896;"/>
   </g>
   <g id="patch_86">
    <path clip-path="url(#pe2faed038d)" d="M 200.272125 210.878437 
L 209.488125 210.878437 
L 209.488125 210.878437 
L 200.272125 210.878437 
z
" style="fill:#ff9896;"/>
   </g>
   <g id="patch_87">
    <path clip-path="url(#pe2faed038d)" d="M 218.704125 210.878437 
L 227.920125 210.878437 
L 227.920125 210.878437 
L 218.704125 210.878437 
z
" style="fill:#ff9896;"/>
   </g>
   <g id="patch_88">
    <path clip-path="url(#pe2faed038d)" d="M 237.136125 210.878437 
L 246.352125 210.878437 
L 246.352125 210.878437 
L 237.136125 210.878437 
z
" style="fill:#ff9896;"/>
   </g>
   <g id="patch_89">
    <path clip-path="url(#pe2faed038d)" d="M 255.568125 210.878437 
L 264.784125 210.878437 
L 264.784125 210.878437 
L 255.568125 210.878437 
z
" style="fill:#ff9896;"/>
   </g>
   <g id="patch_90">
    <path clip-path="url(#pe2faed038d)" d="M 274.000125 210.878437 
L 283.216125 210.878437 
L 283.216125 210.878437 
L 274.000125 210.878437 
z
" style="fill:#ff9896;"/>
   </g>
   <g id="patch_91">
    <path clip-path="url(#pe2faed038d)" d="M 292.432125 210.878437 
L 301.648125 210.878437 
L 301.648125 210.878437 
L 292.432125 210.878437 
z
" style="fill:#ff9896;"/>
   </g>
   <g id="patch_92">
    <path clip-path="url(#pe2faed038d)" d="M 310.864125 210.878437 
L 320.080125 210.878437 
L 320.080125 210.878437 
L 310.864125 210.878437 
z
" style="fill:#ff9896;"/>
   </g>
   <g id="patch_93">
    <path clip-path="url(#pe2faed038d)" d="M 52.816125 210.878437 
L 62.032125 210.878437 
L 62.032125 210.878437 
L 52.816125 210.878437 
z
" style="fill:#17becf;"/>
   </g>
   <g id="patch_94">
    <path clip-path="url(#pe2faed038d)" d="M 71.248125 210.878437 
L 80.464125 210.878437 
L 80.464125 210.878437 
L 71.248125 210.878437 
z
" style="fill:#17becf;"/>
   </g>
   <g id="patch_95">
    <path clip-path="url(#pe2faed038d)" d="M 89.680125 210.878437 
L 98.896125 210.878437 
L 98.896125 210.878437 
L 89.680125 210.878437 
z
" style="fill:#17becf;"/>
   </g>
   <g id="patch_96">
    <path clip-path="url(#pe2faed038d)" d="M 108.112125 210.878437 
L 117.328125 210.878437 
L 117.328125 210.878437 
L 108.112125 210.878437 
z
" style="fill:#17becf;"/>
   </g>
   <g id="patch_97">
    <path clip-path="url(#pe2faed038d)" d="M 126.544125 210.878437 
L 135.760125 210.878437 
L 135.760125 210.878437 
L 126.544125 210.878437 
z
" style="fill:#17becf;"/>
   </g>
   <g id="patch_98">
    <path clip-path="url(#pe2faed038d)" d="M 144.976125 210.878437 
L 154.192125 210.878437 
L 154.192125 210.878437 
L 144.976125 210.878437 
z
" style="fill:#17becf;"/>
   </g>
   <g id="patch_99">
    <path clip-path="url(#pe2faed038d)" d="M 163.408125 210.878437 
L 172.624125 210.878437 
L 172.624125 210.878437 
L 163.408125 210.878437 
z
" style="fill:#17becf;"/>
   </g>
   <g id="patch_100">
    <path clip-path="url(#pe2faed038d)" d="M 181.840125 210.878437 
L 191.056125 210.878437 
L 191.056125 210.878437 
L 181.840125 210.878437 
z
" style="fill:#17becf;"/>
   </g>
   <g id="patch_101">
    <path clip-path="url(#pe2faed038d)" d="M 200.272125 210.878437 
L 209.488125 210.878437 
L 209.488125 210.878437 
L 200.272125 210.878437 
z
" style="fill:#17becf;"/>
   </g>
   <g id="patch_102">
    <path clip-path="url(#pe2faed038d)" d="M 218.704125 210.878437 
L 227.920125 210.878437 
L 227.920125 210.878437 
L 218.704125 210.878437 
z
" style="fill:#17becf;"/>
   </g>
   <g id="patch_103">
    <path clip-path="url(#pe2faed038d)" d="M 237.136125 210.878437 
L 246.352125 210.878437 
L 246.352125 210.878437 
L 237.136125 210.878437 
z
" style="fill:#17becf;"/>
   </g>
   <g id="patch_104">
    <path clip-path="url(#pe2faed038d)" d="M 255.568125 210.878437 
L 264.784125 210.878437 
L 264.784125 210.878437 
L 255.568125 210.878437 
z
" style="fill:#17becf;"/>
   </g>
   <g id="patch_105">
    <path clip-path="url(#pe2faed038d)" d="M 274.000125 191.822798 
L 283.216125 191.822798 
L 283.216125 172.767159 
L 274.000125 172.767159 
z
" style="fill:#17becf;"/>
   </g>
   <g id="patch_106">
    <path clip-path="url(#pe2faed038d)" d="M 292.432125 210.878437 
L 301.648125 210.878437 
L 301.648125 210.878437 
L 292.432125 210.878437 
z
" style="fill:#17becf;"/>
   </g>
   <g id="patch_107">
    <path clip-path="url(#pe2faed038d)" d="M 310.864125 210.878437 
L 320.080125 210.878437 
L 320.080125 210.878437 
L 310.864125 210.878437 
z
" style="fill:#17becf;"/>
   </g>
   <g id="patch_108">
    <path clip-path="url(#pe2faed038d)" d="M 52.816125 210.878437 
L 62.032125 210.878437 
L 62.032125 210.878437 
L 52.816125 210.878437 
z
" style="fill:#aec7e8;"/>
   </g>
   <g id="patch_109">
    <path clip-path="url(#pe2faed038d)" d="M 71.248125 210.878437 
L 80.464125 210.878437 
L 80.464125 210.878437 
L 71.248125 210.878437 
z
" style="fill:#aec7e8;"/>
   </g>
   <g id="patch_110">
    <path clip-path="url(#pe2faed038d)" d="M 89.680125 210.878437 
L 98.896125 210.878437 
L 98.896125 210.878437 
L 89.680125 210.878437 
z
" style="fill:#aec7e8;"/>
   </g>
   <g id="patch_111">
    <path clip-path="url(#pe2faed038d)" d="M 108.112125 210.878437 
L 117.328125 210.878437 
L 117.328125 210.878437 
L 108.112125 210.878437 
z
" style="fill:#aec7e8;"/>
   </g>
   <g id="patch_112">
    <path clip-path="url(#pe2faed038d)" d="M 126.544125 210.878437 
L 135.760125 210.878437 
L 135.760125 210.878437 
L 126.544125 210.878437 
z
" style="fill:#aec7e8;"/>
   </g>
   <g id="patch_113">
    <path clip-path="url(#pe2faed038d)" d="M 144.976125 210.878437 
L 154.192125 210.878437 
L 154.192125 210.878437 
L 144.976125 210.878437 
z
" style="fill:#aec7e8;"/>
   </g>
   <g id="patch_114">
    <path clip-path="url(#pe2faed038d)" d="M 163.408125 210.878437 
L 172.624125 210.878437 
L 172.624125 125.128062 
L 163.408125 125.128062 
z
" style="fill:#aec7e8;"/>
   </g>
   <g id="patch_115">
    <path clip-path="url(#pe2faed038d)" d="M 181.840125 210.878437 
L 191.056125 210.878437 
L 191.056125 210.878437 
L 181.840125 210.878437 
z
" style="fill:#aec7e8;"/>
   </g>
   <g id="patch_116">
    <path clip-path="url(#pe2faed038d)" d="M 200.272125 210.878437 
L 209.488125 210.878437 
L 209.488125 210.878437 
L 200.272125 210.878437 
z
" style="fill:#aec7e8;"/>
   </g>
   <g id="patch_117">
    <path clip-path="url(#pe2faed038d)" d="M 218.704125 210.878437 
L 227.920125 210.878437 
L 227.920125 210.878437 
L 218.704125 210.878437 
z
" style="fill:#aec7e8;"/>
   </g>
   <g id="patch_118">
    <path clip-path="url(#pe2faed038d)" d="M 237.136125 210.878437 
L 246.352125 210.878437 
L 246.352125 210.878437 
L 237.136125 210.878437 
z
" style="fill:#aec7e8;"/>
   </g>
   <g id="patch_119">
    <path clip-path="url(#pe2faed038d)" d="M 255.568125 210.878437 
L 264.784125 210.878437 
L 264.784125 210.878437 
L 255.568125 210.878437 
z
" style="fill:#aec7e8;"/>
   </g>
   <g id="patch_120">
    <path clip-path="url(#pe2faed038d)" d="M 274.000125 210.878437 
L 283.216125 210.878437 
L 283.216125 210.878437 
L 274.000125 210.878437 
z
" style="fill:#aec7e8;"/>
   </g>
   <g id="patch_121">
    <path clip-path="url(#pe2faed038d)" d="M 292.432125 210.878437 
L 301.648125 210.878437 
L 301.648125 210.878437 
L 292.432125 210.878437 
z
" style="fill:#aec7e8;"/>
   </g>
   <g id="patch_122">
    <path clip-path="url(#pe2faed038d)" d="M 310.864125 210.878437 
L 320.080125 210.878437 
L 320.080125 210.878437 
L 310.864125 210.878437 
z
" style="fill:#aec7e8;"/>
   </g>
   <g id="patch_123">
    <path clip-path="url(#pe2faed038d)" d="M 52.816125 210.878437 
L 62.032125 210.878437 
L 62.032125 210.878437 
L 52.816125 210.878437 
z
" style="fill:#d62728;"/>
   </g>
   <g id="patch_124">
    <path clip-path="url(#pe2faed038d)" d="M 71.248125 210.878437 
L 80.464125 210.878437 
L 80.464125 210.878437 
L 71.248125 210.878437 
z
" style="fill:#d62728;"/>
   </g>
   <g id="patch_125">
    <path clip-path="url(#pe2faed038d)" d="M 89.680125 210.878437 
L 98.896125 210.878437 
L 98.896125 210.878437 
L 89.680125 210.878437 
z
" style="fill:#d62728;"/>
   </g>
   <g id="patch_126">
    <path clip-path="url(#pe2faed038d)" d="M 108.112125 210.878437 
L 117.328125 210.878437 
L 117.328125 210.878437 
L 108.112125 210.878437 
z
" style="fill:#d62728;"/>
   </g>
   <g id="patch_127">
    <path clip-path="url(#pe2faed038d)" d="M 126.544125 210.878437 
L 135.760125 210.878437 
L 135.760125 210.878437 
L 126.544125 210.878437 
z
" style="fill:#d62728;"/>
   </g>
   <g id="patch_128">
    <path clip-path="url(#pe2faed038d)" d="M 144.976125 210.878437 
L 154.192125 210.878437 
L 154.192125 210.878437 
L 144.976125 210.878437 
z
" style="fill:#d62728;"/>
   </g>
   <g id="patch_129">
    <path clip-path="url(#pe2faed038d)" d="M 163.408125 210.878437 
L 172.624125 210.878437 
L 172.624125 210.878437 
L 163.408125 210.878437 
z
" style="fill:#d62728;"/>
   </g>
   <g id="patch_130">
    <path clip-path="url(#pe2faed038d)" d="M 181.840125 210.878437 
L 191.056125 210.878437 
L 191.056125 134.655881 
L 181.840125 134.655881 
z
" style="fill:#d62728;"/>
   </g>
   <g id="patch_131">
    <path clip-path="url(#pe2faed038d)" d="M 200.272125 210.878437 
L 209.488125 210.878437 
L 209.488125 210.878437 
L 200.272125 210.878437 
z
" style="fill:#d62728;"/>
   </g>
   <g id="patch_132">
    <path clip-path="url(#pe2faed038d)" d="M 218.704125 210.878437 
L 227.920125 210.878437 
L 227.920125 210.878437 
L 218.704125 210.878437 
z
" style="fill:#d62728;"/>
   </g>
   <g id="patch_133">
    <path clip-path="url(#pe2faed038d)" d="M 237.136125 210.878437 
L 246.352125 210.878437 
L 246.352125 210.878437 
L 237.136125 210.878437 
z
" style="fill:#d62728;"/>
   </g>
   <g id="patch_134">
    <path clip-path="url(#pe2faed038d)" d="M 255.568125 210.878437 
L 264.784125 210.878437 
L 264.784125 210.878437 
L 255.568125 210.878437 
z
" style="fill:#d62728;"/>
   </g>
   <g id="patch_135">
    <path clip-path="url(#pe2faed038d)" d="M 274.000125 210.878437 
L 283.216125 210.878437 
L 283.216125 210.878437 
L 274.000125 210.878437 
z
" style="fill:#d62728;"/>
   </g>
   <g id="patch_136">
    <path clip-path="url(#pe2faed038d)" d="M 292.432125 210.878437 
L 301.648125 210.878437 
L 301.648125 210.878437 
L 292.432125 210.878437 
z
" style="fill:#d62728;"/>
   </g>
   <g id="patch_137">
    <path clip-path="url(#pe2faed038d)" d="M 310.864125 210.878437 
L 320.080125 210.878437 
L 320.080125 210.878437 
L 310.864125 210.878437 
z
" style="fill:#d62728;"/>
   </g>
   <g id="patch_138">
    <path clip-path="url(#pe2faed038d)" d="M 52.816125 210.878437 
L 62.032125 210.878437 
L 62.032125 210.878437 
L 52.816125 210.878437 
z
" style="fill:#aa40fc;"/>
   </g>
   <g id="patch_139">
    <path clip-path="url(#pe2faed038d)" d="M 71.248125 210.878437 
L 80.464125 210.878437 
L 80.464125 210.878437 
L 71.248125 210.878437 
z
" style="fill:#aa40fc;"/>
   </g>
   <g id="patch_140">
    <path clip-path="url(#pe2faed038d)" d="M 89.680125 210.878437 
L 98.896125 210.878437 
L 98.896125 210.878437 
L 89.680125 210.878437 
z
" style="fill:#aa40fc;"/>
   </g>
   <g id="patch_141">
    <path clip-path="url(#pe2faed038d)" d="M 108.112125 210.878437 
L 117.328125 210.878437 
L 117.328125 210.878437 
L 108.112125 210.878437 
z
" style="fill:#aa40fc;"/>
   </g>
   <g id="patch_142">
    <path clip-path="url(#pe2faed038d)" d="M 126.544125 210.878437 
L 135.760125 210.878437 
L 135.760125 210.878437 
L 126.544125 210.878437 
z
" style="fill:#aa40fc;"/>
   </g>
   <g id="patch_143">
    <path clip-path="url(#pe2faed038d)" d="M 144.976125 210.878437 
L 154.192125 210.878437 
L 154.192125 210.878437 
L 144.976125 210.878437 
z
" style="fill:#aa40fc;"/>
   </g>
   <g id="patch_144">
    <path clip-path="url(#pe2faed038d)" d="M 163.408125 210.878437 
L 172.624125 210.878437 
L 172.624125 210.878437 
L 163.408125 210.878437 
z
" style="fill:#aa40fc;"/>
   </g>
   <g id="patch_145">
    <path clip-path="url(#pe2faed038d)" d="M 181.840125 210.878437 
L 191.056125 210.878437 
L 191.056125 210.878437 
L 181.840125 210.878437 
z
" style="fill:#aa40fc;"/>
   </g>
   <g id="patch_146">
    <path clip-path="url(#pe2faed038d)" d="M 200.272125 210.878437 
L 209.488125 210.878437 
L 209.488125 210.878437 
L 200.272125 210.878437 
z
" style="fill:#aa40fc;"/>
   </g>
   <g id="patch_147">
    <path clip-path="url(#pe2faed038d)" d="M 218.704125 210.878437 
L 227.920125 210.878437 
L 227.920125 210.878437 
L 218.704125 210.878437 
z
" style="fill:#aa40fc;"/>
   </g>
   <g id="patch_148">
    <path clip-path="url(#pe2faed038d)" d="M 237.136125 210.878437 
L 246.352125 210.878437 
L 246.352125 144.183701 
L 237.136125 144.183701 
z
" style="fill:#aa40fc;"/>
   </g>
   <g id="patch_149">
    <path clip-path="url(#pe2faed038d)" d="M 255.568125 210.878437 
L 264.784125 210.878437 
L 264.784125 210.878437 
L 255.568125 210.878437 
z
" style="fill:#aa40fc;"/>
   </g>
   <g id="patch_150">
    <path clip-path="url(#pe2faed038d)" d="M 274.000125 210.878437 
L 283.216125 210.878437 
L 283.216125 210.878437 
L 274.000125 210.878437 
z
" style="fill:#aa40fc;"/>
   </g>
   <g id="patch_151">
    <path clip-path="url(#pe2faed038d)" d="M 292.432125 210.878437 
L 301.648125 210.878437 
L 301.648125 210.878437 
L 292.432125 210.878437 
z
" style="fill:#aa40fc;"/>
   </g>
   <g id="patch_152">
    <path clip-path="url(#pe2faed038d)" d="M 310.864125 210.878437 
L 320.080125 210.878437 
L 320.080125 210.878437 
L 310.864125 210.878437 
z
" style="fill:#aa40fc;"/>
   </g>
   <g id="patch_153">
    <path clip-path="url(#pe2faed038d)" d="M 52.816125 210.878437 
L 62.032125 210.878437 
L 62.032125 210.878437 
L 52.816125 210.878437 
z
" style="fill:#98df8a;"/>
   </g>
   <g id="patch_154">
    <path clip-path="url(#pe2faed038d)" d="M 71.248125 210.878437 
L 80.464125 210.878437 
L 80.464125 210.878437 
L 71.248125 210.878437 
z
" style="fill:#98df8a;"/>
   </g>
   <g id="patch_155">
    <path clip-path="url(#pe2faed038d)" d="M 89.680125 210.878437 
L 98.896125 210.878437 
L 98.896125 210.878437 
L 89.680125 210.878437 
z
" style="fill:#98df8a;"/>
   </g>
   <g id="patch_156">
    <path clip-path="url(#pe2faed038d)" d="M 108.112125 210.878437 
L 117.328125 210.878437 
L 117.328125 87.016783 
L 108.112125 87.016783 
z
" style="fill:#98df8a;"/>
   </g>
   <g id="patch_157">
    <path clip-path="url(#pe2faed038d)" d="M 126.544125 210.878437 
L 135.760125 210.878437 
L 135.760125 210.878437 
L 126.544125 210.878437 
z
" style="fill:#98df8a;"/>
   </g>
   <g id="patch_158">
    <path clip-path="url(#pe2faed038d)" d="M 144.976125 210.878437 
L 154.192125 210.878437 
L 154.192125 210.878437 
L 144.976125 210.878437 
z
" style="fill:#98df8a;"/>
   </g>
   <g id="patch_159">
    <path clip-path="url(#pe2faed038d)" d="M 163.408125 210.878437 
L 172.624125 210.878437 
L 172.624125 210.878437 
L 163.408125 210.878437 
z
" style="fill:#98df8a;"/>
   </g>
   <g id="patch_160">
    <path clip-path="url(#pe2faed038d)" d="M 181.840125 210.878437 
L 191.056125 210.878437 
L 191.056125 210.878437 
L 181.840125 210.878437 
z
" style="fill:#98df8a;"/>
   </g>
   <g id="patch_161">
    <path clip-path="url(#pe2faed038d)" d="M 200.272125 210.878437 
L 209.488125 210.878437 
L 209.488125 210.878437 
L 200.272125 210.878437 
z
" style="fill:#98df8a;"/>
   </g>
   <g id="patch_162">
    <path clip-path="url(#pe2faed038d)" d="M 218.704125 210.878437 
L 227.920125 210.878437 
L 227.920125 210.878437 
L 218.704125 210.878437 
z
" style="fill:#98df8a;"/>
   </g>
   <g id="patch_163">
    <path clip-path="url(#pe2faed038d)" d="M 237.136125 210.878437 
L 246.352125 210.878437 
L 246.352125 210.878437 
L 237.136125 210.878437 
z
" style="fill:#98df8a;"/>
   </g>
   <g id="patch_164">
    <path clip-path="url(#pe2faed038d)" d="M 255.568125 210.878437 
L 264.784125 210.878437 
L 264.784125 210.878437 
L 255.568125 210.878437 
z
" style="fill:#98df8a;"/>
   </g>
   <g id="patch_165">
    <path clip-path="url(#pe2faed038d)" d="M 274.000125 172.767159 
L 283.216125 172.767159 
L 283.216125 144.183701 
L 274.000125 144.183701 
z
" style="fill:#98df8a;"/>
   </g>
   <g id="patch_166">
    <path clip-path="url(#pe2faed038d)" d="M 292.432125 210.878437 
L 301.648125 210.878437 
L 301.648125 210.878437 
L 292.432125 210.878437 
z
" style="fill:#98df8a;"/>
   </g>
   <g id="patch_167">
    <path clip-path="url(#pe2faed038d)" d="M 310.864125 210.878437 
L 320.080125 210.878437 
L 320.080125 210.878437 
L 310.864125 210.878437 
z
" style="fill:#98df8a;"/>
   </g>
   <g id="patch_168">
    <path clip-path="url(#pe2faed038d)" d="M 52.816125 210.878437 
L 62.032125 210.878437 
L 62.032125 210.878437 
L 52.816125 210.878437 
z
" style="fill:#1f77b4;"/>
   </g>
   <g id="patch_169">
    <path clip-path="url(#pe2faed038d)" d="M 71.248125 210.878437 
L 80.464125 210.878437 
L 80.464125 210.878437 
L 71.248125 210.878437 
z
" style="fill:#1f77b4;"/>
   </g>
   <g id="patch_170">
    <path clip-path="url(#pe2faed038d)" d="M 89.680125 210.878437 
L 98.896125 210.878437 
L 98.896125 210.878437 
L 89.680125 210.878437 
z
" style="fill:#1f77b4;"/>
   </g>
   <g id="patch_171">
    <path clip-path="url(#pe2faed038d)" d="M 108.112125 210.878437 
L 117.328125 210.878437 
L 117.328125 210.878437 
L 108.112125 210.878437 
z
" style="fill:#1f77b4;"/>
   </g>
   <g id="patch_172">
    <path clip-path="url(#pe2faed038d)" d="M 126.544125 210.878437 
L 135.760125 210.878437 
L 135.760125 210.878437 
L 126.544125 210.878437 
z
" style="fill:#1f77b4;"/>
   </g>
   <g id="patch_173">
    <path clip-path="url(#pe2faed038d)" d="M 144.976125 210.878437 
L 154.192125 210.878437 
L 154.192125 210.878437 
L 144.976125 210.878437 
z
" style="fill:#1f77b4;"/>
   </g>
   <g id="patch_174">
    <path clip-path="url(#pe2faed038d)" d="M 163.408125 210.878437 
L 172.624125 210.878437 
L 172.624125 210.878437 
L 163.408125 210.878437 
z
" style="fill:#1f77b4;"/>
   </g>
   <g id="patch_175">
    <path clip-path="url(#pe2faed038d)" d="M 181.840125 210.878437 
L 191.056125 210.878437 
L 191.056125 210.878437 
L 181.840125 210.878437 
z
" style="fill:#1f77b4;"/>
   </g>
   <g id="patch_176">
    <path clip-path="url(#pe2faed038d)" d="M 200.272125 210.878437 
L 209.488125 210.878437 
L 209.488125 210.878437 
L 200.272125 210.878437 
z
" style="fill:#1f77b4;"/>
   </g>
   <g id="patch_177">
    <path clip-path="url(#pe2faed038d)" d="M 218.704125 210.878437 
L 227.920125 210.878437 
L 227.920125 210.878437 
L 218.704125 210.878437 
z
" style="fill:#1f77b4;"/>
   </g>
   <g id="patch_178">
    <path clip-path="url(#pe2faed038d)" d="M 237.136125 210.878437 
L 246.352125 210.878437 
L 246.352125 210.878437 
L 237.136125 210.878437 
z
" style="fill:#1f77b4;"/>
   </g>
   <g id="patch_179">
    <path clip-path="url(#pe2faed038d)" d="M 255.568125 210.878437 
L 264.784125 210.878437 
L 264.784125 210.878437 
L 255.568125 210.878437 
z
" style="fill:#1f77b4;"/>
   </g>
   <g id="patch_180">
    <path clip-path="url(#pe2faed038d)" d="M 274.000125 210.878437 
L 283.216125 210.878437 
L 283.216125 210.878437 
L 274.000125 210.878437 
z
" style="fill:#1f77b4;"/>
   </g>
   <g id="patch_181">
    <path clip-path="url(#pe2faed038d)" d="M 292.432125 210.878437 
L 301.648125 210.878437 
L 301.648125 210.878437 
L 292.432125 210.878437 
z
" style="fill:#1f77b4;"/>
   </g>
   <g id="patch_182">
    <path clip-path="url(#pe2faed038d)" d="M 310.864125 210.878437 
L 320.080125 210.878437 
L 320.080125 210.878437 
L 310.864125 210.878437 
z
" style="fill:#1f77b4;"/>
   </g>
   <g id="patch_183">
    <path clip-path="url(#pe2faed038d)" d="M 52.816125 210.878437 
L 62.032125 210.878437 
L 62.032125 210.878437 
L 52.816125 210.878437 
z
" style="fill:#c5b0d5;"/>
   </g>
   <g id="patch_184">
    <path clip-path="url(#pe2faed038d)" d="M 71.248125 210.878437 
L 80.464125 210.878437 
L 80.464125 210.878437 
L 71.248125 210.878437 
z
" style="fill:#c5b0d5;"/>
   </g>
   <g id="patch_185">
    <path clip-path="url(#pe2faed038d)" d="M 89.680125 210.878437 
L 98.896125 210.878437 
L 98.896125 210.878437 
L 89.680125 210.878437 
z
" style="fill:#c5b0d5;"/>
   </g>
   <g id="patch_186">
    <path clip-path="url(#pe2faed038d)" d="M 108.112125 210.878437 
L 117.328125 210.878437 
L 117.328125 210.878437 
L 108.112125 210.878437 
z
" style="fill:#c5b0d5;"/>
   </g>
   <g id="patch_187">
    <path clip-path="url(#pe2faed038d)" d="M 126.544125 210.878437 
L 135.760125 210.878437 
L 135.760125 210.878437 
L 126.544125 210.878437 
z
" style="fill:#c5b0d5;"/>
   </g>
   <g id="patch_188">
    <path clip-path="url(#pe2faed038d)" d="M 144.976125 210.878437 
L 154.192125 210.878437 
L 154.192125 210.878437 
L 144.976125 210.878437 
z
" style="fill:#c5b0d5;"/>
   </g>
   <g id="patch_189">
    <path clip-path="url(#pe2faed038d)" d="M 163.408125 210.878437 
L 172.624125 210.878437 
L 172.624125 210.878437 
L 163.408125 210.878437 
z
" style="fill:#c5b0d5;"/>
   </g>
   <g id="patch_190">
    <path clip-path="url(#pe2faed038d)" d="M 181.840125 210.878437 
L 191.056125 210.878437 
L 191.056125 210.878437 
L 181.840125 210.878437 
z
" style="fill:#c5b0d5;"/>
   </g>
   <g id="patch_191">
    <path clip-path="url(#pe2faed038d)" d="M 200.272125 210.878437 
L 209.488125 210.878437 
L 209.488125 210.878437 
L 200.272125 210.878437 
z
" style="fill:#c5b0d5;"/>
   </g>
   <g id="patch_192">
    <path clip-path="url(#pe2faed038d)" d="M 218.704125 210.878437 
L 227.920125 210.878437 
L 227.920125 210.878437 
L 218.704125 210.878437 
z
" style="fill:#c5b0d5;"/>
   </g>
   <g id="patch_193">
    <path clip-path="url(#pe2faed038d)" d="M 237.136125 210.878437 
L 246.352125 210.878437 
L 246.352125 210.878437 
L 237.136125 210.878437 
z
" style="fill:#c5b0d5;"/>
   </g>
   <g id="patch_194">
    <path clip-path="url(#pe2faed038d)" d="M 255.568125 210.878437 
L 264.784125 210.878437 
L 264.784125 210.878437 
L 255.568125 210.878437 
z
" style="fill:#c5b0d5;"/>
   </g>
   <g id="patch_195">
    <path clip-path="url(#pe2faed038d)" d="M 274.000125 210.878437 
L 283.216125 210.878437 
L 283.216125 210.878437 
L 274.000125 210.878437 
z
" style="fill:#c5b0d5;"/>
   </g>
   <g id="patch_196">
    <path clip-path="url(#pe2faed038d)" d="M 292.432125 210.878437 
L 301.648125 210.878437 
L 301.648125 210.878437 
L 292.432125 210.878437 
z
" style="fill:#c5b0d5;"/>
   </g>
   <g id="patch_197">
    <path clip-path="url(#pe2faed038d)" d="M 310.864125 210.878437 
L 320.080125 210.878437 
L 320.080125 210.878437 
L 310.864125 210.878437 
z
" style="fill:#c5b0d5;"/>
   </g>
   <g id="patch_198">
    <path clip-path="url(#pe2faed038d)" d="M 52.816125 210.878437 
L 62.032125 210.878437 
L 62.032125 210.878437 
L 52.816125 210.878437 
z
" style="fill:#ff7f0e;"/>
   </g>
   <g id="patch_199">
    <path clip-path="url(#pe2faed038d)" d="M 71.248125 210.878437 
L 80.464125 210.878437 
L 80.464125 210.878437 
L 71.248125 210.878437 
z
" style="fill:#ff7f0e;"/>
   </g>
   <g id="patch_200">
    <path clip-path="url(#pe2faed038d)" d="M 89.680125 210.878437 
L 98.896125 210.878437 
L 98.896125 210.878437 
L 89.680125 210.878437 
z
" style="fill:#ff7f0e;"/>
   </g>
   <g id="patch_201">
    <path clip-path="url(#pe2faed038d)" d="M 108.112125 210.878437 
L 117.328125 210.878437 
L 117.328125 210.878437 
L 108.112125 210.878437 
z
" style="fill:#ff7f0e;"/>
   </g>
   <g id="patch_202">
    <path clip-path="url(#pe2faed038d)" d="M 126.544125 210.878437 
L 135.760125 210.878437 
L 135.760125 210.878437 
L 126.544125 210.878437 
z
" style="fill:#ff7f0e;"/>
   </g>
   <g id="patch_203">
    <path clip-path="url(#pe2faed038d)" d="M 144.976125 210.878437 
L 154.192125 210.878437 
L 154.192125 210.878437 
L 144.976125 210.878437 
z
" style="fill:#ff7f0e;"/>
   </g>
   <g id="patch_204">
    <path clip-path="url(#pe2faed038d)" d="M 163.408125 210.878437 
L 172.624125 210.878437 
L 172.624125 210.878437 
L 163.408125 210.878437 
z
" style="fill:#ff7f0e;"/>
   </g>
   <g id="patch_205">
    <path clip-path="url(#pe2faed038d)" d="M 181.840125 210.878437 
L 191.056125 210.878437 
L 191.056125 210.878437 
L 181.840125 210.878437 
z
" style="fill:#ff7f0e;"/>
   </g>
   <g id="patch_206">
    <path clip-path="url(#pe2faed038d)" d="M 200.272125 210.878437 
L 209.488125 210.878437 
L 209.488125 210.878437 
L 200.272125 210.878437 
z
" style="fill:#ff7f0e;"/>
   </g>
   <g id="patch_207">
    <path clip-path="url(#pe2faed038d)" d="M 218.704125 210.878437 
L 227.920125 210.878437 
L 227.920125 210.878437 
L 218.704125 210.878437 
z
" style="fill:#ff7f0e;"/>
   </g>
   <g id="patch_208">
    <path clip-path="url(#pe2faed038d)" d="M 237.136125 210.878437 
L 246.352125 210.878437 
L 246.352125 210.878437 
L 237.136125 210.878437 
z
" style="fill:#ff7f0e;"/>
   </g>
   <g id="patch_209">
    <path clip-path="url(#pe2faed038d)" d="M 255.568125 210.878437 
L 264.784125 210.878437 
L 264.784125 210.878437 
L 255.568125 210.878437 
z
" style="fill:#ff7f0e;"/>
   </g>
   <g id="patch_210">
    <path clip-path="url(#pe2faed038d)" d="M 274.000125 210.878437 
L 283.216125 210.878437 
L 283.216125 210.878437 
L 274.000125 210.878437 
z
" style="fill:#ff7f0e;"/>
   </g>
   <g id="patch_211">
    <path clip-path="url(#pe2faed038d)" d="M 292.432125 210.878437 
L 301.648125 210.878437 
L 301.648125 210.878437 
L 292.432125 210.878437 
z
" style="fill:#ff7f0e;"/>
   </g>
   <g id="patch_212">
    <path clip-path="url(#pe2faed038d)" d="M 310.864125 210.878437 
L 320.080125 210.878437 
L 320.080125 210.878437 
L 310.864125 210.878437 
z
" style="fill:#ff7f0e;"/>
   </g>
   <g id="matplotlib.axis_1">
    <g id="xtick_1">
     <g id="line2d_1"/>
     <g id="text_1">
      <!-- 163 -->
      <defs>
       <path d="M 12.40625 8.296875 
L 28.515625 8.296875 
L 28.515625 63.921875 
L 10.984375 60.40625 
L 10.984375 69.390625 
L 28.421875 72.90625 
L 38.28125 72.90625 
L 38.28125 8.296875 
L 54.390625 8.296875 
L 54.390625 0 
L 12.40625 0 
z
" id="DejaVuSans-49"/>
       <path d="M 33.015625 40.375 
Q 26.375 40.375 22.484375 35.828125 
Q 18.609375 31.296875 18.609375 23.390625 
Q 18.609375 15.53125 22.484375 10.953125 
Q 26.375 6.390625 33.015625 6.390625 
Q 39.65625 6.390625 43.53125 10.953125 
Q 47.40625 15.53125 47.40625 23.390625 
Q 47.40625 31.296875 43.53125 35.828125 
Q 39.65625 40.375 33.015625 40.375 
z
M 52.59375 71.296875 
L 52.59375 62.3125 
Q 48.875 64.0625 45.09375 64.984375 
Q 41.3125 65.921875 37.59375 65.921875 
Q 27.828125 65.921875 22.671875 59.328125 
Q 17.53125 52.734375 16.796875 39.40625 
Q 19.671875 43.65625 24.015625 45.921875 
Q 28.375 48.1875 33.59375 48.1875 
Q 44.578125 48.1875 50.953125 41.515625 
Q 57.328125 34.859375 57.328125 23.390625 
Q 57.328125 12.15625 50.6875 5.359375 
Q 44.046875 -1.421875 33.015625 -1.421875 
Q 20.359375 -1.421875 13.671875 8.265625 
Q 6.984375 17.96875 6.984375 36.375 
Q 6.984375 53.65625 15.1875 63.9375 
Q 23.390625 74.21875 37.203125 74.21875 
Q 40.921875 74.21875 44.703125 73.484375 
Q 48.484375 72.75 52.59375 71.296875 
z
" id="DejaVuSans-54"/>
       <path d="M 40.578125 39.3125 
Q 47.65625 37.796875 51.625 33 
Q 55.609375 28.21875 55.609375 21.1875 
Q 55.609375 10.40625 48.1875 4.484375 
Q 40.765625 -1.421875 27.09375 -1.421875 
Q 22.515625 -1.421875 17.65625 -0.515625 
Q 12.796875 0.390625 7.625 2.203125 
L 7.625 11.71875 
Q 11.71875 9.328125 16.59375 8.109375 
Q 21.484375 6.890625 26.8125 6.890625 
Q 36.078125 6.890625 40.9375 10.546875 
Q 45.796875 14.203125 45.796875 21.1875 
Q 45.796875 27.640625 41.28125 31.265625 
Q 36.765625 34.90625 28.71875 34.90625 
L 20.21875 34.90625 
L 20.21875 43.015625 
L 29.109375 43.015625 
Q 36.375 43.015625 40.234375 45.921875 
Q 44.09375 48.828125 44.09375 54.296875 
Q 44.09375 59.90625 40.109375 62.90625 
Q 36.140625 65.921875 28.71875 65.921875 
Q 24.65625 65.921875 20.015625 65.03125 
Q 15.375 64.15625 9.8125 62.3125 
L 9.8125 71.09375 
Q 15.4375 72.65625 20.34375 73.4375 
Q 25.25 74.21875 29.59375 74.21875 
Q 40.828125 74.21875 47.359375 69.109375 
Q 53.90625 64.015625 53.90625 55.328125 
Q 53.90625 49.265625 50.4375 45.09375 
Q 46.96875 40.921875 40.578125 39.3125 
z
" id="DejaVuSans-51"/>
      </defs>
      <g transform="translate(43.368042 227.277789)rotate(-30)scale(0.08 -0.08)">
       <use xlink:href="#DejaVuSans-49"/>
       <use x="63.623047" xlink:href="#DejaVuSans-54"/>
       <use x="127.246094" xlink:href="#DejaVuSans-51"/>
      </g>
     </g>
    </g>
    <g id="xtick_2">
     <g id="line2d_2"/>
     <g id="text_2">
      <!-- 106 -->
      <defs>
       <path d="M 31.78125 66.40625 
Q 24.171875 66.40625 20.328125 58.90625 
Q 16.5 51.421875 16.5 36.375 
Q 16.5 21.390625 20.328125 13.890625 
Q 24.171875 6.390625 31.78125 6.390625 
Q 39.453125 6.390625 43.28125 13.890625 
Q 47.125 21.390625 47.125 36.375 
Q 47.125 51.421875 43.28125 58.90625 
Q 39.453125 66.40625 31.78125 66.40625 
z
M 31.78125 74.21875 
Q 44.046875 74.21875 50.515625 64.515625 
Q 56.984375 54.828125 56.984375 36.375 
Q 56.984375 17.96875 50.515625 8.265625 
Q 44.046875 -1.421875 31.78125 -1.421875 
Q 19.53125 -1.421875 13.0625 8.265625 
Q 6.59375 17.96875 6.59375 36.375 
Q 6.59375 54.828125 13.0625 64.515625 
Q 19.53125 74.21875 31.78125 74.21875 
z
" id="DejaVuSans-48"/>
      </defs>
      <g transform="translate(61.800042 227.277789)rotate(-30)scale(0.08 -0.08)">
       <use xlink:href="#DejaVuSans-49"/>
       <use x="63.623047" xlink:href="#DejaVuSans-48"/>
       <use x="127.246094" xlink:href="#DejaVuSans-54"/>
      </g>
     </g>
    </g>
    <g id="xtick_3">
     <g id="line2d_3"/>
     <g id="text_3">
      <!-- 211 -->
      <defs>
       <path d="M 19.1875 8.296875 
L 53.609375 8.296875 
L 53.609375 0 
L 7.328125 0 
L 7.328125 8.296875 
Q 12.9375 14.109375 22.625 23.890625 
Q 32.328125 33.6875 34.8125 36.53125 
Q 39.546875 41.84375 41.421875 45.53125 
Q 43.3125 49.21875 43.3125 52.78125 
Q 43.3125 58.59375 39.234375 62.25 
Q 35.15625 65.921875 28.609375 65.921875 
Q 23.96875 65.921875 18.8125 64.3125 
Q 13.671875 62.703125 7.8125 59.421875 
L 7.8125 69.390625 
Q 13.765625 71.78125 18.9375 73 
Q 24.125 74.21875 28.421875 74.21875 
Q 39.75 74.21875 46.484375 68.546875 
Q 53.21875 62.890625 53.21875 53.421875 
Q 53.21875 48.921875 51.53125 44.890625 
Q 49.859375 40.875 45.40625 35.40625 
Q 44.1875 33.984375 37.640625 27.21875 
Q 31.109375 20.453125 19.1875 8.296875 
z
" id="DejaVuSans-50"/>
      </defs>
      <g transform="translate(80.232042 227.277789)rotate(-30)scale(0.08 -0.08)">
       <use xlink:href="#DejaVuSans-50"/>
       <use x="63.623047" xlink:href="#DejaVuSans-49"/>
       <use x="127.246094" xlink:href="#DejaVuSans-49"/>
      </g>
     </g>
    </g>
    <g id="xtick_4">
     <g id="line2d_4"/>
     <g id="text_4">
      <!-- 248 -->
      <defs>
       <path d="M 37.796875 64.3125 
L 12.890625 25.390625 
L 37.796875 25.390625 
z
M 35.203125 72.90625 
L 47.609375 72.90625 
L 47.609375 25.390625 
L 58.015625 25.390625 
L 58.015625 17.1875 
L 47.609375 17.1875 
L 47.609375 0 
L 37.796875 0 
L 37.796875 17.1875 
L 4.890625 17.1875 
L 4.890625 26.703125 
z
" id="DejaVuSans-52"/>
       <path d="M 31.78125 34.625 
Q 24.75 34.625 20.71875 30.859375 
Q 16.703125 27.09375 16.703125 20.515625 
Q 16.703125 13.921875 20.71875 10.15625 
Q 24.75 6.390625 31.78125 6.390625 
Q 38.8125 6.390625 42.859375 10.171875 
Q 46.921875 13.96875 46.921875 20.515625 
Q 46.921875 27.09375 42.890625 30.859375 
Q 38.875 34.625 31.78125 34.625 
z
M 21.921875 38.8125 
Q 15.578125 40.375 12.03125 44.71875 
Q 8.5 49.078125 8.5 55.328125 
Q 8.5 64.0625 14.71875 69.140625 
Q 20.953125 74.21875 31.78125 74.21875 
Q 42.671875 74.21875 48.875 69.140625 
Q 55.078125 64.0625 55.078125 55.328125 
Q 55.078125 49.078125 51.53125 44.71875 
Q 48 40.375 41.703125 38.8125 
Q 48.828125 37.15625 52.796875 32.3125 
Q 56.78125 27.484375 56.78125 20.515625 
Q 56.78125 9.90625 50.3125 4.234375 
Q 43.84375 -1.421875 31.78125 -1.421875 
Q 19.734375 -1.421875 13.25 4.234375 
Q 6.78125 9.90625 6.78125 20.515625 
Q 6.78125 27.484375 10.78125 32.3125 
Q 14.796875 37.15625 21.921875 38.8125 
z
M 18.3125 54.390625 
Q 18.3125 48.734375 21.84375 45.5625 
Q 25.390625 42.390625 31.78125 42.390625 
Q 38.140625 42.390625 41.71875 45.5625 
Q 45.3125 48.734375 45.3125 54.390625 
Q 45.3125 60.0625 41.71875 63.234375 
Q 38.140625 66.40625 31.78125 66.40625 
Q 25.390625 66.40625 21.84375 63.234375 
Q 18.3125 60.0625 18.3125 54.390625 
z
" id="DejaVuSans-56"/>
      </defs>
      <g transform="translate(98.664042 227.277789)rotate(-30)scale(0.08 -0.08)">
       <use xlink:href="#DejaVuSans-50"/>
       <use x="63.623047" xlink:href="#DejaVuSans-52"/>
       <use x="127.246094" xlink:href="#DejaVuSans-56"/>
      </g>
     </g>
    </g>
    <g id="xtick_5">
     <g id="line2d_5"/>
     <g id="text_5">
      <!-- 274 -->
      <defs>
       <path d="M 8.203125 72.90625 
L 55.078125 72.90625 
L 55.078125 68.703125 
L 28.609375 0 
L 18.3125 0 
L 43.21875 64.59375 
L 8.203125 64.59375 
z
" id="DejaVuSans-55"/>
      </defs>
      <g transform="translate(117.096042 227.277789)rotate(-30)scale(0.08 -0.08)">
       <use xlink:href="#DejaVuSans-50"/>
       <use x="63.623047" xlink:href="#DejaVuSans-55"/>
       <use x="127.246094" xlink:href="#DejaVuSans-52"/>
      </g>
     </g>
    </g>
    <g id="xtick_6">
     <g id="line2d_6"/>
     <g id="text_6">
      <!-- 277 -->
      <g transform="translate(135.528042 227.277789)rotate(-30)scale(0.08 -0.08)">
       <use xlink:href="#DejaVuSans-50"/>
       <use x="63.623047" xlink:href="#DejaVuSans-55"/>
       <use x="127.246094" xlink:href="#DejaVuSans-55"/>
      </g>
     </g>
    </g>
    <g id="xtick_7">
     <g id="line2d_7"/>
     <g id="text_7">
      <!-- 238 -->
      <g transform="translate(153.960042 227.277789)rotate(-30)scale(0.08 -0.08)">
       <use xlink:href="#DejaVuSans-50"/>
       <use x="63.623047" xlink:href="#DejaVuSans-51"/>
       <use x="127.246094" xlink:href="#DejaVuSans-56"/>
      </g>
     </g>
    </g>
    <g id="xtick_8">
     <g id="line2d_8"/>
     <g id="text_8">
      <!-- 262 -->
      <g transform="translate(172.392042 227.277789)rotate(-30)scale(0.08 -0.08)">
       <use xlink:href="#DejaVuSans-50"/>
       <use x="63.623047" xlink:href="#DejaVuSans-54"/>
       <use x="127.246094" xlink:href="#DejaVuSans-50"/>
      </g>
     </g>
    </g>
    <g id="xtick_9">
     <g id="line2d_9"/>
     <g id="text_9">
      <!-- 24 -->
      <g transform="translate(195.232111 224.732789)rotate(-30)scale(0.08 -0.08)">
       <use xlink:href="#DejaVuSans-50"/>
       <use x="63.623047" xlink:href="#DejaVuSans-52"/>
      </g>
     </g>
    </g>
    <g id="xtick_10">
     <g id="line2d_10"/>
     <g id="text_10">
      <!-- 39 -->
      <defs>
       <path d="M 10.984375 1.515625 
L 10.984375 10.5 
Q 14.703125 8.734375 18.5 7.8125 
Q 22.3125 6.890625 25.984375 6.890625 
Q 35.75 6.890625 40.890625 13.453125 
Q 46.046875 20.015625 46.78125 33.40625 
Q 43.953125 29.203125 39.59375 26.953125 
Q 35.25 24.703125 29.984375 24.703125 
Q 19.046875 24.703125 12.671875 31.3125 
Q 6.296875 37.9375 6.296875 49.421875 
Q 6.296875 60.640625 12.9375 67.421875 
Q 19.578125 74.21875 30.609375 74.21875 
Q 43.265625 74.21875 49.921875 64.515625 
Q 56.59375 54.828125 56.59375 36.375 
Q 56.59375 19.140625 48.40625 8.859375 
Q 40.234375 -1.421875 26.421875 -1.421875 
Q 22.703125 -1.421875 18.890625 -0.6875 
Q 15.09375 0.046875 10.984375 1.515625 
z
M 30.609375 32.421875 
Q 37.25 32.421875 41.125 36.953125 
Q 45.015625 41.5 45.015625 49.421875 
Q 45.015625 57.28125 41.125 61.84375 
Q 37.25 66.40625 30.609375 66.40625 
Q 23.96875 66.40625 20.09375 61.84375 
Q 16.21875 57.28125 16.21875 49.421875 
Q 16.21875 41.5 20.09375 36.953125 
Q 23.96875 32.421875 30.609375 32.421875 
z
" id="DejaVuSans-57"/>
      </defs>
      <g transform="translate(213.664111 224.732789)rotate(-30)scale(0.08 -0.08)">
       <use xlink:href="#DejaVuSans-51"/>
       <use x="63.623047" xlink:href="#DejaVuSans-57"/>
      </g>
     </g>
    </g>
    <g id="xtick_11">
     <g id="line2d_11"/>
     <g id="text_11">
      <!-- 264 -->
      <g transform="translate(227.688042 227.277789)rotate(-30)scale(0.08 -0.08)">
       <use xlink:href="#DejaVuSans-50"/>
       <use x="63.623047" xlink:href="#DejaVuSans-54"/>
       <use x="127.246094" xlink:href="#DejaVuSans-52"/>
      </g>
     </g>
    </g>
    <g id="xtick_12">
     <g id="line2d_12"/>
     <g id="text_12">
      <!-- 333 -->
      <g transform="translate(246.120042 227.277789)rotate(-30)scale(0.08 -0.08)">
       <use xlink:href="#DejaVuSans-51"/>
       <use x="63.623047" xlink:href="#DejaVuSans-51"/>
       <use x="127.246094" xlink:href="#DejaVuSans-51"/>
      </g>
     </g>
    </g>
    <g id="xtick_13">
     <g id="line2d_13"/>
     <g id="text_13">
      <!-- 1248 -->
      <g transform="translate(260.143973 229.822789)rotate(-30)scale(0.08 -0.08)">
       <use xlink:href="#DejaVuSans-49"/>
       <use x="63.623047" xlink:href="#DejaVuSans-50"/>
       <use x="127.246094" xlink:href="#DejaVuSans-52"/>
       <use x="190.869141" xlink:href="#DejaVuSans-56"/>
      </g>
     </g>
    </g>
    <g id="xtick_14">
     <g id="line2d_14"/>
     <g id="text_14">
      <!-- 530 -->
      <defs>
       <path d="M 10.796875 72.90625 
L 49.515625 72.90625 
L 49.515625 64.59375 
L 19.828125 64.59375 
L 19.828125 46.734375 
Q 21.96875 47.46875 24.109375 47.828125 
Q 26.265625 48.1875 28.421875 48.1875 
Q 40.625 48.1875 47.75 41.5 
Q 54.890625 34.8125 54.890625 23.390625 
Q 54.890625 11.625 47.5625 5.09375 
Q 40.234375 -1.421875 26.90625 -1.421875 
Q 22.3125 -1.421875 17.546875 -0.640625 
Q 12.796875 0.140625 7.71875 1.703125 
L 7.71875 11.625 
Q 12.109375 9.234375 16.796875 8.0625 
Q 21.484375 6.890625 26.703125 6.890625 
Q 35.15625 6.890625 40.078125 11.328125 
Q 45.015625 15.765625 45.015625 23.390625 
Q 45.015625 31 40.078125 35.4375 
Q 35.15625 39.890625 26.703125 39.890625 
Q 22.75 39.890625 18.8125 39.015625 
Q 14.890625 38.140625 10.796875 36.28125 
z
" id="DejaVuSans-53"/>
      </defs>
      <g transform="translate(282.984042 227.277789)rotate(-30)scale(0.08 -0.08)">
       <use xlink:href="#DejaVuSans-53"/>
       <use x="63.623047" xlink:href="#DejaVuSans-51"/>
       <use x="127.246094" xlink:href="#DejaVuSans-48"/>
      </g>
     </g>
    </g>
    <g id="xtick_15">
     <g id="line2d_15"/>
     <g id="text_15">
      <!-- 90 -->
      <g transform="translate(305.824111 224.732789)rotate(-30)scale(0.08 -0.08)">
       <use xlink:href="#DejaVuSans-57"/>
       <use x="63.623047" xlink:href="#DejaVuSans-48"/>
      </g>
     </g>
    </g>
    <g id="text_16">
     <!-- clonotype -->
     <defs>
      <path d="M 48.78125 52.59375 
L 48.78125 44.1875 
Q 44.96875 46.296875 41.140625 47.34375 
Q 37.3125 48.390625 33.40625 48.390625 
Q 24.65625 48.390625 19.8125 42.84375 
Q 14.984375 37.3125 14.984375 27.296875 
Q 14.984375 17.28125 19.8125 11.734375 
Q 24.65625 6.203125 33.40625 6.203125 
Q 37.3125 6.203125 41.140625 7.25 
Q 44.96875 8.296875 48.78125 10.40625 
L 48.78125 2.09375 
Q 45.015625 0.34375 40.984375 -0.53125 
Q 36.96875 -1.421875 32.421875 -1.421875 
Q 20.0625 -1.421875 12.78125 6.34375 
Q 5.515625 14.109375 5.515625 27.296875 
Q 5.515625 40.671875 12.859375 48.328125 
Q 20.21875 56 33.015625 56 
Q 37.15625 56 41.109375 55.140625 
Q 45.0625 54.296875 48.78125 52.59375 
z
" id="DejaVuSans-99"/>
      <path d="M 9.421875 75.984375 
L 18.40625 75.984375 
L 18.40625 0 
L 9.421875 0 
z
" id="DejaVuSans-108"/>
      <path d="M 30.609375 48.390625 
Q 23.390625 48.390625 19.1875 42.75 
Q 14.984375 37.109375 14.984375 27.296875 
Q 14.984375 17.484375 19.15625 11.84375 
Q 23.34375 6.203125 30.609375 6.203125 
Q 37.796875 6.203125 41.984375 11.859375 
Q 46.1875 17.53125 46.1875 27.296875 
Q 46.1875 37.015625 41.984375 42.703125 
Q 37.796875 48.390625 30.609375 48.390625 
z
M 30.609375 56 
Q 42.328125 56 49.015625 48.375 
Q 55.71875 40.765625 55.71875 27.296875 
Q 55.71875 13.875 49.015625 6.21875 
Q 42.328125 -1.421875 30.609375 -1.421875 
Q 18.84375 -1.421875 12.171875 6.21875 
Q 5.515625 13.875 5.515625 27.296875 
Q 5.515625 40.765625 12.171875 48.375 
Q 18.84375 56 30.609375 56 
z
" id="DejaVuSans-111"/>
      <path d="M 54.890625 33.015625 
L 54.890625 0 
L 45.90625 0 
L 45.90625 32.71875 
Q 45.90625 40.484375 42.875 44.328125 
Q 39.84375 48.1875 33.796875 48.1875 
Q 26.515625 48.1875 22.3125 43.546875 
Q 18.109375 38.921875 18.109375 30.90625 
L 18.109375 0 
L 9.078125 0 
L 9.078125 54.6875 
L 18.109375 54.6875 
L 18.109375 46.1875 
Q 21.34375 51.125 25.703125 53.5625 
Q 30.078125 56 35.796875 56 
Q 45.21875 56 50.046875 50.171875 
Q 54.890625 44.34375 54.890625 33.015625 
z
" id="DejaVuSans-110"/>
      <path d="M 18.3125 70.21875 
L 18.3125 54.6875 
L 36.8125 54.6875 
L 36.8125 47.703125 
L 18.3125 47.703125 
L 18.3125 18.015625 
Q 18.3125 11.328125 20.140625 9.421875 
Q 21.96875 7.515625 27.59375 7.515625 
L 36.8125 7.515625 
L 36.8125 0 
L 27.59375 0 
Q 17.1875 0 13.234375 3.875 
Q 9.28125 7.765625 9.28125 18.015625 
L 9.28125 47.703125 
L 2.6875 47.703125 
L 2.6875 54.6875 
L 9.28125 54.6875 
L 9.28125 70.21875 
z
" id="DejaVuSans-116"/>
      <path d="M 32.171875 -5.078125 
Q 28.375 -14.84375 24.75 -17.8125 
Q 21.140625 -20.796875 15.09375 -20.796875 
L 7.90625 -20.796875 
L 7.90625 -13.28125 
L 13.1875 -13.28125 
Q 16.890625 -13.28125 18.9375 -11.515625 
Q 21 -9.765625 23.484375 -3.21875 
L 25.09375 0.875 
L 2.984375 54.6875 
L 12.5 54.6875 
L 29.59375 11.921875 
L 46.6875 54.6875 
L 56.203125 54.6875 
z
" id="DejaVuSans-121"/>
      <path d="M 18.109375 8.203125 
L 18.109375 -20.796875 
L 9.078125 -20.796875 
L 9.078125 54.6875 
L 18.109375 54.6875 
L 18.109375 46.390625 
Q 20.953125 51.265625 25.265625 53.625 
Q 29.59375 56 35.59375 56 
Q 45.5625 56 51.78125 48.09375 
Q 58.015625 40.1875 58.015625 27.296875 
Q 58.015625 14.40625 51.78125 6.484375 
Q 45.5625 -1.421875 35.59375 -1.421875 
Q 29.59375 -1.421875 25.265625 0.953125 
Q 20.953125 3.328125 18.109375 8.203125 
z
M 48.6875 27.296875 
Q 48.6875 37.203125 44.609375 42.84375 
Q 40.53125 48.484375 33.40625 48.484375 
Q 26.265625 48.484375 22.1875 42.84375 
Q 18.109375 37.203125 18.109375 27.296875 
Q 18.109375 17.390625 22.1875 11.75 
Q 26.265625 6.109375 33.40625 6.109375 
Q 40.53125 6.109375 44.609375 11.75 
Q 48.6875 17.390625 48.6875 27.296875 
z
" id="DejaVuSans-112"/>
      <path d="M 56.203125 29.59375 
L 56.203125 25.203125 
L 14.890625 25.203125 
Q 15.484375 15.921875 20.484375 11.0625 
Q 25.484375 6.203125 34.421875 6.203125 
Q 39.59375 6.203125 44.453125 7.46875 
Q 49.3125 8.734375 54.109375 11.28125 
L 54.109375 2.78125 
Q 49.265625 0.734375 44.1875 -0.34375 
Q 39.109375 -1.421875 33.890625 -1.421875 
Q 20.796875 -1.421875 13.15625 6.1875 
Q 5.515625 13.8125 5.515625 26.8125 
Q 5.515625 40.234375 12.765625 48.109375 
Q 20.015625 56 32.328125 56 
Q 43.359375 56 49.78125 48.890625 
Q 56.203125 41.796875 56.203125 29.59375 
z
M 47.21875 32.234375 
Q 47.125 39.59375 43.09375 43.984375 
Q 39.0625 48.390625 32.421875 48.390625 
Q 24.90625 48.390625 20.390625 44.140625 
Q 15.875 39.890625 15.1875 32.171875 
z
" id="DejaVuSans-101"/>
     </defs>
     <g transform="translate(166.77125 241.342389)scale(0.08 -0.08)">
      <use xlink:href="#DejaVuSans-99"/>
      <use x="54.980469" xlink:href="#DejaVuSans-108"/>
      <use x="82.763672" xlink:href="#DejaVuSans-111"/>
      <use x="143.945312" xlink:href="#DejaVuSans-110"/>
      <use x="207.324219" xlink:href="#DejaVuSans-111"/>
      <use x="268.505859" xlink:href="#DejaVuSans-116"/>
      <use x="307.714844" xlink:href="#DejaVuSans-121"/>
      <use x="366.894531" xlink:href="#DejaVuSans-112"/>
      <use x="430.371094" xlink:href="#DejaVuSans-101"/>
     </g>
    </g>
   </g>
   <g id="matplotlib.axis_2">
    <g id="ytick_1">
     <g id="line2d_16">
      <defs>
       <path d="M 0 0 
L -3.5 0 
" id="m2d35d0a679" style="stroke:#000000;stroke-width:0.8;"/>
      </defs>
      <g>
       <use style="stroke:#000000;stroke-width:0.8;" x="48.208125" xlink:href="#m2d35d0a679" y="210.878437"/>
      </g>
     </g>
     <g id="text_17">
      <!-- 0.0 -->
      <defs>
       <path d="M 10.6875 12.40625 
L 21 12.40625 
L 21 0 
L 10.6875 0 
z
" id="DejaVuSans-46"/>
      </defs>
      <g transform="translate(25.305 214.677656)scale(0.1 -0.1)">
       <use xlink:href="#DejaVuSans-48"/>
       <use x="63.623047" xlink:href="#DejaVuSans-46"/>
       <use x="95.410156" xlink:href="#DejaVuSans-48"/>
      </g>
     </g>
    </g>
    <g id="ytick_2">
     <g id="line2d_17">
      <g>
       <use style="stroke:#000000;stroke-width:0.8;" x="48.208125" xlink:href="#m2d35d0a679" y="187.058889"/>
      </g>
     </g>
     <g id="text_18">
      <!-- 2.5 -->
      <g transform="translate(25.305 190.858107)scale(0.1 -0.1)">
       <use xlink:href="#DejaVuSans-50"/>
       <use x="63.623047" xlink:href="#DejaVuSans-46"/>
       <use x="95.410156" xlink:href="#DejaVuSans-53"/>
      </g>
     </g>
    </g>
    <g id="ytick_3">
     <g id="line2d_18">
      <g>
       <use style="stroke:#000000;stroke-width:0.8;" x="48.208125" xlink:href="#m2d35d0a679" y="163.23934"/>
      </g>
     </g>
     <g id="text_19">
      <!-- 5.0 -->
      <g transform="translate(25.305 167.038559)scale(0.1 -0.1)">
       <use xlink:href="#DejaVuSans-53"/>
       <use x="63.623047" xlink:href="#DejaVuSans-46"/>
       <use x="95.410156" xlink:href="#DejaVuSans-48"/>
      </g>
     </g>
    </g>
    <g id="ytick_4">
     <g id="line2d_19">
      <g>
       <use style="stroke:#000000;stroke-width:0.8;" x="48.208125" xlink:href="#m2d35d0a679" y="139.419791"/>
      </g>
     </g>
     <g id="text_20">
      <!-- 7.5 -->
      <g transform="translate(25.305 143.21901)scale(0.1 -0.1)">
       <use xlink:href="#DejaVuSans-55"/>
       <use x="63.623047" xlink:href="#DejaVuSans-46"/>
       <use x="95.410156" xlink:href="#DejaVuSans-53"/>
      </g>
     </g>
    </g>
    <g id="ytick_5">
     <g id="line2d_20">
      <g>
       <use style="stroke:#000000;stroke-width:0.8;" x="48.208125" xlink:href="#m2d35d0a679" y="115.600242"/>
      </g>
     </g>
     <g id="text_21">
      <!-- 10.0 -->
      <g transform="translate(18.9425 119.399461)scale(0.1 -0.1)">
       <use xlink:href="#DejaVuSans-49"/>
       <use x="63.623047" xlink:href="#DejaVuSans-48"/>
       <use x="127.246094" xlink:href="#DejaVuSans-46"/>
       <use x="159.033203" xlink:href="#DejaVuSans-48"/>
      </g>
     </g>
    </g>
    <g id="ytick_6">
     <g id="line2d_21">
      <g>
       <use style="stroke:#000000;stroke-width:0.8;" x="48.208125" xlink:href="#m2d35d0a679" y="91.780693"/>
      </g>
     </g>
     <g id="text_22">
      <!-- 12.5 -->
      <g transform="translate(18.9425 95.579912)scale(0.1 -0.1)">
       <use xlink:href="#DejaVuSans-49"/>
       <use x="63.623047" xlink:href="#DejaVuSans-50"/>
       <use x="127.246094" xlink:href="#DejaVuSans-46"/>
       <use x="159.033203" xlink:href="#DejaVuSans-53"/>
      </g>
     </g>
    </g>
    <g id="ytick_7">
     <g id="line2d_22">
      <g>
       <use style="stroke:#000000;stroke-width:0.8;" x="48.208125" xlink:href="#m2d35d0a679" y="67.961144"/>
      </g>
     </g>
     <g id="text_23">
      <!-- 15.0 -->
      <g transform="translate(18.9425 71.760363)scale(0.1 -0.1)">
       <use xlink:href="#DejaVuSans-49"/>
       <use x="63.623047" xlink:href="#DejaVuSans-53"/>
       <use x="127.246094" xlink:href="#DejaVuSans-46"/>
       <use x="159.033203" xlink:href="#DejaVuSans-48"/>
      </g>
     </g>
    </g>
    <g id="ytick_8">
     <g id="line2d_23">
      <g>
       <use style="stroke:#000000;stroke-width:0.8;" x="48.208125" xlink:href="#m2d35d0a679" y="44.141595"/>
      </g>
     </g>
     <g id="text_24">
      <!-- 17.5 -->
      <g transform="translate(18.9425 47.940814)scale(0.1 -0.1)">
       <use xlink:href="#DejaVuSans-49"/>
       <use x="63.623047" xlink:href="#DejaVuSans-55"/>
       <use x="127.246094" xlink:href="#DejaVuSans-46"/>
       <use x="159.033203" xlink:href="#DejaVuSans-53"/>
      </g>
     </g>
    </g>
    <g id="text_25">
     <!-- Number of cells -->
     <defs>
      <path d="M 9.8125 72.90625 
L 23.09375 72.90625 
L 55.421875 11.921875 
L 55.421875 72.90625 
L 64.984375 72.90625 
L 64.984375 0 
L 51.703125 0 
L 19.390625 60.984375 
L 19.390625 0 
L 9.8125 0 
z
" id="DejaVuSans-78"/>
      <path d="M 8.5 21.578125 
L 8.5 54.6875 
L 17.484375 54.6875 
L 17.484375 21.921875 
Q 17.484375 14.15625 20.5 10.265625 
Q 23.53125 6.390625 29.59375 6.390625 
Q 36.859375 6.390625 41.078125 11.03125 
Q 45.3125 15.671875 45.3125 23.6875 
L 45.3125 54.6875 
L 54.296875 54.6875 
L 54.296875 0 
L 45.3125 0 
L 45.3125 8.40625 
Q 42.046875 3.421875 37.71875 1 
Q 33.40625 -1.421875 27.6875 -1.421875 
Q 18.265625 -1.421875 13.375 4.4375 
Q 8.5 10.296875 8.5 21.578125 
z
M 31.109375 56 
z
" id="DejaVuSans-117"/>
      <path d="M 52 44.1875 
Q 55.375 50.25 60.0625 53.125 
Q 64.75 56 71.09375 56 
Q 79.640625 56 84.28125 50.015625 
Q 88.921875 44.046875 88.921875 33.015625 
L 88.921875 0 
L 79.890625 0 
L 79.890625 32.71875 
Q 79.890625 40.578125 77.09375 44.375 
Q 74.3125 48.1875 68.609375 48.1875 
Q 61.625 48.1875 57.5625 43.546875 
Q 53.515625 38.921875 53.515625 30.90625 
L 53.515625 0 
L 44.484375 0 
L 44.484375 32.71875 
Q 44.484375 40.625 41.703125 44.40625 
Q 38.921875 48.1875 33.109375 48.1875 
Q 26.21875 48.1875 22.15625 43.53125 
Q 18.109375 38.875 18.109375 30.90625 
L 18.109375 0 
L 9.078125 0 
L 9.078125 54.6875 
L 18.109375 54.6875 
L 18.109375 46.1875 
Q 21.1875 51.21875 25.484375 53.609375 
Q 29.78125 56 35.6875 56 
Q 41.65625 56 45.828125 52.96875 
Q 50 49.953125 52 44.1875 
z
" id="DejaVuSans-109"/>
      <path d="M 48.6875 27.296875 
Q 48.6875 37.203125 44.609375 42.84375 
Q 40.53125 48.484375 33.40625 48.484375 
Q 26.265625 48.484375 22.1875 42.84375 
Q 18.109375 37.203125 18.109375 27.296875 
Q 18.109375 17.390625 22.1875 11.75 
Q 26.265625 6.109375 33.40625 6.109375 
Q 40.53125 6.109375 44.609375 11.75 
Q 48.6875 17.390625 48.6875 27.296875 
z
M 18.109375 46.390625 
Q 20.953125 51.265625 25.265625 53.625 
Q 29.59375 56 35.59375 56 
Q 45.5625 56 51.78125 48.09375 
Q 58.015625 40.1875 58.015625 27.296875 
Q 58.015625 14.40625 51.78125 6.484375 
Q 45.5625 -1.421875 35.59375 -1.421875 
Q 29.59375 -1.421875 25.265625 0.953125 
Q 20.953125 3.328125 18.109375 8.203125 
L 18.109375 0 
L 9.078125 0 
L 9.078125 75.984375 
L 18.109375 75.984375 
z
" id="DejaVuSans-98"/>
      <path d="M 41.109375 46.296875 
Q 39.59375 47.171875 37.8125 47.578125 
Q 36.03125 48 33.890625 48 
Q 26.265625 48 22.1875 43.046875 
Q 18.109375 38.09375 18.109375 28.8125 
L 18.109375 0 
L 9.078125 0 
L 9.078125 54.6875 
L 18.109375 54.6875 
L 18.109375 46.1875 
Q 20.953125 51.171875 25.484375 53.578125 
Q 30.03125 56 36.53125 56 
Q 37.453125 56 38.578125 55.875 
Q 39.703125 55.765625 41.0625 55.515625 
z
" id="DejaVuSans-114"/>
      <path id="DejaVuSans-32"/>
      <path d="M 37.109375 75.984375 
L 37.109375 68.5 
L 28.515625 68.5 
Q 23.6875 68.5 21.796875 66.546875 
Q 19.921875 64.59375 19.921875 59.515625 
L 19.921875 54.6875 
L 34.71875 54.6875 
L 34.71875 47.703125 
L 19.921875 47.703125 
L 19.921875 0 
L 10.890625 0 
L 10.890625 47.703125 
L 2.296875 47.703125 
L 2.296875 54.6875 
L 10.890625 54.6875 
L 10.890625 58.5 
Q 10.890625 67.625 15.140625 71.796875 
Q 19.390625 75.984375 28.609375 75.984375 
z
" id="DejaVuSans-102"/>
      <path d="M 44.28125 53.078125 
L 44.28125 44.578125 
Q 40.484375 46.53125 36.375 47.5 
Q 32.28125 48.484375 27.875 48.484375 
Q 21.1875 48.484375 17.84375 46.4375 
Q 14.5 44.390625 14.5 40.28125 
Q 14.5 37.15625 16.890625 35.375 
Q 19.28125 33.59375 26.515625 31.984375 
L 29.59375 31.296875 
Q 39.15625 29.25 43.1875 25.515625 
Q 47.21875 21.78125 47.21875 15.09375 
Q 47.21875 7.46875 41.1875 3.015625 
Q 35.15625 -1.421875 24.609375 -1.421875 
Q 20.21875 -1.421875 15.453125 -0.5625 
Q 10.6875 0.296875 5.421875 2 
L 5.421875 11.28125 
Q 10.40625 8.6875 15.234375 7.390625 
Q 20.0625 6.109375 24.8125 6.109375 
Q 31.15625 6.109375 34.5625 8.28125 
Q 37.984375 10.453125 37.984375 14.40625 
Q 37.984375 18.0625 35.515625 20.015625 
Q 33.0625 21.96875 24.703125 23.78125 
L 21.578125 24.515625 
Q 13.234375 26.265625 9.515625 29.90625 
Q 5.8125 33.546875 5.8125 39.890625 
Q 5.8125 47.609375 11.28125 51.796875 
Q 16.75 56 26.8125 56 
Q 31.78125 56 36.171875 55.265625 
Q 40.578125 54.546875 44.28125 53.078125 
z
" id="DejaVuSans-115"/>
     </defs>
     <g transform="translate(13.27875 147.272187)rotate(-90)scale(0.08 -0.08)">
      <use xlink:href="#DejaVuSans-78"/>
      <use x="74.804688" xlink:href="#DejaVuSans-117"/>
      <use x="138.183594" xlink:href="#DejaVuSans-109"/>
      <use x="235.595703" xlink:href="#DejaVuSans-98"/>
      <use x="299.072266" xlink:href="#DejaVuSans-101"/>
      <use x="360.595703" xlink:href="#DejaVuSans-114"/>
      <use x="401.708984" xlink:href="#DejaVuSans-32"/>
      <use x="433.496094" xlink:href="#DejaVuSans-111"/>
      <use x="494.677734" xlink:href="#DejaVuSans-102"/>
      <use x="529.882812" xlink:href="#DejaVuSans-32"/>
      <use x="561.669922" xlink:href="#DejaVuSans-99"/>
      <use x="616.650391" xlink:href="#DejaVuSans-101"/>
      <use x="678.173828" xlink:href="#DejaVuSans-108"/>
      <use x="705.957031" xlink:href="#DejaVuSans-108"/>
      <use x="733.740234" xlink:href="#DejaVuSans-115"/>
     </g>
    </g>
   </g>
   <g id="patch_213">
    <path d="M 48.208125 210.878437 
L 48.208125 20.798437 
" style="fill:none;stroke:#000000;stroke-linecap:square;stroke-linejoin:miter;stroke-width:0.8;"/>
   </g>
   <g id="patch_214">
    <path d="M 48.208125 210.878437 
L 324.688125 210.878437 
" style="fill:none;stroke:#000000;stroke-linecap:square;stroke-linejoin:miter;stroke-width:0.8;"/>
   </g>
   <g id="text_26">
    <!-- Number of cells in clonotype by patient -->
    <defs>
     <path d="M 9.421875 54.6875 
L 18.40625 54.6875 
L 18.40625 0 
L 9.421875 0 
z
M 9.421875 75.984375 
L 18.40625 75.984375 
L 18.40625 64.59375 
L 9.421875 64.59375 
z
" id="DejaVuSans-105"/>
     <path d="M 34.28125 27.484375 
Q 23.390625 27.484375 19.1875 25 
Q 14.984375 22.515625 14.984375 16.5 
Q 14.984375 11.71875 18.140625 8.90625 
Q 21.296875 6.109375 26.703125 6.109375 
Q 34.1875 6.109375 38.703125 11.40625 
Q 43.21875 16.703125 43.21875 25.484375 
L 43.21875 27.484375 
z
M 52.203125 31.203125 
L 52.203125 0 
L 43.21875 0 
L 43.21875 8.296875 
Q 40.140625 3.328125 35.546875 0.953125 
Q 30.953125 -1.421875 24.3125 -1.421875 
Q 15.921875 -1.421875 10.953125 3.296875 
Q 6 8.015625 6 15.921875 
Q 6 25.140625 12.171875 29.828125 
Q 18.359375 34.515625 30.609375 34.515625 
L 43.21875 34.515625 
L 43.21875 35.40625 
Q 43.21875 41.609375 39.140625 45 
Q 35.0625 48.390625 27.6875 48.390625 
Q 23 48.390625 18.546875 47.265625 
Q 14.109375 46.140625 10.015625 43.890625 
L 10.015625 52.203125 
Q 14.9375 54.109375 19.578125 55.046875 
Q 24.21875 56 28.609375 56 
Q 40.484375 56 46.34375 49.84375 
Q 52.203125 43.703125 52.203125 31.203125 
z
" id="DejaVuSans-97"/>
    </defs>
    <g transform="translate(87.719219 14.798437)scale(0.1 -0.1)">
     <use xlink:href="#DejaVuSans-78"/>
     <use x="74.804688" xlink:href="#DejaVuSans-117"/>
     <use x="138.183594" xlink:href="#DejaVuSans-109"/>
     <use x="235.595703" xlink:href="#DejaVuSans-98"/>
     <use x="299.072266" xlink:href="#DejaVuSans-101"/>
     <use x="360.595703" xlink:href="#DejaVuSans-114"/>
     <use x="401.708984" xlink:href="#DejaVuSans-32"/>
     <use x="433.496094" xlink:href="#DejaVuSans-111"/>
     <use x="494.677734" xlink:href="#DejaVuSans-102"/>
     <use x="529.882812" xlink:href="#DejaVuSans-32"/>
     <use x="561.669922" xlink:href="#DejaVuSans-99"/>
     <use x="616.650391" xlink:href="#DejaVuSans-101"/>
     <use x="678.173828" xlink:href="#DejaVuSans-108"/>
     <use x="705.957031" xlink:href="#DejaVuSans-108"/>
     <use x="733.740234" xlink:href="#DejaVuSans-115"/>
     <use x="785.839844" xlink:href="#DejaVuSans-32"/>
     <use x="817.626953" xlink:href="#DejaVuSans-105"/>
     <use x="845.410156" xlink:href="#DejaVuSans-110"/>
     <use x="908.789062" xlink:href="#DejaVuSans-32"/>
     <use x="940.576172" xlink:href="#DejaVuSans-99"/>
     <use x="995.556641" xlink:href="#DejaVuSans-108"/>
     <use x="1023.339844" xlink:href="#DejaVuSans-111"/>
     <use x="1084.521484" xlink:href="#DejaVuSans-110"/>
     <use x="1147.900391" xlink:href="#DejaVuSans-111"/>
     <use x="1209.082031" xlink:href="#DejaVuSans-116"/>
     <use x="1248.291016" xlink:href="#DejaVuSans-121"/>
     <use x="1307.470703" xlink:href="#DejaVuSans-112"/>
     <use x="1370.947266" xlink:href="#DejaVuSans-101"/>
     <use x="1432.470703" xlink:href="#DejaVuSans-32"/>
     <use x="1464.257812" xlink:href="#DejaVuSans-98"/>
     <use x="1527.734375" xlink:href="#DejaVuSans-121"/>
     <use x="1586.914062" xlink:href="#DejaVuSans-32"/>
     <use x="1618.701172" xlink:href="#DejaVuSans-112"/>
     <use x="1682.177734" xlink:href="#DejaVuSans-97"/>
     <use x="1743.457031" xlink:href="#DejaVuSans-116"/>
     <use x="1782.666016" xlink:href="#DejaVuSans-105"/>
     <use x="1810.449219" xlink:href="#DejaVuSans-101"/>
     <use x="1871.972656" xlink:href="#DejaVuSans-110"/>
     <use x="1935.351562" xlink:href="#DejaVuSans-116"/>
    </g>
   </g>
   <g id="legend_1">
    <g id="patch_215">
     <path d="M 387.184125 34.077188 
L 403.184125 34.077188 
L 403.184125 28.477188 
L 387.184125 28.477188 
z
" style="fill:#e377c2;"/>
    </g>
    <g id="text_27">
     <!-- Lung2 -->
     <defs>
      <path d="M 9.8125 72.90625 
L 19.671875 72.90625 
L 19.671875 8.296875 
L 55.171875 8.296875 
L 55.171875 0 
L 9.8125 0 
z
" id="DejaVuSans-76"/>
      <path d="M 45.40625 27.984375 
Q 45.40625 37.75 41.375 43.109375 
Q 37.359375 48.484375 30.078125 48.484375 
Q 22.859375 48.484375 18.828125 43.109375 
Q 14.796875 37.75 14.796875 27.984375 
Q 14.796875 18.265625 18.828125 12.890625 
Q 22.859375 7.515625 30.078125 7.515625 
Q 37.359375 7.515625 41.375 12.890625 
Q 45.40625 18.265625 45.40625 27.984375 
z
M 54.390625 6.78125 
Q 54.390625 -7.171875 48.1875 -13.984375 
Q 42 -20.796875 29.203125 -20.796875 
Q 24.46875 -20.796875 20.265625 -20.09375 
Q 16.0625 -19.390625 12.109375 -17.921875 
L 12.109375 -9.1875 
Q 16.0625 -11.328125 19.921875 -12.34375 
Q 23.78125 -13.375 27.78125 -13.375 
Q 36.625 -13.375 41.015625 -8.765625 
Q 45.40625 -4.15625 45.40625 5.171875 
L 45.40625 9.625 
Q 42.625 4.78125 38.28125 2.390625 
Q 33.9375 0 27.875 0 
Q 17.828125 0 11.671875 7.65625 
Q 5.515625 15.328125 5.515625 27.984375 
Q 5.515625 40.671875 11.671875 48.328125 
Q 17.828125 56 27.875 56 
Q 33.9375 56 38.28125 53.609375 
Q 42.625 51.21875 45.40625 46.390625 
L 45.40625 54.6875 
L 54.390625 54.6875 
z
" id="DejaVuSans-103"/>
     </defs>
     <g transform="translate(409.584125 34.077188)scale(0.08 -0.08)">
      <use xlink:href="#DejaVuSans-76"/>
      <use x="53.962891" xlink:href="#DejaVuSans-117"/>
      <use x="117.341797" xlink:href="#DejaVuSans-110"/>
      <use x="180.720703" xlink:href="#DejaVuSans-103"/>
      <use x="244.197266" xlink:href="#DejaVuSans-50"/>
     </g>
    </g>
    <g id="patch_216">
     <path d="M 387.184125 45.819687 
L 403.184125 45.819687 
L 403.184125 40.219687 
L 387.184125 40.219687 
z
" style="fill:#b5bd61;"/>
    </g>
    <g id="text_28">
     <!-- Lung3 -->
     <g transform="translate(409.584125 45.819687)scale(0.08 -0.08)">
      <use xlink:href="#DejaVuSans-76"/>
      <use x="53.962891" xlink:href="#DejaVuSans-117"/>
      <use x="117.341797" xlink:href="#DejaVuSans-110"/>
      <use x="180.720703" xlink:href="#DejaVuSans-103"/>
      <use x="244.197266" xlink:href="#DejaVuSans-51"/>
     </g>
    </g>
    <g id="patch_217">
     <path d="M 387.184125 57.562187 
L 403.184125 57.562187 
L 403.184125 51.962187 
L 387.184125 51.962187 
z
" style="fill:#ffbb78;"/>
    </g>
    <g id="text_29">
     <!-- Lung6 -->
     <g transform="translate(409.584125 57.562187)scale(0.08 -0.08)">
      <use xlink:href="#DejaVuSans-76"/>
      <use x="53.962891" xlink:href="#DejaVuSans-117"/>
      <use x="117.341797" xlink:href="#DejaVuSans-110"/>
      <use x="180.720703" xlink:href="#DejaVuSans-103"/>
      <use x="244.197266" xlink:href="#DejaVuSans-54"/>
     </g>
    </g>
    <g id="patch_218">
     <path d="M 387.184125 69.304688 
L 403.184125 69.304688 
L 403.184125 63.704687 
L 387.184125 63.704687 
z
" style="fill:#8c564b;"/>
    </g>
    <g id="text_30">
     <!-- Lung1 -->
     <g transform="translate(409.584125 69.304688)scale(0.08 -0.08)">
      <use xlink:href="#DejaVuSans-76"/>
      <use x="53.962891" xlink:href="#DejaVuSans-117"/>
      <use x="117.341797" xlink:href="#DejaVuSans-110"/>
      <use x="180.720703" xlink:href="#DejaVuSans-103"/>
      <use x="244.197266" xlink:href="#DejaVuSans-49"/>
     </g>
    </g>
    <g id="patch_219">
     <path d="M 387.184125 81.047188 
L 403.184125 81.047188 
L 403.184125 75.447188 
L 387.184125 75.447188 
z
" style="fill:#279e68;"/>
    </g>
    <g id="text_31">
     <!-- Endo1 -->
     <defs>
      <path d="M 9.8125 72.90625 
L 55.90625 72.90625 
L 55.90625 64.59375 
L 19.671875 64.59375 
L 19.671875 43.015625 
L 54.390625 43.015625 
L 54.390625 34.71875 
L 19.671875 34.71875 
L 19.671875 8.296875 
L 56.78125 8.296875 
L 56.78125 0 
L 9.8125 0 
z
" id="DejaVuSans-69"/>
      <path d="M 45.40625 46.390625 
L 45.40625 75.984375 
L 54.390625 75.984375 
L 54.390625 0 
L 45.40625 0 
L 45.40625 8.203125 
Q 42.578125 3.328125 38.25 0.953125 
Q 33.9375 -1.421875 27.875 -1.421875 
Q 17.96875 -1.421875 11.734375 6.484375 
Q 5.515625 14.40625 5.515625 27.296875 
Q 5.515625 40.1875 11.734375 48.09375 
Q 17.96875 56 27.875 56 
Q 33.9375 56 38.25 53.625 
Q 42.578125 51.265625 45.40625 46.390625 
z
M 14.796875 27.296875 
Q 14.796875 17.390625 18.875 11.75 
Q 22.953125 6.109375 30.078125 6.109375 
Q 37.203125 6.109375 41.296875 11.75 
Q 45.40625 17.390625 45.40625 27.296875 
Q 45.40625 37.203125 41.296875 42.84375 
Q 37.203125 48.484375 30.078125 48.484375 
Q 22.953125 48.484375 18.875 42.84375 
Q 14.796875 37.203125 14.796875 27.296875 
z
" id="DejaVuSans-100"/>
     </defs>
     <g transform="translate(409.584125 81.047188)scale(0.08 -0.08)">
      <use xlink:href="#DejaVuSans-69"/>
      <use x="63.183594" xlink:href="#DejaVuSans-110"/>
      <use x="126.5625" xlink:href="#DejaVuSans-100"/>
      <use x="190.039062" xlink:href="#DejaVuSans-111"/>
      <use x="251.220703" xlink:href="#DejaVuSans-49"/>
     </g>
    </g>
    <g id="patch_220">
     <path d="M 387.184125 92.789688 
L 403.184125 92.789688 
L 403.184125 87.189688 
L 387.184125 87.189688 
z
" style="fill:#ff9896;"/>
    </g>
    <g id="text_32">
     <!-- Renal2 -->
     <defs>
      <path d="M 44.390625 34.1875 
Q 47.5625 33.109375 50.5625 29.59375 
Q 53.5625 26.078125 56.59375 19.921875 
L 66.609375 0 
L 56 0 
L 46.6875 18.703125 
Q 43.0625 26.03125 39.671875 28.421875 
Q 36.28125 30.8125 30.421875 30.8125 
L 19.671875 30.8125 
L 19.671875 0 
L 9.8125 0 
L 9.8125 72.90625 
L 32.078125 72.90625 
Q 44.578125 72.90625 50.734375 67.671875 
Q 56.890625 62.453125 56.890625 51.90625 
Q 56.890625 45.015625 53.6875 40.46875 
Q 50.484375 35.9375 44.390625 34.1875 
z
M 19.671875 64.796875 
L 19.671875 38.921875 
L 32.078125 38.921875 
Q 39.203125 38.921875 42.84375 42.21875 
Q 46.484375 45.515625 46.484375 51.90625 
Q 46.484375 58.296875 42.84375 61.546875 
Q 39.203125 64.796875 32.078125 64.796875 
z
" id="DejaVuSans-82"/>
     </defs>
     <g transform="translate(409.584125 92.789688)scale(0.08 -0.08)">
      <use xlink:href="#DejaVuSans-82"/>
      <use x="64.982422" xlink:href="#DejaVuSans-101"/>
      <use x="126.505859" xlink:href="#DejaVuSans-110"/>
      <use x="189.884766" xlink:href="#DejaVuSans-97"/>
      <use x="251.164062" xlink:href="#DejaVuSans-108"/>
      <use x="278.947266" xlink:href="#DejaVuSans-50"/>
     </g>
    </g>
    <g id="patch_221">
     <path d="M 387.184125 104.532187 
L 403.184125 104.532187 
L 403.184125 98.932187 
L 387.184125 98.932187 
z
" style="fill:#17becf;"/>
    </g>
    <g id="text_33">
     <!-- Lung4 -->
     <g transform="translate(409.584125 104.532187)scale(0.08 -0.08)">
      <use xlink:href="#DejaVuSans-76"/>
      <use x="53.962891" xlink:href="#DejaVuSans-117"/>
      <use x="117.341797" xlink:href="#DejaVuSans-110"/>
      <use x="180.720703" xlink:href="#DejaVuSans-103"/>
      <use x="244.197266" xlink:href="#DejaVuSans-52"/>
     </g>
    </g>
    <g id="patch_222">
     <path d="M 387.184125 116.274687 
L 403.184125 116.274687 
L 403.184125 110.674687 
L 387.184125 110.674687 
z
" style="fill:#aec7e8;"/>
    </g>
    <g id="text_34">
     <!-- Lung5 -->
     <g transform="translate(409.584125 116.274687)scale(0.08 -0.08)">
      <use xlink:href="#DejaVuSans-76"/>
      <use x="53.962891" xlink:href="#DejaVuSans-117"/>
      <use x="117.341797" xlink:href="#DejaVuSans-110"/>
      <use x="180.720703" xlink:href="#DejaVuSans-103"/>
      <use x="244.197266" xlink:href="#DejaVuSans-53"/>
     </g>
    </g>
    <g id="patch_223">
     <path d="M 387.184125 128.017187 
L 403.184125 128.017187 
L 403.184125 122.417187 
L 387.184125 122.417187 
z
" style="fill:#d62728;"/>
    </g>
    <g id="text_35">
     <!-- Endo2 -->
     <g transform="translate(409.584125 128.017187)scale(0.08 -0.08)">
      <use xlink:href="#DejaVuSans-69"/>
      <use x="63.183594" xlink:href="#DejaVuSans-110"/>
      <use x="126.5625" xlink:href="#DejaVuSans-100"/>
      <use x="190.039062" xlink:href="#DejaVuSans-111"/>
      <use x="251.220703" xlink:href="#DejaVuSans-50"/>
     </g>
    </g>
    <g id="patch_224">
     <path d="M 387.184125 139.759687 
L 403.184125 139.759687 
L 403.184125 134.159687 
L 387.184125 134.159687 
z
" style="fill:#aa40fc;"/>
    </g>
    <g id="text_36">
     <!-- Endo3 -->
     <g transform="translate(409.584125 139.759687)scale(0.08 -0.08)">
      <use xlink:href="#DejaVuSans-69"/>
      <use x="63.183594" xlink:href="#DejaVuSans-110"/>
      <use x="126.5625" xlink:href="#DejaVuSans-100"/>
      <use x="190.039062" xlink:href="#DejaVuSans-111"/>
      <use x="251.220703" xlink:href="#DejaVuSans-51"/>
     </g>
    </g>
    <g id="patch_225">
     <path d="M 387.184125 151.502187 
L 403.184125 151.502187 
L 403.184125 145.902187 
L 387.184125 145.902187 
z
" style="fill:#98df8a;"/>
    </g>
    <g id="text_37">
     <!-- Renal1 -->
     <g transform="translate(409.584125 151.502187)scale(0.08 -0.08)">
      <use xlink:href="#DejaVuSans-82"/>
      <use x="64.982422" xlink:href="#DejaVuSans-101"/>
      <use x="126.505859" xlink:href="#DejaVuSans-110"/>
      <use x="189.884766" xlink:href="#DejaVuSans-97"/>
      <use x="251.164062" xlink:href="#DejaVuSans-108"/>
      <use x="278.947266" xlink:href="#DejaVuSans-49"/>
     </g>
    </g>
    <g id="patch_226">
     <path d="M 387.184125 163.244688 
L 403.184125 163.244688 
L 403.184125 157.644688 
L 387.184125 157.644688 
z
" style="fill:#1f77b4;"/>
    </g>
    <g id="text_38">
     <!-- Colon1 -->
     <defs>
      <path d="M 64.40625 67.28125 
L 64.40625 56.890625 
Q 59.421875 61.53125 53.78125 63.8125 
Q 48.140625 66.109375 41.796875 66.109375 
Q 29.296875 66.109375 22.65625 58.46875 
Q 16.015625 50.828125 16.015625 36.375 
Q 16.015625 21.96875 22.65625 14.328125 
Q 29.296875 6.6875 41.796875 6.6875 
Q 48.140625 6.6875 53.78125 8.984375 
Q 59.421875 11.28125 64.40625 15.921875 
L 64.40625 5.609375 
Q 59.234375 2.09375 53.4375 0.328125 
Q 47.65625 -1.421875 41.21875 -1.421875 
Q 24.65625 -1.421875 15.125 8.703125 
Q 5.609375 18.84375 5.609375 36.375 
Q 5.609375 53.953125 15.125 64.078125 
Q 24.65625 74.21875 41.21875 74.21875 
Q 47.75 74.21875 53.53125 72.484375 
Q 59.328125 70.75 64.40625 67.28125 
z
" id="DejaVuSans-67"/>
     </defs>
     <g transform="translate(409.584125 163.244688)scale(0.08 -0.08)">
      <use xlink:href="#DejaVuSans-67"/>
      <use x="69.824219" xlink:href="#DejaVuSans-111"/>
      <use x="131.005859" xlink:href="#DejaVuSans-108"/>
      <use x="158.789062" xlink:href="#DejaVuSans-111"/>
      <use x="219.970703" xlink:href="#DejaVuSans-110"/>
      <use x="283.349609" xlink:href="#DejaVuSans-49"/>
     </g>
    </g>
    <g id="patch_227">
     <path d="M 387.184125 174.987188 
L 403.184125 174.987188 
L 403.184125 169.387188 
L 387.184125 169.387188 
z
" style="fill:#c5b0d5;"/>
    </g>
    <g id="text_39">
     <!-- Renal3 -->
     <g transform="translate(409.584125 174.987188)scale(0.08 -0.08)">
      <use xlink:href="#DejaVuSans-82"/>
      <use x="64.982422" xlink:href="#DejaVuSans-101"/>
      <use x="126.505859" xlink:href="#DejaVuSans-110"/>
      <use x="189.884766" xlink:href="#DejaVuSans-97"/>
      <use x="251.164062" xlink:href="#DejaVuSans-108"/>
      <use x="278.947266" xlink:href="#DejaVuSans-51"/>
     </g>
    </g>
    <g id="patch_228">
     <path d="M 387.184125 186.729688 
L 403.184125 186.729688 
L 403.184125 181.129688 
L 387.184125 181.129688 
z
" style="fill:#ff7f0e;"/>
    </g>
    <g id="text_40">
     <!-- Colon2 -->
     <g transform="translate(409.584125 186.729688)scale(0.08 -0.08)">
      <use xlink:href="#DejaVuSans-67"/>
      <use x="69.824219" xlink:href="#DejaVuSans-111"/>
      <use x="131.005859" xlink:href="#DejaVuSans-108"/>
      <use x="158.789062" xlink:href="#DejaVuSans-111"/>
      <use x="219.970703" xlink:href="#DejaVuSans-110"/>
      <use x="283.349609" xlink:href="#DejaVuSans-50"/>
     </g>
    </g>
   </g>
  </g>
 </g>
 <defs>
  <clipPath id="pe2faed038d">
   <rect height="190.08" width="276.48" x="48.208125" y="20.798437"/>
  </clipPath>
 </defs>
</svg>
