<?xml version="1.0" encoding="UTF-8" standalone="no"?>
<!-- Created with Inkscape (http://www.inkscape.org/) -->

<svg
   xmlns:dc="http://purl.org/dc/elements/1.1/"
   xmlns:cc="http://creativecommons.org/ns#"
   xmlns:rdf="http://www.w3.org/1999/02/22-rdf-syntax-ns#"
   xmlns:svg="http://www.w3.org/2000/svg"
   xmlns="http://www.w3.org/2000/svg"
   xmlns:sodipodi="http://sodipodi.sourceforge.net/DTD/sodipodi-0.dtd"
   xmlns:inkscape="http://www.inkscape.org/namespaces/inkscape"
   width="199.80608mm"
   height="72.841537mm"
   viewBox="0 0 199.80608 72.841537"
   version="1.1"
   id="svg8"
   sodipodi:docname="scirpy_logo.svg"
   inkscape:version="0.92.5 (2060ec1f9f, 2020-04-08)"
   inkscape:export-filename="/home/sturm/projects/2020/scirpy/docs/img/logo.png"
   inkscape:export-xdpi="35.589718"
   inkscape:export-ydpi="35.589718">
  <defs
     id="defs2" />
  <sodipodi:namedview
     id="base"
     pagecolor="#ffffff"
     bordercolor="#666666"
     borderopacity="1.0"
     inkscape:pageopacity="0.0"
     inkscape:pageshadow="2"
     inkscape:zoom="0.98994949"
     inkscape:cx="144.31093"
     inkscape:cy="84.292259"
     inkscape:document-units="mm"
     inkscape:current-layer="layer1"
     showgrid="false"
     inkscape:window-width="2560"
     inkscape:window-height="1421"
     inkscape:window-x="1600"
     inkscape:window-y="0"
     inkscape:window-maximized="0"
     showguides="true"
     inkscape:guide-bbox="true"
     fit-margin-top="0"
     fit-margin-left="0"
     fit-margin-right="0"
     fit-margin-bottom="0">
    <sodipodi:guide
       position="-82.969633,213.22569"
       orientation="0,1"
       id="guide1192"
       inkscape:locked="false" />
  </sodipodi:namedview>
  <metadata
     id="metadata5">
    <rdf:RDF>
      <cc:Work
         rdf:about="">
        <dc:format>image/svg+xml</dc:format>
        <dc:type
           rdf:resource="http://purl.org/dc/dcmitype/StillImage" />
        <dc:title></dc:title>
      </cc:Work>
    </rdf:RDF>
  </metadata>
  <g
     inkscape:label="Layer 1"
     inkscape:groupmode="layer"
     id="layer1"
     transform="translate(-6.9964183,-110.81272)">
    <flowRoot
       xml:space="preserve"
       id="flowRoot815"
       style="font-style:normal;font-variant:normal;font-weight:normal;font-stretch:normal;font-size:32px;line-height:1.25;font-family:FluxW00-Regular;-inkscape-font-specification:FluxW00-Regular;letter-spacing:0px;word-spacing:0px;fill:#000000;fill-opacity:1;stroke:none"
       transform="scale(0.26458333)"><flowRegion
         id="flowRegion817"
         style="font-style:normal;font-variant:normal;font-weight:normal;font-stretch:normal;font-family:FluxW00-Regular;-inkscape-font-specification:FluxW00-Regular"><rect
           id="rect819"
           width="297.14285"
           height="311.42856"
           x="117.14286"
           y="365.37683"
           style="font-style:normal;font-variant:normal;font-weight:normal;font-stretch:normal;font-family:FluxW00-Regular;-inkscape-font-specification:FluxW00-Regular" /></flowRegion><flowPara
         id="flowPara821" /></flowRoot>    <path
       inkscape:connector-curvature="0"
       id="path891"
       style="font-style:normal;font-variant:normal;font-weight:normal;font-stretch:normal;font-size:15.20388889px;line-height:1.25;font-family:FluxW00-Regular;-inkscape-font-specification:FluxW00-Regular;letter-spacing:0px;word-spacing:0px;fill:#b0aaaa;fill-opacity:1;stroke:none;stroke-width:0.91933203"
       d="m 6.9964183,160.1782 2.2946373,-3.70677 q 1.8534074,1.41207 4.6775824,2.47118 2.912468,0.9708 5.295347,0.9708 3.618491,0.0882 6.354407,-1.67684 2.824242,-1.76514 2.735933,-5.11887 -0.08821,-1.9416 -1.323787,-3.26545 -1.235611,-1.32385 -5.118862,-2.82416 l -3.618491,-1.32385 q -4.236305,-1.4121 -6.883928,-3.35373 -3.7068158,-2.82418 -3.7068158,-7.32521 0,-3.97156 2.2947201,-6.70749 2.3828797,-2.73594 5.5600907,-3.70674 3.177212,-1.05907 5.648367,-1.05907 5.295331,0 11.208492,3.26549 l -2.382896,3.79497 q -4.412823,-2.5594 -8.472509,-2.5594 -2.118219,-0.0882 -4.148096,0.88256 -1.9416,0.88258 -2.824158,2.38286 -0.882558,1.41215 -0.882558,2.82425 0,2.82415 3.35373,4.32453 l 7.060463,2.91243 q 5.207105,2.11814 6.883945,3.44197 3.706733,2.91247 3.706733,7.50176 -0.08821,4.41276 -2.824175,7.32521 -2.647691,2.82424 -6.266198,3.79502 -3.618474,1.0591 -6.266114,1.0591 -2.382947,0 -5.73661,-0.97085 -3.35373,-0.88256 -6.6192497,-3.3537 z" />
    <path
       inkscape:connector-curvature="0"
       id="path893"
       style="font-style:normal;font-variant:normal;font-weight:normal;font-stretch:normal;font-size:15.20388889px;line-height:1.25;font-family:FluxW00-Regular;-inkscape-font-specification:FluxW00-Regular;letter-spacing:0px;word-spacing:0px;fill:#b0aaaa;fill-opacity:1;stroke:none;stroke-width:0.91933203"
       d="m 69.128506,156.82447 1.676856,3.35373 q -6.266147,4.05974 -14.209168,4.05974 -2.647707,0 -5.383623,-1.14732 -2.73595,-1.14734 -5.03057,-3.70674 -2.294671,-2.55941 -3.795043,-6.35444 -1.500355,-3.88321 -1.500355,-8.47252 0,-3.97155 1.235611,-7.8548 1.235545,-3.88325 3.265421,-6.35444 2.02991,-2.55939 3.883268,-3.88323 3.971561,-2.73595 9.531635,-2.55942 5.560142,0.0882 10.149449,2.91246 l -1.853358,3.44198 q -2.029876,-0.97086 -4.677583,-1.58861 -2.559415,-0.6178 -4.589308,-0.5294 -3.088969,0.17643 -5.383606,2.38293 -2.206378,2.11815 -3.618508,6.00138 -1.412079,3.79501 -1.412079,8.0313 0,4.0598 1.676823,8.03128 1.676907,3.97154 4.236305,5.64838 2.559414,1.67683 5.118862,1.67683 1.412096,0 3.441989,-0.35292 2.118119,-0.35294 7.236982,-2.73592 z" />
    <path
       inkscape:connector-curvature="0"
       id="path897"
       style="font-style:normal;font-variant:normal;font-weight:normal;font-stretch:normal;font-size:15.20388889px;line-height:1.25;font-family:FluxW00-Regular;-inkscape-font-specification:FluxW00-Regular;letter-spacing:0px;word-spacing:0px;fill:#b0aaaa;fill-opacity:1;stroke:none;stroke-width:0.91933203"
       d="m 111.04498,163.44365 h -6.44272 v -32.12517 q 1.67689,-1.85334 4.1481,-3.44197 2.47116,-1.67681 5.03054,-2.55938 3.26545,-1.23563 6.26614,-1.58863 3.00075,-0.35292 6.70746,0.26471 l -2.55938,5.2071 q -2.47119,-0.5294 -3.61852,-0.5294 h -0.0882 q -5.29535,0 -9.44334,3.53022 z" />
    <path
       inkscape:connector-curvature="0"
       id="path899"
       style="font-style:normal;font-variant:normal;font-weight:normal;font-stretch:normal;font-size:15.20388889px;line-height:1.25;font-family:FluxW00-Regular;-inkscape-font-specification:FluxW00-Regular;letter-spacing:0px;word-spacing:0px;fill:#b0aaaa;fill-opacity:1;stroke:none;stroke-width:0.91933203"
       d="m 140.16934,183.65426 -6.35441,-2.29464 0.0882,-50.74716 q 0.9708,-1.32385 3.44199,-2.91245 2.5594,-1.67686 6.35443,-2.73593 3.795,-1.05905 8.20776,-1.14734 l 0.0882,0.0882 q 4.67758,-0.0882 8.03133,2.47117 3.35373,2.47111 5.29533,7.23693 1.94163,4.67757 2.02988,11.20851 0,3.70674 -0.9708,7.237 -0.97087,3.44197 -2.91245,6.17789 -1.94166,2.73595 -4.94235,4.41276 -2.91245,1.58863 -6.70743,1.67694 -5.64836,0.0882 -11.6498,-3.53029 z m -0.0882,-52.42402 v 25.15295 q 5.8249,3.61851 10.32592,3.35373 5.03062,-0.35292 7.23698,-4.14804 2.29464,-3.88327 2.29464,-11.2085 0,-15.70952 -9.09034,-16.23907 -1.76507,-0.0882 -4.05977,0.35292 -2.20638,0.35291 -4.14801,1.23554 -1.9416,0.88257 -2.55942,1.50037 z" />
    <path
       inkscape:connector-curvature="0"
       id="path901"
       style="font-style:normal;font-variant:normal;font-weight:normal;font-stretch:normal;font-size:15.20388889px;line-height:1.25;font-family:FluxW00-Regular;-inkscape-font-specification:FluxW00-Regular;letter-spacing:0px;word-spacing:0px;fill:#b0aaaa;fill-opacity:1;stroke:none;stroke-width:0.91933203"
       d="m 185.70933,183.47772 -1.05909,-4.05978 q 5.73664,-0.79427 8.3843,-1.67684 2.6477,-0.88256 4.0598,-2.20641 1.50037,-1.23553 2.20641,-2.55938 1.41208,-2.64771 1.41208,-10.14945 v -1.67684 q -3.53026,1.58859 -6.88393,2.29463 -3.26552,0.70606 -6.97225,0.70606 -2.1181,0 -4.76579,-0.88257 -2.55943,-0.9708 -4.41284,-2.73595 -1.76507,-1.85335 -2.55942,-3.79501 -0.70604,-2.02988 -0.70604,-3.88324 v -26.82979 l 6.53096,-2.20641 v 27.09459 -0.0882 q 0,3.17721 1.58862,5.38362 1.67684,2.11812 3.97146,2.82417 2.38296,0.70609 4.41284,0.70609 2.20634,-0.0882 4.94234,-1.1473 2.73593,-1.05911 4.50101,-2.29472 V 124.7877 h 6.4427 v 35.03756 q 0,10.76718 -2.11818,14.82696 -2.20635,4.14805 -7.76649,6.35444 -5.56011,2.29462 -11.20849,2.47116 z" />
    <g
       id="g1248">
      <path
         style="font-style:normal;font-weight:normal;font-size:32px;line-height:1.25;font-family:sans-serif;letter-spacing:0px;word-spacing:0px;opacity:1;vector-effect:none;fill:#f8a330;fill-opacity:1;stroke:none;stroke-width:8.77859592;stroke-linecap:butt;stroke-linejoin:round;stroke-miterlimit:4;stroke-dasharray:none;stroke-dashoffset:0;stroke-opacity:1;paint-order:markers stroke fill"
         d="m 303.26953,469.89844 v 60.04101 h 24.84766 l -0.45117,-49.35156 c -9.21976,-0.51818 -17.35157,-4.08248 -24.39649,-10.68945 z"
         transform="scale(0.26458333)"
         id="rect1085"
         inkscape:connector-curvature="0" />
      <path
         style="font-style:normal;font-weight:normal;font-size:32px;line-height:1.25;font-family:sans-serif;letter-spacing:0px;word-spacing:0px;opacity:1;vector-effect:none;fill:#ed1480;fill-opacity:1;stroke:none;stroke-width:8.78216171;stroke-linecap:butt;stroke-linejoin:round;stroke-miterlimit:4;stroke-dasharray:none;stroke-dashoffset:0;stroke-opacity:1;paint-order:markers stroke fill"
         d="m 357.15039,470.36914 c -7.12802,6.46096 -15.5605,9.87676 -25.29687,10.25195 l 0.44921,49.31836 h 24.84766 z"
         transform="scale(0.26458333)"
         id="rect1085-8"
         inkscape:connector-curvature="0" />
      <path
         inkscape:connector-curvature="0"
         id="rect904-7"
         d="m 87.921876,141.71353 v 21.90277 h 6.109426 c 0.257544,0 0.464968,-0.34504 0.464968,-0.77405 v -21.12872 z"
         style="font-style:normal;font-weight:normal;font-size:32px;line-height:1.25;font-family:sans-serif;letter-spacing:0px;word-spacing:0px;opacity:1;vector-effect:none;fill:#ed1480;fill-opacity:1;stroke:none;stroke-width:1.19935358;stroke-linecap:butt;stroke-linejoin:round;stroke-miterlimit:4;stroke-dasharray:none;stroke-dashoffset:0;stroke-opacity:1;paint-order:stroke fill markers" />
      <path
         inkscape:connector-curvature="0"
         id="rect904"
         d="m 80.239806,141.71353 v 21.12872 c 0,0.42901 0.207425,0.77405 0.464952,0.77405 h 6.109426 v -21.90277 z"
         style="font-style:normal;font-weight:normal;font-size:32px;line-height:1.25;font-family:sans-serif;letter-spacing:0px;word-spacing:0px;opacity:1;vector-effect:none;fill:#f8a330;fill-opacity:1;stroke:none;stroke-width:1.19935358;stroke-linecap:butt;stroke-linejoin:round;stroke-miterlimit:4;stroke-dasharray:none;stroke-dashoffset:0;stroke-opacity:1;paint-order:stroke fill markers" />
    </g>
    <path
       inkscape:connector-curvature="0"
       id="path1089"
       d="m 81.692583,116.54791 v -0.1195 q 0,-2.27016 1.672796,-3.94298 1.672746,-1.67271 4.06243,-1.67271 2.270242,0 3.94297,1.67271 1.672714,1.67282 1.672714,4.06242 0,2.27024 -1.672714,3.94299 -1.672729,1.67279 -4.062414,1.67279 -2.27024,0 -3.942986,-1.67279 -1.672796,-1.67275 -1.672796,-3.94299 z"
       style="font-style:normal;font-variant:normal;font-weight:normal;font-stretch:normal;font-size:15.20388889px;line-height:1.25;font-family:FluxW00-Regular;-inkscape-font-specification:FluxW00-Regular;letter-spacing:0px;word-spacing:0px;fill:#b0aaaa;fill-opacity:1;stroke:none;stroke-width:1.24461722" />
  </g>
</svg>
